<svg width="2705" height="1610" xmlns="http://www.w3.org/2000/svg" xmlns:xlink="http://www.w3.org/1999/xlink" xml:space="preserve" overflow="hidden"><defs><clipPath id="clip0"><rect x="705" y="1628" width="2705" height="1610"/></clipPath><clipPath id="clip1"><rect x="704" y="1627" width="2705" height="1611"/></clipPath><clipPath id="clip2"><rect x="1004" y="1681" width="2111" height="1321"/></clipPath><clipPath id="clip3"><rect x="1004" y="1681" width="2111" height="1321"/></clipPath><clipPath id="clip4"><rect x="704" y="1627" width="2705" height="1611"/></clipPath><clipPath id="clip5"><rect x="1004" y="1681" width="2111" height="1321"/></clipPath><clipPath id="clip6"><rect x="704" y="1627" width="2705" height="1611"/></clipPath><clipPath id="clip7"><rect x="704" y="1627" width="2705" height="1611"/></clipPath><clipPath id="clip8"><rect x="704" y="1627" width="2705" height="1611"/></clipPath><clipPath id="clip9"><rect x="704" y="1627" width="2705" height="1611"/></clipPath><clipPath id="clip10"><rect x="704" y="1627" width="2705" height="1611"/></clipPath><clipPath id="clip11"><rect x="704" y="1627" width="2705" height="1611"/></clipPath><clipPath id="clip12"><rect x="704" y="1627" width="2705" height="1611"/></clipPath><clipPath id="clip13"><rect x="704" y="1627" width="2705" height="1611"/></clipPath><clipPath id="clip14"><rect x="704" y="1627" width="2705" height="1611"/></clipPath><clipPath id="clip15"><rect x="704" y="1627" width="2705" height="1611"/></clipPath><clipPath id="clip16"><rect x="704" y="1627" width="2705" height="1611"/></clipPath><clipPath id="clip17"><rect x="704" y="1627" width="2705" height="1611"/></clipPath><clipPath id="clip18"><rect x="704" y="1627" width="2705" height="1611"/></clipPath><clipPath id="clip19"><rect x="704" y="1627" width="2705" height="1611"/></clipPath><clipPath id="clip20"><rect x="704" y="1627" width="2705" height="1611"/></clipPath><clipPath id="clip21"><rect x="704" y="1627" width="2705" height="1611"/></clipPath><clipPath id="clip22"><rect x="704" y="1627" width="2705" height="1611"/></clipPath><clipPath id="clip23"><rect x="704" y="1627" width="2705" height="1611"/></clipPath><clipPath id="clip24"><rect x="704" y="1627" width="2705" height="1611"/></clipPath><clipPath id="clip25"><rect x="704" y="1627" width="2705" height="1611"/></clipPath><clipPath id="clip26"><rect x="704" y="1627" width="2705" height="1611"/></clipPath><clipPath id="clip27"><rect x="704" y="1627" width="2705" height="1611"/></clipPath><clipPath id="clip28"><rect x="704" y="1627" width="2705" height="1611"/></clipPath><clipPath id="clip29"><rect x="704" y="1627" width="2705" height="1611"/></clipPath><clipPath id="clip30"><rect x="704" y="1627" width="2705" height="1611"/></clipPath><clipPath id="clip31"><rect x="704" y="1627" width="2705" height="1611"/></clipPath><clipPath id="clip32"><rect x="704" y="1627" width="2705" height="1611"/></clipPath><clipPath id="clip33"><rect x="704" y="1627" width="2705" height="1611"/></clipPath><clipPath id="clip34"><rect x="704" y="1627" width="2705" height="1611"/></clipPath><clipPath id="clip35"><rect x="704" y="1627" width="2705" height="1611"/></clipPath><clipPath id="clip36"><rect x="704" y="1627" width="2705" height="1611"/></clipPath><clipPath id="clip37"><rect x="704" y="1627" width="2705" height="1611"/></clipPath><clipPath id="clip38"><rect x="704" y="1627" width="2705" height="1611"/></clipPath><clipPath id="clip39"><rect x="704" y="1627" width="2705" height="1611"/></clipPath><clipPath id="clip40"><rect x="704" y="1627" width="2705" height="1611"/></clipPath></defs><g clip-path="url(#clip0)" transform="translate(-705 -1628)"><rect x="705" y="1628" width="2705" height="1610" fill="#FFFFFF"/><g clip-path="url(#clip1)"><path d="M1004.5 2834.59 3112.5 2834.59M1004.5 2669.59 3112.5 2669.59M1004.5 2504.58 3112.5 2504.58M1004.5 2340.58 3112.5 2340.58M1004.5 2175.57 3112.5 2175.57M1004.5 2010.57 3112.5 2010.57M1004.5 1845.56 3112.5 1845.56M1004.5 1681.5 3112.5 1681.5" stroke="#D9D9D9" stroke-width="3.4375" stroke-linejoin="round" stroke-miterlimit="10" fill="none"/></g><g clip-path="url(#clip2)"><path d="M1055.03 1918.06 1155.04 1918.06 1155.04 2999 1055.03 2999ZM1356.04 2057.07 1456.05 2057.07 1456.05 2999 1356.04 2999ZM1657.05 1831.06 1757.06 1831.06 1757.06 2999 1657.05 2999ZM1958.06 1769.06 2058.07 1769.06 2058.07 2999 1958.06 2999ZM2259.07 2757.09 2359.08 2757.09 2359.08 2999 2259.07 2999ZM2560.08 2615.09 2661.09 2615.09 2661.09 2999 2560.08 2999ZM2861.09 2837.09 2962.1 2837.09 2962.1 2999 2861.09 2999Z" fill="#5985B1"/></g><g clip-path="url(#clip3)"><path d="M1155.04 2739.09 1255.04 2739.09 1255.04 2999 1155.04 2999ZM1456.05 2790.09 1556.05 2790.09 1556.05 2999 1456.05 2999ZM1757.06 2780.09 1858.06 2780.09 1858.06 2999 1757.06 2999ZM2058.07 2720.09 2159.07 2720.09 2159.07 2999 2058.07 2999ZM2359.08 2747.09 2460.08 2747.09 2460.08 2999 2359.08 2999ZM2661.09 2963.1 2761.09 2963.1 2761.09 2999 2661.09 2999ZM2962.1 2958.1 3062.1 2958.1 3062.1 2999 2962.1 2999Z" fill="#BFD1EB"/></g><g clip-path="url(#clip4)"><path d="M1004.5 2998.5 3112.5 2998.5" stroke="#D9D9D9" stroke-width="3.4375" stroke-linejoin="round" stroke-miterlimit="10" fill="none" fill-rule="evenodd"/></g><g clip-path="url(#clip5)"><path d="M1155 1937.06 1456.05 1921.06 1757.06 1889.06 2058.07 1924.06 2359.08 2353 2661.09 1795 2962 1949.06" stroke="#1F4E79" stroke-width="10.3125" stroke-linecap="round" stroke-linejoin="round" stroke-miterlimit="10" fill="none"/></g><g clip-path="url(#clip6)"><text fill="#595959" font-family="Calibri,Calibri_MSFontService,sans-serif" font-weight="400" font-size="50" transform="matrix(1 0 0 1 3159.11 3013)">0%</text></g><g clip-path="url(#clip7)"><text fill="#595959" font-family="Calibri,Calibri_MSFontService,sans-serif" font-weight="400" font-size="50" transform="matrix(1 0 0 1 3159.11 2882)">10%</text></g><g clip-path="url(#clip8)"><text fill="#595959" font-family="Calibri,Calibri_MSFontService,sans-serif" font-weight="400" font-size="50" transform="matrix(1 0 0 1 3159.11 2750)">20%</text></g><g clip-path="url(#clip9)"><text fill="#595959" font-family="Calibri,Calibri_MSFontService,sans-serif" font-weight="400" font-size="50" transform="matrix(1 0 0 1 3159.11 2618)">30%</text></g><g clip-path="url(#clip10)"><text fill="#595959" font-family="Calibri,Calibri_MSFontService,sans-serif" font-weight="400" font-size="50" transform="matrix(1 0 0 1 3159.11 2486)">40%</text></g><g clip-path="url(#clip11)"><text fill="#595959" font-family="Calibri,Calibri_MSFontService,sans-serif" font-weight="400" font-size="50" transform="matrix(1 0 0 1 3159.11 2355)">50%</text></g><g clip-path="url(#clip12)"><text fill="#595959" font-family="Calibri,Calibri_MSFontService,sans-serif" font-weight="400" font-size="50" transform="matrix(1 0 0 1 3159.11 2223)">60%</text></g><g clip-path="url(#clip13)"><text fill="#595959" font-family="Calibri,Calibri_MSFontService,sans-serif" font-weight="400" font-size="50" transform="matrix(1 0 0 1 3159.11 2091)">70%</text></g><g clip-path="url(#clip14)"><text fill="#595959" font-family="Calibri,Calibri_MSFontService,sans-serif" font-weight="400" font-size="50" transform="matrix(1 0 0 1 3159.11 1959)">80%</text></g><g clip-path="url(#clip15)"><text fill="#595959" font-family="Calibri,Calibri_MSFontService,sans-serif" font-weight="400" font-size="50" transform="matrix(1 0 0 1 3159.11 1828)">90%</text></g><g clip-path="url(#clip16)"><text fill="#595959" font-family="Calibri,Calibri_MSFontService,sans-serif" font-weight="400" font-size="50" transform="matrix(1 0 0 1 3159.11 1696)">100%</text></g><g clip-path="url(#clip17)"><text fill="#595959" font-family="Calibri,Calibri_MSFontService,sans-serif" font-weight="400" font-size="50" transform="matrix(1 0 0 1 932.113 3013)">0</text></g><g clip-path="url(#clip18)"><text fill="#595959" font-family="Calibri,Calibri_MSFontService,sans-serif" font-weight="400" font-size="50" transform="matrix(1 0 0 1 842.875 2849)">1,000</text></g><g clip-path="url(#clip19)"><text fill="#595959" font-family="Calibri,Calibri_MSFontService,sans-serif" font-weight="400" font-size="50" transform="matrix(1 0 0 1 842.875 2684)">2,000</text></g><g clip-path="url(#clip20)"><text fill="#595959" font-family="Calibri,Calibri_MSFontService,sans-serif" font-weight="400" font-size="50" transform="matrix(1 0 0 1 842.875 2519)">3,000</text></g><g clip-path="url(#clip21)"><text fill="#595959" font-family="Calibri,Calibri_MSFontService,sans-serif" font-weight="400" font-size="50" transform="matrix(1 0 0 1 842.875 2355)">4,000</text></g><g clip-path="url(#clip22)"><text fill="#595959" font-family="Calibri,Calibri_MSFontService,sans-serif" font-weight="400" font-size="50" transform="matrix(1 0 0 1 842.875 2190)">5,000</text></g><g clip-path="url(#clip23)"><text fill="#595959" font-family="Calibri,Calibri_MSFontService,sans-serif" font-weight="400" font-size="50" transform="matrix(1 0 0 1 842.875 2025)">6,000</text></g><g clip-path="url(#clip24)"><text fill="#595959" font-family="Calibri,Calibri_MSFontService,sans-serif" font-weight="400" font-size="50" transform="matrix(1 0 0 1 842.875 1860)">7,000</text></g><g clip-path="url(#clip25)"><text fill="#595959" font-family="Calibri,Calibri_MSFontService,sans-serif" font-weight="400" font-size="50" transform="matrix(1 0 0 1 842.875 1696)">8,000</text></g><g clip-path="url(#clip26)"><text fill="#595959" font-family="Calibri,Calibri_MSFontService,sans-serif" font-weight="400" font-size="50" transform="matrix(1 0 0 1 1040.47 3079)">Europe/CIS</text></g><g clip-path="url(#clip27)"><text fill="#595959" font-family="Calibri,Calibri_MSFontService,sans-serif" font-weight="400" font-size="50" transform="matrix(1 0 0 1 1305.82 3079)">North America</text></g><g clip-path="url(#clip28)"><text fill="#595959" font-family="Calibri,Calibri_MSFontService,sans-serif" font-weight="400" font-size="50" transform="matrix(1 0 0 1 1699.46 3079)">China</text></g><g clip-path="url(#clip29)"><text fill="#595959" font-family="Calibri,Calibri_MSFontService,sans-serif" font-weight="400" font-size="50" transform="matrix(1 0 0 1 1942.68 3079)">Asia-Pacific</text></g><g clip-path="url(#clip30)"><text fill="#595959" font-family="Calibri,Calibri_MSFontService,sans-serif" font-weight="400" font-size="50" transform="matrix(1 0 0 1 2238.97 3079)">Middle East</text></g><g clip-path="url(#clip31)"><text fill="#595959" font-family="Calibri,Calibri_MSFontService,sans-serif" font-weight="400" font-size="50" transform="matrix(1 0 0 1 2520.22 3079)">Latin America</text></g><g clip-path="url(#clip32)"><text fill="#595959" font-family="Calibri,Calibri_MSFontService,sans-serif" font-weight="400" font-size="50" transform="matrix(1 0 0 1 2902.18 3079)">Africa</text></g><g clip-path="url(#clip33)"><text fill="#595959" font-family="Calibri,Calibri_MSFontService,sans-serif" font-weight="400" font-size="55" transform="matrix(6.12323e-17 -1 1 6.12323e-17 3337.56 2703)">Proportion of single aisle aircraft</text></g><g clip-path="url(#clip34)"><text fill="#595959" font-family="Calibri,Calibri_MSFontService,sans-serif" font-weight="400" font-size="55" transform="matrix(6.12323e-17 -1 1 6.12323e-17 813.977 2547)">Number of aircraft</text></g><g clip-path="url(#clip35)"><rect x="1351" y="3153" width="88" height="27.0002" fill="#5985B1"/></g><g clip-path="url(#clip36)"><text fill="#595959" font-family="Calibri,Calibri_MSFontService,sans-serif" font-weight="400" font-size="50" transform="matrix(1 0 0 1 1448.21 3181)"> Single Aisle</text></g><g clip-path="url(#clip37)"><rect x="1768" y="3153" width="88" height="27.0002" fill="#BFD1EB"/></g><g clip-path="url(#clip38)"><text fill="#595959" font-family="Calibri,Calibri_MSFontService,sans-serif" font-weight="400" font-size="50" transform="matrix(1 0 0 1 1865.29 3181)"> Widebody</text></g><g clip-path="url(#clip39)"><path d="M2165 3166 2253 3166" stroke="#1F4E79" stroke-width="10.3125" stroke-linecap="round" stroke-linejoin="round" stroke-miterlimit="10" fill="none" fill-rule="evenodd"/></g><g clip-path="url(#clip40)"><text fill="#595959" font-family="Calibri,Calibri_MSFontService,sans-serif" font-weight="400" font-size="50" transform="matrix(1 0 0 1 2262.61 3181)">Proportion of Single Aisle</text></g></g></svg>