<svg width="3007" height="1635" xmlns="http://www.w3.org/2000/svg" xmlns:xlink="http://www.w3.org/1999/xlink" xml:space="preserve" overflow="hidden"><defs><clipPath id="clip0"><rect x="673" y="1781" width="3007" height="1635"/></clipPath><clipPath id="clip1"><rect x="673" y="1781" width="3006" height="1634"/></clipPath></defs><g clip-path="url(#clip0)" transform="translate(-673 -1781)"><rect x="673" y="1782" width="3007" height="1634" fill="#FFFFFF"/><g><path d="M959.5 2838.59 3046.5 2838.59M959.5 2504.58 3046.5 2504.58M959.5 2170.57 3046.5 2170.57M959.5 1836.5 3046.5 1836.5" stroke="#D9D9D9" stroke-width="3.4375" stroke-linejoin="round" stroke-miterlimit="10" fill="none"/></g><g><path d="M973.032 2077.07 1109.04 2077.07 1109.04 3173 973.032 3173ZM1271.04 2217.07 1407.05 2217.07 1407.05 3173 1271.04 3173ZM1569.05 1988.07 1705.06 1988.07 1705.06 3173 1569.05 3173ZM1868.06 1925.06 2003.07 1925.06 2003.07 3173 1868.06 3173ZM2166.07 2927.1 2301.08 2927.1 2301.08 3173 2166.07 3173ZM2464.08 2784.09 2600.09 2784.09 2600.09 3173 2464.08 3173ZM2762.09 3009.1 2898.1 3009.1 2898.1 3173 2762.09 3173Z" fill="#4F81BD"/></g><g><path d="M1109.04 2909.1 1244.04 2909.1 1244.04 3173 1109.04 3173ZM1407.05 2961.1 1542.05 2961.1 1542.05 3173 1407.05 3173ZM1705.06 2951.1 1841.06 2951.1 1841.06 3173 1705.06 3173ZM2003.07 2890.09 2139.07 2890.09 2139.07 3173 2003.07 3173ZM2301.08 2917.1 2437.08 2917.1 2437.08 3173 2301.08 3173ZM2600.09 3136.1 2735.09 3136.1 2735.09 3173 2600.09 3173ZM2898.1 3131.1 3033.1 3131.1 3033.1 3173 2898.1 3173Z" fill="#BFD1EB"/></g><g><path d="M959.5 3172.5 3046.5 3172.5" stroke="#D9D9D9" stroke-width="3.4375" stroke-linejoin="round" stroke-miterlimit="10" fill="none" fill-rule="evenodd"/></g><g><path d="M1109 2095.6C1208.39 2090.06 1307.78 2087.05 1407.17 2078.99 1506.56 2070.94 1605.94 2046.63 1705.33 2047.25 1804.72 2047.88 1904.11 2004.28 2003.5 2082.75 2102.89 2161.23 2202.28 2540 2301.67 2518.1 2401.06 2496.21 2500.44 2019.76 2599.83 1951.38 2699.22 1883 2798.61 2055.68 2898 2107.83" stroke="#B3D235" stroke-width="10.3125" stroke-linecap="round" stroke-linejoin="round" stroke-miterlimit="10" fill="none"/></g><g><path d="M1125.3 2095.89C1125.3 2104.73 1118.14 2111.89 1109.3 2111.89 1100.47 2111.89 1093.3 2104.73 1093.3 2095.89 1093.3 2087.06 1100.47 2079.9 1109.3 2079.9 1118.14 2079.9 1125.3 2087.06 1125.3 2095.89Z" fill="#B3D235"/><path d="M1423.3 2078.9C1423.3 2087.73 1416.14 2094.89 1407.3 2094.89 1398.47 2094.89 1391.3 2087.73 1391.3 2078.9 1391.3 2070.06 1398.47 2062.9 1407.3 2062.9 1416.14 2062.9 1423.3 2070.06 1423.3 2078.9Z" fill="#B3D235"/><path d="M1721.3 2046.89C1721.3 2055.73 1714.14 2062.89 1705.3 2062.89 1696.47 2062.89 1689.3 2055.73 1689.3 2046.89 1689.3 2038.06 1696.47 2030.89 1705.3 2030.89 1714.14 2030.89 1721.3 2038.06 1721.3 2046.89Z" fill="#B3D235"/><path d="M2019.3 2082.89C2019.3 2091.73 2012.14 2098.89 2003.3 2098.89 1994.46 2098.89 1987.3 2091.73 1987.3 2082.89 1987.3 2074.06 1994.46 2066.9 2003.3 2066.9 2012.14 2066.9 2019.3 2074.06 2019.3 2082.89Z" fill="#B3D235"/><path d="M2317.3 2517.9C2317.3 2526.73 2310.14 2533.89 2301.3 2533.89 2292.47 2533.89 2285.3 2526.73 2285.3 2517.9 2285.3 2509.06 2292.47 2501.9 2301.3 2501.9 2310.14 2501.9 2317.3 2509.06 2317.3 2517.9Z" fill="#B3D235"/><path d="M2616.3 1951.89C2616.3 1960.73 2609.14 1967.89 2600.3 1967.89 2591.47 1967.89 2584.3 1960.73 2584.3 1951.89 2584.3 1943.06 2591.47 1935.9 2600.3 1935.9 2609.14 1935.9 2616.3 1943.06 2616.3 1951.89Z" fill="#B3D235"/><path d="M2914.3 2107.89C2914.3 2116.73 2907.14 2123.89 2898.3 2123.89 2889.47 2123.89 2882.3 2116.73 2882.3 2107.89 2882.3 2099.06 2889.47 2091.9 2898.3 2091.9 2907.14 2091.9 2914.3 2099.06 2914.3 2107.89Z" fill="#B3D235"/></g><g><text fill="#FFFFFF" font-family="Calibri,Calibri_MSFontService,sans-serif" font-weight="400" font-size="64" transform="matrix(6.12323e-17 -1 1 6.12323e-17 1062.68 3145)">6,560</text></g><g><text fill="#FFFFFF" font-family="Calibri,Calibri_MSFontService,sans-serif" font-weight="400" font-size="64" transform="matrix(6.12323e-17 -1 1 6.12323e-17 1360.89 3145)">5,720</text></g><g><text fill="#FFFFFF" font-family="Calibri,Calibri_MSFontService,sans-serif" font-weight="400" font-size="64" transform="matrix(6.12323e-17 -1 1 6.12323e-17 1659.1 3145)">7,090</text></g><g><text fill="#FFFFFF" font-family="Calibri,Calibri_MSFontService,sans-serif" font-weight="400" font-size="64" transform="matrix(6.12323e-17 -1 1 6.12323e-17 1957.31 3145)">7,470</text></g><g><text fill="#FFFFFF" font-family="Calibri,Calibri_MSFontService,sans-serif" font-weight="400" font-size="64" transform="matrix(6.12323e-17 -1 1 6.12323e-17 2255.52 3145)">1,470</text></g><g><text fill="#FFFFFF" font-family="Calibri,Calibri_MSFontService,sans-serif" font-weight="400" font-size="64" transform="matrix(6.12323e-17 -1 1 6.12323e-17 2553.72 3145)">2,330</text></g><g><text fill="#FFFFFF" font-family="Calibri,Calibri_MSFontService,sans-serif" font-weight="400" font-size="64" transform="matrix(6.12323e-17 -1 1 6.12323e-17 2851.93 3145)">980</text></g><g><text fill="#404040" font-family="Calibri,Calibri_MSFontService,sans-serif" font-weight="400" font-size="64" transform="matrix(6.12323e-17 -1 1 6.12323e-17 1198.23 3145)">1,580</text></g><g><text fill="#404040" font-family="Calibri,Calibri_MSFontService,sans-serif" font-weight="400" font-size="64" transform="matrix(6.12323e-17 -1 1 6.12323e-17 1496.44 3145)">1,270</text></g><g><text fill="#404040" font-family="Calibri,Calibri_MSFontService,sans-serif" font-weight="400" font-size="64" transform="matrix(6.12323e-17 -1 1 6.12323e-17 1794.65 3145)">1,330</text></g><g><text fill="#404040" font-family="Calibri,Calibri_MSFontService,sans-serif" font-weight="400" font-size="64" transform="matrix(6.12323e-17 -1 1 6.12323e-17 2092.86 3145)">1,690</text></g><g><text fill="#404040" font-family="Calibri,Calibri_MSFontService,sans-serif" font-weight="400" font-size="64" transform="matrix(6.12323e-17 -1 1 6.12323e-17 2391.06 3145)">1,530</text></g><g><text fill="#404040" font-family="Calibri,Calibri_MSFontService,sans-serif" font-weight="400" font-size="64" transform="matrix(6.12323e-17 -1 1 6.12323e-17 2689.27 3145)">220</text></g><g><text fill="#404040" font-family="Calibri,Calibri_MSFontService,sans-serif" font-weight="400" font-size="64" transform="matrix(6.12323e-17 -1 1 6.12323e-17 2987.48 3145)">250</text></g><g><text fill="#00205B" font-family="Calibri,Calibri_MSFontService,sans-serif" font-weight="400" font-size="60" transform="matrix(1 0 0 1 1057.11 2043)">81%</text></g><g><text fill="#00205B" font-family="Calibri,Calibri_MSFontService,sans-serif" font-weight="400" font-size="60" transform="matrix(1 0 0 1 1355.32 2027)">82%</text></g><g><text fill="#00205B" font-family="Calibri,Calibri_MSFontService,sans-serif" font-weight="400" font-size="60" transform="matrix(1 0 0 1 1653.53 1995)">84%</text></g><g><text fill="#00205B" font-family="Calibri,Calibri_MSFontService,sans-serif" font-weight="400" font-size="60" transform="matrix(1 0 0 1 1951.74 2031)">82%</text></g><g><text fill="#00205B" font-family="Calibri,Calibri_MSFontService,sans-serif" font-weight="400" font-size="60" transform="matrix(1 0 0 1 2249.95 2466)">49%</text></g><g><text fill="#00205B" font-family="Calibri,Calibri_MSFontService,sans-serif" font-weight="400" font-size="60" transform="matrix(1 0 0 1 2548.15 1899)">91%</text></g><g><text fill="#00205B" font-family="Calibri,Calibri_MSFontService,sans-serif" font-weight="400" font-size="60" transform="matrix(1 0 0 1 2846.36 2056)">80%</text></g><g><text fill="#595959" font-family="Calibri,Calibri_MSFontService,sans-serif" font-weight="400" font-size="64" transform="matrix(1 0 0 1 3106.5 3191)">0%</text></g><g><text fill="#595959" font-family="Calibri,Calibri_MSFontService,sans-serif" font-weight="400" font-size="64" transform="matrix(1 0 0 1 3106.5 2924)">20%</text></g><g><text fill="#595959" font-family="Calibri,Calibri_MSFontService,sans-serif" font-weight="400" font-size="64" transform="matrix(1 0 0 1 3106.5 2657)">40%</text></g><g><text fill="#595959" font-family="Calibri,Calibri_MSFontService,sans-serif" font-weight="400" font-size="64" transform="matrix(1 0 0 1 3106.5 2389)">60%</text></g><g><text fill="#595959" font-family="Calibri,Calibri_MSFontService,sans-serif" font-weight="400" font-size="64" transform="matrix(1 0 0 1 3106.5 2122)">80%</text></g><g><text fill="#595959" font-family="Calibri,Calibri_MSFontService,sans-serif" font-weight="400" font-size="64" transform="matrix(1 0 0 1 3106.5 1855)">100%</text></g><g><text fill="#595959" font-family="Calibri,Calibri_MSFontService,sans-serif" font-weight="400" font-size="64" transform="matrix(1 0 0 1 867.461 3191)">0</text></g><g><text fill="#595959" font-family="Calibri,Calibri_MSFontService,sans-serif" font-weight="400" font-size="64" transform="matrix(1 0 0 1 753.885 2857)">2,000</text></g><g><text fill="#595959" font-family="Calibri,Calibri_MSFontService,sans-serif" font-weight="400" font-size="64" transform="matrix(1 0 0 1 753.885 2523)">4,000</text></g><g><text fill="#595959" font-family="Calibri,Calibri_MSFontService,sans-serif" font-weight="400" font-size="64" transform="matrix(1 0 0 1 753.885 2189)">6,000</text></g><g><text fill="#595959" font-family="Calibri,Calibri_MSFontService,sans-serif" font-weight="400" font-size="64" transform="matrix(1 0 0 1 753.885 1855)">8,000</text></g><g><text fill="#595959" font-family="Calibri,Calibri_MSFontService,sans-serif" font-weight="400" font-size="64" transform="matrix(1 0 0 1 962.852 3275)">Europe/CIS</text></g><g><text fill="#595959" font-family="Calibri,Calibri_MSFontService,sans-serif" font-weight="400" font-size="64" transform="matrix(1 0 0 1 1330.41 3275)">North</text></g><g><text fill="#595959" font-family="Calibri,Calibri_MSFontService,sans-serif" font-weight="400" font-size="64" transform="matrix(1 0 0 1 1299.18 3353)">America</text></g><g><text fill="#595959" font-family="Calibri,Calibri_MSFontService,sans-serif" font-weight="400" font-size="64" transform="matrix(1 0 0 1 1631.48 3275)">China</text></g><g><text fill="#595959" font-family="Calibri,Calibri_MSFontService,sans-serif" font-weight="400" font-size="64" transform="matrix(1 0 0 1 1855.99 3275)">Asia-Pacific</text></g><g><text fill="#595959" font-family="Calibri,Calibri_MSFontService,sans-serif" font-weight="400" font-size="64" transform="matrix(1 0 0 1 2209.61 3275)">Middle</text></g><g><text fill="#595959" font-family="Calibri,Calibri_MSFontService,sans-serif" font-weight="400" font-size="64" transform="matrix(1 0 0 1 2247.13 3353)">East</text></g><g><text fill="#595959" font-family="Calibri,Calibri_MSFontService,sans-serif" font-weight="400" font-size="64" transform="matrix(1 0 0 1 2535.84 3275)">Latin</text></g><g><text fill="#595959" font-family="Calibri,Calibri_MSFontService,sans-serif" font-weight="400" font-size="64" transform="matrix(1 0 0 1 2492.02 3353)">America</text></g><g><text fill="#595959" font-family="Calibri,Calibri_MSFontService,sans-serif" font-weight="400" font-size="64" transform="matrix(1 0 0 1 2822.04 3275)">Africa</text></g><g><text fill="#595959" font-family="Calibri,Calibri_MSFontService,sans-serif" font-weight="400" font-size="64" transform="matrix(6.12323e-17 -1 1 6.12323e-17 3306.48 2444)">Proportion of single aisle </text></g><g><text fill="#595959" font-family="Calibri,Calibri_MSFontService,sans-serif" font-weight="400" font-size="64" transform="matrix(6.12323e-17 -1 1 6.12323e-17 745.265 2288)">Number of aircraft</text></g><g clip-path="url(#clip1)"><rect x="3233" y="2498" width="447" height="685" fill="#F2F2F2"/></g><g><rect x="3265" y="2517" width="88" height="35" fill="#4F81BD"/></g><g><text fill="#595959" font-family="Calibri,Calibri_MSFontService,sans-serif" font-weight="400" font-size="64" transform="matrix(1 0 0 1 3362.45 2553)"> Single aisle</text></g><g><rect x="3265" y="2745" width="88" height="35" fill="#BFD1EB"/></g><g><text fill="#595959" font-family="Calibri,Calibri_MSFontService,sans-serif" font-weight="400" font-size="64" transform="matrix(1 0 0 1 3362.45 2781)"> Widebody</text></g><g><path d="M3265 2991 3353 2991" stroke="#B3D235" stroke-width="10.3125" stroke-linecap="round" stroke-linejoin="round" stroke-miterlimit="10" fill="none" fill-rule="evenodd"/></g><g><path d="M3325 2991C3325 2999.84 3317.84 3007 3309 3007 3300.16 3007 3293 2999.84 3293 2991 3293 2982.16 3300.16 2975 3309 2975 3317.84 2975 3325 2982.16 3325 2991Z" fill="#B3D235"/></g><g><text fill="#595959" font-family="Calibri,Calibri_MSFontService,sans-serif" font-weight="400" font-size="64" transform="matrix(1 0 0 1 3362.45 3010)">Proportion</text></g><g><text fill="#595959" font-family="Calibri,Calibri_MSFontService,sans-serif" font-weight="400" font-size="64" transform="matrix(1 0 0 1 3362.45 3088)">of single</text></g><g><text fill="#595959" font-family="Calibri,Calibri_MSFontService,sans-serif" font-weight="400" font-size="64" transform="matrix(1 0 0 1 3362.45 3166)">aisle</text></g></g></svg>