<svg width="3148" height="1546" xmlns="http://www.w3.org/2000/svg" xmlns:xlink="http://www.w3.org/1999/xlink" xml:space="preserve" overflow="hidden"><defs><clipPath id="clip0"><rect x="1725" y="1546" width="3148" height="1546"/></clipPath><clipPath id="clip1"><rect x="1725" y="1546" width="3145" height="1544"/></clipPath><clipPath id="clip2"><rect x="1725" y="1546" width="3145" height="1544"/></clipPath><clipPath id="clip3"><rect x="1970" y="1603" width="2853" height="1056"/></clipPath><clipPath id="clip4"><rect x="1970" y="1603" width="2853" height="1056"/></clipPath><clipPath id="clip5"><rect x="1970" y="1603" width="2853" height="1056"/></clipPath><clipPath id="clip6"><rect x="1970" y="1603" width="2853" height="1056"/></clipPath><clipPath id="clip7"><rect x="1970" y="1603" width="2853" height="1056"/></clipPath><clipPath id="clip8"><rect x="1970" y="1603" width="2853" height="1056"/></clipPath><clipPath id="clip9"><rect x="1970" y="1603" width="2853" height="1056"/></clipPath><clipPath id="clip10"><rect x="1970" y="1603" width="2853" height="1056"/></clipPath><clipPath id="clip11"><rect x="1725" y="1546" width="3145" height="1544"/></clipPath><clipPath id="clip12"><rect x="1725" y="1546" width="3145" height="1544"/></clipPath><clipPath id="clip13"><rect x="1725" y="1546" width="3145" height="1544"/></clipPath><clipPath id="clip14"><rect x="1725" y="1546" width="3145" height="1544"/></clipPath><clipPath id="clip15"><rect x="1725" y="1546" width="3145" height="1544"/></clipPath><clipPath id="clip16"><rect x="1725" y="1546" width="3145" height="1544"/></clipPath><clipPath id="clip17"><rect x="1725" y="1546" width="3145" height="1544"/></clipPath><clipPath id="clip18"><rect x="1725" y="1546" width="3145" height="1544"/></clipPath><clipPath id="clip19"><rect x="1725" y="1546" width="3145" height="1544"/></clipPath><clipPath id="clip20"><rect x="1725" y="1546" width="3145" height="1544"/></clipPath><clipPath id="clip21"><rect x="1725" y="1546" width="3145" height="1544"/></clipPath><clipPath id="clip22"><rect x="1725" y="1546" width="3145" height="1544"/></clipPath><clipPath id="clip23"><rect x="1725" y="1546" width="3145" height="1544"/></clipPath><clipPath id="clip24"><rect x="1725" y="1546" width="3145" height="1544"/></clipPath><clipPath id="clip25"><rect x="1725" y="1546" width="3145" height="1544"/></clipPath><clipPath id="clip26"><rect x="1725" y="1546" width="3145" height="1544"/></clipPath><clipPath id="clip27"><rect x="1725" y="1546" width="3145" height="1544"/></clipPath><clipPath id="clip28"><rect x="1725" y="1546" width="3145" height="1544"/></clipPath><clipPath id="clip29"><rect x="1725" y="1546" width="3145" height="1544"/></clipPath><clipPath id="clip30"><rect x="1725" y="1546" width="3145" height="1544"/></clipPath><clipPath id="clip31"><rect x="1725" y="1546" width="3145" height="1544"/></clipPath><clipPath id="clip32"><rect x="1725" y="1546" width="3145" height="1544"/></clipPath><clipPath id="clip33"><rect x="1725" y="1546" width="3145" height="1544"/></clipPath><clipPath id="clip34"><rect x="1725" y="1546" width="3145" height="1544"/></clipPath><clipPath id="clip35"><rect x="1725" y="1546" width="3145" height="1544"/></clipPath><clipPath id="clip36"><rect x="1725" y="1546" width="3145" height="1544"/></clipPath><clipPath id="clip37"><rect x="1725" y="1546" width="3145" height="1544"/></clipPath><clipPath id="clip38"><rect x="1725" y="1546" width="3145" height="1544"/></clipPath><clipPath id="clip39"><rect x="1725" y="1546" width="3145" height="1544"/></clipPath><clipPath id="clip40"><rect x="1725" y="1546" width="3145" height="1544"/></clipPath><clipPath id="clip41"><rect x="1725" y="1546" width="3145" height="1544"/></clipPath><clipPath id="clip42"><rect x="1725" y="1546" width="3145" height="1544"/></clipPath><clipPath id="clip43"><rect x="1725" y="1546" width="3145" height="1544"/></clipPath><clipPath id="clip44"><rect x="1725" y="1546" width="3145" height="1544"/></clipPath><clipPath id="clip45"><rect x="1725" y="1546" width="3145" height="1544"/></clipPath><clipPath id="clip46"><rect x="1725" y="1546" width="3145" height="1544"/></clipPath><clipPath id="clip47"><rect x="1725" y="1546" width="3145" height="1544"/></clipPath><clipPath id="clip48"><rect x="1725" y="1546" width="3145" height="1544"/></clipPath><clipPath id="clip49"><rect x="1725" y="1546" width="3145" height="1544"/></clipPath><clipPath id="clip50"><rect x="1725" y="1546" width="3145" height="1544"/></clipPath><clipPath id="clip51"><rect x="1725" y="1546" width="3145" height="1544"/></clipPath></defs><g clip-path="url(#clip0)" transform="translate(-1725 -1546)"><rect x="1726" y="1547" width="3145" height="1543" fill="#FFFFFF"/><g clip-path="url(#clip1)"><path d="M1970.5 2445.58 4820.5 2445.58M1970.5 2234.57 4820.5 2234.57M1970.5 2024.57 4820.5 2024.57M1970.5 1813.56 4820.5 1813.56M1970.5 1603.5 4820.5 1603.5" stroke="#D9D9D9" stroke-width="3.4375" stroke-linejoin="round" stroke-miterlimit="10" fill="none"/></g><g clip-path="url(#clip2)"><path d="M1970.5 2655.5 4820.5 2655.5" stroke="#D9D9D9" stroke-width="3.4375" stroke-linejoin="round" stroke-miterlimit="10" fill="none" fill-rule="evenodd"/></g><g clip-path="url(#clip3)"><path d="M2050 2163.07 2208.07 2180.07 2366.08 2201.07 2525.08 2218.07 2683.09 2222.07 2841.09 2231 3000.1 2226.07 3158.1 2218.07 3316.11 2201.07 3475.11 2184.07 3633.12 2167.07 3791.12 2159.07 3950.13 2151.07 4108.13 2138.07 4266.14 2159.07 4425.15 2138.07 4583.15 2130 4741 2130" stroke="#FF0000" stroke-width="10.3125" stroke-linecap="round" stroke-linejoin="round" stroke-miterlimit="10" fill="none"/></g><g clip-path="url(#clip4)"><path d="M2050 2239 2208.07 2193.07 2366.08 2163.07 2525.08 2134.07 2683.09 2142.07 2841.09 2113.07 3000.1 2071.07 3158.1 2092.07 3316.11 2071.07 3475.11 2066.07 3633.12 2045.07 3791.12 1986.07 3950.13 1974.06 4108.13 1961 4266.14 1978.06 4425.15 2016.07 4583.15 2041.07 4741 2007.07" stroke="#757171" stroke-width="10.3125" stroke-linecap="round" stroke-linejoin="round" stroke-miterlimit="10" fill="none"/></g><g clip-path="url(#clip5)"><path d="M2050 1890 2208.07 1890 2366.08 1890 2525.08 1873.06 2683.09 1856.06 2841.09 1860.06 3000.1 1843.06 3158.1 1831.06 3316.11 1843.06 3475.11 1826.06 3633.12 1810.06 3791.12 1797.06 3950.13 1784.06 4108.13 1772.06 4266.14 1784.06 4425.15 1776.06 4583.15 1742.06 4741 1717" stroke="#ED7D31" stroke-width="10.3125" stroke-linecap="round" stroke-linejoin="round" stroke-miterlimit="10" fill="none"/></g><g clip-path="url(#clip6)"><path d="M2050 2348.08 2208.07 2336.08 2366.08 2348.08 2525.08 2357.08 2683.09 2382 2841.09 2374.08 3000.1 2378.08 3158.1 2370.08 3316.11 2370.08 3475.11 2348.08 3633.12 2332.08 3791.12 2327.08 3950.13 2323.08 4108.13 2319.08 4266.14 2302.08 4425.15 2315.08 4583.15 2302.08 4741 2273" stroke="#FFC000" stroke-width="10.3125" stroke-linecap="round" stroke-linejoin="round" stroke-miterlimit="10" fill="none"/></g><g clip-path="url(#clip7)"><path d="M2050 2656 2208.07 2656 2366.08 2656 2525.08 2656 2683.09 2656 2841.09 2656 3000.1 2656 3158.1 2656 3316.11 2656 3475.11 2656 3633.12 2656 3791.12 2656 3950.13 2656 4108.13 2656 4266.14 2151 4425.15 2189.07 4583.15 2214.07 4741 2176.07" stroke="#5B9BD5" stroke-width="10.3125" stroke-linecap="round" stroke-linejoin="round" stroke-miterlimit="10" fill="none"/></g><g clip-path="url(#clip8)"><path d="M2525 2656 2683.09 2656 2841.09 2656 3000.1 2656 3158.1 2656 3316.11 2656 3475.11 2656 3633.12 2656 3791.12 2656 3950.13 2656 4108.13 2656 4266.14 2197.07 4425.15 2146.07 4583.15 2134 4741 2134" stroke="#70AD47" stroke-width="10.3125" stroke-linecap="round" stroke-linejoin="round" stroke-miterlimit="10" fill="none"/></g><g clip-path="url(#clip9)"><path d="M2050 2269.07 2208.07 2247.07 2366.08 2226.07 2525.08 2214.07 2683.09 2222.07 2841.09 2235.07 3000.1 2222.07 3158.1 2218.07 3316.11 2218.07 3475.11 2205.07 3633.12 2189.07 3791.12 2184.07 3950.13 2180.07 4108.13 2176 4266.14 2656 4425.15 2656 4583.15 2656 4741 2656" stroke="#264478" stroke-width="10.3125" stroke-linecap="round" stroke-linejoin="round" stroke-miterlimit="10" fill="none"/></g><g clip-path="url(#clip10)"><path d="M2050 2252 2208.07 2235.07 2366.08 2231.07 2525.08 2222.07 2683.09 2239.07 2841.09 2247.07 3000.1 2239.07 3158.1 2239.07 3316.11 2235.07 3475.11 2226.07 3633.12 2210.07 3791.12 2205.07 3950.13 2205.07 4108.13 2197.07 4266.14 2189.07 4425.15 2163 4583.15 2167.07 4741 2167.07" stroke="#9E480E" stroke-width="10.3125" stroke-linecap="round" stroke-linejoin="round" stroke-miterlimit="10" fill="none"/></g><g clip-path="url(#clip11)"><text fill="#595959" font-family="Calibri,Calibri_MSFontService,sans-serif" font-weight="400" font-size="55" transform="matrix(1 0 0 1 1891.68 2671)">0</text></g><g clip-path="url(#clip12)"><text fill="#595959" font-family="Calibri,Calibri_MSFontService,sans-serif" font-weight="400" font-size="55" transform="matrix(1 0 0 1 1891.68 2461)">5</text></g><g clip-path="url(#clip13)"><text fill="#595959" font-family="Calibri,Calibri_MSFontService,sans-serif" font-weight="400" font-size="55" transform="matrix(1 0 0 1 1863.81 2250)">10</text></g><g clip-path="url(#clip14)"><text fill="#595959" font-family="Calibri,Calibri_MSFontService,sans-serif" font-weight="400" font-size="55" transform="matrix(1 0 0 1 1863.81 2040)">15</text></g><g clip-path="url(#clip15)"><text fill="#595959" font-family="Calibri,Calibri_MSFontService,sans-serif" font-weight="400" font-size="55" transform="matrix(1 0 0 1 1863.81 1829)">20</text></g><g clip-path="url(#clip16)"><text fill="#595959" font-family="Calibri,Calibri_MSFontService,sans-serif" font-weight="400" font-size="55" transform="matrix(1 0 0 1 1863.81 1619)">25</text></g><g clip-path="url(#clip17)"><text fill="#595959" font-family="Calibri,Calibri_MSFontService,sans-serif" font-weight="400" font-size="55" transform="matrix(1 0 0 1 1994.01 2743)">2005</text></g><g clip-path="url(#clip18)"><text fill="#595959" font-family="Calibri,Calibri_MSFontService,sans-serif" font-weight="400" font-size="55" transform="matrix(1 0 0 1 2152.34 2743)">2006</text></g><g clip-path="url(#clip19)"><text fill="#595959" font-family="Calibri,Calibri_MSFontService,sans-serif" font-weight="400" font-size="55" transform="matrix(1 0 0 1 2310.67 2743)">2007</text></g><g clip-path="url(#clip20)"><text fill="#595959" font-family="Calibri,Calibri_MSFontService,sans-serif" font-weight="400" font-size="55" transform="matrix(1 0 0 1 2469 2743)">2008</text></g><g clip-path="url(#clip21)"><text fill="#595959" font-family="Calibri,Calibri_MSFontService,sans-serif" font-weight="400" font-size="55" transform="matrix(1 0 0 1 2627.33 2743)">2009</text></g><g clip-path="url(#clip22)"><text fill="#595959" font-family="Calibri,Calibri_MSFontService,sans-serif" font-weight="400" font-size="55" transform="matrix(1 0 0 1 2785.66 2743)">2010</text></g><g clip-path="url(#clip23)"><text fill="#595959" font-family="Calibri,Calibri_MSFontService,sans-serif" font-weight="400" font-size="55" transform="matrix(1 0 0 1 2943.99 2743)">2011</text></g><g clip-path="url(#clip24)"><text fill="#595959" font-family="Calibri,Calibri_MSFontService,sans-serif" font-weight="400" font-size="55" transform="matrix(1 0 0 1 3102.32 2743)">2012</text></g><g clip-path="url(#clip25)"><text fill="#595959" font-family="Calibri,Calibri_MSFontService,sans-serif" font-weight="400" font-size="55" transform="matrix(1 0 0 1 3260.65 2743)">2013</text></g><g clip-path="url(#clip26)"><text fill="#595959" font-family="Calibri,Calibri_MSFontService,sans-serif" font-weight="400" font-size="55" transform="matrix(1 0 0 1 3418.98 2743)">2014</text></g><g clip-path="url(#clip27)"><text fill="#595959" font-family="Calibri,Calibri_MSFontService,sans-serif" font-weight="400" font-size="55" transform="matrix(1 0 0 1 3577.31 2743)">2015</text></g><g clip-path="url(#clip28)"><text fill="#595959" font-family="Calibri,Calibri_MSFontService,sans-serif" font-weight="400" font-size="55" transform="matrix(1 0 0 1 3735.64 2743)">2016</text></g><g clip-path="url(#clip29)"><text fill="#595959" font-family="Calibri,Calibri_MSFontService,sans-serif" font-weight="400" font-size="55" transform="matrix(1 0 0 1 3893.97 2743)">2017</text></g><g clip-path="url(#clip30)"><text fill="#595959" font-family="Calibri,Calibri_MSFontService,sans-serif" font-weight="400" font-size="55" transform="matrix(1 0 0 1 4052.3 2743)">2018</text></g><g clip-path="url(#clip31)"><text fill="#595959" font-family="Calibri,Calibri_MSFontService,sans-serif" font-weight="400" font-size="55" transform="matrix(1 0 0 1 4210.63 2743)">2019</text></g><g clip-path="url(#clip32)"><text fill="#595959" font-family="Calibri,Calibri_MSFontService,sans-serif" font-weight="400" font-size="55" transform="matrix(1 0 0 1 4368.96 2743)">2020</text></g><g clip-path="url(#clip33)"><text fill="#595959" font-family="Calibri,Calibri_MSFontService,sans-serif" font-weight="400" font-size="55" transform="matrix(1 0 0 1 4527.29 2743)">2021</text></g><g clip-path="url(#clip34)"><text fill="#595959" font-family="Calibri,Calibri_MSFontService,sans-serif" font-weight="400" font-size="55" transform="matrix(1 0 0 1 4685.62 2743)">2022</text></g><g clip-path="url(#clip35)"><text fill="#595959" font-family="Calibri,Calibri_MSFontService,sans-serif" font-weight="400" font-size="55" transform="matrix(6.12323e-17 -1 1 6.12323e-17 1834.91 2433)">Average aircraft age (years)</text></g><g clip-path="url(#clip36)"><path d="M2012 2835 2100 2835" stroke="#FF0000" stroke-width="10.3125" stroke-linecap="round" stroke-linejoin="round" stroke-miterlimit="10" fill="none" fill-rule="evenodd"/></g><g clip-path="url(#clip37)"><text fill="#595959" font-family="Calibri,Calibri_MSFontService,sans-serif" font-weight="400" font-size="55" transform="matrix(1 0 0 1 2109.59 2850)">Business Aviation</text></g><g clip-path="url(#clip38)"><path d="M2879 2835 2967 2835" stroke="#757171" stroke-width="10.3125" stroke-linecap="round" stroke-linejoin="round" stroke-miterlimit="10" fill="none" fill-rule="evenodd"/></g><g clip-path="url(#clip39)"><text fill="#595959" font-family="Calibri,Calibri_MSFontService,sans-serif" font-weight="400" font-size="55" transform="matrix(1 0 0 1 2976.53 2850)">Charter</text></g><g clip-path="url(#clip40)"><path d="M3746 2835 3834 2835" stroke="#ED7D31" stroke-width="10.3125" stroke-linecap="round" stroke-linejoin="round" stroke-miterlimit="10" fill="none" fill-rule="evenodd"/></g><g clip-path="url(#clip41)"><text fill="#595959" font-family="Calibri,Calibri_MSFontService,sans-serif" font-weight="400" font-size="55" transform="matrix(1 0 0 1 3843.47 2850)">All-cargo</text></g><g clip-path="url(#clip42)"><path d="M2012 2929 2100 2929" stroke="#FFC000" stroke-width="10.3125" stroke-linecap="round" stroke-linejoin="round" stroke-miterlimit="10" fill="none" fill-rule="evenodd"/></g><g clip-path="url(#clip43)"><text fill="#595959" font-family="Calibri,Calibri_MSFontService,sans-serif" font-weight="400" font-size="55" transform="matrix(1 0 0 1 2109.59 2944)">Lowcost</text></g><g clip-path="url(#clip44)"><path d="M2879 2929 2967 2929" stroke="#5B9BD5" stroke-width="10.3125" stroke-linecap="round" stroke-linejoin="round" stroke-miterlimit="10" fill="none" fill-rule="evenodd"/></g><g clip-path="url(#clip45)"><text fill="#595959" font-family="Calibri,Calibri_MSFontService,sans-serif" font-weight="400" font-size="55" transform="matrix(1 0 0 1 2976.53 2944)">Mainline (from 2019)</text></g><g clip-path="url(#clip46)"><path d="M3746 2929 3834 2929" stroke="#70AD47" stroke-width="10.3125" stroke-linecap="round" stroke-linejoin="round" stroke-miterlimit="10" fill="none" fill-rule="evenodd"/></g><g clip-path="url(#clip47)"><text fill="#595959" font-family="Calibri,Calibri_MSFontService,sans-serif" font-weight="400" font-size="55" transform="matrix(1 0 0 1 3843.47 2944)">Regional Aircraft (from 2019)</text></g><g clip-path="url(#clip48)"><path d="M2012 3023 2100 3023" stroke="#264478" stroke-width="10.3125" stroke-linecap="round" stroke-linejoin="round" stroke-miterlimit="10" fill="none" fill-rule="evenodd"/></g><g clip-path="url(#clip49)"><text fill="#595959" font-family="Calibri,Calibri_MSFontService,sans-serif" font-weight="400" font-size="55" transform="matrix(1 0 0 1 2109.59 3038)">Traditional Scheduled (until 2018)</text></g><g clip-path="url(#clip50)"><path d="M2879 3023 2967 3023" stroke="#9E480E" stroke-width="10.3125" stroke-linecap="round" stroke-linejoin="round" stroke-miterlimit="10" fill="none" fill-rule="evenodd"/></g><g clip-path="url(#clip51)"><text fill="#595959" font-family="Calibri,Calibri_MSFontService,sans-serif" font-weight="400" font-size="55" transform="matrix(1 0 0 1 2976.53 3038)">All Segments</text></g><rect x="1726.5" y="1547.5" width="3145" height="1543" stroke="#D9D9D9" stroke-width="3.4375" stroke-linejoin="round" stroke-miterlimit="10" fill="none"/></g></svg>