<svg width="3145" height="1544" xmlns="http://www.w3.org/2000/svg" xmlns:xlink="http://www.w3.org/1999/xlink" xml:space="preserve" overflow="hidden"><defs><clipPath id="clip0"><rect x="1726" y="1588" width="3145" height="1544"/></clipPath><clipPath id="clip1"><rect x="1725" y="1588" width="3145" height="1543"/></clipPath><clipPath id="clip2"><rect x="1725" y="1588" width="3145" height="1543"/></clipPath><clipPath id="clip3"><rect x="1999" y="1650" width="2824" height="1042"/></clipPath><clipPath id="clip4"><rect x="1999" y="1650" width="2824" height="1042"/></clipPath><clipPath id="clip5"><rect x="1999" y="1650" width="2824" height="1042"/></clipPath><clipPath id="clip6"><rect x="1999" y="1650" width="2824" height="1042"/></clipPath><clipPath id="clip7"><rect x="1999" y="1650" width="2824" height="1042"/></clipPath><clipPath id="clip8"><rect x="1999" y="1650" width="2824" height="1042"/></clipPath><clipPath id="clip9"><rect x="1999" y="1650" width="2824" height="1042"/></clipPath><clipPath id="clip10"><rect x="1999" y="1650" width="2824" height="1042"/></clipPath><clipPath id="clip11"><rect x="1725" y="1588" width="3145" height="1543"/></clipPath><clipPath id="clip12"><rect x="1725" y="1588" width="3145" height="1543"/></clipPath><clipPath id="clip13"><rect x="1725" y="1588" width="3145" height="1543"/></clipPath><clipPath id="clip14"><rect x="1725" y="1588" width="3145" height="1543"/></clipPath><clipPath id="clip15"><rect x="1725" y="1588" width="3145" height="1543"/></clipPath><clipPath id="clip16"><rect x="1725" y="1588" width="3145" height="1543"/></clipPath><clipPath id="clip17"><rect x="1725" y="1588" width="3145" height="1543"/></clipPath><clipPath id="clip18"><rect x="1725" y="1588" width="3145" height="1543"/></clipPath><clipPath id="clip19"><rect x="1725" y="1588" width="3145" height="1543"/></clipPath><clipPath id="clip20"><rect x="1725" y="1588" width="3145" height="1543"/></clipPath><clipPath id="clip21"><rect x="1725" y="1588" width="3145" height="1543"/></clipPath><clipPath id="clip22"><rect x="1725" y="1588" width="3145" height="1543"/></clipPath><clipPath id="clip23"><rect x="1725" y="1588" width="3145" height="1543"/></clipPath><clipPath id="clip24"><rect x="1725" y="1588" width="3145" height="1543"/></clipPath><clipPath id="clip25"><rect x="1725" y="1588" width="3145" height="1543"/></clipPath><clipPath id="clip26"><rect x="1725" y="1588" width="3145" height="1543"/></clipPath><clipPath id="clip27"><rect x="1725" y="1588" width="3145" height="1543"/></clipPath><clipPath id="clip28"><rect x="1725" y="1588" width="3145" height="1543"/></clipPath><clipPath id="clip29"><rect x="1725" y="1588" width="3145" height="1543"/></clipPath><clipPath id="clip30"><rect x="1725" y="1588" width="3145" height="1543"/></clipPath><clipPath id="clip31"><rect x="1725" y="1588" width="3145" height="1543"/></clipPath><clipPath id="clip32"><rect x="1725" y="1588" width="3145" height="1543"/></clipPath><clipPath id="clip33"><rect x="1725" y="1588" width="3145" height="1543"/></clipPath><clipPath id="clip34"><rect x="1725" y="1588" width="3145" height="1543"/></clipPath><clipPath id="clip35"><rect x="1725" y="1588" width="3145" height="1543"/></clipPath><clipPath id="clip36"><rect x="1725" y="1588" width="3145" height="1543"/></clipPath><clipPath id="clip37"><rect x="1725" y="1588" width="3145" height="1543"/></clipPath><clipPath id="clip38"><rect x="1725" y="1588" width="3145" height="1543"/></clipPath><clipPath id="clip39"><rect x="1725" y="1588" width="3145" height="1543"/></clipPath><clipPath id="clip40"><rect x="1725" y="1588" width="3145" height="1543"/></clipPath><clipPath id="clip41"><rect x="1725" y="1588" width="3145" height="1543"/></clipPath><clipPath id="clip42"><rect x="1725" y="1588" width="3145" height="1543"/></clipPath><clipPath id="clip43"><rect x="1725" y="1588" width="3145" height="1543"/></clipPath><clipPath id="clip44"><rect x="1725" y="1588" width="3145" height="1543"/></clipPath><clipPath id="clip45"><rect x="1725" y="1588" width="3145" height="1543"/></clipPath><clipPath id="clip46"><rect x="1725" y="1588" width="3145" height="1543"/></clipPath><clipPath id="clip47"><rect x="1725" y="1588" width="3145" height="1543"/></clipPath><clipPath id="clip48"><rect x="1725" y="1588" width="3145" height="1543"/></clipPath><clipPath id="clip49"><rect x="1725" y="1588" width="3145" height="1543"/></clipPath><clipPath id="clip50"><rect x="1725" y="1588" width="3145" height="1543"/></clipPath><clipPath id="clip51"><rect x="1725" y="1588" width="3145" height="1543"/></clipPath></defs><g clip-path="url(#clip0)" transform="translate(-1726 -1588)"><rect x="1726" y="1588" width="3145" height="1544" fill="#FFFFFF"/><g clip-path="url(#clip1)"><path d="M1999.5 2480.58 4820.5 2480.58M1999.5 2273.57 4820.5 2273.57M1999.5 2065.57 4820.5 2065.57M1999.5 1857.56 4820.5 1857.56M1999.5 1650.5 4820.5 1650.5" stroke="#D9D9D9" stroke-width="3.4375" stroke-linejoin="round" stroke-miterlimit="10" fill="none"/></g><g clip-path="url(#clip2)"><path d="M1999.5 2688.5 4820.5 2688.5" stroke="#D9D9D9" stroke-width="3.4375" stroke-linejoin="round" stroke-miterlimit="10" fill="none" fill-rule="evenodd"/></g><g clip-path="url(#clip3)"><path d="M2078 2203.07 2235.07 2219.07 2391.08 2240.07 2548.08 2257.07 2705.09 2261.07 2861.09 2269 3018.1 2265.07 3175.1 2257.07 3332.11 2240.07 3488.11 2223.07 3645.12 2207.07 3802.12 2198.07 3958.13 2190.07 4115.13 2178.07 4272.14 2198.07 4429.15 2178.07 4585.15 2169 4742 2169" stroke="#7F7F7F" stroke-width="10.3125" stroke-linecap="round" stroke-linejoin="round" stroke-miterlimit="10" fill="none"/></g><g clip-path="url(#clip4)"><path d="M2078 2277 2235.07 2232.07 2391.08 2203.07 2548.08 2173.07 2705.09 2182.07 2861.09 2153.07 3018.1 2111.07 3175.1 2132.07 3332.11 2111.07 3488.11 2107.07 3645.12 2086.07 3802.12 2028.07 3958.13 2016.07 4115.13 2003 4272.14 2020.07 4429.15 2057.07 4585.15 2082.07 4742 2049.07" stroke="#7030A0" stroke-width="10.3125" stroke-linecap="round" stroke-linejoin="round" stroke-miterlimit="10" fill="none"/></g><g clip-path="url(#clip5)"><path d="M2078 1933 2235.07 1933 2391.08 1933 2548.08 1916.06 2705.09 1899.06 2861.09 1904.06 3018.1 1887.06 3175.1 1874.06 3332.11 1887.06 3488.11 1870.06 3645.12 1854.06 3802.12 1841.06 3958.13 1829.06 4115.13 1816.06 4272.14 1829.06 4429.15 1820.06 4585.15 1787.06 4742 1762" stroke="#2F5597" stroke-width="10.3125" stroke-linecap="round" stroke-linejoin="round" stroke-miterlimit="10" fill="none"/></g><g clip-path="url(#clip6)"><path d="M2078 2385.08 2235.07 2373.08 2391.08 2385.08 2548.08 2394.08 2705.09 2419 2861.09 2410.08 3018.1 2414.08 3175.1 2406.08 3332.11 2406.08 3488.11 2385.08 3645.12 2369.08 3802.12 2365.08 3958.13 2360.08 4115.13 2356.08 4272.14 2340.08 4429.15 2352.08 4585.15 2340.08 4742 2311" stroke="#C5E0B4" stroke-width="10.3125" stroke-linecap="round" stroke-linejoin="round" stroke-miterlimit="10" fill="none"/></g><g clip-path="url(#clip7)"><path d="M2078 2689 2235.07 2689 2391.08 2689 2548.08 2689 2705.09 2689 2861.09 2689 3018.1 2689 3175.1 2689 3332.11 2689 3488.11 2689 3645.12 2689 3802.12 2689 3958.13 2689 4115.13 2689 4272.14 2190 4429.15 2227.07 4585.15 2252.07 4742 2215.07" stroke="#5B9BD5" stroke-width="10.3125" stroke-linecap="round" stroke-linejoin="round" stroke-miterlimit="10" fill="none"/></g><g clip-path="url(#clip8)"><path d="M2548 2689 2705.09 2689 2861.09 2689 3018.1 2689 3175.1 2689 3332.11 2689 3488.11 2689 3645.12 2689 3802.12 2689 3958.13 2689 4115.13 2689 4272.14 2236.07 4429.15 2186.07 4585.15 2174 4742 2174" stroke="#BF9000" stroke-width="10.3125" stroke-linecap="round" stroke-linejoin="round" stroke-miterlimit="10" fill="none"/></g><g clip-path="url(#clip9)"><path d="M2078 2306.08 2235.07 2286.08 2391.08 2265.07 2548.08 2252.07 2705.09 2261.07 2861.09 2273.07 3018.1 2261.07 3175.1 2257.07 3332.11 2257.07 3488.11 2244.07 3645.12 2227.07 3802.12 2223.07 3958.13 2219.07 4115.13 2215 4272.14 2689 4429.15 2689 4585.15 2689 4742 2689" stroke="#548235" stroke-width="10.3125" stroke-linecap="round" stroke-linejoin="round" stroke-miterlimit="10" fill="none"/></g><g clip-path="url(#clip10)"><path d="M2078 2290 2235.07 2273.07 2391.08 2269.07 2548.08 2261.07 2705.09 2277.07 2861.09 2286.07 3018.1 2277.07 3175.1 2277.07 3332.11 2273.07 3488.11 2265.07 3645.12 2248.07 3802.12 2244.07 3958.13 2244.07 4115.13 2236.07 4272.14 2227.07 4429.15 2203 4585.15 2207.07 4742 2207.07" stroke="#9E480E" stroke-width="10.3125" stroke-linecap="round" stroke-linejoin="round" stroke-miterlimit="10" fill="none"/></g><g clip-path="url(#clip11)"><text fill="#595959" font-family="Calibri,Calibri_MSFontService,sans-serif" font-weight="400" font-size="64" transform="matrix(1 0 0 1 1907.51 2707)">0</text></g><g clip-path="url(#clip12)"><text fill="#595959" font-family="Calibri,Calibri_MSFontService,sans-serif" font-weight="400" font-size="64" transform="matrix(1 0 0 1 1907.51 2499)">5</text></g><g clip-path="url(#clip13)"><text fill="#595959" font-family="Calibri,Calibri_MSFontService,sans-serif" font-weight="400" font-size="64" transform="matrix(1 0 0 1 1875 2292)">10</text></g><g clip-path="url(#clip14)"><text fill="#595959" font-family="Calibri,Calibri_MSFontService,sans-serif" font-weight="400" font-size="64" transform="matrix(1 0 0 1 1875 2084)">15</text></g><g clip-path="url(#clip15)"><text fill="#595959" font-family="Calibri,Calibri_MSFontService,sans-serif" font-weight="400" font-size="64" transform="matrix(1 0 0 1 1875 1876)">20</text></g><g clip-path="url(#clip16)"><text fill="#595959" font-family="Calibri,Calibri_MSFontService,sans-serif" font-weight="400" font-size="64" transform="matrix(1 0 0 1 1875 1669)">25</text></g><g clip-path="url(#clip17)"><text fill="#595959" font-family="Calibri,Calibri_MSFontService,sans-serif" font-weight="400" font-size="64" transform="matrix(0.707107 -0.707107 0.707107 0.707107 2001.39 2864)">2005</text></g><g clip-path="url(#clip18)"><text fill="#595959" font-family="Calibri,Calibri_MSFontService,sans-serif" font-weight="400" font-size="64" transform="matrix(0.707107 -0.707107 0.707107 0.707107 2158.11 2864)">2006</text></g><g clip-path="url(#clip19)"><text fill="#595959" font-family="Calibri,Calibri_MSFontService,sans-serif" font-weight="400" font-size="64" transform="matrix(0.707107 -0.707107 0.707107 0.707107 2314.83 2864)">2007</text></g><g clip-path="url(#clip20)"><text fill="#595959" font-family="Calibri,Calibri_MSFontService,sans-serif" font-weight="400" font-size="64" transform="matrix(0.707107 -0.707107 0.707107 0.707107 2471.55 2864)">2008</text></g><g clip-path="url(#clip21)"><text fill="#595959" font-family="Calibri,Calibri_MSFontService,sans-serif" font-weight="400" font-size="64" transform="matrix(0.707107 -0.707107 0.707107 0.707107 2628.27 2864)">2009</text></g><g clip-path="url(#clip22)"><text fill="#595959" font-family="Calibri,Calibri_MSFontService,sans-serif" font-weight="400" font-size="64" transform="matrix(0.707107 -0.707107 0.707107 0.707107 2784.99 2864)">2010</text></g><g clip-path="url(#clip23)"><text fill="#595959" font-family="Calibri,Calibri_MSFontService,sans-serif" font-weight="400" font-size="64" transform="matrix(0.707107 -0.707107 0.707107 0.707107 2941.71 2864)">2011</text></g><g clip-path="url(#clip24)"><text fill="#595959" font-family="Calibri,Calibri_MSFontService,sans-serif" font-weight="400" font-size="64" transform="matrix(0.707107 -0.707107 0.707107 0.707107 3098.43 2864)">2012</text></g><g clip-path="url(#clip25)"><text fill="#595959" font-family="Calibri,Calibri_MSFontService,sans-serif" font-weight="400" font-size="64" transform="matrix(0.707107 -0.707107 0.707107 0.707107 3255.15 2864)">2013</text></g><g clip-path="url(#clip26)"><text fill="#595959" font-family="Calibri,Calibri_MSFontService,sans-serif" font-weight="400" font-size="64" transform="matrix(0.707107 -0.707107 0.707107 0.707107 3411.87 2864)">2014</text></g><g clip-path="url(#clip27)"><text fill="#595959" font-family="Calibri,Calibri_MSFontService,sans-serif" font-weight="400" font-size="64" transform="matrix(0.707107 -0.707107 0.707107 0.707107 3568.58 2864)">2015</text></g><g clip-path="url(#clip28)"><text fill="#595959" font-family="Calibri,Calibri_MSFontService,sans-serif" font-weight="400" font-size="64" transform="matrix(0.707107 -0.707107 0.707107 0.707107 3725.3 2864)">2016</text></g><g clip-path="url(#clip29)"><text fill="#595959" font-family="Calibri,Calibri_MSFontService,sans-serif" font-weight="400" font-size="64" transform="matrix(0.707107 -0.707107 0.707107 0.707107 3882.02 2864)">2017</text></g><g clip-path="url(#clip30)"><text fill="#595959" font-family="Calibri,Calibri_MSFontService,sans-serif" font-weight="400" font-size="64" transform="matrix(0.707107 -0.707107 0.707107 0.707107 4038.74 2864)">2018</text></g><g clip-path="url(#clip31)"><text fill="#595959" font-family="Calibri,Calibri_MSFontService,sans-serif" font-weight="400" font-size="64" transform="matrix(0.707107 -0.707107 0.707107 0.707107 4195.46 2864)">2019</text></g><g clip-path="url(#clip32)"><text fill="#595959" font-family="Calibri,Calibri_MSFontService,sans-serif" font-weight="400" font-size="64" transform="matrix(0.707107 -0.707107 0.707107 0.707107 4352.18 2864)">2020</text></g><g clip-path="url(#clip33)"><text fill="#595959" font-family="Calibri,Calibri_MSFontService,sans-serif" font-weight="400" font-size="64" transform="matrix(0.707107 -0.707107 0.707107 0.707107 4508.9 2864)">2021</text></g><g clip-path="url(#clip34)"><text fill="#595959" font-family="Calibri,Calibri_MSFontService,sans-serif" font-weight="400" font-size="64" transform="matrix(0.707107 -0.707107 0.707107 0.707107 4665.62 2864)">2022</text></g><g clip-path="url(#clip35)"><text fill="#595959" font-family="Calibri,Calibri_MSFontService,sans-serif" font-weight="400" font-size="73" transform="matrix(6.12323e-17 -1 1 6.12323e-17 1839.18 1782)">Years</text></g><g clip-path="url(#clip36)"><path d="M1770 2918 1858 2918" stroke="#7F7F7F" stroke-width="10.3125" stroke-linecap="round" stroke-linejoin="round" stroke-miterlimit="10" fill="none" fill-rule="evenodd"/></g><g clip-path="url(#clip37)"><text fill="#595959" font-family="Calibri,Calibri_MSFontService,sans-serif" font-weight="400" font-size="64" transform="matrix(1 0 0 1 1867.64 2936)">Business Aviation</text></g><g clip-path="url(#clip38)"><path d="M2813 2918 2901 2918" stroke="#7030A0" stroke-width="10.3125" stroke-linecap="round" stroke-linejoin="round" stroke-miterlimit="10" fill="none" fill-rule="evenodd"/></g><g clip-path="url(#clip39)"><text fill="#595959" font-family="Calibri,Calibri_MSFontService,sans-serif" font-weight="400" font-size="64" transform="matrix(1 0 0 1 2910.06 2936)">Charter</text></g><g clip-path="url(#clip40)"><path d="M3855 2918 3943 2918" stroke="#2F5597" stroke-width="10.3125" stroke-linecap="round" stroke-linejoin="round" stroke-miterlimit="10" fill="none" fill-rule="evenodd"/></g><g clip-path="url(#clip41)"><text fill="#595959" font-family="Calibri,Calibri_MSFontService,sans-serif" font-weight="400" font-size="64" transform="matrix(1 0 0 1 3952.48 2936)">All-cargo</text></g><g clip-path="url(#clip42)"><path d="M1770 2996 1858 2996" stroke="#C5E0B4" stroke-width="10.3125" stroke-linecap="round" stroke-linejoin="round" stroke-miterlimit="10" fill="none" fill-rule="evenodd"/></g><g clip-path="url(#clip43)"><text fill="#595959" font-family="Calibri,Calibri_MSFontService,sans-serif" font-weight="400" font-size="64" transform="matrix(1 0 0 1 1867.64 3014)">Lowcost</text></g><g clip-path="url(#clip44)"><path d="M2813 2996 2901 2996" stroke="#5B9BD5" stroke-width="10.3125" stroke-linecap="round" stroke-linejoin="round" stroke-miterlimit="10" fill="none" fill-rule="evenodd"/></g><g clip-path="url(#clip45)"><text fill="#595959" font-family="Calibri,Calibri_MSFontService,sans-serif" font-weight="400" font-size="64" transform="matrix(1 0 0 1 2910.06 3014)">Mainline (from 2019)</text></g><g clip-path="url(#clip46)"><path d="M3855 2996 3943 2996" stroke="#BF9000" stroke-width="10.3125" stroke-linecap="round" stroke-linejoin="round" stroke-miterlimit="10" fill="none" fill-rule="evenodd"/></g><g clip-path="url(#clip47)"><text fill="#595959" font-family="Calibri,Calibri_MSFontService,sans-serif" font-weight="400" font-size="64" transform="matrix(1 0 0 1 3952.48 3014)">Regional Aircraft (from 2019)</text></g><g clip-path="url(#clip48)"><path d="M1770 3074 1858 3074" stroke="#548235" stroke-width="10.3125" stroke-linecap="round" stroke-linejoin="round" stroke-miterlimit="10" fill="none" fill-rule="evenodd"/></g><g clip-path="url(#clip49)"><text fill="#595959" font-family="Calibri,Calibri_MSFontService,sans-serif" font-weight="400" font-size="64" transform="matrix(1 0 0 1 1867.64 3092)">Traditional Scheduled (until 2018)</text></g><g clip-path="url(#clip50)"><path d="M2813 3074 2901 3074" stroke="#9E480E" stroke-width="10.3125" stroke-linecap="round" stroke-linejoin="round" stroke-miterlimit="10" fill="none" fill-rule="evenodd"/></g><g clip-path="url(#clip51)"><text fill="#595959" font-family="Calibri,Calibri_MSFontService,sans-serif" font-weight="400" font-size="64" transform="matrix(1 0 0 1 2910.06 3092)">All Segments</text></g></g></svg>