<svg width="3067" height="1615" xmlns="http://www.w3.org/2000/svg" xmlns:xlink="http://www.w3.org/1999/xlink" xml:space="preserve" overflow="hidden"><defs><clipPath id="clip0"><rect x="1165" y="698" width="3067" height="1615"/></clipPath><clipPath id="clip1"><rect x="1165" y="697" width="3066" height="1616"/></clipPath><clipPath id="clip2"><rect x="1165" y="697" width="3066" height="1616"/></clipPath><clipPath id="clip3"><rect x="1501" y="762" width="2684" height="1169"/></clipPath><clipPath id="clip4"><rect x="1501" y="762" width="2684" height="1169"/></clipPath><clipPath id="clip5"><rect x="1501" y="762" width="2684" height="1169"/></clipPath><clipPath id="clip6"><rect x="1501" y="762" width="2684" height="1169"/></clipPath><clipPath id="clip7"><rect x="1501" y="762" width="2684" height="1169"/></clipPath><clipPath id="clip8"><rect x="1165" y="697" width="3066" height="1616"/></clipPath><clipPath id="clip9"><rect x="1165" y="697" width="3066" height="1616"/></clipPath><clipPath id="clip10"><rect x="1165" y="697" width="3066" height="1616"/></clipPath><clipPath id="clip11"><rect x="1165" y="697" width="3066" height="1616"/></clipPath><clipPath id="clip12"><rect x="1165" y="697" width="3066" height="1616"/></clipPath><clipPath id="clip13"><rect x="1165" y="697" width="3066" height="1616"/></clipPath><clipPath id="clip14"><rect x="1165" y="697" width="3066" height="1616"/></clipPath><clipPath id="clip15"><rect x="1165" y="697" width="3066" height="1616"/></clipPath><clipPath id="clip16"><rect x="1165" y="697" width="3066" height="1616"/></clipPath><clipPath id="clip17"><rect x="1165" y="697" width="3066" height="1616"/></clipPath><clipPath id="clip18"><rect x="1165" y="697" width="3066" height="1616"/></clipPath><clipPath id="clip19"><rect x="1165" y="697" width="3066" height="1616"/></clipPath><clipPath id="clip20"><rect x="1165" y="697" width="3066" height="1616"/></clipPath><clipPath id="clip21"><rect x="1165" y="697" width="3066" height="1616"/></clipPath><clipPath id="clip22"><rect x="1165" y="697" width="3066" height="1616"/></clipPath><clipPath id="clip23"><rect x="1165" y="697" width="3066" height="1616"/></clipPath><clipPath id="clip24"><rect x="1165" y="697" width="3066" height="1616"/></clipPath><clipPath id="clip25"><rect x="1165" y="697" width="3066" height="1616"/></clipPath><clipPath id="clip26"><rect x="1165" y="697" width="3066" height="1616"/></clipPath><clipPath id="clip27"><rect x="1165" y="697" width="3066" height="1616"/></clipPath><clipPath id="clip28"><rect x="1165" y="697" width="3066" height="1616"/></clipPath><clipPath id="clip29"><rect x="1165" y="697" width="3066" height="1616"/></clipPath><clipPath id="clip30"><rect x="1165" y="697" width="3066" height="1616"/></clipPath><clipPath id="clip31"><rect x="1165" y="697" width="3066" height="1616"/></clipPath><clipPath id="clip32"><rect x="1165" y="697" width="3066" height="1616"/></clipPath><clipPath id="clip33"><rect x="1165" y="697" width="3066" height="1616"/></clipPath><clipPath id="clip34"><rect x="1165" y="697" width="3066" height="1616"/></clipPath></defs><g clip-path="url(#clip0)" transform="translate(-1165 -698)"><rect x="1165" y="698" width="3067" height="1615" fill="#FFFFFF"/><g clip-path="url(#clip1)"><path d="M1501.5 1694.56 4182.5 1694.56M1501.5 1461.55 4182.5 1461.55M1501.5 1228.54 4182.5 1228.54M1501.5 995.533 4182.5 995.533M1501.5 762.5 4182.5 762.5" stroke="#D9D9D9" stroke-width="3.4375" stroke-linejoin="round" stroke-miterlimit="10" fill="none"/></g><g clip-path="url(#clip2)"><path d="M1501.5 1927.5 4182.5 1927.5" stroke="#D9D9D9" stroke-width="3.4375" stroke-linejoin="round" stroke-miterlimit="10" fill="none" fill-rule="evenodd"/></g><g clip-path="url(#clip3)"><path d="M1635 929 1903.06 1049.03 2171.07 1159.04 2439.08 1219.04 2708.09 1173.04 2976.1 1151.04 3244.11 1089.04 3512.12 1100.04 3780.12 1352 4048 1186.04" stroke="#1F4E79" stroke-width="10.3125" stroke-linecap="round" stroke-linejoin="round" stroke-miterlimit="10" fill="none"/></g><g clip-path="url(#clip4)"><path d="M1635 1151.04 1903.06 1061.03 2171.07 970.032 2439.08 918 2708.09 940.031 2976.1 1017.03 3244.11 1092.04 3512.12 1210.04 3780.12 1488 4048 1266.04" stroke="#BF9000" stroke-width="10.3125" stroke-linecap="round" stroke-linejoin="round" stroke-miterlimit="10" fill="none"/></g><g clip-path="url(#clip5)"><path d="M1635 1254.04 1903.06 1299.04 2171.07 1356.04 2439.08 1388 2708.09 1364.04 2976.1 1308.04 3244.11 1200.04 3512.12 1075 3780.12 1325.04 4048 1171.04" stroke="#548235" stroke-width="10.3125" stroke-linecap="round" stroke-linejoin="round" stroke-miterlimit="10" fill="none"/></g><g clip-path="url(#clip6)"><path d="M1635 1582.05 1903.06 1558.05 2171.07 1485.05 2439.08 1409.05 2708.09 1366.04 2976.1 1347.04 3244.11 1345 3512.12 1388.05 3780.12 1652 4048 1545.05" stroke="#7030A0" stroke-width="10.3125" stroke-linecap="round" stroke-linejoin="round" stroke-miterlimit="10" fill="none"/></g><g clip-path="url(#clip7)"><path d="M1635 1375.05 1903.06 1389.05 2171.07 1377.05 2439.08 1369.04 2708.09 1376.05 2976.1 1351.04 3244.11 1291.04 3512.12 1230 3780.12 1447 4048 1294.04" stroke="#5B9BD5" stroke-width="10.3125" stroke-linecap="round" stroke-linejoin="round" stroke-miterlimit="10" fill="none"/></g><g clip-path="url(#clip8)"><text fill="#595959" font-family="Calibri,Calibri_MSFontService,sans-serif" font-weight="400" font-size="64" transform="matrix(1 0 0 1 1409.07 1946)">0</text></g><g clip-path="url(#clip9)"><text fill="#595959" font-family="Calibri,Calibri_MSFontService,sans-serif" font-weight="400" font-size="64" transform="matrix(1 0 0 1 1344.03 1713)">500</text></g><g clip-path="url(#clip10)"><text fill="#595959" font-family="Calibri,Calibri_MSFontService,sans-serif" font-weight="400" font-size="64" transform="matrix(1 0 0 1 1295.49 1480)">1,000</text></g><g clip-path="url(#clip11)"><text fill="#595959" font-family="Calibri,Calibri_MSFontService,sans-serif" font-weight="400" font-size="64" transform="matrix(1 0 0 1 1295.49 1247)">1,500</text></g><g clip-path="url(#clip12)"><text fill="#595959" font-family="Calibri,Calibri_MSFontService,sans-serif" font-weight="400" font-size="64" transform="matrix(1 0 0 1 1295.49 1014)">2,000</text></g><g clip-path="url(#clip13)"><text fill="#595959" font-family="Calibri,Calibri_MSFontService,sans-serif" font-weight="400" font-size="64" transform="matrix(1 0 0 1 1295.49 781)">2,500</text></g><g clip-path="url(#clip14)"><text fill="#595959" font-family="Calibri,Calibri_MSFontService,sans-serif" font-weight="400" font-size="64" transform="matrix(0.707107 -0.707107 0.707107 0.707107 1558.64 2103)">2012</text></g><g clip-path="url(#clip15)"><text fill="#595959" font-family="Calibri,Calibri_MSFontService,sans-serif" font-weight="400" font-size="64" transform="matrix(0.707107 -0.707107 0.707107 0.707107 1826.77 2103)">2013</text></g><g clip-path="url(#clip16)"><text fill="#595959" font-family="Calibri,Calibri_MSFontService,sans-serif" font-weight="400" font-size="64" transform="matrix(0.707107 -0.707107 0.707107 0.707107 2094.9 2103)">2014</text></g><g clip-path="url(#clip17)"><text fill="#595959" font-family="Calibri,Calibri_MSFontService,sans-serif" font-weight="400" font-size="64" transform="matrix(0.707107 -0.707107 0.707107 0.707107 2363.03 2103)">2015</text></g><g clip-path="url(#clip18)"><text fill="#595959" font-family="Calibri,Calibri_MSFontService,sans-serif" font-weight="400" font-size="64" transform="matrix(0.707107 -0.707107 0.707107 0.707107 2631.16 2103)">2016</text></g><g clip-path="url(#clip19)"><text fill="#595959" font-family="Calibri,Calibri_MSFontService,sans-serif" font-weight="400" font-size="64" transform="matrix(0.707107 -0.707107 0.707107 0.707107 2899.29 2103)">2017</text></g><g clip-path="url(#clip20)"><text fill="#595959" font-family="Calibri,Calibri_MSFontService,sans-serif" font-weight="400" font-size="64" transform="matrix(0.707107 -0.707107 0.707107 0.707107 3167.42 2103)">2018</text></g><g clip-path="url(#clip21)"><text fill="#595959" font-family="Calibri,Calibri_MSFontService,sans-serif" font-weight="400" font-size="64" transform="matrix(0.707107 -0.707107 0.707107 0.707107 3435.55 2103)">2019</text></g><g clip-path="url(#clip22)"><text fill="#595959" font-family="Calibri,Calibri_MSFontService,sans-serif" font-weight="400" font-size="64" transform="matrix(0.707107 -0.707107 0.707107 0.707107 3703.68 2103)">2020</text></g><g clip-path="url(#clip23)"><text fill="#595959" font-family="Calibri,Calibri_MSFontService,sans-serif" font-weight="400" font-size="64" transform="matrix(0.707107 -0.707107 0.707107 0.707107 3971.81 2103)">2021</text></g><g clip-path="url(#clip24)"><text fill="#595959" font-family="Calibri,Calibri_MSFontService,sans-serif" font-weight="400" font-size="73" transform="matrix(6.12323e-17 -1 1 6.12323e-17 1264.19 1792)">Number of commercial aircraft</text></g><g clip-path="url(#clip25)"><path d="M1604 2230 1692 2230" stroke="#1F4E79" stroke-width="10.3125" stroke-linecap="round" stroke-linejoin="round" stroke-miterlimit="10" fill="none" fill-rule="evenodd"/></g><g clip-path="url(#clip26)"><text fill="#595959" font-family="Calibri,Calibri_MSFontService,sans-serif" font-weight="400" font-size="64" transform="matrix(1 0 0 1 1701.73 2248)">&lt;5 years</text></g><g clip-path="url(#clip27)"><path d="M2022 2230 2110 2230" stroke="#BF9000" stroke-width="10.3125" stroke-linecap="round" stroke-linejoin="round" stroke-miterlimit="10" fill="none" fill-rule="evenodd"/></g><g clip-path="url(#clip28)"><text fill="#595959" font-family="Calibri,Calibri_MSFontService,sans-serif" font-weight="400" font-size="64" transform="matrix(1 0 0 1 2119.04 2248)">5-9 years</text></g><g clip-path="url(#clip29)"><path d="M2459 2230 2547 2230" stroke="#548235" stroke-width="10.3125" stroke-linecap="round" stroke-linejoin="round" stroke-miterlimit="10" fill="none" fill-rule="evenodd"/></g><g clip-path="url(#clip30)"><text fill="#595959" font-family="Calibri,Calibri_MSFontService,sans-serif" font-weight="400" font-size="64" transform="matrix(1 0 0 1 2556.54 2248)">10-14 years</text></g><g clip-path="url(#clip31)"><path d="M2962 2230 3050 2230" stroke="#7030A0" stroke-width="10.3125" stroke-linecap="round" stroke-linejoin="round" stroke-miterlimit="10" fill="none" fill-rule="evenodd"/></g><g clip-path="url(#clip32)"><text fill="#595959" font-family="Calibri,Calibri_MSFontService,sans-serif" font-weight="400" font-size="64" transform="matrix(1 0 0 1 3059.08 2248)">15-19 years</text></g><g clip-path="url(#clip33)"><path d="M3464 2230 3552 2230" stroke="#5B9BD5" stroke-width="10.3125" stroke-linecap="round" stroke-linejoin="round" stroke-miterlimit="10" fill="none" fill-rule="evenodd"/></g><g clip-path="url(#clip34)"><text fill="#595959" font-family="Calibri,Calibri_MSFontService,sans-serif" font-weight="400" font-size="64" transform="matrix(1 0 0 1 3561.62 2248)">&gt;=20 years</text></g></g></svg>