<svg width="3154" height="1650" xmlns="http://www.w3.org/2000/svg" xmlns:xlink="http://www.w3.org/1999/xlink" xml:space="preserve" overflow="hidden"><defs><clipPath id="clip0"><rect x="1203" y="712" width="3154" height="1650"/></clipPath><clipPath id="clip1"><rect x="1538" y="778" width="1948" height="1440"/></clipPath><clipPath id="clip2"><rect x="1538" y="778" width="1948" height="1440"/></clipPath><clipPath id="clip3"><rect x="1538" y="778" width="1948" height="1440"/></clipPath><clipPath id="clip4"><rect x="1538" y="778" width="1948" height="1440"/></clipPath><clipPath id="clip5"><rect x="1538" y="778" width="1948" height="1440"/></clipPath></defs><g clip-path="url(#clip0)" transform="translate(-1203 -712)"><rect x="1203" y="713" width="3154" height="1649" fill="#FFFFFF"/><g><path d="M1538.5 1927.56 3482.5 1927.56M1538.5 1640.55 3482.5 1640.55M1538.5 1353.54 3482.5 1353.54M1538.5 1066.54 3482.5 1066.54M1538.5 778.5 3482.5 778.5" stroke="#D9D9D9" stroke-width="3.4375" stroke-linejoin="round" stroke-miterlimit="10" fill="none"/></g><g><path d="M1538.5 2215.5 3482.5 2215.5" stroke="#D9D9D9" stroke-width="4.58333" stroke-linejoin="round" stroke-miterlimit="10" fill="none" fill-rule="evenodd"/></g><g clip-path="url(#clip1)"><path d="M1538 983C1602.83 1032.66 1667.67 1084.52 1732.5 1131.97 1797.33 1179.42 1862.17 1232.82 1927 1267.72 1991.83 1302.61 2056.67 1338.46 2121.5 1341.34 2186.33 1344.21 2251.17 1298.87 2316 1284.97 2380.83 1271.07 2445.67 1275.19 2510.5 1257.94 2575.33 1240.68 2640.17 1192.08 2705 1181.44 2769.83 1170.8 2834.67 1140.12 2899.5 1194.09 2964.33 1248.06 3029.17 1487.53 3094 1505.27 3158.83 1523 3223.67 1329.83 3288.5 1300.5 3353.33 1271.17 3418.17 1319.67 3483 1329.26" stroke="#7F7F7F" stroke-width="13.75" stroke-linecap="round" stroke-linejoin="round" stroke-miterlimit="10" fill="none"/></g><g clip-path="url(#clip2)"><path d="M1538 1257.34C1602.83 1220.4 1667.67 1183.65 1732.5 1146.51 1797.33 1109.38 1862.17 1063.92 1927 1034.54 1991.83 1005.15 2056.67 976.442 2121.5 970.221 2186.33 964 2251.17 976.824 2316 997.21 2380.83 1017.6 2445.67 1061.33 2510.5 1092.53 2575.33 1123.73 2640.17 1144.79 2705 1184.41 2769.83 1224.03 2834.67 1248.92 2899.5 1330.27 2964.33 1411.62 3029.17 1661.03 3094 1672.52 3158.83 1684 3223.67 1454.02 3288.5 1399.18 3353.33 1344.34 3418.17 1362.04 3483 1343.48" stroke="#00A29E" stroke-width="13.75" stroke-linecap="round" stroke-linejoin="round" stroke-miterlimit="10" fill="none"/></g><g clip-path="url(#clip3)"><path d="M1538 1384.69C1602.83 1403.06 1667.67 1418.85 1732.5 1439.81 1797.33 1460.76 1862.17 1492.15 1927 1510.43 1991.83 1528.7 2056.67 1547.94 2121.5 1549.47 2186.33 1551 2251.17 1535.98 2316 1519.61 2380.83 1503.25 2445.67 1484.88 2510.5 1451.29 2575.33 1417.7 2640.17 1366.03 2705 1318.09 2769.83 1270.15 2834.67 1138 2899.5 1163.65 2964.33 1189.29 3029.17 1452.15 3094 1471.96 3158.83 1491.77 3223.67 1312.06 3288.5 1282.49 3353.33 1252.92 3418.17 1290.53 3483 1294.55" stroke="#FABB0A" stroke-width="13.75" stroke-linecap="round" stroke-linejoin="round" stroke-miterlimit="10" fill="none"/></g><g clip-path="url(#clip4)"><path d="M1538 1789.16C1602.83 1779.21 1667.67 1779.3 1732.5 1759.3 1797.33 1739.29 1862.17 1699.75 1927 1669.12 1991.83 1638.49 2056.67 1599.91 2121.5 1575.5 2186.33 1551.09 2251.17 1535.49 2316 1522.66 2380.83 1509.84 2445.67 1502.94 2510.5 1498.54 2575.33 1494.14 2640.17 1487.82 2705 1496.24 2769.83 1504.67 2834.67 1486 2899.5 1549.08 2964.33 1612.17 3029.17 1842.48 3094 1874.74 3158.83 1907 3223.67 1781.79 3288.5 1742.64 3353.33 1703.49 3418.17 1674.1 3483 1639.83" stroke="#D48519" stroke-width="13.75" stroke-linecap="round" stroke-linejoin="round" stroke-miterlimit="10" fill="none"/></g><g clip-path="url(#clip5)"><path d="M1538 1534.38C1602.83 1539.94 1667.67 1550.66 1732.5 1551.05 1797.33 1551.43 1862.17 1540.8 1927 1536.68 1991.83 1532.56 2056.67 1526.62 2121.5 1526.34 2186.33 1526.05 2251.17 1538.69 2316 1534.96 2380.83 1531.22 2445.67 1521.35 2510.5 1503.92 2575.33 1486.49 2640.17 1455.17 2705 1430.37 2769.83 1405.56 2834.67 1323 2899.5 1355.09 2964.33 1387.17 3029.17 1609.76 3094 1622.88 3158.83 1636 3223.67 1472.22 3288.5 1433.81 3353.33 1395.41 3418.17 1406.23 3483 1392.44" stroke="#4F81BD" stroke-width="13.75" stroke-linecap="round" stroke-linejoin="round" stroke-miterlimit="10" fill="none"/></g><g><path d="M3482.5 1329.5 3552.62 1224.5 3573.5 1224.5" stroke="#A6A6A6" stroke-width="3.4375" stroke-linejoin="round" stroke-miterlimit="10" fill="none"/></g><g><text fill="#003366" font-family="Calibri,Calibri_MSFontService,sans-serif" font-weight="400" font-size="64" transform="matrix(1 0 0 1 3601.39 1246)">1,542 </text></g><g><path d="M3482.5 1343.5 3552.62 1328.5 3573.5 1328.5" stroke="#A6A6A6" stroke-width="3.4375" stroke-linejoin="round" stroke-miterlimit="10" fill="none"/></g><g><text fill="#003366" font-family="Calibri,Calibri_MSFontService,sans-serif" font-weight="400" font-size="64" transform="matrix(1 0 0 1 3601.38 1351)">1,517 </text></g><g><path d="M3482.5 1294.5 3557.62 1121.5 3577.5 1121.5" stroke="#A6A6A6" stroke-width="3.4375" stroke-linejoin="round" stroke-miterlimit="10" fill="none"/></g><g><text fill="#003366" font-family="Calibri,Calibri_MSFontService,sans-serif" font-weight="400" font-size="64" transform="matrix(1 0 0 1 3606.01 1143)">1,602 </text></g><g><path d="M3482.5 1640.5 3550.62 1658.5 3571.5 1658.5" stroke="#A6A6A6" stroke-width="3.4375" stroke-linejoin="round" stroke-miterlimit="10" fill="none"/></g><g><text fill="#003366" font-family="Calibri,Calibri_MSFontService,sans-serif" font-weight="400" font-size="64" transform="matrix(1 0 0 1 3599.31 1681)">1,001 </text></g><g><path d="M3482.5 1392.5 3547.62 1427.5 3568.5 1427.5" stroke="#A6A6A6" stroke-width="3.4375" stroke-linejoin="round" stroke-miterlimit="10" fill="none"/></g><g><text fill="#003366" font-family="Calibri,Calibri_MSFontService,sans-serif" font-weight="400" font-size="64" transform="matrix(1 0 0 1 3596.84 1450)">1,432 </text></g><g><text fill="#404040" font-family="Calibri,Calibri_MSFontService,sans-serif" font-weight="400" font-size="64" transform="matrix(1 0 0 1 1400.88 2233)"> -</text></g><g><text fill="#404040" font-family="Calibri,Calibri_MSFontService,sans-serif" font-weight="400" font-size="64" transform="matrix(1 0 0 1 1351.97 1946)"> 500</text></g><g><text fill="#404040" font-family="Calibri,Calibri_MSFontService,sans-serif" font-weight="400" font-size="64" transform="matrix(1 0 0 1 1303.43 1659)"> 1,000</text></g><g><text fill="#404040" font-family="Calibri,Calibri_MSFontService,sans-serif" font-weight="400" font-size="64" transform="matrix(1 0 0 1 1303.43 1372)"> 1,500</text></g><g><text fill="#404040" font-family="Calibri,Calibri_MSFontService,sans-serif" font-weight="400" font-size="64" transform="matrix(1 0 0 1 1303.43 1084)"> 2,000</text></g><g><text fill="#404040" font-family="Calibri,Calibri_MSFontService,sans-serif" font-weight="400" font-size="64" transform="matrix(1 0 0 1 1303.43 797)"> 2,500</text></g><g><text fill="#404040" font-family="Calibri,Calibri_MSFontService,sans-serif" font-weight="400" font-size="64" transform="matrix(1 0 0 1 1473.03 2317)">2012</text></g><g><text fill="#404040" font-family="Calibri,Calibri_MSFontService,sans-serif" font-weight="400" font-size="64" transform="matrix(1 0 0 1 1667.51 2317)">2013</text></g><g><text fill="#404040" font-family="Calibri,Calibri_MSFontService,sans-serif" font-weight="400" font-size="64" transform="matrix(1 0 0 1 1862 2317)">2014</text></g><g><text fill="#404040" font-family="Calibri,Calibri_MSFontService,sans-serif" font-weight="400" font-size="64" transform="matrix(1 0 0 1 2056.48 2317)">2015</text></g><g><text fill="#404040" font-family="Calibri,Calibri_MSFontService,sans-serif" font-weight="400" font-size="64" transform="matrix(1 0 0 1 2250.96 2317)">2016</text></g><g><text fill="#404040" font-family="Calibri,Calibri_MSFontService,sans-serif" font-weight="400" font-size="64" transform="matrix(1 0 0 1 2445.44 2317)">2017</text></g><g><text fill="#404040" font-family="Calibri,Calibri_MSFontService,sans-serif" font-weight="400" font-size="64" transform="matrix(1 0 0 1 2639.92 2317)">2018</text></g><g><text fill="#404040" font-family="Calibri,Calibri_MSFontService,sans-serif" font-weight="400" font-size="64" transform="matrix(1 0 0 1 2834.4 2317)">2019</text></g><g><text fill="#404040" font-family="Calibri,Calibri_MSFontService,sans-serif" font-weight="400" font-size="64" transform="matrix(1 0 0 1 3028.88 2317)">2020</text></g><g><text fill="#404040" font-family="Calibri,Calibri_MSFontService,sans-serif" font-weight="400" font-size="64" transform="matrix(1 0 0 1 3223.36 2317)">2021</text></g><g><text fill="#404040" font-family="Calibri,Calibri_MSFontService,sans-serif" font-weight="400" font-size="64" transform="matrix(1 0 0 1 3417.84 2317)">2022</text></g><g><text fill="#404040" font-family="Calibri,Calibri_MSFontService,sans-serif" font-weight="400" font-size="64" transform="matrix(6.12323e-17 -1 1 6.12323e-17 1284.91 1533)">Number of commercial aircraft</text></g><g><rect x="3760.5" y="773.5" width="580" height="1453" stroke="#F2F2F2" stroke-width="3.4375" stroke-linejoin="round" stroke-miterlimit="10" fill="#F2F2F2"/></g><g><path d="M3858 919 3946 919" stroke="#7F7F7F" stroke-width="13.75" stroke-linecap="round" stroke-linejoin="round" stroke-miterlimit="10" fill="none" fill-rule="evenodd"/></g><g><text fill="#404040" font-family="Calibri,Calibri_MSFontService,sans-serif" font-weight="400" font-size="64" transform="matrix(1 0 0 1 3955.42 937)">&lt;5 years</text></g><g><path d="M3858 1210 3946 1210" stroke="#00A29E" stroke-width="13.75" stroke-linecap="round" stroke-linejoin="round" stroke-miterlimit="10" fill="none" fill-rule="evenodd"/></g><g><text fill="#404040" font-family="Calibri,Calibri_MSFontService,sans-serif" font-weight="400" font-size="64" transform="matrix(1 0 0 1 3955.42 1228)">5-9 years</text></g><g><path d="M3858 1500 3946 1500" stroke="#FABB0A" stroke-width="13.75" stroke-linecap="round" stroke-linejoin="round" stroke-miterlimit="10" fill="none" fill-rule="evenodd"/></g><g><text fill="#404040" font-family="Calibri,Calibri_MSFontService,sans-serif" font-weight="400" font-size="64" transform="matrix(1 0 0 1 3955.42 1519)">10-14 years</text></g><g><path d="M3858 1791 3946 1791" stroke="#D48519" stroke-width="13.75" stroke-linecap="round" stroke-linejoin="round" stroke-miterlimit="10" fill="none" fill-rule="evenodd"/></g><g><text fill="#404040" font-family="Calibri,Calibri_MSFontService,sans-serif" font-weight="400" font-size="64" transform="matrix(1 0 0 1 3955.42 1809)">15-19 years</text></g><g><path d="M3858 2081 3946 2081" stroke="#4F81BD" stroke-width="13.75" stroke-linecap="round" stroke-linejoin="round" stroke-miterlimit="10" fill="none" fill-rule="evenodd"/></g><g><text fill="#404040" font-family="Calibri,Calibri_MSFontService,sans-serif" font-weight="400" font-size="64" transform="matrix(1 0 0 1 3955.42 2100)">&gt;=20 years</text></g></g></svg>