<svg width="3164" height="1749" xmlns="http://www.w3.org/2000/svg" xmlns:xlink="http://www.w3.org/1999/xlink" xml:space="preserve" overflow="hidden"><defs><clipPath id="clip0"><rect x="1724" y="1606" width="3164" height="1749"/></clipPath><clipPath id="clip1"><rect x="1977" y="1676" width="1959" height="1526"/></clipPath><clipPath id="clip2"><rect x="1977" y="1676" width="1959" height="1526"/></clipPath><clipPath id="clip3"><rect x="1977" y="1676" width="1959" height="1526"/></clipPath></defs><g clip-path="url(#clip0)" transform="translate(-1724 -1606)"><rect x="1724" y="1606" width="3164" height="1749" fill="#FFFFFF"/><g><path d="M1977.5 2894.6 3932.5 2894.6M1977.5 2590.59 3932.5 2590.59M1977.5 2285.58 3932.5 2285.58M1977.5 1981.57 3932.5 1981.57M1977.5 1676.5 3932.5 1676.5" stroke="#D9D9D9" stroke-width="3.4375" stroke-linejoin="round" stroke-miterlimit="10" fill="none"/></g><g><path d="M1977.5 3199.5 3932.5 3199.5" stroke="#D9D9D9" stroke-width="4.58333" stroke-linejoin="round" stroke-miterlimit="10" fill="none" fill-rule="evenodd"/></g><g><path d="M1978 2566C2043.17 2557.88 2108.33 2549.75 2173.5 2541.63 2238.67 2533.5 2303.83 2525.38 2369 2517.25 2434.17 2509.13 2499.33 2498.97 2564.5 2492.88 2629.67 2486.78 2694.83 2484.75 2760 2480.69 2825.17 2476.63 2890.33 2473.58 2955.5 2468.5 3020.67 2463.42 3085.83 2448.19 3151 2450.22 3216.17 2452.25 3281.33 2480.69 3346.5 2480.69 3411.67 2480.69 3476.83 2457.33 3542 2450.22 3607.17 2443.11 3672.33 2440.06 3737.5 2438.03 3802.67 2436 3867.83 2438.03 3933 2438.03" stroke="#7F7F7F" stroke-width="13.75" stroke-linecap="round" stroke-linejoin="round" stroke-miterlimit="10" fill="none"/></g><g><path d="M1978 2383C2043.17 2372.84 2108.33 2358.61 2173.5 2352.52 2238.67 2346.42 2303.83 2352.52 2369 2346.42 2434.17 2340.33 2499.33 2335.25 2564.5 2315.94 2629.67 2296.64 2694.83 2247.87 2760 2230.59 2825.17 2213.32 2890.33 2218.4 2955.5 2212.31 3020.67 2206.21 3085.83 2193 3151 2194.02 3216.17 2195.03 3281.33 2205.19 3346.5 2218.4 3411.67 2231.61 3476.83 2258.03 3542 2273.27 3607.17 2288.51 3672.33 2311.88 3737.5 2309.85 3802.67 2307.81 3867.83 2277.33 3933 2261.08" stroke="#00A29E" stroke-width="13.75" stroke-linecap="round" stroke-linejoin="round" stroke-miterlimit="10" fill="none"/></g><g><path d="M1978 2005.69C2043.17 2011.78 2108.33 2025 2173.5 2023.98 2238.67 2022.97 2303.83 2007.72 2369 1999.59 2434.17 1991.45 2499.33 1982.3 2564.5 1975.19 2629.67 1968.07 2694.83 1962.99 2760 1956.89 2825.17 1950.79 2890.33 1944.69 2955.5 1938.59 3020.67 1932.49 3085.83 1920.29 3151 1920.29 3216.17 1920.29 3281.33 1937.57 3346.5 1938.59 3411.67 1939.61 3476.83 1936.56 3542 1926.39 3607.17 1916.23 3672.33 1891.83 3737.5 1877.6 3802.67 1863.36 3867.83 1853.2 3933 1841" stroke="#003366" stroke-width="13.75" stroke-linecap="round" stroke-linejoin="round" stroke-miterlimit="10" fill="none"/></g><g><path d="M1978 2784.93C2043.17 2784.93 2108.33 2790 2173.5 2784.93 2238.67 2779.86 2303.83 2763.64 2369 2754.51 2434.17 2745.38 2499.33 2735.24 2564.5 2730.17 2629.67 2725.1 2694.83 2726.12 2760 2724.09 2825.17 2722.06 2890.33 2720.04 2955.5 2718.01 3020.67 2715.98 3085.83 2716.99 3151 2711.92 3216.17 2706.85 3281.33 2688.6 3346.5 2687.59 3411.67 2686.57 3476.83 2705.84 3542 2705.84 3607.17 2705.84 3672.33 2697.73 3737.5 2687.59 3802.67 2677.45 3867.83 2659.2 3933 2645" stroke="#00B050" stroke-width="13.75" stroke-linecap="round" stroke-linejoin="round" stroke-miterlimit="10" fill="none"/></g><g clip-path="url(#clip1)"><path d="M1978 3198.78C2043.17 3198.78 2108.33 3198.78 2173.5 3198.78 2238.67 3198.78 2303.83 3198.78 2369 3198.78 2434.17 3198.78 2499.33 3198.78 2564.5 3198.78 2629.67 3198.78 2694.83 3198.78 2760 3198.78 2825.17 3198.78 2890.33 3198.78 2955.5 3198.78 3001.62 3198.78 3104.88 3285 3151 3198.78 3216.17 3076.97 3281.33 2580.58 3346.5 2467.9 3397.34 2380 3491.16 2510.84 3542 2522.72 3607.17 2537.95 3672.33 2562.31 3737.5 2559.26 3802.67 2556.22 3867.83 2522.72 3933 2504.45" stroke="#4F81BD" stroke-width="13.75" stroke-linecap="round" stroke-linejoin="round" stroke-miterlimit="10" fill="none"/></g><g clip-path="url(#clip2)"><path d="M1978 3198.8C2043.17 3198.8 2108.33 3198.8 2173.5 3198.8 2238.67 3198.8 2303.83 3198.8 2369 3198.8 2434.17 3198.8 2499.33 3198.8 2564.5 3198.8 2629.67 3198.8 2694.83 3198.8 2760 3198.8 2825.17 3198.8 2890.33 3198.8 2955.5 3198.8 3005.12 3198.8 3101.38 3283 3151 3198.8 3216.17 3088.23 3281.33 2658.1 3346.5 2535.35 3395.42 2443.2 3493.08 2473.73 3542 2462.3 3607.17 2447.09 3672.33 2447.09 3737.5 2444.04 3802.67 2441 3867.83 2444.04 3933 2444.04" stroke="#D48519" stroke-width="13.75" stroke-linecap="round" stroke-linejoin="round" stroke-miterlimit="10" fill="none"/></g><g clip-path="url(#clip3)"><path d="M1978 2565.86C2043.17 2565.86 2108.33 2568.91 2173.5 2565.86 2238.67 2562.82 2303.83 2554.7 2369 2547.6 2434.17 2540.5 2499.33 2528.33 2564.5 2523.26 2629.67 2518.19 2694.83 2519.2 2760 2517.17 2825.17 2515.14 2890.33 2513.11 2955.5 2511.08 3003.82 2509.58 3102.68 2420 3151 2505 3216.17 2619.63 3281.33 3083.22 3346.5 3198.86 3394.48 3284 3494.02 3198.86 3542 3198.86 3607.17 3198.86 3672.33 3198.86 3737.5 3198.86 3802.67 3198.86 3867.83 3198.86 3933 3198.86" stroke="#B3D235" stroke-width="13.75" stroke-linecap="round" stroke-linejoin="round" stroke-miterlimit="10" fill="none"/></g><g><path d="M1978 2596C2043.17 2593.98 2108.33 2592.97 2173.5 2589.95 2238.67 2586.92 2303.83 2583.89 2369 2577.84 2434.17 2571.79 2499.33 2558.67 2564.5 2553.63 2629.67 2548.58 2694.83 2548.58 2760 2547.58 2825.17 2546.57 2890.33 2549.59 2955.5 2547.58 3020.67 2545.56 3085.83 2539.5 3151 2535.47 3216.17 2531.43 3281.33 2531.43 3346.5 2523.36 3411.67 2515.29 3476.83 2492.09 3542 2487.04 3607.17 2482 3672.33 2492.09 3737.5 2493.1 3802.67 2494.11 3867.83 2493.1 3933 2493.1" stroke="#FABB0A" stroke-width="13.75" stroke-linecap="round" stroke-linejoin="round" stroke-miterlimit="10" fill="none"/></g><g><path d="M3932.5 2437.5 4002.63 2273.5 4023.5 2273.5" stroke="#A6A6A6" stroke-width="3.4375" stroke-linejoin="round" stroke-miterlimit="10" fill="none"/></g><g><text fill="#404040" font-family="Calibri,Calibri_MSFontService,sans-serif" font-weight="400" font-size="60" transform="matrix(1 0 0 1 4037.05 2294)">13</text></g><g><path d="M3932.5 2261.5 4002.63 2128.5 4023.5 2128.5" stroke="#A6A6A6" stroke-width="3.4375" stroke-linejoin="round" stroke-miterlimit="10" fill="none"/></g><g><text fill="#404040" font-family="Calibri,Calibri_MSFontService,sans-serif" font-weight="400" font-size="60" transform="matrix(1 0 0 1 4037.04 2150)">15</text></g><g><path d="M3932.5 1841.5 4002.63 1764.5 4023.5 1764.5" stroke="#A6A6A6" stroke-width="3.4375" stroke-linejoin="round" stroke-miterlimit="10" fill="none"/></g><g><text fill="#404040" font-family="Calibri,Calibri_MSFontService,sans-serif" font-weight="400" font-size="60" transform="matrix(1 0 0 1 4037.09 1785)">22</text></g><g><path d="M3932.5 2644.5 4000.63 2664.5 4021.5 2664.5" stroke="#A6A6A6" stroke-width="3.4375" stroke-linejoin="round" stroke-miterlimit="10" fill="none"/></g><g><text fill="#404040" font-family="Calibri,Calibri_MSFontService,sans-serif" font-weight="400" font-size="60" transform="matrix(1 0 0 1 4034.97 2686)">9</text></g><g><path d="M3932.5 2504.5 3997.63 2542.5 4018.5 2542.5" stroke="#A6A6A6" stroke-width="3.4375" stroke-linejoin="round" stroke-miterlimit="10" fill="none"/></g><g><text fill="#404040" font-family="Calibri,Calibri_MSFontService,sans-serif" font-weight="400" font-size="60" transform="matrix(1 0 0 1 4032.49 2563)">11</text></g><g><path d="M3932.5 2443.5 4002.63 2361.5 4023.5 2361.5" stroke="#A6A6A6" stroke-width="3.4375" stroke-linejoin="round" stroke-miterlimit="10" fill="none"/></g><g><text fill="#404040" font-family="Calibri,Calibri_MSFontService,sans-serif" font-weight="400" font-size="60" transform="matrix(1 0 0 1 4037.03 2382)">12</text></g><g><path d="M3150.5 2504.5 4000.63 3139.5 4021.5 3139.5" stroke="#A6A6A6" stroke-width="3.4375" stroke-linejoin="round" stroke-miterlimit="10" fill="none"/></g><g><text fill="#404040" font-family="Calibri,Calibri_MSFontService,sans-serif" font-weight="400" font-size="60" transform="matrix(1 0 0 1 4034.94 3160)">11</text></g><g><path d="M3932.5 2492.5 3997.63 2448.5 4018.5 2448.5" stroke="#A6A6A6" stroke-width="3.4375" stroke-linejoin="round" stroke-miterlimit="10" fill="none"/></g><g><text fill="#404040" font-family="Calibri,Calibri_MSFontService,sans-serif" font-weight="400" font-size="60" transform="matrix(1 0 0 1 4032.38 2469)">12</text></g><g><text fill="#404040" font-family="Calibri,Calibri_MSFontService,sans-serif" font-weight="400" font-size="60" transform="matrix(1 0 0 1 1892.21 3216)">0</text></g><g><text fill="#404040" font-family="Calibri,Calibri_MSFontService,sans-serif" font-weight="400" font-size="60" transform="matrix(1 0 0 1 1892.21 2912)">5</text></g><g><text fill="#404040" font-family="Calibri,Calibri_MSFontService,sans-serif" font-weight="400" font-size="60" transform="matrix(1 0 0 1 1862 2607)">10</text></g><g><text fill="#404040" font-family="Calibri,Calibri_MSFontService,sans-serif" font-weight="400" font-size="60" transform="matrix(1 0 0 1 1862 2303)">15</text></g><g><text fill="#404040" font-family="Calibri,Calibri_MSFontService,sans-serif" font-weight="400" font-size="60" transform="matrix(1 0 0 1 1862 1999)">20</text></g><g><text fill="#404040" font-family="Calibri,Calibri_MSFontService,sans-serif" font-weight="400" font-size="60" transform="matrix(1 0 0 1 1862 1694)">25</text></g><g><text fill="#404040" font-family="Calibri,Calibri_MSFontService,sans-serif" font-weight="400" font-size="60" transform="matrix(1 0 0 1 1917.29 3294)">2012</text></g><g><text fill="#404040" font-family="Calibri,Calibri_MSFontService,sans-serif" font-weight="400" font-size="60" transform="matrix(1 0 0 1 2112.8 3294)">2013</text></g><g><text fill="#404040" font-family="Calibri,Calibri_MSFontService,sans-serif" font-weight="400" font-size="60" transform="matrix(1 0 0 1 2308.32 3294)">2014</text></g><g><text fill="#404040" font-family="Calibri,Calibri_MSFontService,sans-serif" font-weight="400" font-size="60" transform="matrix(1 0 0 1 2503.83 3294)">2015</text></g><g><text fill="#404040" font-family="Calibri,Calibri_MSFontService,sans-serif" font-weight="400" font-size="60" transform="matrix(1 0 0 1 2699.35 3294)">2016</text></g><g><text fill="#404040" font-family="Calibri,Calibri_MSFontService,sans-serif" font-weight="400" font-size="60" transform="matrix(1 0 0 1 2894.87 3294)">2017</text></g><g><text fill="#404040" font-family="Calibri,Calibri_MSFontService,sans-serif" font-weight="400" font-size="60" transform="matrix(1 0 0 1 3090.38 3294)">2018</text></g><g><text fill="#404040" font-family="Calibri,Calibri_MSFontService,sans-serif" font-weight="400" font-size="60" transform="matrix(1 0 0 1 3285.9 3294)">2019</text></g><g><text fill="#404040" font-family="Calibri,Calibri_MSFontService,sans-serif" font-weight="400" font-size="60" transform="matrix(1 0 0 1 3481.42 3294)">2020</text></g><g><text fill="#404040" font-family="Calibri,Calibri_MSFontService,sans-serif" font-weight="400" font-size="60" transform="matrix(1 0 0 1 3676.93 3294)">2021</text></g><g><text fill="#404040" font-family="Calibri,Calibri_MSFontService,sans-serif" font-weight="400" font-size="60" transform="matrix(1 0 0 1 3872.45 3294)">2022</text></g><g><text fill="#404040" font-family="Calibri,Calibri_MSFontService,sans-serif" font-weight="400" font-size="60" transform="matrix(6.12323e-17 -1 1 6.12323e-17 1811.44 1932)">Age (years)</text></g><g><rect x="4146.5" y="1671.5" width="725" height="1549" stroke="#F2F2F2" stroke-width="3.4375" stroke-linejoin="round" stroke-miterlimit="10" fill="#F2F2F2"/></g><g><path d="M4192 1732 4280 1732" stroke="#7F7F7F" stroke-width="13.75" stroke-linecap="round" stroke-linejoin="round" stroke-miterlimit="10" fill="none" fill-rule="evenodd"/></g><g><text fill="#404040" font-family="Calibri,Calibri_MSFontService,sans-serif" font-weight="400" font-size="60" transform="matrix(1 0 0 1 4289.08 1750)">Business Aviation</text></g><g><path d="M4192 1926 4280 1926" stroke="#00A29E" stroke-width="13.75" stroke-linecap="round" stroke-linejoin="round" stroke-miterlimit="10" fill="none" fill-rule="evenodd"/></g><g><text fill="#404040" font-family="Calibri,Calibri_MSFontService,sans-serif" font-weight="400" font-size="60" transform="matrix(1 0 0 1 4289.08 1943)">Charter</text></g><g><path d="M4192 2120 4280 2120" stroke="#003366" stroke-width="13.75" stroke-linecap="round" stroke-linejoin="round" stroke-miterlimit="10" fill="none" fill-rule="evenodd"/></g><g><text fill="#404040" font-family="Calibri,Calibri_MSFontService,sans-serif" font-weight="400" font-size="60" transform="matrix(1 0 0 1 4289.08 2137)">All-cargo</text></g><g><path d="M4192 2313 4280 2313" stroke="#00B050" stroke-width="13.75" stroke-linecap="round" stroke-linejoin="round" stroke-miterlimit="10" fill="none" fill-rule="evenodd"/></g><g><text fill="#404040" font-family="Calibri,Calibri_MSFontService,sans-serif" font-weight="400" font-size="60" transform="matrix(1 0 0 1 4289.08 2330)">Lowcost</text></g><g><path d="M4192 2507 4280 2507" stroke="#4F81BD" stroke-width="13.75" stroke-linecap="round" stroke-linejoin="round" stroke-miterlimit="10" fill="none" fill-rule="evenodd"/></g><g><text fill="#404040" font-family="Calibri,Calibri_MSFontService,sans-serif" font-weight="400" font-size="60" transform="matrix(1 0 0 1 4289.08 2524)">Mainline (from 2019)</text></g><g><path d="M4192 2700 4280 2700" stroke="#D48519" stroke-width="13.75" stroke-linecap="round" stroke-linejoin="round" stroke-miterlimit="10" fill="none" fill-rule="evenodd"/></g><g><text fill="#404040" font-family="Calibri,Calibri_MSFontService,sans-serif" font-weight="400" font-size="60" transform="matrix(1 0 0 1 4289.08 2718)">Regional Aircraft (from</text></g><g><text fill="#404040" font-family="Calibri,Calibri_MSFontService,sans-serif" font-weight="400" font-size="60" transform="matrix(1 0 0 1 4289.08 2790)">2019)</text></g><g><path d="M4192 2894 4280 2894" stroke="#B3D235" stroke-width="13.75" stroke-linecap="round" stroke-linejoin="round" stroke-miterlimit="10" fill="none" fill-rule="evenodd"/></g><g><text fill="#404040" font-family="Calibri,Calibri_MSFontService,sans-serif" font-weight="400" font-size="60" transform="matrix(1 0 0 1 4289.08 2911)">Traditional Scheduled</text></g><g><text fill="#404040" font-family="Calibri,Calibri_MSFontService,sans-serif" font-weight="400" font-size="60" transform="matrix(1 0 0 1 4289.08 2984)">(until 2018)</text></g><g><path d="M4192 3088 4280 3088" stroke="#FABB0A" stroke-width="13.75" stroke-linecap="round" stroke-linejoin="round" stroke-miterlimit="10" fill="none" fill-rule="evenodd"/></g><g><text fill="#404040" font-family="Calibri,Calibri_MSFontService,sans-serif" font-weight="400" font-size="60" transform="matrix(1 0 0 1 4289.08 3105)">All Segments</text></g></g></svg>