<svg width="2708" height="1717" xmlns="http://www.w3.org/2000/svg" xmlns:xlink="http://www.w3.org/1999/xlink" xml:space="preserve" overflow="hidden"><defs><clipPath id="clip0"><rect x="3567" y="755" width="2708" height="1717"/></clipPath><clipPath id="clip1"><rect x="3568" y="756" width="2705" height="1713"/></clipPath><clipPath id="clip2"><rect x="3568" y="756" width="2705" height="1713"/></clipPath><clipPath id="clip3"><rect x="3907" y="818" width="2319" height="1386"/></clipPath><clipPath id="clip4"><rect x="3907" y="818" width="2319" height="1386"/></clipPath><clipPath id="clip5"><rect x="3907" y="818" width="2319" height="1386"/></clipPath><clipPath id="clip6"><rect x="3907" y="818" width="2319" height="1386"/></clipPath><clipPath id="clip7"><rect x="3907" y="818" width="2319" height="1386"/></clipPath><clipPath id="clip8"><rect x="3568" y="756" width="2705" height="1713"/></clipPath><clipPath id="clip9"><rect x="3568" y="756" width="2705" height="1713"/></clipPath><clipPath id="clip10"><rect x="3568" y="756" width="2705" height="1713"/></clipPath><clipPath id="clip11"><rect x="3568" y="756" width="2705" height="1713"/></clipPath><clipPath id="clip12"><rect x="3568" y="756" width="2705" height="1713"/></clipPath><clipPath id="clip13"><rect x="3568" y="756" width="2705" height="1713"/></clipPath><clipPath id="clip14"><rect x="3568" y="756" width="2705" height="1713"/></clipPath><clipPath id="clip15"><rect x="3568" y="756" width="2705" height="1713"/></clipPath><clipPath id="clip16"><rect x="3568" y="756" width="2705" height="1713"/></clipPath><clipPath id="clip17"><rect x="3568" y="756" width="2705" height="1713"/></clipPath><clipPath id="clip18"><rect x="3568" y="756" width="2705" height="1713"/></clipPath><clipPath id="clip19"><rect x="3568" y="756" width="2705" height="1713"/></clipPath><clipPath id="clip20"><rect x="3568" y="756" width="2705" height="1713"/></clipPath><clipPath id="clip21"><rect x="3568" y="756" width="2705" height="1713"/></clipPath><clipPath id="clip22"><rect x="3568" y="756" width="2705" height="1713"/></clipPath><clipPath id="clip23"><rect x="3568" y="756" width="2705" height="1713"/></clipPath><clipPath id="clip24"><rect x="3568" y="756" width="2705" height="1713"/></clipPath><clipPath id="clip25"><rect x="3568" y="756" width="2705" height="1713"/></clipPath><clipPath id="clip26"><rect x="3568" y="756" width="2705" height="1713"/></clipPath><clipPath id="clip27"><rect x="3568" y="756" width="2705" height="1713"/></clipPath><clipPath id="clip28"><rect x="3568" y="756" width="2705" height="1713"/></clipPath><clipPath id="clip29"><rect x="3568" y="756" width="2705" height="1713"/></clipPath><clipPath id="clip30"><rect x="3568" y="756" width="2705" height="1713"/></clipPath><clipPath id="clip31"><rect x="3568" y="756" width="2705" height="1713"/></clipPath><clipPath id="clip32"><rect x="3568" y="756" width="2705" height="1713"/></clipPath><clipPath id="clip33"><rect x="3568" y="756" width="2705" height="1713"/></clipPath><clipPath id="clip34"><rect x="3568" y="756" width="2705" height="1713"/></clipPath><clipPath id="clip35"><rect x="3568" y="756" width="2705" height="1713"/></clipPath><clipPath id="clip36"><rect x="3568" y="756" width="2705" height="1713"/></clipPath><clipPath id="clip37"><rect x="3568" y="756" width="2705" height="1713"/></clipPath><clipPath id="clip38"><rect x="3568" y="756" width="2705" height="1713"/></clipPath><clipPath id="clip39"><rect x="3568" y="756" width="2705" height="1713"/></clipPath><clipPath id="clip40"><rect x="3568" y="756" width="2705" height="1713"/></clipPath><clipPath id="clip41"><rect x="3568" y="756" width="2705" height="1713"/></clipPath><clipPath id="clip42"><rect x="3568" y="756" width="2705" height="1713"/></clipPath></defs><g clip-path="url(#clip0)" transform="translate(-3567 -755)"><rect x="3568" y="756" width="2705" height="1714" fill="#FFFFFF"/><g clip-path="url(#clip1)"><path d="M3907.5 1970.56 6223.5 1970.56M3907.5 1739.56 6223.5 1739.56M3907.5 1509.55 6223.5 1509.55M3907.5 1279.54 6223.5 1279.54M3907.5 1048.53 6223.5 1048.53M3907.5 818.5 6223.5 818.5" stroke="#D9D9D9" stroke-width="3.4375" stroke-linejoin="round" stroke-miterlimit="10" fill="none"/></g><g clip-path="url(#clip2)"><path d="M3907.5 2200.5 6223.5 2200.5" stroke="#D9D9D9" stroke-width="3.4375" stroke-linejoin="round" stroke-miterlimit="10" fill="none" fill-rule="evenodd"/></g><g clip-path="url(#clip3)"><path d="M3975 1442.05 4111.13 1421.05 4248.14 1340.04 4384.14 1204.04 4520.15 1118.04 4656.15 1086 4792.16 1129.04 4929.16 1213.04 5065.17 1332.04 5201.17 1441.05 5337.18 1500.05 5474.18 1455.05 5610.18 1433.05 5746.19 1372.04 5882.19 1382.05 6018.2 1631 6155 1467.05" stroke="#548235" stroke-width="10.3125" stroke-linecap="round" stroke-linejoin="round" stroke-miterlimit="10" fill="none"/></g><g clip-path="url(#clip4)"><path d="M3975 1428.05 4111.13 1359.04 4248.14 1318.04 4384.14 1360.04 4520.15 1418.05 4656.15 1487.05 4792.16 1488.05 4929.16 1433.05 5065.17 1344.04 5201.17 1254.04 5337.18 1202 5474.18 1224.04 5610.18 1300.04 5746.19 1374.05 5882.19 1491.05 6018.2 1766 6155 1546.05" stroke="#ED7D31" stroke-width="10.3125" stroke-linecap="round" stroke-linejoin="round" stroke-miterlimit="10" fill="none"/></g><g clip-path="url(#clip5)"><path d="M3975 1639.05 4111.13 1727 4248.14 1710.06 4384.14 1685.06 4520.15 1619.05 4656.15 1572.05 4792.16 1518.05 4929.16 1535.05 5065.17 1579.05 5201.17 1636.05 5337.18 1667.05 5474.18 1643.05 5610.18 1588.05 5746.19 1481.05 5882.19 1358 6018.2 1605.05 6155 1453.05" stroke="#A5A5A5" stroke-width="10.3125" stroke-linecap="round" stroke-linejoin="round" stroke-miterlimit="10" fill="none"/></g><g clip-path="url(#clip6)"><path d="M3975 1729.06 4111.13 1613.05 4248.14 1576 4384.14 1641.05 4520.15 1743.06 4656.15 1768.06 4792.16 1842.06 4929.16 1859.06 5065.17 1835.06 5201.17 1763.06 5337.18 1688.06 5474.18 1645.05 5610.18 1626.05 5746.19 1624.05 5882.19 1667.05 6018.2 1928 6155 1822.06" stroke="#FFC000" stroke-width="10.3125" stroke-linecap="round" stroke-linejoin="round" stroke-miterlimit="10" fill="none"/></g><g clip-path="url(#clip7)"><path d="M3975 1899 4111.13 1867.06 4248.14 1848.06 4384.14 1816.06 4520.15 1768.06 4656.15 1721.06 4792.16 1648.05 4929.16 1655.05 5065.17 1668.05 5201.17 1657.05 5337.18 1648.05 5474.18 1655.05 5610.18 1630.05 5746.19 1571.05 5882.19 1511 6018.2 1726.06 6155 1574.05" stroke="#5B9BD5" stroke-width="10.3125" stroke-linecap="round" stroke-linejoin="round" stroke-miterlimit="10" fill="none"/></g><g clip-path="url(#clip8)"><text fill="#595959" font-family="Calibri,Calibri_MSFontService,sans-serif" font-weight="400" font-size="55" transform="matrix(1 0 0 1 3828.21 2216)">0</text></g><g clip-path="url(#clip9)"><text fill="#595959" font-family="Calibri,Calibri_MSFontService,sans-serif" font-weight="400" font-size="55" transform="matrix(1 0 0 1 3772.47 1986)">500</text></g><g clip-path="url(#clip10)"><text fill="#595959" font-family="Calibri,Calibri_MSFontService,sans-serif" font-weight="400" font-size="55" transform="matrix(1 0 0 1 3744.61 1755)">1000</text></g><g clip-path="url(#clip11)"><text fill="#595959" font-family="Calibri,Calibri_MSFontService,sans-serif" font-weight="400" font-size="55" transform="matrix(1 0 0 1 3744.61 1525)">1500</text></g><g clip-path="url(#clip12)"><text fill="#595959" font-family="Calibri,Calibri_MSFontService,sans-serif" font-weight="400" font-size="55" transform="matrix(1 0 0 1 3744.61 1295)">2000</text></g><g clip-path="url(#clip13)"><text fill="#595959" font-family="Calibri,Calibri_MSFontService,sans-serif" font-weight="400" font-size="55" transform="matrix(1 0 0 1 3744.61 1064)">2500</text></g><g clip-path="url(#clip14)"><text fill="#595959" font-family="Calibri,Calibri_MSFontService,sans-serif" font-weight="400" font-size="55" transform="matrix(1 0 0 1 3744.61 834)">3000</text></g><g clip-path="url(#clip15)"><text fill="#595959" font-family="Calibri,Calibri_MSFontService,sans-serif" font-weight="400" font-size="55" transform="matrix(1 0 0 1 3919.48 2288)">2005</text></g><g clip-path="url(#clip16)"><text fill="#595959" font-family="Calibri,Calibri_MSFontService,sans-serif" font-weight="400" font-size="55" transform="matrix(1 0 0 1 4055.71 2288)">2006</text></g><g clip-path="url(#clip17)"><text fill="#595959" font-family="Calibri,Calibri_MSFontService,sans-serif" font-weight="400" font-size="55" transform="matrix(1 0 0 1 4191.94 2288)">2007</text></g><g clip-path="url(#clip18)"><text fill="#595959" font-family="Calibri,Calibri_MSFontService,sans-serif" font-weight="400" font-size="55" transform="matrix(1 0 0 1 4328.17 2288)">2008</text></g><g clip-path="url(#clip19)"><text fill="#595959" font-family="Calibri,Calibri_MSFontService,sans-serif" font-weight="400" font-size="55" transform="matrix(1 0 0 1 4464.4 2288)">2009</text></g><g clip-path="url(#clip20)"><text fill="#595959" font-family="Calibri,Calibri_MSFontService,sans-serif" font-weight="400" font-size="55" transform="matrix(1 0 0 1 4600.64 2288)">2010</text></g><g clip-path="url(#clip21)"><text fill="#595959" font-family="Calibri,Calibri_MSFontService,sans-serif" font-weight="400" font-size="55" transform="matrix(1 0 0 1 4736.87 2288)">2011</text></g><g clip-path="url(#clip22)"><text fill="#595959" font-family="Calibri,Calibri_MSFontService,sans-serif" font-weight="400" font-size="55" transform="matrix(1 0 0 1 4873.1 2288)">2012</text></g><g clip-path="url(#clip23)"><text fill="#595959" font-family="Calibri,Calibri_MSFontService,sans-serif" font-weight="400" font-size="55" transform="matrix(1 0 0 1 5009.33 2288)">2013</text></g><g clip-path="url(#clip24)"><text fill="#595959" font-family="Calibri,Calibri_MSFontService,sans-serif" font-weight="400" font-size="55" transform="matrix(1 0 0 1 5145.56 2288)">2014</text></g><g clip-path="url(#clip25)"><text fill="#595959" font-family="Calibri,Calibri_MSFontService,sans-serif" font-weight="400" font-size="55" transform="matrix(1 0 0 1 5281.79 2288)">2015</text></g><g clip-path="url(#clip26)"><text fill="#595959" font-family="Calibri,Calibri_MSFontService,sans-serif" font-weight="400" font-size="55" transform="matrix(1 0 0 1 5418.02 2288)">2016</text></g><g clip-path="url(#clip27)"><text fill="#595959" font-family="Calibri,Calibri_MSFontService,sans-serif" font-weight="400" font-size="55" transform="matrix(1 0 0 1 5554.25 2288)">2017</text></g><g clip-path="url(#clip28)"><text fill="#595959" font-family="Calibri,Calibri_MSFontService,sans-serif" font-weight="400" font-size="55" transform="matrix(1 0 0 1 5690.48 2288)">2018</text></g><g clip-path="url(#clip29)"><text fill="#595959" font-family="Calibri,Calibri_MSFontService,sans-serif" font-weight="400" font-size="55" transform="matrix(1 0 0 1 5826.71 2288)">2019</text></g><g clip-path="url(#clip30)"><text fill="#595959" font-family="Calibri,Calibri_MSFontService,sans-serif" font-weight="400" font-size="55" transform="matrix(1 0 0 1 5962.94 2288)">2020</text></g><g clip-path="url(#clip31)"><text fill="#595959" font-family="Calibri,Calibri_MSFontService,sans-serif" font-weight="400" font-size="55" transform="matrix(1 0 0 1 6099.17 2288)">2021</text></g><g clip-path="url(#clip32)"><text fill="#595959" font-family="Calibri,Calibri_MSFontService,sans-serif" font-weight="400" font-size="64" transform="matrix(6.12323e-17 -1 1 6.12323e-17 3713.53 1910)">Number of commercial aircraft</text></g><g clip-path="url(#clip33)"><path d="M3828 2390 3916 2390" stroke="#548235" stroke-width="10.3125" stroke-linecap="round" stroke-linejoin="round" stroke-miterlimit="10" fill="none" fill-rule="evenodd"/></g><g clip-path="url(#clip34)"><text fill="#595959" font-family="Calibri,Calibri_MSFontService,sans-serif" font-weight="400" font-size="64" transform="matrix(1 0 0 1 3925.3 2408)">&lt;5 years</text></g><g clip-path="url(#clip35)"><path d="M4221 2390 4309 2390" stroke="#ED7D31" stroke-width="10.3125" stroke-linecap="round" stroke-linejoin="round" stroke-miterlimit="10" fill="none" fill-rule="evenodd"/></g><g clip-path="url(#clip36)"><text fill="#595959" font-family="Calibri,Calibri_MSFontService,sans-serif" font-weight="400" font-size="64" transform="matrix(1 0 0 1 4318.57 2408)"> 5-9 years</text></g><g clip-path="url(#clip37)"><path d="M4649 2390 4737 2390" stroke="#A5A5A5" stroke-width="10.3125" stroke-linecap="round" stroke-linejoin="round" stroke-miterlimit="10" fill="none" fill-rule="evenodd"/></g><g clip-path="url(#clip38)"><text fill="#595959" font-family="Calibri,Calibri_MSFontService,sans-serif" font-weight="400" font-size="64" transform="matrix(1 0 0 1 4746.54 2408)"> 10-14 years</text></g><g clip-path="url(#clip39)"><path d="M5142 2390 5230 2390" stroke="#FFC000" stroke-width="10.3125" stroke-linecap="round" stroke-linejoin="round" stroke-miterlimit="10" fill="none" fill-rule="evenodd"/></g><g clip-path="url(#clip40)"><text fill="#595959" font-family="Calibri,Calibri_MSFontService,sans-serif" font-weight="400" font-size="64" transform="matrix(1 0 0 1 5239.55 2408)"> 15-19 years</text></g><g clip-path="url(#clip41)"><path d="M5635 2390 5723 2390" stroke="#5B9BD5" stroke-width="10.3125" stroke-linecap="round" stroke-linejoin="round" stroke-miterlimit="10" fill="none" fill-rule="evenodd"/></g><g clip-path="url(#clip42)"><text fill="#595959" font-family="Calibri,Calibri_MSFontService,sans-serif" font-weight="400" font-size="64" transform="matrix(1 0 0 1 5732.56 2408)"> &gt;=20 years</text></g><rect x="3568.5" y="756.5" width="2705" height="1714" stroke="#D9D9D9" stroke-width="3.4375" stroke-linejoin="round" stroke-miterlimit="10" fill="none"/></g></svg>