<svg width="3164" height="1514" xmlns="http://www.w3.org/2000/svg" xmlns:xlink="http://www.w3.org/1999/xlink" xml:space="preserve" overflow="hidden"><defs><clipPath id="clip0"><rect x="1724" y="1585" width="3164" height="1514"/></clipPath><clipPath id="clip1"><rect x="1724" y="1585" width="3163" height="1514"/></clipPath><clipPath id="clip2"><rect x="1724" y="1585" width="3163" height="1514"/></clipPath><clipPath id="clip3"><rect x="1999" y="1646" width="2841" height="1022"/></clipPath><clipPath id="clip4"><rect x="1999" y="1646" width="2841" height="1022"/></clipPath><clipPath id="clip5"><rect x="1999" y="1646" width="2841" height="1022"/></clipPath><clipPath id="clip6"><rect x="1999" y="1646" width="2841" height="1022"/></clipPath><clipPath id="clip7"><rect x="1999" y="1646" width="2841" height="1022"/></clipPath><clipPath id="clip8"><rect x="1999" y="1646" width="2841" height="1022"/></clipPath><clipPath id="clip9"><rect x="1999" y="1646" width="2841" height="1022"/></clipPath><clipPath id="clip10"><rect x="1999" y="1646" width="2841" height="1022"/></clipPath><clipPath id="clip11"><rect x="1724" y="1585" width="3163" height="1514"/></clipPath><clipPath id="clip12"><rect x="1724" y="1585" width="3163" height="1514"/></clipPath><clipPath id="clip13"><rect x="1724" y="1585" width="3163" height="1514"/></clipPath><clipPath id="clip14"><rect x="1724" y="1585" width="3163" height="1514"/></clipPath><clipPath id="clip15"><rect x="1724" y="1585" width="3163" height="1514"/></clipPath><clipPath id="clip16"><rect x="1724" y="1585" width="3163" height="1514"/></clipPath><clipPath id="clip17"><rect x="1724" y="1585" width="3163" height="1514"/></clipPath><clipPath id="clip18"><rect x="1724" y="1585" width="3163" height="1514"/></clipPath><clipPath id="clip19"><rect x="1724" y="1585" width="3163" height="1514"/></clipPath><clipPath id="clip20"><rect x="1724" y="1585" width="3163" height="1514"/></clipPath><clipPath id="clip21"><rect x="1724" y="1585" width="3163" height="1514"/></clipPath><clipPath id="clip22"><rect x="1724" y="1585" width="3163" height="1514"/></clipPath><clipPath id="clip23"><rect x="1724" y="1585" width="3163" height="1514"/></clipPath><clipPath id="clip24"><rect x="1724" y="1585" width="3163" height="1514"/></clipPath><clipPath id="clip25"><rect x="1724" y="1585" width="3163" height="1514"/></clipPath><clipPath id="clip26"><rect x="1724" y="1585" width="3163" height="1514"/></clipPath><clipPath id="clip27"><rect x="1724" y="1585" width="3163" height="1514"/></clipPath><clipPath id="clip28"><rect x="1724" y="1585" width="3163" height="1514"/></clipPath><clipPath id="clip29"><rect x="1724" y="1585" width="3163" height="1514"/></clipPath><clipPath id="clip30"><rect x="1724" y="1585" width="3163" height="1514"/></clipPath><clipPath id="clip31"><rect x="1724" y="1585" width="3163" height="1514"/></clipPath><clipPath id="clip32"><rect x="1724" y="1585" width="3163" height="1514"/></clipPath><clipPath id="clip33"><rect x="1724" y="1585" width="3163" height="1514"/></clipPath><clipPath id="clip34"><rect x="1724" y="1585" width="3163" height="1514"/></clipPath><clipPath id="clip35"><rect x="1724" y="1585" width="3163" height="1514"/></clipPath><clipPath id="clip36"><rect x="1724" y="1585" width="3163" height="1514"/></clipPath><clipPath id="clip37"><rect x="1724" y="1585" width="3163" height="1514"/></clipPath><clipPath id="clip38"><rect x="1724" y="1585" width="3163" height="1514"/></clipPath><clipPath id="clip39"><rect x="1724" y="1585" width="3163" height="1514"/></clipPath><clipPath id="clip40"><rect x="1724" y="1585" width="3163" height="1514"/></clipPath><clipPath id="clip41"><rect x="1724" y="1585" width="3163" height="1514"/></clipPath><clipPath id="clip42"><rect x="1724" y="1585" width="3163" height="1514"/></clipPath><clipPath id="clip43"><rect x="1724" y="1585" width="3163" height="1514"/></clipPath><clipPath id="clip44"><rect x="1724" y="1585" width="3163" height="1514"/></clipPath></defs><g clip-path="url(#clip0)" transform="translate(-1724 -1585)"><rect x="1724" y="1586" width="3164" height="1513" fill="#FFFFFF"/><g clip-path="url(#clip1)"><path d="M1999.5 2461.58 4837.5 2461.58M1999.5 2257.57 4837.5 2257.57M1999.5 2053.57 4837.5 2053.57M1999.5 1850.56 4837.5 1850.56M1999.5 1646.5 4837.5 1646.5" stroke="#D9D9D9" stroke-width="3.4375" stroke-linejoin="round" stroke-miterlimit="10" fill="none"/></g><g clip-path="url(#clip2)"><path d="M1999.5 2665.5 4837.5 2665.5" stroke="#D9D9D9" stroke-width="3.4375" stroke-linejoin="round" stroke-miterlimit="10" fill="none" fill-rule="evenodd"/></g><g clip-path="url(#clip3)"><path d="M2129 2241 2387.08 2225.07 2645.09 2209.07 2903.1 2192.07 3160.1 2184.07 3418.11 2176.07 3676.12 2164.07 3934.13 2184.07 4192.14 2164.07 4450.15 2156 4708 2156" stroke="#7F7F7F" stroke-width="10.3125" stroke-linecap="round" stroke-linejoin="round" stroke-miterlimit="10" fill="none"/></g><g clip-path="url(#clip4)"><path d="M2129 2119 2387.08 2099.07 2645.09 2095.07 2903.1 2074.07 3160.1 2017.07 3418.11 2005.07 3676.12 1993 3934.13 2009.07 4192.14 2046.07 4450.15 2070.07 4708 2038.07" stroke="#7030A0" stroke-width="10.3125" stroke-linecap="round" stroke-linejoin="round" stroke-miterlimit="10" fill="none"/></g><g clip-path="url(#clip5)"><path d="M2129 1867.06 2387.08 1879 2645.09 1863.06 2903.1 1846.06 3160.1 1834.06 3418.11 1822.06 3676.12 1810.06 3934.13 1822.06 4192.14 1814.06 4450.15 1781.06 4708 1757" stroke="#2F5597" stroke-width="10.3125" stroke-linecap="round" stroke-linejoin="round" stroke-miterlimit="10" fill="none"/></g><g clip-path="url(#clip6)"><path d="M2129 2388 2387.08 2388 2645.09 2368.08 2903.1 2351.08 3160.1 2347.08 3418.11 2343.08 3676.12 2339.08 3934.13 2323.08 4192.14 2335.08 4450.15 2323.08 4708 2294" stroke="#C5E0B4" stroke-width="10.3125" stroke-linecap="round" stroke-linejoin="round" stroke-miterlimit="10" fill="none"/></g><g clip-path="url(#clip7)"><path d="M2129 2665 2387.08 2665 2645.09 2665 2903.1 2665 3160.1 2665 3418.11 2665 3676.12 2665 3934.13 2176 4192.14 2213.07 4450.15 2237.07 4708 2201.07" stroke="#5B9BD5" stroke-width="10.3125" stroke-linecap="round" stroke-linejoin="round" stroke-miterlimit="10" fill="none"/></g><g clip-path="url(#clip8)"><path d="M2129 2665 2387.08 2665 2645.09 2665 2903.1 2665 3160.1 2665 3418.11 2665 3676.12 2665 3934.13 2221.07 4192.14 2172.07 4450.15 2160 4708 2160" stroke="#BF9000" stroke-width="10.3125" stroke-linecap="round" stroke-linejoin="round" stroke-miterlimit="10" fill="none"/></g><g clip-path="url(#clip9)"><path d="M2129 2241.07 2387.08 2241.07 2645.09 2229.07 2903.1 2213.07 3160.1 2209.07 3418.11 2205.07 3676.12 2201 3934.13 2665 4192.14 2665 4450.15 2665 4708 2665" stroke="#548235" stroke-width="10.3125" stroke-linecap="round" stroke-linejoin="round" stroke-miterlimit="10" fill="none"/></g><g clip-path="url(#clip10)"><path d="M2129 2262 2387.08 2258.07 2645.09 2249.07 2903.1 2233.07 3160.1 2229.07 3418.11 2229.07 3676.12 2221.07 3934.13 2213.07 4192.14 2188 4450.15 2192.07 4708 2192.07" stroke="#9E480E" stroke-width="10.3125" stroke-linecap="round" stroke-linejoin="round" stroke-miterlimit="10" fill="none"/></g><g clip-path="url(#clip11)"><text fill="#595959" font-family="Calibri,Calibri_MSFontService,sans-serif" font-weight="400" font-size="64" transform="matrix(1 0 0 1 1907.93 2683)">0</text></g><g clip-path="url(#clip12)"><text fill="#595959" font-family="Calibri,Calibri_MSFontService,sans-serif" font-weight="400" font-size="64" transform="matrix(1 0 0 1 1907.93 2480)">5</text></g><g clip-path="url(#clip13)"><text fill="#595959" font-family="Calibri,Calibri_MSFontService,sans-serif" font-weight="400" font-size="64" transform="matrix(1 0 0 1 1875.41 2276)">10</text></g><g clip-path="url(#clip14)"><text fill="#595959" font-family="Calibri,Calibri_MSFontService,sans-serif" font-weight="400" font-size="64" transform="matrix(1 0 0 1 1875.41 2072)">15</text></g><g clip-path="url(#clip15)"><text fill="#595959" font-family="Calibri,Calibri_MSFontService,sans-serif" font-weight="400" font-size="64" transform="matrix(1 0 0 1 1875.41 1869)">20</text></g><g clip-path="url(#clip16)"><text fill="#595959" font-family="Calibri,Calibri_MSFontService,sans-serif" font-weight="400" font-size="64" transform="matrix(1 0 0 1 1875.41 1665)">25</text></g><g clip-path="url(#clip17)"><text fill="#595959" font-family="Calibri,Calibri_MSFontService,sans-serif" font-weight="400" font-size="64" transform="matrix(0.707107 -0.707107 0.707107 0.707107 2052.4 2841)">2012</text></g><g clip-path="url(#clip18)"><text fill="#595959" font-family="Calibri,Calibri_MSFontService,sans-serif" font-weight="400" font-size="64" transform="matrix(0.707107 -0.707107 0.707107 0.707107 2310.32 2841)">2013</text></g><g clip-path="url(#clip19)"><text fill="#595959" font-family="Calibri,Calibri_MSFontService,sans-serif" font-weight="400" font-size="64" transform="matrix(0.707107 -0.707107 0.707107 0.707107 2568.23 2841)">2014</text></g><g clip-path="url(#clip20)"><text fill="#595959" font-family="Calibri,Calibri_MSFontService,sans-serif" font-weight="400" font-size="64" transform="matrix(0.707107 -0.707107 0.707107 0.707107 2826.14 2841)">2015</text></g><g clip-path="url(#clip21)"><text fill="#595959" font-family="Calibri,Calibri_MSFontService,sans-serif" font-weight="400" font-size="64" transform="matrix(0.707107 -0.707107 0.707107 0.707107 3084.06 2841)">2016</text></g><g clip-path="url(#clip22)"><text fill="#595959" font-family="Calibri,Calibri_MSFontService,sans-serif" font-weight="400" font-size="64" transform="matrix(0.707107 -0.707107 0.707107 0.707107 3341.97 2841)">2017</text></g><g clip-path="url(#clip23)"><text fill="#595959" font-family="Calibri,Calibri_MSFontService,sans-serif" font-weight="400" font-size="64" transform="matrix(0.707107 -0.707107 0.707107 0.707107 3599.89 2841)">2018</text></g><g clip-path="url(#clip24)"><text fill="#595959" font-family="Calibri,Calibri_MSFontService,sans-serif" font-weight="400" font-size="64" transform="matrix(0.707107 -0.707107 0.707107 0.707107 3857.8 2841)">2019</text></g><g clip-path="url(#clip25)"><text fill="#595959" font-family="Calibri,Calibri_MSFontService,sans-serif" font-weight="400" font-size="64" transform="matrix(0.707107 -0.707107 0.707107 0.707107 4115.72 2841)">2020</text></g><g clip-path="url(#clip26)"><text fill="#595959" font-family="Calibri,Calibri_MSFontService,sans-serif" font-weight="400" font-size="64" transform="matrix(0.707107 -0.707107 0.707107 0.707107 4373.63 2841)">2021</text></g><g clip-path="url(#clip27)"><text fill="#595959" font-family="Calibri,Calibri_MSFontService,sans-serif" font-weight="400" font-size="64" transform="matrix(0.707107 -0.707107 0.707107 0.707107 4631.54 2841)">2022</text></g><g clip-path="url(#clip28)"><text fill="#595959" font-family="Calibri,Calibri_MSFontService,sans-serif" font-weight="400" font-size="73" transform="matrix(6.12323e-17 -1 1 6.12323e-17 1838.24 2243)">Years</text></g><g clip-path="url(#clip29)"><path d="M1772 2893 1860 2893" stroke="#7F7F7F" stroke-width="10.3125" stroke-linecap="round" stroke-linejoin="round" stroke-miterlimit="10" fill="none" fill-rule="evenodd"/></g><g clip-path="url(#clip30)"><text fill="#595959" font-family="Calibri,Calibri_MSFontService,sans-serif" font-weight="400" font-size="64" transform="matrix(1 0 0 1 1868.79 2911)">Business Aviation</text></g><g clip-path="url(#clip31)"><path d="M2819 2893 2907 2893" stroke="#7030A0" stroke-width="10.3125" stroke-linecap="round" stroke-linejoin="round" stroke-miterlimit="10" fill="none" fill-rule="evenodd"/></g><g clip-path="url(#clip32)"><text fill="#595959" font-family="Calibri,Calibri_MSFontService,sans-serif" font-weight="400" font-size="64" transform="matrix(1 0 0 1 2915.8 2911)">Charter</text></g><g clip-path="url(#clip33)"><path d="M3866 2893 3954 2893" stroke="#2F5597" stroke-width="10.3125" stroke-linecap="round" stroke-linejoin="round" stroke-miterlimit="10" fill="none" fill-rule="evenodd"/></g><g clip-path="url(#clip34)"><text fill="#595959" font-family="Calibri,Calibri_MSFontService,sans-serif" font-weight="400" font-size="64" transform="matrix(1 0 0 1 3962.8 2911)">All-cargo</text></g><g clip-path="url(#clip35)"><path d="M1772 2975 1860 2975" stroke="#C5E0B4" stroke-width="10.3125" stroke-linecap="round" stroke-linejoin="round" stroke-miterlimit="10" fill="none" fill-rule="evenodd"/></g><g clip-path="url(#clip36)"><text fill="#595959" font-family="Calibri,Calibri_MSFontService,sans-serif" font-weight="400" font-size="64" transform="matrix(1 0 0 1 1868.79 2994)">Lowcost</text></g><g clip-path="url(#clip37)"><path d="M2819 2975 2907 2975" stroke="#5B9BD5" stroke-width="10.3125" stroke-linecap="round" stroke-linejoin="round" stroke-miterlimit="10" fill="none" fill-rule="evenodd"/></g><g clip-path="url(#clip38)"><text fill="#595959" font-family="Calibri,Calibri_MSFontService,sans-serif" font-weight="400" font-size="64" transform="matrix(1 0 0 1 2915.8 2994)">Mainline (from 2019)</text></g><g clip-path="url(#clip39)"><path d="M3866 2975 3954 2975" stroke="#BF9000" stroke-width="10.3125" stroke-linecap="round" stroke-linejoin="round" stroke-miterlimit="10" fill="none" fill-rule="evenodd"/></g><g clip-path="url(#clip40)"><text fill="#595959" font-family="Calibri,Calibri_MSFontService,sans-serif" font-weight="400" font-size="64" transform="matrix(1 0 0 1 3962.8 2994)">Regional Aircraft (from 2019)</text></g><g clip-path="url(#clip41)"><path d="M1772 3058 1860 3058" stroke="#548235" stroke-width="10.3125" stroke-linecap="round" stroke-linejoin="round" stroke-miterlimit="10" fill="none" fill-rule="evenodd"/></g><g clip-path="url(#clip42)"><text fill="#595959" font-family="Calibri,Calibri_MSFontService,sans-serif" font-weight="400" font-size="64" transform="matrix(1 0 0 1 1868.79 3076)">Traditional Scheduled (until 2018)</text></g><g clip-path="url(#clip43)"><path d="M2819 3058 2907 3058" stroke="#9E480E" stroke-width="10.3125" stroke-linecap="round" stroke-linejoin="round" stroke-miterlimit="10" fill="none" fill-rule="evenodd"/></g><g clip-path="url(#clip44)"><text fill="#595959" font-family="Calibri,Calibri_MSFontService,sans-serif" font-weight="400" font-size="64" transform="matrix(1 0 0 1 2915.8 3076)">All Segments</text></g></g></svg>