<svg width="3665" height="3032" xmlns="http://www.w3.org/2000/svg" xmlns:xlink="http://www.w3.org/1999/xlink" xml:space="preserve" overflow="hidden"><defs><clipPath id="clip0"><rect x="2120" y="2162" width="3665" height="3032"/></clipPath><clipPath id="clip1"><rect x="2119" y="2162" width="1829" height="1401"/></clipPath><clipPath id="clip2"><rect x="3949" y="2162" width="1830" height="1400"/></clipPath><clipPath id="clip3"><rect x="2119" y="3676" width="1817" height="1399"/></clipPath></defs><g clip-path="url(#clip0)" transform="translate(-2120 -2162)"><rect x="2120" y="2162" width="1829" height="1401" fill="#FFFFFF"/><g><path d="M2648.88 2353C2936.19 2353 3169.1 2585.91 3169.1 2873.22 3169.1 3160.53 2936.19 3393.44 2648.88 3393.44 2629.79 3393.44 2610.72 3392.39 2591.74 3390.29L2626.6 3074.88C2737.97 3087.19 2838.23 3006.88 2850.54 2895.51 2862.85 2784.13 2782.54 2683.87 2671.17 2671.56 2663.77 2670.75 2656.33 2670.34 2648.88 2670.34Z" fill="#FFC20A" fill-rule="evenodd"/></g><g><path d="M2591.74 3390.29C2345.71 3363.1 2152.91 3166.32 2130.75 2919.78L2446.81 2891.38C2455.45 2987.53 2530.65 3064.27 2626.6 3074.88Z" fill="#00A29E" fill-rule="evenodd"/></g><g><path d="M2130.75 2919.78C2105.04 2633.63 2316.17 2380.81 2602.32 2355.09 2617.8 2353.7 2633.34 2353 2648.88 2353L2648.88 2670.34C2536.83 2670.34 2446 2761.17 2446 2873.22 2446 2879.28 2446.27 2885.34 2446.81 2891.38Z" fill="#B3D235" fill-rule="evenodd"/></g><g><text fill="#1F4E79" font-family="Calibri,Calibri_MSFontService,sans-serif" font-weight="400" font-size="83" transform="matrix(1 0 0 1 2926.3 2898)">52%</text></g><g><text fill="#FFFFFF" font-family="Calibri,Calibri_MSFontService,sans-serif" font-weight="400" font-size="83" transform="matrix(1 0 0 1 2340.02 3149)">22%</text></g><g><text fill="#1F4E79" font-family="Calibri,Calibri_MSFontService,sans-serif" font-weight="400" font-size="83" transform="matrix(1 0 0 1 2310.39 2673)">26%</text></g><g clip-path="url(#clip1)"><rect x="3182.5" y="2165.5" width="749" height="1398" stroke="#F2F2F2" stroke-width="3.4375" stroke-linejoin="round" stroke-miterlimit="10" fill="#F2F2F2"/></g><g><rect x="3214" y="2380" width="36.9998" height="37.9998" fill="#FFC20A"/></g><g><text fill="#1F4E79" font-family="Calibri,Calibri_MSFontService,sans-serif" font-weight="400" font-size="69" transform="matrix(1 0 0 1 3268.44 2418)">Flight operating costs</text></g><g><rect x="3214" y="2846" width="36.9998" height="37.0002" fill="#00A29E"/></g><g><text fill="#1F4E79" font-family="Calibri,Calibri_MSFontService,sans-serif" font-weight="400" font-size="69" transform="matrix(1 0 0 1 3268.44 2884)">Ground operating costs</text></g><g><rect x="3214" y="3311" width="36.9998" height="38.0002" fill="#B3D235"/></g><g><text fill="#1F4E79" font-family="Calibri,Calibri_MSFontService,sans-serif" font-weight="400" font-size="69" transform="matrix(1 0 0 1 3268.44 3349)">System operating costs</text></g><rect x="3949" y="2163" width="1831" height="1400" fill="#FFFFFF"/><g><path d="M4486.03 2351.09C4488.24 2351.09 4490.45 2351.11 4492.66 2351.14L4488.62 2672.84C4487.76 2672.83 4486.89 2672.83 4486.03 2672.83Z" fill="#FFF5D5" fill-rule="evenodd"/></g><g><path d="M4492.66 2351.13C4587.11 2352.32 4679.51 2378.85 4760.2 2427.95L4592.96 2702.8C4561.49 2683.65 4525.45 2673.3 4488.62 2672.84Z" fill="#FFE79B" fill-rule="evenodd"/></g><g><path d="M4760.2 2427.95C4842.81 2478.22 4910.02 2550.24 4954.46 2636.13L4668.72 2783.99C4651.39 2750.49 4625.18 2722.41 4592.96 2702.8Z" fill="#FFE07D" fill-rule="evenodd"/></g><g><path d="M4954.46 2636.13C5027.24 2776.77 5032.97 2942.66 4970.08 3087.99L4674.81 2960.22C4699.34 2903.54 4697.1 2838.84 4668.72 2783.99Z" fill="#FFCD2F" fill-rule="evenodd"/></g><g><path d="M4970.08 3087.99C4875.93 3305.57 4648.17 3433.59 4413.36 3400.92L4457.69 3082.26C4549.27 3095 4638.09 3045.07 4674.81 2960.21Z" fill="#F2B800" fill-rule="evenodd"/></g><g><path d="M4413.36 3400.92C4124.84 3360.78 3923.5 3094.36 3963.63 2805.85 3999.9 2545.15 4222.82 2351.09 4486.03 2351.09L4486.03 2672.83C4372.43 2672.83 4280.33 2764.92 4280.33 2878.52 4280.33 2981.17 4356.02 3068.11 4457.69 3082.26Z" fill="#DEA900" fill-rule="evenodd"/></g><g><path d="M4488.5 2511.5 4430.65 2277.5 4410.5 2277.5" stroke="#A6A6A6" stroke-width="3.4375" stroke-linejoin="round" stroke-miterlimit="10" fill="none"/></g><g><text fill="#1F4E79" font-family="Calibri,Calibri_MSFontService,sans-serif" font-weight="400" font-size="73" transform="matrix(1 0 0 1 4251.42 2302)">0.2%</text></g><g><text fill="#1F4E79" font-family="Calibri,Calibri_MSFontService,sans-serif" font-weight="400" font-size="73" transform="matrix(1 0 0 1 4523.08 2528)">8.5%</text></g><g><text fill="#1F4E79" font-family="Calibri,Calibri_MSFontService,sans-serif" font-weight="400" font-size="73" transform="matrix(1 0 0 1 4697.88 2643)">8.7%</text></g><g><text fill="#1F4E79" font-family="Calibri,Calibri_MSFontService,sans-serif" font-weight="400" font-size="73" transform="matrix(1 0 0 1 4768.92 2913)">14.1%</text></g><g><text fill="#1F4E79" font-family="Calibri,Calibri_MSFontService,sans-serif" font-weight="400" font-size="73" transform="matrix(1 0 0 1 4565.26 3228)">20.7%</text></g><g><text fill="#1F4E79" font-family="Calibri,Calibri_MSFontService,sans-serif" font-weight="400" font-size="73" transform="matrix(1 0 0 1 4034.68 2997)">47.8%</text></g><g clip-path="url(#clip2)"><rect x="5019" y="2169" width="737" height="1394" fill="#F2F2F2"/></g><g><rect x="5052" y="2224" width="37" height="37.9998" fill="#FFF5D5"/></g><g><text fill="#1F4E79" font-family="Calibri,Calibri_MSFontService,sans-serif" font-weight="400" font-size="69" transform="matrix(1 0 0 1 5106.53 2262)">Flight eq. insurance</text></g><g><rect x="5052" y="2457" width="37" height="36.9998" fill="#FFE79B"/></g><g><text fill="#1F4E79" font-family="Calibri,Calibri_MSFontService,sans-serif" font-weight="400" font-size="69" transform="matrix(1 0 0 1 5106.53 2495)">Aircraft rentals</text></g><g><rect x="5052" y="2689" width="37" height="37.9998" fill="#FFE07D"/></g><g><text fill="#1F4E79" font-family="Calibri,Calibri_MSFontService,sans-serif" font-weight="400" font-size="69" transform="matrix(1 0 0 1 5106.53 2727)">Navigation charges</text></g><g><rect x="5052" y="2921" width="37" height="38.0002" fill="#FFCD2F"/></g><g><text fill="#1F4E79" font-family="Calibri,Calibri_MSFontService,sans-serif" font-weight="400" font-size="69" transform="matrix(1 0 0 1 5106.53 2959)">Flight eq. depreciation</text></g><g><text fill="#1F4E79" font-family="Calibri,Calibri_MSFontService,sans-serif" font-weight="400" font-size="69" transform="matrix(1 0 0 1 5106.53 3043)">&amp; amortization</text></g><g><rect x="5052" y="3154" width="37" height="37.0002" fill="#F2B800"/></g><g><text fill="#1F4E79" font-family="Calibri,Calibri_MSFontService,sans-serif" font-weight="400" font-size="69" transform="matrix(1 0 0 1 5106.53 3192)">Flight deck crew</text></g><g><rect x="5052" y="3386" width="37" height="38.0002" fill="#DEA900"/></g><g><text fill="#1F4E79" font-family="Calibri,Calibri_MSFontService,sans-serif" font-weight="400" font-size="69" transform="matrix(1 0 0 1 5106.53 3424)">Fuel and oil</text></g><rect x="2120" y="3677" width="1816" height="1399" fill="#FFFFFF"/><g><path d="M2647.57 3845.26C2869.2 3845.26 3066.41 3985.91 3138.6 4195.45L2839.07 4298.64C2810.91 4216.92 2734 4162.07 2647.56 4162.07Z" fill="#A7FFFD" fill-rule="evenodd"/></g><g><path d="M3138.6 4195.45C3232.02 4466.64 3087.92 4762.22 2816.73 4855.65 2724.24 4887.51 2624.64 4892.6 2529.38 4870.34L2601.47 4561.85C2710.4 4587.3 2819.34 4519.64 2844.8 4410.71 2853.48 4373.56 2851.49 4334.71 2839.07 4298.64Z" fill="#00C8C3" fill-rule="evenodd"/></g><g><path d="M2529.38 4870.34C2250.08 4805.07 2076.57 4525.74 2141.84 4246.43 2196.75 4011.46 2406.26 3845.26 2647.57 3845.26L2647.57 4162.07C2535.7 4162.07 2445.02 4252.75 2445.02 4364.62 2445.02 4458.72 2509.84 4540.44 2601.47 4561.85Z" fill="#00A29E" fill-rule="evenodd"/></g><g><text fill="#1F4E79" font-family="Calibri,Calibri_MSFontService,sans-serif" font-weight="400" font-size="83" transform="matrix(1 0 0 1 2759.45 4108)">19.7%</text></g><g><text fill="#1F4E79" font-family="Calibri,Calibri_MSFontService,sans-serif" font-weight="400" font-size="83" transform="matrix(1 0 0 1 2816.8 4601)">33.9%</text></g><g><text fill="#FFFFFF" font-family="Calibri,Calibri_MSFontService,sans-serif" font-weight="400" font-size="83" transform="matrix(1 0 0 1 2198.19 4392)">46.3%</text></g><g clip-path="url(#clip3)"><rect x="3174.5" y="3676.5" width="762" height="1397" stroke="#F2F2F2" stroke-width="3.4375" stroke-linejoin="round" stroke-miterlimit="10" fill="#F2F2F2"/></g><g><rect x="3272" y="3849" width="37.9998" height="38.0002" fill="#A7FFFD"/></g><g><text fill="#1F4E79" font-family="Calibri,Calibri_MSFontService,sans-serif" font-weight="400" font-size="69" transform="matrix(1 0 0 1 3327.01 3887)">Airport charges</text></g><g><rect x="3272" y="4315" width="37.9998" height="38" fill="#00C8C3"/></g><g><text fill="#1F4E79" font-family="Calibri,Calibri_MSFontService,sans-serif" font-weight="400" font-size="69" transform="matrix(1 0 0 1 3327.01 4353)">Station and ground</text></g><g><rect x="3272" y="4780" width="37.9998" height="38" fill="#00A29E"/></g><g><text fill="#1F4E79" font-family="Calibri,Calibri_MSFontService,sans-serif" font-weight="400" font-size="69" transform="matrix(1 0 0 1 3327.01 4819)">Maintenance and</text></g><g><text fill="#1F4E79" font-family="Calibri,Calibri_MSFontService,sans-serif" font-weight="400" font-size="69" transform="matrix(1 0 0 1 3327.01 4902)">overhaul</text></g><rect x="2123" y="3520" width="1811" height="149" fill="#FFFFFF"/><g><text fill="#003366" font-family="Calibri,Calibri_MSFontService,sans-serif" font-weight="700" font-size="92" transform="matrix(1 0 0 1 2313.8 3625)">Total operating costs structure (2019)</text></g><rect x="3960" y="3520" width="1811" height="149" fill="#FFFFFF"/><g><text fill="#003366" font-family="Calibri,Calibri_MSFontService,sans-serif" font-weight="700" font-size="92" transform="matrix(1 0 0 1 4142.09 3625)">Flight operating costs structure (2019)</text></g><rect x="3949" y="3677" width="1836" height="1399" fill="#FFFFFF"/><g><path d="M4487.66 3863.26C4517.33 3863.26 4546.94 3865.78 4576.18 3870.79L4522.18 4186C4510.78 4184.05 4499.23 4183.07 4487.66 4183.07Z" fill="#E9F2C4" fill-rule="evenodd"/></g><g><path d="M4576.18 3870.79C4751.93 3900.89 4900.33 4018.26 4970.11 4182.35L4675.82 4307.51C4648.6 4243.52 4590.73 4197.74 4522.18 4186Z" fill="#DCEAA0" fill-rule="evenodd"/></g><g><path d="M4970.11 4182.35C5072.02 4421.96 4982.63 4700.05 4760.19 4835.41L4593.95 4562.2C4680.7 4509.42 4715.56 4400.96 4675.82 4307.51Z" fill="#C7DD69" fill-rule="evenodd"/></g><g><path d="M4760.19 4835.41C4517.22 4983.25 4200.68 4910.4 4046.78 4671.23L4315.72 4498.17C4375.74 4591.45 4499.19 4619.86 4593.95 4562.2Z" fill="#B3D235" fill-rule="evenodd"/></g><g><path d="M4046.78 4671.23C3890.1 4427.73 3960.47 4103.33 4203.97 3946.65 4288.57 3892.21 4387.05 3863.26 4487.66 3863.26L4487.66 4183.07C4374.74 4183.07 4283.2 4274.61 4283.2 4387.53 4283.2 4426.77 4294.49 4465.18 4315.72 4498.17Z" fill="#91AA26" fill-rule="evenodd"/></g><g><path d="M4518.5 4024.5 4506.65 3784.5 4486.5 3784.5" stroke="#A6A6A6" stroke-width="3.4375" stroke-linejoin="round" stroke-miterlimit="10" fill="none"/></g><g><text fill="#1F4E79" font-family="Calibri,Calibri_MSFontService,sans-serif" font-weight="400" font-size="73" transform="matrix(1 0 0 1 4327 3810)">2.7%</text></g><g><text fill="#1F4E79" font-family="Calibri,Calibri_MSFontService,sans-serif" font-weight="400" font-size="73" transform="matrix(1 0 0 1 4626.43 4093)">15.9%</text></g><g><text fill="#1F4E79" font-family="Calibri,Calibri_MSFontService,sans-serif" font-weight="400" font-size="73" transform="matrix(1 0 0 1 4755.27 4564)">22.7%</text></g><g><text fill="#1F4E79" font-family="Calibri,Calibri_MSFontService,sans-serif" font-weight="400" font-size="73" transform="matrix(1 0 0 1 4313.34 4770)">24.6%</text></g><g><text fill="#1F4E79" font-family="Calibri,Calibri_MSFontService,sans-serif" font-weight="400" font-size="73" transform="matrix(1 0 0 1 4067.4 4253)">34.1%</text></g><g><rect x="5025.5" y="3676.5" width="742" height="1394" stroke="#F2F2F2" stroke-width="3.4375" stroke-linejoin="round" stroke-miterlimit="10" fill="#F2F2F2"/></g><g><rect x="5070" y="3756" width="38" height="37.9998" fill="#E9F2C4"/></g><g><text fill="#1F4E79" font-family="Calibri,Calibri_MSFontService,sans-serif" font-weight="400" font-size="69" transform="matrix(1 0 0 1 5125.05 3794)">IT and comunications</text></g><g><rect x="5070" y="4034" width="38" height="38.0002" fill="#DCEAA0"/></g><g><text fill="#1F4E79" font-family="Calibri,Calibri_MSFontService,sans-serif" font-weight="400" font-size="69" transform="matrix(1 0 0 1 5125.05 4073)">Passenger services</text></g><g><rect x="5070" y="4313" width="38" height="38" fill="#C7DD69"/></g><g><text fill="#1F4E79" font-family="Calibri,Calibri_MSFontService,sans-serif" font-weight="400" font-size="69" transform="matrix(1 0 0 1 5125.05 4351)">Cabin crew</text></g><g><rect x="5070" y="4592" width="38" height="38" fill="#B3D235"/></g><g><text fill="#1F4E79" font-family="Calibri,Calibri_MSFontService,sans-serif" font-weight="400" font-size="69" transform="matrix(1 0 0 1 5125.05 4630)">Reservation, ticketing,</text></g><g><text fill="#1F4E79" font-family="Calibri,Calibri_MSFontService,sans-serif" font-weight="400" font-size="69" transform="matrix(1 0 0 1 5125.05 4714)">sales &amp; promotion</text></g><g><rect x="5070" y="4870" width="38" height="38" fill="#91AA26"/></g><g><text fill="#1F4E79" font-family="Calibri,Calibri_MSFontService,sans-serif" font-weight="400" font-size="69" transform="matrix(1 0 0 1 5125.05 4909)">General and</text></g><g><text fill="#1F4E79" font-family="Calibri,Calibri_MSFontService,sans-serif" font-weight="400" font-size="69" transform="matrix(1 0 0 1 5125.05 4992)">administrative</text></g><rect x="2120" y="5045" width="1811" height="148" fill="#FFFFFF"/><g><text fill="#003366" font-family="Calibri,Calibri_MSFontService,sans-serif" font-weight="700" font-size="92" transform="matrix(1 0 0 1 2263.66 5150)">Ground operating costs structure (2019)</text></g><rect x="3957" y="5045" width="1811" height="148" fill="#FFFFFF"/><g><text fill="#003366" font-family="Calibri,Calibri_MSFontService,sans-serif" font-weight="700" font-size="92" transform="matrix(1 0 0 1 4106.59 5150)">System operating costs structure (2019)</text></g></g></svg>