<svg width="1867" height="1128" xmlns="http://www.w3.org/2000/svg" xmlns:xlink="http://www.w3.org/1999/xlink" xml:space="preserve" overflow="hidden"><defs><clipPath id="clip0"><rect x="1007" y="529" width="1867" height="1128"/></clipPath></defs><g clip-path="url(#clip0)" transform="translate(-1007 -529)"><rect x="1007" y="529" width="1867" height="1128" fill="#FFFFFF"/><g><path d="M1603.1 710.771C1609.36 710.771 1615.62 710.921 1621.88 711.22L1610.42 950.622C1607.98 950.506 1605.54 950.447 1603.1 950.447Z" fill="#FFC20A" fill-rule="evenodd"/></g><g><path d="M1621.88 711.221C1637.53 711.969 1653.12 713.653 1668.56 716.263L1628.63 952.589C1622.6 951.571 1616.52 950.914 1610.42 950.622Z" fill="#00A29E" fill-rule="evenodd"/></g><g><path d="M1668.56 716.263C1723.58 725.56 1775.99 746.47 1822.3 777.601L1688.59 976.51C1670.53 964.369 1650.09 956.214 1628.63 952.588Z" fill="#D47119" fill-rule="evenodd"/></g><g><path d="M1822.3 777.601C1873.88 812.271 1916.49 858.681 1946.65 913.018L1737.08 1029.32C1725.32 1008.13 1708.7 990.032 1688.59 976.511Z" fill="#B3D235" fill-rule="evenodd"/></g><g><path d="M1946.65 913.018C2051.95 1102.76 1983.5 1341.93 1793.76 1447.23 1604.02 1552.53 1364.85 1484.08 1259.55 1294.35 1154.25 1104.61 1222.7 865.433 1412.43 760.132 1470.77 727.758 1536.38 710.771 1603.1 710.771L1603.1 950.447C1518.47 950.447 1449.86 1019.05 1449.86 1103.68 1449.86 1188.31 1518.47 1256.92 1603.1 1256.92 1687.73 1256.92 1756.33 1188.31 1756.33 1103.68 1756.33 1077.66 1749.71 1052.07 1737.08 1029.32Z" fill="#4F81BD" fill-rule="evenodd"/></g><g><path d="M1609.5 830.5 1552.55 634.5 1531.5 634.5" stroke="#A6A6A6" stroke-width="3.4375" stroke-linejoin="round" stroke-miterlimit="10" fill="none"/></g><g><path d="M1632.5 832.5 1643.55 629.5 1663.5 629.5" stroke="#A6A6A6" stroke-width="3.4375" stroke-linejoin="round" stroke-miterlimit="10" fill="none"/></g><g><path d="M1704.5 850.5 1885.56 698.5 1906.5 698.5" stroke="#A6A6A6" stroke-width="3.4375" stroke-linejoin="round" stroke-miterlimit="10" fill="none"/></g><g><path d="M1464.5 1339.5 1254.54 1408.5 1233.5 1408.5" stroke="#A6A6A6" stroke-width="3.4375" stroke-linejoin="round" stroke-miterlimit="10" fill="none"/></g><g><text fill="#1F4E79" font-family="Calibri,Calibri_MSFontService,sans-serif" font-weight="400" font-size="55" transform="matrix(1 0 0 1 1489.87 653)">8</text></g><g><text fill="#1F4E79" font-family="Calibri,Calibri_MSFontService,sans-serif" font-weight="400" font-size="55" transform="matrix(1 0 0 1 1677.53 648)">20</text></g><g><text fill="#1F4E79" font-family="Calibri,Calibri_MSFontService,sans-serif" font-weight="400" font-size="55" transform="matrix(1 0 0 1 1919.76 717)">71</text></g><g><text fill="#1F4E79" font-family="Calibri,Calibri_MSFontService,sans-serif" font-weight="400" font-size="55" transform="matrix(1 0 0 1 1996.86 833)">79</text></g><g><text fill="#1F4E79" font-family="Calibri,Calibri_MSFontService,sans-serif" font-weight="400" font-size="55" transform="matrix(1 0 0 1 1136.58 1427)">873</text></g><g><rect x="2115.5" y="670.5" width="708" height="861" stroke="#F2F2F2" stroke-width="3.4375" stroke-linejoin="round" stroke-miterlimit="10" fill="#F2F2F2"/></g><g><rect x="2153" y="741" width="30.0002" height="30.9999" fill="#FFC20A"/></g><g><text fill="#1F4E79" font-family="Calibri,Calibri_MSFontService,sans-serif" font-weight="400" font-size="55" transform="matrix(1 0 0 1 2196.49 772)">Very large &gt;250,000</text></g><g><rect x="2153" y="914" width="30.0002" height="29.9999" fill="#00A29E"/></g><g><text fill="#1F4E79" font-family="Calibri,Calibri_MSFontService,sans-serif" font-weight="400" font-size="55" transform="matrix(1 0 0 1 2196.49 944)">Large [250,000 - 150,000]</text></g><g><rect x="2153" y="1086" width="30.0002" height="30.0002" fill="#D47119"/></g><g><text fill="#1F4E79" font-family="Calibri,Calibri_MSFontService,sans-serif" font-weight="400" font-size="55" transform="matrix(1 0 0 1 2196.49 1116)">Medium [149,999 - 40,000]</text></g><g><rect x="2153" y="1258" width="30.0002" height="29.9999" fill="#B3D235"/></g><g><text fill="#1F4E79" font-family="Calibri,Calibri_MSFontService,sans-serif" font-weight="400" font-size="55" transform="matrix(1 0 0 1 2196.49 1288)">Small [39,999 - 15,000]</text></g><g><rect x="2153" y="1430" width="30.0002" height="29.9999" fill="#4F81BD"/></g><g><text fill="#1F4E79" font-family="Calibri,Calibri_MSFontService,sans-serif" font-weight="400" font-size="55" transform="matrix(1 0 0 1 2196.49 1461)">Other &lt;15,000</text></g></g></svg>