<svg width="2891" height="1661" xmlns="http://www.w3.org/2000/svg" xmlns:xlink="http://www.w3.org/1999/xlink" xml:space="preserve" overflow="hidden"><defs><clipPath id="clip0"><rect x="763" y="2320" width="2891" height="1661"/></clipPath><clipPath id="clip1"><rect x="763" y="2320" width="2891" height="1660"/></clipPath><clipPath id="clip2"><rect x="1062" y="2374" width="2406" height="1370"/></clipPath><clipPath id="clip3"><rect x="1062" y="2374" width="2406" height="1370"/></clipPath><clipPath id="clip4"><rect x="1062" y="2374" width="2406" height="1370"/></clipPath><clipPath id="clip5"><rect x="1062" y="2374" width="2406" height="1370"/></clipPath><clipPath id="clip6"><rect x="763" y="2320" width="2891" height="1660"/></clipPath><clipPath id="clip7"><rect x="1062" y="2374" width="2406" height="1370"/></clipPath><clipPath id="clip8"><rect x="763" y="2320" width="2891" height="1660"/></clipPath><clipPath id="clip9"><rect x="763" y="2320" width="2891" height="1660"/></clipPath><clipPath id="clip10"><rect x="763" y="2320" width="2891" height="1660"/></clipPath><clipPath id="clip11"><rect x="763" y="2320" width="2891" height="1660"/></clipPath><clipPath id="clip12"><rect x="763" y="2320" width="2891" height="1660"/></clipPath><clipPath id="clip13"><rect x="763" y="2320" width="2891" height="1660"/></clipPath><clipPath id="clip14"><rect x="763" y="2320" width="2891" height="1660"/></clipPath><clipPath id="clip15"><rect x="763" y="2320" width="2891" height="1660"/></clipPath><clipPath id="clip16"><rect x="763" y="2320" width="2891" height="1660"/></clipPath><clipPath id="clip17"><rect x="763" y="2320" width="2891" height="1660"/></clipPath><clipPath id="clip18"><rect x="763" y="2320" width="2891" height="1660"/></clipPath><clipPath id="clip19"><rect x="763" y="2320" width="2891" height="1660"/></clipPath><clipPath id="clip20"><rect x="763" y="2320" width="2891" height="1660"/></clipPath><clipPath id="clip21"><rect x="763" y="2320" width="2891" height="1660"/></clipPath><clipPath id="clip22"><rect x="763" y="2320" width="2891" height="1660"/></clipPath><clipPath id="clip23"><rect x="763" y="2320" width="2891" height="1660"/></clipPath><clipPath id="clip24"><rect x="763" y="2320" width="2891" height="1660"/></clipPath><clipPath id="clip25"><rect x="763" y="2320" width="2891" height="1660"/></clipPath><clipPath id="clip26"><rect x="763" y="2320" width="2891" height="1660"/></clipPath><clipPath id="clip27"><rect x="763" y="2320" width="2891" height="1660"/></clipPath><clipPath id="clip28"><rect x="763" y="2320" width="2891" height="1660"/></clipPath><clipPath id="clip29"><rect x="763" y="2320" width="2891" height="1660"/></clipPath><clipPath id="clip30"><rect x="763" y="2320" width="2891" height="1660"/></clipPath><clipPath id="clip31"><rect x="763" y="2320" width="2891" height="1660"/></clipPath><clipPath id="clip32"><rect x="763" y="2320" width="2891" height="1660"/></clipPath><clipPath id="clip33"><rect x="763" y="2320" width="2891" height="1660"/></clipPath><clipPath id="clip34"><rect x="763" y="2320" width="2891" height="1660"/></clipPath><clipPath id="clip35"><rect x="763" y="2320" width="2891" height="1660"/></clipPath><clipPath id="clip36"><rect x="763" y="2320" width="2891" height="1660"/></clipPath><clipPath id="clip37"><rect x="763" y="2320" width="2891" height="1660"/></clipPath><clipPath id="clip38"><rect x="763" y="2320" width="2891" height="1660"/></clipPath><clipPath id="clip39"><rect x="763" y="2320" width="2891" height="1660"/></clipPath><clipPath id="clip40"><rect x="763" y="2320" width="2891" height="1660"/></clipPath><clipPath id="clip41"><rect x="763" y="2320" width="2891" height="1660"/></clipPath><clipPath id="clip42"><rect x="763" y="2320" width="2891" height="1660"/></clipPath><clipPath id="clip43"><rect x="763" y="2320" width="2891" height="1660"/></clipPath><clipPath id="clip44"><rect x="763" y="2320" width="2891" height="1660"/></clipPath><clipPath id="clip45"><rect x="763" y="2320" width="2891" height="1660"/></clipPath></defs><g clip-path="url(#clip0)" transform="translate(-763 -2320)"><rect x="763" y="2320" width="2891" height="1661" fill="#FFFFFF"/><g clip-path="url(#clip1)"><path d="M1062.5 3570.62 3464.5 3570.62M1062.5 3399.61 3464.5 3399.61M1062.5 3228.61 3464.5 3228.61M1062.5 3057.6 3464.5 3057.6M1062.5 2886.59 3464.5 2886.59M1062.5 2715.59 3464.5 2715.59M1062.5 2544.58 3464.5 2544.58M1062.5 2374.5 3464.5 2374.5" stroke="#D9D9D9" stroke-width="3.4375" stroke-linejoin="round" stroke-miterlimit="10" fill="none"/></g><g clip-path="url(#clip2)"><path d="M1097.04 2540.08 1166.04 2540.08 1166.04 3741 1097.04 3741ZM1440.05 2637.09 1509.05 2637.09 1509.05 3741 1440.05 3741ZM1783.06 2653.09 1852.06 2653.09 1852.06 3741 1783.06 3741ZM2127.07 2601.09 2195.07 2601.09 2195.07 3741 2127.07 3741ZM2470.08 3471.11 2538.08 3471.11 2538.08 3741 2470.08 3741ZM2813.09 3394.11 2881.09 3394.11 2881.09 3741 2813.09 3741ZM3156.1 3615.12 3224.11 3615.12 3224.11 3741 3156.1 3741Z" fill="#5985B1"/></g><g clip-path="url(#clip3)"><path d="M1166.04 3504.11 1234.04 3504.11 1234.04 3741 1166.04 3741ZM1509.05 3608.12 1578.05 3608.12 1578.05 3741 1509.05 3741ZM1852.06 3473.11 1921.06 3473.11 1921.06 3741 1852.06 3741ZM2195.07 3439.11 2264.07 3439.11 2264.07 3741 2195.07 3741ZM2538.08 3521.12 2607.09 3521.12 2607.09 3741 2538.08 3741ZM2881.09 3707.12 2950.1 3707.12 2950.1 3741 2881.09 3741ZM3224.11 3702.12 3293.11 3702.12 3293.11 3741 3224.11 3741Z" fill="#6399CE"/></g><g clip-path="url(#clip4)"><path d="M1234.04 3738.12 1303.04 3738.12 1303.04 3741 1234.04 3741ZM1578.05 3463.11 1646.05 3463.11 1646.05 3741 1578.05 3741ZM1921.06 3683.12 1989.07 3683.12 1989.07 3741 1921.06 3741ZM2264.07 3728.12 2332.08 3728.12 2332.08 3741 2264.07 3741ZM2607.09 3734.12 2676.09 3734.12 2676.09 3741 2607.09 3741ZM3293.11 3738.12 3362.11 3738.12 3362.11 3741 3293.11 3741Z" fill="#8BAFE0"/></g><g clip-path="url(#clip5)"><path d="M1303.04 3722.12 1372.05 3722.12 1372.05 3741 1303.04 3741ZM1646.05 3666.12 1715.06 3666.12 1715.06 3741 1646.05 3741ZM1989.07 3706.12 2058.07 3706.12 2058.07 3741 1989.07 3741ZM2332.08 3727.12 2401.08 3727.12 2401.08 3741 2332.08 3741ZM2676.09 3729.12 2744.09 3729.12 2744.09 3741 2676.09 3741ZM3019.1 3740.12 3087.1 3740.12 3087.1 3741 3019.1 3741ZM3362.11 3738.12 3430.11 3738.12 3430.11 3741 3362.11 3741Z" fill="#BFD1EB"/></g><g clip-path="url(#clip6)"><path d="M1062.5 3741.5 3464.5 3741.5" stroke="#D9D9D9" stroke-width="3.4375" stroke-linejoin="round" stroke-miterlimit="10" fill="none" fill-rule="evenodd"/></g><g clip-path="url(#clip7)"><path d="M1234 2617.09 1578.05 2792.09 1921.06 2715.09 2264.07 2680.09 2607.09 3016 2950.1 2502 3293 2739.09" stroke="#1F4E79" stroke-width="10.3125" stroke-linecap="round" stroke-linejoin="round" stroke-miterlimit="10" fill="none"/></g><g clip-path="url(#clip8)"><text fill="#595959" font-family="Calibri,Calibri_MSFontService,sans-serif" font-weight="400" font-size="50" transform="matrix(1 0 0 1 3511.57 3756)">0%</text></g><g clip-path="url(#clip9)"><text fill="#595959" font-family="Calibri,Calibri_MSFontService,sans-serif" font-weight="400" font-size="50" transform="matrix(1 0 0 1 3511.57 3619)">10%</text></g><g clip-path="url(#clip10)"><text fill="#595959" font-family="Calibri,Calibri_MSFontService,sans-serif" font-weight="400" font-size="50" transform="matrix(1 0 0 1 3511.57 3482)">20%</text></g><g clip-path="url(#clip11)"><text fill="#595959" font-family="Calibri,Calibri_MSFontService,sans-serif" font-weight="400" font-size="50" transform="matrix(1 0 0 1 3511.57 3346)">30%</text></g><g clip-path="url(#clip12)"><text fill="#595959" font-family="Calibri,Calibri_MSFontService,sans-serif" font-weight="400" font-size="50" transform="matrix(1 0 0 1 3511.57 3209)">40%</text></g><g clip-path="url(#clip13)"><text fill="#595959" font-family="Calibri,Calibri_MSFontService,sans-serif" font-weight="400" font-size="50" transform="matrix(1 0 0 1 3511.57 3072)">50%</text></g><g clip-path="url(#clip14)"><text fill="#595959" font-family="Calibri,Calibri_MSFontService,sans-serif" font-weight="400" font-size="50" transform="matrix(1 0 0 1 3511.57 2935)">60%</text></g><g clip-path="url(#clip15)"><text fill="#595959" font-family="Calibri,Calibri_MSFontService,sans-serif" font-weight="400" font-size="50" transform="matrix(1 0 0 1 3511.57 2799)">70%</text></g><g clip-path="url(#clip16)"><text fill="#595959" font-family="Calibri,Calibri_MSFontService,sans-serif" font-weight="400" font-size="50" transform="matrix(1 0 0 1 3511.57 2662)">80%</text></g><g clip-path="url(#clip17)"><text fill="#595959" font-family="Calibri,Calibri_MSFontService,sans-serif" font-weight="400" font-size="50" transform="matrix(1 0 0 1 3511.57 2525)">90%</text></g><g clip-path="url(#clip18)"><text fill="#595959" font-family="Calibri,Calibri_MSFontService,sans-serif" font-weight="400" font-size="50" transform="matrix(1 0 0 1 3511.57 2388)">100%</text></g><g clip-path="url(#clip19)"><text fill="#595959" font-family="Calibri,Calibri_MSFontService,sans-serif" font-weight="400" font-size="50" transform="matrix(1 0 0 1 990.551 3756)">0</text></g><g clip-path="url(#clip20)"><text fill="#595959" font-family="Calibri,Calibri_MSFontService,sans-serif" font-weight="400" font-size="50" transform="matrix(1 0 0 1 901.312 3585)">1,000</text></g><g clip-path="url(#clip21)"><text fill="#595959" font-family="Calibri,Calibri_MSFontService,sans-serif" font-weight="400" font-size="50" transform="matrix(1 0 0 1 901.312 3414)">2,000</text></g><g clip-path="url(#clip22)"><text fill="#595959" font-family="Calibri,Calibri_MSFontService,sans-serif" font-weight="400" font-size="50" transform="matrix(1 0 0 1 901.312 3243)">3,000</text></g><g clip-path="url(#clip23)"><text fill="#595959" font-family="Calibri,Calibri_MSFontService,sans-serif" font-weight="400" font-size="50" transform="matrix(1 0 0 1 901.312 3072)">4,000</text></g><g clip-path="url(#clip24)"><text fill="#595959" font-family="Calibri,Calibri_MSFontService,sans-serif" font-weight="400" font-size="50" transform="matrix(1 0 0 1 901.312 2901)">5,000</text></g><g clip-path="url(#clip25)"><text fill="#595959" font-family="Calibri,Calibri_MSFontService,sans-serif" font-weight="400" font-size="50" transform="matrix(1 0 0 1 901.312 2730)">6,000</text></g><g clip-path="url(#clip26)"><text fill="#595959" font-family="Calibri,Calibri_MSFontService,sans-serif" font-weight="400" font-size="50" transform="matrix(1 0 0 1 901.312 2559)">7,000</text></g><g clip-path="url(#clip27)"><text fill="#595959" font-family="Calibri,Calibri_MSFontService,sans-serif" font-weight="400" font-size="50" transform="matrix(1 0 0 1 901.312 2388)">8,000</text></g><g clip-path="url(#clip28)"><text fill="#595959" font-family="Calibri,Calibri_MSFontService,sans-serif" font-weight="400" font-size="50" transform="matrix(1 0 0 1 1161.02 3821)">Europe</text></g><g clip-path="url(#clip29)"><text fill="#595959" font-family="Calibri,Calibri_MSFontService,sans-serif" font-weight="400" font-size="50" transform="matrix(1 0 0 1 1427.27 3821)">North America</text></g><g clip-path="url(#clip30)"><text fill="#595959" font-family="Calibri,Calibri_MSFontService,sans-serif" font-weight="400" font-size="50" transform="matrix(1 0 0 1 1862.91 3821)">China</text></g><g clip-path="url(#clip31)"><text fill="#595959" font-family="Calibri,Calibri_MSFontService,sans-serif" font-weight="400" font-size="50" transform="matrix(1 0 0 1 2148.13 3821)">Asia-Pacific</text></g><g clip-path="url(#clip32)"><text fill="#595959" font-family="Calibri,Calibri_MSFontService,sans-serif" font-weight="400" font-size="50" transform="matrix(1 0 0 1 2486.42 3821)">Middle East</text></g><g clip-path="url(#clip33)"><text fill="#595959" font-family="Calibri,Calibri_MSFontService,sans-serif" font-weight="400" font-size="50" transform="matrix(1 0 0 1 2809.67 3821)">Latin America</text></g><g clip-path="url(#clip34)"><text fill="#595959" font-family="Calibri,Calibri_MSFontService,sans-serif" font-weight="400" font-size="50" transform="matrix(1 0 0 1 3233.64 3821)">Africa</text></g><g clip-path="url(#clip35)"><text fill="#595959" font-family="Calibri,Calibri_MSFontService,sans-serif" font-weight="400" font-size="55" transform="matrix(6.12323e-17 -1 1 6.12323e-17 872.415 3265)">Number of aircraft</text></g><g clip-path="url(#clip36)"><rect x="1123" y="3895" width="88" height="27.9998" fill="#5985B1"/></g><g clip-path="url(#clip37)"><text fill="#595959" font-family="Calibri,Calibri_MSFontService,sans-serif" font-weight="400" font-size="50" transform="matrix(1 0 0 1 1220.36 3923)">Single Aisle</text></g><g clip-path="url(#clip38)"><rect x="1528" y="3895" width="88" height="27.9998" fill="#6399CE"/></g><g clip-path="url(#clip39)"><text fill="#595959" font-family="Calibri,Calibri_MSFontService,sans-serif" font-weight="400" font-size="50" transform="matrix(1 0 0 1 1625.21 3923)">Widebody</text></g><g clip-path="url(#clip40)"><rect x="1913" y="3895" width="88" height="27.9998" fill="#8BAFE0"/></g><g clip-path="url(#clip41)"><text fill="#595959" font-family="Calibri,Calibri_MSFontService,sans-serif" font-weight="400" font-size="50" transform="matrix(1 0 0 1 2010.32 3923)">Regional Jet</text></g><g clip-path="url(#clip42)"><rect x="2334" y="3895" width="88" height="27.9998" fill="#BFD1EB"/></g><g clip-path="url(#clip43)"><text fill="#595959" font-family="Calibri,Calibri_MSFontService,sans-serif" font-weight="400" font-size="50" transform="matrix(1 0 0 1 2431.05 3923)">Freighter</text></g><g clip-path="url(#clip44)"><path d="M2696 3909 2784 3909" stroke="#1F4E79" stroke-width="10.3125" stroke-linecap="round" stroke-linejoin="round" stroke-miterlimit="10" fill="none" fill-rule="evenodd"/></g><g clip-path="url(#clip45)"><text fill="#595959" font-family="Calibri,Calibri_MSFontService,sans-serif" font-weight="400" font-size="50" transform="matrix(1 0 0 1 2792.96 3923)">Proportion of Single Aisle</text></g></g></svg>