<svg width="2972" height="1766" xmlns="http://www.w3.org/2000/svg" xmlns:xlink="http://www.w3.org/1999/xlink" xml:space="preserve" overflow="hidden"><defs><clipPath id="clip0"><rect x="763" y="2320" width="2972" height="1766"/></clipPath></defs><g clip-path="url(#clip0)" transform="translate(-763 -2320)"><rect x="763" y="2320" width="2972" height="1766" fill="#FFFFFF"/><g><path d="M1046.5 3510.62 3122.5 3510.62M1046.5 3133.6 3122.5 3133.6M1046.5 2756.59 3122.5 2756.59M1046.5 2379.5 3122.5 2379.5" stroke="#D9D9D9" stroke-width="3.4375" stroke-linejoin="round" stroke-miterlimit="10" fill="none"/></g><g><path d="M1053.03 2562.08 1124.04 2562.08 1124.04 3888 1053.03 3888ZM1350.04 2669.09 1420.05 2669.09 1420.05 3888 1350.04 3888ZM1646.05 2686.09 1717.06 2686.09 1717.06 3888 1646.05 3888ZM1943.06 2630.09 2014.07 2630.09 2014.07 3888 1943.06 3888ZM2240.07 3590.12 2310.08 3590.12 2310.08 3888 2240.07 3888ZM2536.08 3505.11 2607.09 3505.11 2607.09 3888 2536.08 3888ZM2833.09 3748.12 2904.1 3748.12 2904.1 3888 2833.09 3888Z" fill="#4F81BD"/></g><g><path d="M1124.04 3625.12 1194.04 3625.12 1194.04 3888 1124.04 3888ZM1420.05 3740.12 1491.05 3740.12 1491.05 3888 1420.05 3888ZM1717.06 3591.12 1788.06 3591.12 1788.06 3888 1717.06 3888ZM2014.07 3554.12 2084.07 3554.12 2084.07 3888 2014.07 3888ZM2310.08 3644.12 2381.08 3644.12 2381.08 3888 2310.08 3888ZM2607.09 3850.13 2678.09 3850.13 2678.09 3888 2607.09 3888ZM2904.1 3844.13 2974.1 3844.13 2974.1 3888 2904.1 3888Z" fill="#BFD1EB"/></g><g><path d="M1194.04 3884.13 1265.04 3884.13 1265.04 3888 1194.04 3888ZM1491.05 3580.12 1562.05 3580.12 1562.05 3888 1491.05 3888ZM1788.06 3823.13 1858.06 3823.13 1858.06 3888 1788.06 3888ZM2084.07 3873.13 2155.07 3873.13 2155.07 3888 2084.07 3888ZM2381.08 3880.13 2452.08 3880.13 2452.08 3888 2381.08 3888ZM2974.1 3884.13 3045.1 3884.13 3045.1 3888 2974.1 3888Z" fill="#00A29E"/></g><g><path d="M1265.04 3867.13 1336.04 3867.13 1336.04 3888 1265.04 3888ZM1562.05 3804.12 1632.05 3804.12 1632.05 3888 1562.05 3888ZM1858.06 3849.13 1929.06 3849.13 1929.06 3888 1858.06 3888ZM2155.07 3871.13 2226.07 3871.13 2226.07 3888 2155.07 3888ZM2452.08 3874.13 2522.08 3874.13 2522.08 3888 2452.08 3888ZM2748.09 3886.13 2819.09 3886.13 2819.09 3888 2748.09 3888ZM3045.1 3884.13 3116.1 3884.13 3116.1 3888 3045.1 3888Z" fill="#FFC20A"/></g><g><path d="M1046.5 3887.5 3122.5 3887.5" stroke="#D9D9D9" stroke-width="3.4375" stroke-linejoin="round" stroke-miterlimit="10" fill="none" fill-rule="evenodd"/></g><g><path d="M1194 2647.68C1292.89 2712.23 1391.78 2823.34 1490.67 2841.32 1589.56 2859.29 1688.44 2776.19 1787.33 2755.53 1886.22 2734.88 1985.11 2661.92 2084 2717.37 2182.89 2772.82 2281.78 3121 2380.67 3088.26 2479.56 3055.51 2578.44 2571.82 2677.33 2520.91 2776.22 2470 2875.11 2695.5 2974 2782.79" stroke="#B3D235" stroke-width="10.3125" stroke-linecap="round" stroke-linejoin="round" stroke-miterlimit="10" stroke-opacity="0.988235" fill="none"/></g><g><path d="M1210.12 2647.31C1210.12 2656.15 1202.96 2663.31 1194.12 2663.31 1185.29 2663.31 1178.13 2656.15 1178.13 2647.31 1178.13 2638.48 1185.29 2631.31 1194.12 2631.31 1202.96 2631.31 1210.12 2638.48 1210.12 2647.31Z" fill="#B3D235"/><path d="M1507.12 2841.31C1507.12 2850.15 1499.96 2857.31 1491.12 2857.31 1482.29 2857.31 1475.13 2850.15 1475.13 2841.31 1475.13 2832.48 1482.29 2825.31 1491.12 2825.31 1499.96 2825.31 1507.12 2832.48 1507.12 2841.31Z" fill="#B3D235"/><path d="M1804.12 2755.31C1804.12 2764.15 1796.96 2771.31 1788.12 2771.31 1779.29 2771.31 1772.13 2764.15 1772.13 2755.31 1772.13 2746.48 1779.29 2739.31 1788.12 2739.31 1796.96 2739.31 1804.12 2746.48 1804.12 2755.31Z" fill="#B3D235"/><path d="M2100.12 2717.31C2100.12 2726.15 2092.96 2733.31 2084.12 2733.31 2075.29 2733.31 2068.12 2726.15 2068.12 2717.31 2068.12 2708.48 2075.29 2701.31 2084.12 2701.31 2092.96 2701.31 2100.12 2708.48 2100.12 2717.31Z" fill="#B3D235"/><path d="M2397.12 3088.31C2397.12 3097.15 2389.96 3104.31 2381.12 3104.31 2372.29 3104.31 2365.12 3097.15 2365.12 3088.31 2365.12 3079.48 2372.29 3072.31 2381.12 3072.31 2389.96 3072.31 2397.12 3079.48 2397.12 3088.31Z" fill="#B3D235"/><path d="M2694.12 2521.31C2694.12 2530.15 2686.96 2537.31 2678.12 2537.31 2669.29 2537.31 2662.12 2530.15 2662.12 2521.31 2662.12 2512.48 2669.29 2505.31 2678.12 2505.31 2686.96 2505.31 2694.12 2512.48 2694.12 2521.31Z" fill="#B3D235"/><path d="M2990.12 2782.31C2990.12 2791.15 2982.96 2798.31 2974.12 2798.31 2965.29 2798.31 2958.12 2791.15 2958.12 2782.31 2958.12 2773.48 2965.29 2766.31 2974.12 2766.31 2982.96 2766.31 2990.12 2773.48 2990.12 2782.31Z" fill="#B3D235"/></g><g><text fill="#FFFFFF" font-family="Calibri,Calibri_MSFontService,sans-serif" font-weight="400" font-size="60" transform="matrix(6.12323e-17 -1 1 6.12323e-17 1109.05 3860)">7,030</text></g><g><text fill="#FFFFFF" font-family="Calibri,Calibri_MSFontService,sans-serif" font-weight="400" font-size="60" transform="matrix(6.12323e-17 -1 1 6.12323e-17 1405.73 3860)">6,460</text></g><g><text fill="#FFFFFF" font-family="Calibri,Calibri_MSFontService,sans-serif" font-weight="400" font-size="60" transform="matrix(6.12323e-17 -1 1 6.12323e-17 1702.41 3860)">6,370</text></g><g><text fill="#FFFFFF" font-family="Calibri,Calibri_MSFontService,sans-serif" font-weight="400" font-size="60" transform="matrix(6.12323e-17 -1 1 6.12323e-17 1999.09 3860)">6,670</text></g><g><text fill="#FFFFFF" font-family="Calibri,Calibri_MSFontService,sans-serif" font-weight="400" font-size="60" transform="matrix(6.12323e-17 -1 1 6.12323e-17 2295.76 3860)">1,580</text></g><g><text fill="#FFFFFF" font-family="Calibri,Calibri_MSFontService,sans-serif" font-weight="400" font-size="60" transform="matrix(6.12323e-17 -1 1 6.12323e-17 2592.44 3860)">2,030</text></g><g><text fill="#FFFFFF" font-family="Calibri,Calibri_MSFontService,sans-serif" font-weight="400" font-size="60" transform="matrix(6.12323e-17 -1 1 6.12323e-17 2889.12 3860)">740</text></g><g><text fill="#404040" font-family="Calibri,Calibri_MSFontService,sans-serif" font-weight="400" font-size="60" transform="matrix(6.12323e-17 -1 1 6.12323e-17 1179.69 3860)">1,390</text></g><g><text fill="#404040" font-family="Calibri,Calibri_MSFontService,sans-serif" font-weight="400" font-size="60" transform="matrix(6.12323e-17 -1 1 6.12323e-17 1476.37 3860)">780</text></g><g><text fill="#404040" font-family="Calibri,Calibri_MSFontService,sans-serif" font-weight="400" font-size="60" transform="matrix(6.12323e-17 -1 1 6.12323e-17 1773.05 3860)">1,570</text></g><g><text fill="#404040" font-family="Calibri,Calibri_MSFontService,sans-serif" font-weight="400" font-size="60" transform="matrix(6.12323e-17 -1 1 6.12323e-17 2069.72 3860)">1,770</text></g><g><text fill="#404040" font-family="Calibri,Calibri_MSFontService,sans-serif" font-weight="400" font-size="60" transform="matrix(6.12323e-17 -1 1 6.12323e-17 2366.4 3860)">1,290</text></g><g><text fill="#404040" font-family="Calibri,Calibri_MSFontService,sans-serif" font-weight="400" font-size="60" transform="matrix(6.12323e-17 -1 1 6.12323e-17 2663.08 3860)">200</text></g><g><text fill="#404040" font-family="Calibri,Calibri_MSFontService,sans-serif" font-weight="400" font-size="60" transform="matrix(6.12323e-17 -1 1 6.12323e-17 2959.76 3860)">230</text></g><g><text fill="#404040" font-family="Calibri,Calibri_MSFontService,sans-serif" font-weight="400" font-size="60" transform="matrix(6.12323e-17 -1 1 6.12323e-17 1250.33 3860)">20</text></g><g><text fill="#404040" font-family="Calibri,Calibri_MSFontService,sans-serif" font-weight="400" font-size="60" transform="matrix(6.12323e-17 -1 1 6.12323e-17 1547 3860)">1,630</text></g><g><text fill="#404040" font-family="Calibri,Calibri_MSFontService,sans-serif" font-weight="400" font-size="60" transform="matrix(6.12323e-17 -1 1 6.12323e-17 1843.68 3860)">340</text></g><g><text fill="#404040" font-family="Calibri,Calibri_MSFontService,sans-serif" font-weight="400" font-size="60" transform="matrix(6.12323e-17 -1 1 6.12323e-17 2140.36 3860)">75</text></g><g><text fill="#404040" font-family="Calibri,Calibri_MSFontService,sans-serif" font-weight="400" font-size="60" transform="matrix(6.12323e-17 -1 1 6.12323e-17 2437.04 3860)">40</text></g><g><text fill="#404040" font-family="Calibri,Calibri_MSFontService,sans-serif" font-weight="400" font-size="60" transform="matrix(6.12323e-17 -1 1 6.12323e-17 2733.72 3860)">0</text></g><g><text fill="#404040" font-family="Calibri,Calibri_MSFontService,sans-serif" font-weight="400" font-size="60" transform="matrix(6.12323e-17 -1 1 6.12323e-17 3030.39 3860)">20</text></g><g><text fill="#404040" font-family="Calibri,Calibri_MSFontService,sans-serif" font-weight="400" font-size="60" transform="matrix(6.12323e-17 -1 1 6.12323e-17 1320.96 3860)">110</text></g><g><text fill="#404040" font-family="Calibri,Calibri_MSFontService,sans-serif" font-weight="400" font-size="60" transform="matrix(6.12323e-17 -1 1 6.12323e-17 1617.64 3860)">440</text></g><g><text fill="#404040" font-family="Calibri,Calibri_MSFontService,sans-serif" font-weight="400" font-size="60" transform="matrix(6.12323e-17 -1 1 6.12323e-17 1914.32 3860)">205</text></g><g><text fill="#404040" font-family="Calibri,Calibri_MSFontService,sans-serif" font-weight="400" font-size="60" transform="matrix(6.12323e-17 -1 1 6.12323e-17 2211 3860)">85</text></g><g><text fill="#404040" font-family="Calibri,Calibri_MSFontService,sans-serif" font-weight="400" font-size="60" transform="matrix(6.12323e-17 -1 1 6.12323e-17 2507.68 3860)">70</text></g><g><text fill="#404040" font-family="Calibri,Calibri_MSFontService,sans-serif" font-weight="400" font-size="60" transform="matrix(6.12323e-17 -1 1 6.12323e-17 2804.35 3860)">10</text></g><g><text fill="#404040" font-family="Calibri,Calibri_MSFontService,sans-serif" font-weight="400" font-size="60" transform="matrix(6.12323e-17 -1 1 6.12323e-17 3101.03 3860)">20</text></g><g><text fill="#003366" font-family="Calibri,Calibri_MSFontService,sans-serif" font-weight="400" font-size="55" transform="matrix(1 0 0 1 1146.85 2596)">82%</text></g><g><text fill="#003366" font-family="Calibri,Calibri_MSFontService,sans-serif" font-weight="400" font-size="55" transform="matrix(1 0 0 1 1443.53 2789)">69%</text></g><g><text fill="#003366" font-family="Calibri,Calibri_MSFontService,sans-serif" font-weight="400" font-size="55" transform="matrix(1 0 0 1 1740.21 2703)">75%</text></g><g><text fill="#003366" font-family="Calibri,Calibri_MSFontService,sans-serif" font-weight="400" font-size="55" transform="matrix(1 0 0 1 2036.89 2665)">78%</text></g><g><text fill="#003366" font-family="Calibri,Calibri_MSFontService,sans-serif" font-weight="400" font-size="55" transform="matrix(1 0 0 1 2333.57 3036)">53%</text></g><g><text fill="#003366" font-family="Calibri,Calibri_MSFontService,sans-serif" font-weight="400" font-size="55" transform="matrix(1 0 0 1 2630.24 2469)">91%</text></g><g><text fill="#003366" font-family="Calibri,Calibri_MSFontService,sans-serif" font-weight="400" font-size="55" transform="matrix(1 0 0 1 2926.92 2731)">73%</text></g><g><text fill="#595959" font-family="Calibri,Calibri_MSFontService,sans-serif" font-weight="400" font-size="60" transform="matrix(1 0 0 1 3178.07 3905)">0%</text></g><g><text fill="#595959" font-family="Calibri,Calibri_MSFontService,sans-serif" font-weight="400" font-size="60" transform="matrix(1 0 0 1 3178.07 3603)">20%</text></g><g><text fill="#595959" font-family="Calibri,Calibri_MSFontService,sans-serif" font-weight="400" font-size="60" transform="matrix(1 0 0 1 3178.07 3302)">40%</text></g><g><text fill="#595959" font-family="Calibri,Calibri_MSFontService,sans-serif" font-weight="400" font-size="60" transform="matrix(1 0 0 1 3178.07 3000)">60%</text></g><g><text fill="#595959" font-family="Calibri,Calibri_MSFontService,sans-serif" font-weight="400" font-size="60" transform="matrix(1 0 0 1 3178.07 2698)">80%</text></g><g><text fill="#595959" font-family="Calibri,Calibri_MSFontService,sans-serif" font-weight="400" font-size="60" transform="matrix(1 0 0 1 3178.07 2397)">100%</text></g><g><text fill="#595959" font-family="Calibri,Calibri_MSFontService,sans-serif" font-weight="400" font-size="60" transform="matrix(1 0 0 1 960.557 3905)">0</text></g><g><text fill="#595959" font-family="Calibri,Calibri_MSFontService,sans-serif" font-weight="400" font-size="60" transform="matrix(1 0 0 1 855.072 3528)">2,000</text></g><g><text fill="#595959" font-family="Calibri,Calibri_MSFontService,sans-serif" font-weight="400" font-size="60" transform="matrix(1 0 0 1 855.072 3151)">4,000</text></g><g><text fill="#595959" font-family="Calibri,Calibri_MSFontService,sans-serif" font-weight="400" font-size="60" transform="matrix(1 0 0 1 855.072 2774)">6,000</text></g><g><text fill="#595959" font-family="Calibri,Calibri_MSFontService,sans-serif" font-weight="400" font-size="60" transform="matrix(1 0 0 1 855.072 2397)">8,000</text></g><g><text fill="#595959" font-family="Calibri,Calibri_MSFontService,sans-serif" font-weight="400" font-size="60" transform="matrix(1 0 0 1 1107.61 3982)">Europe</text></g><g><text fill="#595959" font-family="Calibri,Calibri_MSFontService,sans-serif" font-weight="400" font-size="60" transform="matrix(1 0 0 1 1420.11 3982)">North</text></g><g><text fill="#595959" font-family="Calibri,Calibri_MSFontService,sans-serif" font-weight="400" font-size="60" transform="matrix(1 0 0 1 1391.12 4055)">America</text></g><g><text fill="#595959" font-family="Calibri,Calibri_MSFontService,sans-serif" font-weight="400" font-size="60" transform="matrix(1 0 0 1 1719.45 3982)">China</text></g><g><text fill="#595959" font-family="Calibri,Calibri_MSFontService,sans-serif" font-weight="400" font-size="60" transform="matrix(1 0 0 1 1947.7 3982)">Asia-Pacific</text></g><g><text fill="#595959" font-family="Calibri,Calibri_MSFontService,sans-serif" font-weight="400" font-size="60" transform="matrix(1 0 0 1 2238.62 3982)">Middle East</text></g><g><text fill="#595959" font-family="Calibri,Calibri_MSFontService,sans-serif" font-weight="400" font-size="60" transform="matrix(1 0 0 1 2618.51 3982)">Latin</text></g><g><text fill="#595959" font-family="Calibri,Calibri_MSFontService,sans-serif" font-weight="400" font-size="60" transform="matrix(1 0 0 1 2577.83 4055)">America</text></g><g><text fill="#595959" font-family="Calibri,Calibri_MSFontService,sans-serif" font-weight="400" font-size="60" transform="matrix(1 0 0 1 2904.05 3982)">Africa</text></g><g><text fill="#595959" font-family="Calibri,Calibri_MSFontService,sans-serif" font-weight="400" font-size="60" transform="matrix(6.12323e-17 -1 1 6.12323e-17 3380.39 2948)">Proportion of single aisle</text></g><g><text fill="#595959" font-family="Calibri,Calibri_MSFontService,sans-serif" font-weight="400" font-size="60" transform="matrix(6.12323e-17 -1 1 6.12323e-17 831.031 2792)">Number of aircraft</text></g><g><rect x="3293" y="3126" width="442" height="763" fill="#F2F2F2"/></g><g><rect x="3331" y="3133" width="88" height="33" fill="#4F81BD"/></g><g><text fill="#595959" font-family="Calibri,Calibri_MSFontService,sans-serif" font-weight="400" font-size="60" transform="matrix(1 0 0 1 3427.83 3167)">Single aisle</text></g><g><rect x="3331" y="3324" width="88" height="33" fill="#BFD1EB"/></g><g><text fill="#595959" font-family="Calibri,Calibri_MSFontService,sans-serif" font-weight="400" font-size="60" transform="matrix(1 0 0 1 3427.83 3358)">Widebody</text></g><g><rect x="3331" y="3515" width="88" height="32.0002" fill="#00A29E"/></g><g><text fill="#595959" font-family="Calibri,Calibri_MSFontService,sans-serif" font-weight="400" font-size="60" transform="matrix(1 0 0 1 3427.83 3548)">Regional jet</text></g><g><rect x="3331" y="3705" width="88" height="33" fill="#FFC20A"/></g><g><text fill="#595959" font-family="Calibri,Calibri_MSFontService,sans-serif" font-weight="400" font-size="60" transform="matrix(1 0 0 1 3427.83 3739)">Freighter</text></g></g></svg>