<svg width="2751" height="1182" xmlns="http://www.w3.org/2000/svg" xmlns:xlink="http://www.w3.org/1999/xlink" xml:space="preserve" overflow="hidden"><defs><clipPath id="clip0"><rect x="1089" y="52" width="2751" height="1182"/></clipPath><clipPath id="clip1"><rect x="1089" y="51" width="2750" height="1183"/></clipPath><clipPath id="clip2"><rect x="1227" y="105" width="2565" height="1009"/></clipPath><clipPath id="clip3"><rect x="1089" y="51" width="2750" height="1183"/></clipPath><clipPath id="clip4"><rect x="1089" y="51" width="2750" height="1183"/></clipPath><clipPath id="clip5"><rect x="1089" y="51" width="2750" height="1183"/></clipPath><clipPath id="clip6"><rect x="1089" y="51" width="2750" height="1183"/></clipPath><clipPath id="clip7"><rect x="1089" y="51" width="2750" height="1183"/></clipPath><clipPath id="clip8"><rect x="1089" y="51" width="2750" height="1183"/></clipPath><clipPath id="clip9"><rect x="1089" y="51" width="2750" height="1183"/></clipPath><clipPath id="clip10"><rect x="1089" y="51" width="2750" height="1183"/></clipPath><clipPath id="clip11"><rect x="1089" y="51" width="2750" height="1183"/></clipPath><clipPath id="clip12"><rect x="1089" y="51" width="2750" height="1183"/></clipPath><clipPath id="clip13"><rect x="1089" y="51" width="2750" height="1183"/></clipPath><clipPath id="clip14"><rect x="1089" y="51" width="2750" height="1183"/></clipPath><clipPath id="clip15"><rect x="1089" y="51" width="2750" height="1183"/></clipPath><clipPath id="clip16"><rect x="1089" y="51" width="2750" height="1183"/></clipPath><clipPath id="clip17"><rect x="1089" y="51" width="2750" height="1183"/></clipPath><clipPath id="clip18"><rect x="1089" y="51" width="2750" height="1183"/></clipPath><clipPath id="clip19"><rect x="1089" y="51" width="2750" height="1183"/></clipPath><clipPath id="clip20"><rect x="1089" y="51" width="2750" height="1183"/></clipPath><clipPath id="clip21"><rect x="1089" y="51" width="2750" height="1183"/></clipPath><clipPath id="clip22"><rect x="1089" y="51" width="2750" height="1183"/></clipPath><clipPath id="clip23"><rect x="1089" y="51" width="2750" height="1183"/></clipPath><clipPath id="clip24"><rect x="1089" y="51" width="2750" height="1183"/></clipPath><clipPath id="clip25"><rect x="1089" y="51" width="2750" height="1183"/></clipPath><clipPath id="clip26"><rect x="1089" y="51" width="2750" height="1183"/></clipPath><clipPath id="clip27"><rect x="1089" y="51" width="2750" height="1183"/></clipPath><clipPath id="clip28"><rect x="1089" y="51" width="2750" height="1183"/></clipPath><clipPath id="clip29"><rect x="1089" y="51" width="2750" height="1183"/></clipPath><clipPath id="clip30"><rect x="1089" y="51" width="2750" height="1183"/></clipPath><clipPath id="clip31"><rect x="1089" y="51" width="2750" height="1183"/></clipPath><clipPath id="clip32"><rect x="1089" y="51" width="2750" height="1183"/></clipPath></defs><g clip-path="url(#clip0)" transform="translate(-1089 -52)"><rect x="1090" y="51.9999" width="2750" height="1182" fill="#FFFFFF"/><g clip-path="url(#clip1)"><path d="M1227.5 984.532 3789.5 984.532M1227.5 859.528 3789.5 859.528M1227.5 733.524 3789.5 733.524M1227.5 607.52 3789.5 607.52M1227.5 482.516 3789.5 482.516M1227.5 356.512 3789.5 356.512M1227.5 230.508 3789.5 230.508M1227.5 105.5 3789.5 105.5" stroke="#D9D9D9" stroke-width="3.4375" stroke-linejoin="round" stroke-miterlimit="10" fill="none"/></g><g clip-path="url(#clip2)"><path d="M1292.04 734.024 1420.05 734.024 1420.05 1111 1292.04 1111ZM1548.05 709.023 1676.05 709.023 1676.05 1111 1548.05 1111ZM1804.06 734.024 1932.06 734.024 1932.06 1111 1804.06 1111ZM2060.07 709.023 2188.07 709.023 2188.07 1111 2060.07 1111ZM2316.08 734.024 2444.08 734.024 2444.08 1111 2316.08 1111ZM2573.08 608.02 2701.09 608.02 2701.09 1111 2573.08 1111ZM2829.09 683.022 2957.1 683.022 2957.1 1111 2829.09 1111ZM3085.1 163.005 3213.11 163.005 3213.11 1111 3085.1 1111ZM3341.11 527.017 3469.11 527.017 3469.11 1111 3341.11 1111ZM3597.12 526.017 3725.12 526.017 3725.12 1111 3597.12 1111Z" fill="#9ECAE1"/></g><g clip-path="url(#clip3)"><path d="M1227.5 1110.5 3789.5 1110.5" stroke="#D9D9D9" stroke-width="3.4375" stroke-linejoin="round" stroke-miterlimit="10" fill="none" fill-rule="evenodd"/></g><g clip-path="url(#clip4)"><text fill="#595959" font-family="Calibri,Calibri_MSFontService,sans-serif" font-weight="400" font-size="50" transform="matrix(1 0 0 1 1305.99 699)">1.5%</text></g><g clip-path="url(#clip5)"><text fill="#595959" font-family="Calibri,Calibri_MSFontService,sans-serif" font-weight="400" font-size="50" transform="matrix(1 0 0 1 1562.14 674)">1.6%</text></g><g clip-path="url(#clip6)"><text fill="#595959" font-family="Calibri,Calibri_MSFontService,sans-serif" font-weight="400" font-size="50" transform="matrix(1 0 0 1 1818.28 699)">1.5%</text></g><g clip-path="url(#clip7)"><text fill="#595959" font-family="Calibri,Calibri_MSFontService,sans-serif" font-weight="400" font-size="50" transform="matrix(1 0 0 1 2074.42 674)">1.6%</text></g><g clip-path="url(#clip8)"><text fill="#595959" font-family="Calibri,Calibri_MSFontService,sans-serif" font-weight="400" font-size="50" transform="matrix(1 0 0 1 2330.56 699)">1.5%</text></g><g clip-path="url(#clip9)"><text fill="#595959" font-family="Calibri,Calibri_MSFontService,sans-serif" font-weight="400" font-size="50" transform="matrix(1 0 0 1 2586.7 574)">2.0%</text></g><g clip-path="url(#clip10)"><text fill="#595959" font-family="Calibri,Calibri_MSFontService,sans-serif" font-weight="400" font-size="50" transform="matrix(1 0 0 1 2842.84 649)">1.7%</text></g><g clip-path="url(#clip11)"><text fill="#595959" font-family="Calibri,Calibri_MSFontService,sans-serif" font-weight="400" font-size="50" transform="matrix(1 0 0 1 3098.98 129)">3.8%</text></g><g clip-path="url(#clip12)"><text fill="#595959" font-family="Calibri,Calibri_MSFontService,sans-serif" font-weight="400" font-size="50" transform="matrix(1 0 0 1 3355.12 493)">2.3%</text></g><g clip-path="url(#clip13)"><text fill="#595959" font-family="Calibri,Calibri_MSFontService,sans-serif" font-weight="400" font-size="50" transform="matrix(1 0 0 1 3611.26 492)">2.3%</text></g><g clip-path="url(#clip14)"><text fill="#595959" font-family="Calibri,Calibri_MSFontService,sans-serif" font-weight="400" font-size="50" transform="matrix(1 0 0 1 1119.48 1125)">0%</text></g><g clip-path="url(#clip15)"><text fill="#595959" font-family="Calibri,Calibri_MSFontService,sans-serif" font-weight="400" font-size="50" transform="matrix(1 0 0 1 1119.48 999)">1%</text></g><g clip-path="url(#clip16)"><text fill="#595959" font-family="Calibri,Calibri_MSFontService,sans-serif" font-weight="400" font-size="50" transform="matrix(1 0 0 1 1119.48 874)">1%</text></g><g clip-path="url(#clip17)"><text fill="#595959" font-family="Calibri,Calibri_MSFontService,sans-serif" font-weight="400" font-size="50" transform="matrix(1 0 0 1 1119.48 748)">2%</text></g><g clip-path="url(#clip18)"><text fill="#595959" font-family="Calibri,Calibri_MSFontService,sans-serif" font-weight="400" font-size="50" transform="matrix(1 0 0 1 1119.48 622)">2%</text></g><g clip-path="url(#clip19)"><text fill="#595959" font-family="Calibri,Calibri_MSFontService,sans-serif" font-weight="400" font-size="50" transform="matrix(1 0 0 1 1119.48 497)">3%</text></g><g clip-path="url(#clip20)"><text fill="#595959" font-family="Calibri,Calibri_MSFontService,sans-serif" font-weight="400" font-size="50" transform="matrix(1 0 0 1 1119.48 371)">3%</text></g><g clip-path="url(#clip21)"><text fill="#595959" font-family="Calibri,Calibri_MSFontService,sans-serif" font-weight="400" font-size="50" transform="matrix(1 0 0 1 1119.48 245)">4%</text></g><g clip-path="url(#clip22)"><text fill="#595959" font-family="Calibri,Calibri_MSFontService,sans-serif" font-weight="400" font-size="50" transform="matrix(1 0 0 1 1119.48 120)">4%</text></g><g clip-path="url(#clip23)"><text fill="#595959" font-family="Calibri,Calibri_MSFontService,sans-serif" font-weight="400" font-size="50" transform="matrix(1 0 0 1 1304.83 1191)">2013</text></g><g clip-path="url(#clip24)"><text fill="#595959" font-family="Calibri,Calibri_MSFontService,sans-serif" font-weight="400" font-size="50" transform="matrix(1 0 0 1 1560.97 1191)">2014</text></g><g clip-path="url(#clip25)"><text fill="#595959" font-family="Calibri,Calibri_MSFontService,sans-serif" font-weight="400" font-size="50" transform="matrix(1 0 0 1 1817.11 1191)">2015</text></g><g clip-path="url(#clip26)"><text fill="#595959" font-family="Calibri,Calibri_MSFontService,sans-serif" font-weight="400" font-size="50" transform="matrix(1 0 0 1 2073.25 1191)">2016</text></g><g clip-path="url(#clip27)"><text fill="#595959" font-family="Calibri,Calibri_MSFontService,sans-serif" font-weight="400" font-size="50" transform="matrix(1 0 0 1 2329.39 1191)">2017</text></g><g clip-path="url(#clip28)"><text fill="#595959" font-family="Calibri,Calibri_MSFontService,sans-serif" font-weight="400" font-size="50" transform="matrix(1 0 0 1 2585.53 1191)">2018</text></g><g clip-path="url(#clip29)"><text fill="#595959" font-family="Calibri,Calibri_MSFontService,sans-serif" font-weight="400" font-size="50" transform="matrix(1 0 0 1 2841.67 1191)">2019</text></g><g clip-path="url(#clip30)"><text fill="#595959" font-family="Calibri,Calibri_MSFontService,sans-serif" font-weight="400" font-size="50" transform="matrix(1 0 0 1 3097.81 1191)">2020</text></g><g clip-path="url(#clip31)"><text fill="#595959" font-family="Calibri,Calibri_MSFontService,sans-serif" font-weight="400" font-size="50" transform="matrix(1 0 0 1 3353.95 1191)">2021</text></g><g clip-path="url(#clip32)"><text fill="#595959" font-family="Calibri,Calibri_MSFontService,sans-serif" font-weight="400" font-size="50" transform="matrix(1 0 0 1 3610.1 1191)">2022</text></g></g></svg>