<svg width="870" height="529" xmlns="http://www.w3.org/2000/svg" xmlns:xlink="http://www.w3.org/1999/xlink" overflow="hidden"><defs><clipPath id="clip0"><rect x="178" y="101" width="870" height="529"/></clipPath></defs><g clip-path="url(#clip0)" transform="translate(-178 -101)"><path d="M0.999996-0.00298405 2.3128 439.936 0.312812 439.942-0.999996 0.00298405ZM6.82088 432.435 1.31875 441.932-4.23996 432.468C-4.51966 431.991-4.36035 431.379-3.88413 431.099-3.40791 430.819-2.79512 430.978-2.51541 431.455L2.1751 439.441 0.447554 439.446 5.09033 431.432C5.36718 430.954 5.97902 430.791 6.4569 431.068 6.93478 431.345 7.09774 431.957 6.82088 432.435Z" fill="#7F7F7F" transform="matrix(1 0 0 -1 231 553.927)"/><path d="M230.001 553 1032.74 553.888 1032.74 555.888 229.999 555ZM1025.24 549.349 1034.72 554.89 1025.23 560.41C1024.75 560.688 1024.14 560.526 1023.86 560.049 1023.59 559.571 1023.75 558.959 1024.22 558.681L1032.23 554.024 1032.23 555.751 1024.23 551.076C1023.76 550.797 1023.6 550.184 1023.87 549.708 1024.15 549.231 1024.77 549.07 1025.24 549.349Z" fill="#7F7F7F"/><path d="M967 146 967 553.576" stroke="#BFBFBF" stroke-width="2" stroke-linejoin="round" stroke-miterlimit="10" stroke-dasharray="8 6" fill="none" fill-rule="evenodd"/><text fill="#203864" font-family="Arial Nova,Arial Nova_MSFontService,sans-serif" font-weight="400" font-size="19" transform="translate(466.549 576)">D</text><text fill="#203864" font-family="Arial Nova,Arial Nova_MSFontService,sans-serif" font-weight="400" font-size="19" transform="translate(480.463 576)">-</text><text fill="#203864" font-family="Arial Nova,Arial Nova_MSFontService,sans-serif" font-weight="400" font-size="19" transform="translate(486.629 576)">10d</text><text fill="#203864" font-family="Arial Nova,Arial Nova_MSFontService,sans-serif" font-weight="400" font-size="19" transform="translate(833.542 576)">D</text><text fill="#203864" font-family="Arial Nova,Arial Nova_MSFontService,sans-serif" font-weight="400" font-size="19" transform="translate(847.455 576)">-</text><text fill="#203864" font-family="Arial Nova,Arial Nova_MSFontService,sans-serif" font-weight="400" font-size="19" transform="translate(853.622 576)">2d</text><text fill="#203864" font-family="Arial Nova,Arial Nova_MSFontService,sans-serif" font-weight="400" font-size="19" transform="translate(251.599 576)">D</text><text fill="#203864" font-family="Arial Nova,Arial Nova_MSFontService,sans-serif" font-weight="400" font-size="19" transform="translate(265.513 576)">-</text><text fill="#203864" font-family="Arial Nova,Arial Nova_MSFontService,sans-serif" font-weight="400" font-size="19" transform="translate(271.679 576)">30d</text><text fill="#203864" font-family="Arial Nova,Arial Nova_MSFontService,sans-serif" font-weight="700" font-size="19" transform="matrix(-1.83697e-16 -1 1 -1.83697e-16 201.915 409)">Incurred cost</text><path d="M854 261 854 554.102" stroke="#BFBFBF" stroke-width="2" stroke-linejoin="round" stroke-miterlimit="10" stroke-dasharray="8 6" fill="none" fill-rule="evenodd"/><text fill="#203864" font-family="Arial Nova,Arial Nova_MSFontService,sans-serif" font-weight="700" font-size="19" transform="translate(485.396 614)">Timeline (D: Day of operations)</text><path d="M267 470C324.043 466.014 381.087 462.028 431.105 454.487 481.123 446.945 524.397 438.112 567.11 424.753 609.822 411.394 644.853 398.036 687.378 374.335 729.903 350.634 788.726 307.757 822.259 282.548 855.792 257.338 863.285 248.504 888.576 223.08 913.866 197.655 974 130 974 130L974 130" stroke="#C55A11" stroke-width="4" stroke-miterlimit="8" fill="none" fill-rule="evenodd"/><text fill="#203864" font-family="Arial Nova,Arial Nova_MSFontService,sans-serif" font-weight="400" font-size="19" transform="translate(960.194 576)">D</text><text fill="#203864" font-family="Arial Nova,Arial Nova_MSFontService,sans-serif" font-weight="400" font-size="19" transform="translate(651.829 576)">…</text><text fill="#203864" font-family="Arial Nova,Arial Nova_MSFontService,sans-serif" font-weight="700" font-size="19" transform="translate(276.327 363)">Variable</text><text fill="#203864" font-family="Arial Nova,Arial Nova_MSFontService,sans-serif" font-weight="700" font-size="19" transform="translate(286.481 386)">costs:</text><text fill="#203864" font-family="Arial Nova,Arial Nova_MSFontService,sans-serif" font-weight="400" font-size="19" transform="translate(257.301 408)">maintenance,</text><text fill="#203864" font-family="Arial Nova,Arial Nova_MSFontService,sans-serif" font-weight="400" font-size="19" transform="translate(256.534 430)">fuel, airport &amp;</text><text fill="#203864" font-family="Arial Nova,Arial Nova_MSFontService,sans-serif" font-weight="400" font-size="19" transform="translate(251.021 453)">navigation fees</text><rect x="890" y="318" width="154" height="168" fill="#FFFFFF"/><text fill="#203864" font-family="Arial Nova,Arial Nova_MSFontService,sans-serif" font-weight="700" font-size="19" transform="translate(902.098 340)">Variable costs:</text><text fill="#203864" font-family="Arial Nova,Arial Nova_MSFontService,sans-serif" font-weight="400" font-size="19" transform="translate(911.458 363)">maintenance,</text><text fill="#203864" font-family="Arial Nova,Arial Nova_MSFontService,sans-serif" font-weight="400" font-size="19" transform="translate(910.691 385)">fuel, airport &amp;</text><text fill="#203864" font-family="Arial Nova,Arial Nova_MSFontService,sans-serif" font-weight="400" font-size="19" transform="translate(902.844 407)">navigation fees,</text><text fill="#203864" font-family="Arial Nova,Arial Nova_MSFontService,sans-serif" font-weight="400" font-size="19" transform="translate(906.771 430)">crew, catering,</text><text fill="#203864" font-family="Arial Nova,Arial Nova_MSFontService,sans-serif" font-weight="400" font-size="19" transform="translate(923.764 452)">passenger</text><text fill="#203864" font-family="Arial Nova,Arial Nova_MSFontService,sans-serif" font-weight="400" font-size="19" transform="translate(908.764 475)">compensation</text><path d="M492 447 492 553.372" stroke="#BFBFBF" stroke-width="2" stroke-linejoin="round" stroke-miterlimit="10" stroke-dasharray="8 6" fill="none" fill-rule="evenodd"/><text fill="#203864" font-family="Arial Nova,Arial Nova_MSFontService,sans-serif" font-style="italic" font-weight="700" font-size="19" transform="translate(297.974 135)">Main causes of cancellation:</text><text fill="#203864" font-family="Arial Nova,Arial Nova_MSFontService,sans-serif" font-style="italic" font-weight="400" font-size="19" transform="translate(326.307 158)">Industrial action</text><text fill="#203864" font-family="Arial Nova,Arial Nova_MSFontService,sans-serif" font-style="italic" font-weight="400" font-size="19" transform="translate(326.307 180)">Political (e.g. conflicts)</text><text fill="#203864" font-family="Arial Nova,Arial Nova_MSFontService,sans-serif" font-style="italic" font-weight="400" font-size="19" transform="translate(326.307 202)">Natural disasters</text><text fill="#203864" font-family="Arial Nova,Arial Nova_MSFontService,sans-serif" font-style="italic" font-weight="400" font-size="19" transform="translate(326.307 225)">Technical/mechanical</text><path d="M277 470 277 553.496" stroke="#BFBFBF" stroke-width="2" stroke-linejoin="round" stroke-miterlimit="10" stroke-dasharray="8 6" fill="none" fill-rule="evenodd"/></g></svg>