<svg width="1145" height="619" xmlns="http://www.w3.org/2000/svg" xmlns:xlink="http://www.w3.org/1999/xlink" overflow="hidden"><defs><clipPath id="clip0"><rect x="100" y="52" width="1145" height="619"/></clipPath><clipPath id="clip1"><path d="M1089.71 53.1005 1243.83 161.449 1131.34 321.465 977.219 213.116Z" fill-rule="evenodd" clip-rule="evenodd"/></clipPath><clipPath id="clip2"><path d="M1089.71 53.1005 1243.83 161.449 1131.34 321.465 977.219 213.116Z" fill-rule="evenodd" clip-rule="evenodd"/></clipPath><clipPath id="clip3"><path d="M1089.71 53.1005 1243.83 161.449 1131.34 321.465 977.219 213.116Z" fill-rule="evenodd" clip-rule="evenodd"/></clipPath></defs><g clip-path="url(#clip0)" transform="translate(-100 -52)"><path d="M101.5 73.0298C101.5 70.5281 103.528 68.5001 106.03 68.5001L1180.97 68.5001C1183.47 68.5001 1185.5 70.5281 1185.5 73.0298L1185.5 659.97C1185.5 662.472 1183.47 664.5 1180.97 664.5L106.03 664.5C103.528 664.5 101.5 662.472 101.5 659.97Z" stroke="#8FAADC" stroke-width="1.33333" stroke-linecap="square" stroke-miterlimit="8" stroke-dasharray="4 1.33333" fill="none" fill-rule="evenodd"/><text fill="#1F4E79" font-family="Calibri Light,Calibri Light_MSFontService,sans-serif" font-weight="700" font-size="21" transform="translate(1046.6 652)">24</text><text fill="#1F4E79" font-family="Calibri Light,Calibri Light_MSFontService,sans-serif" font-weight="700" font-size="21" transform="translate(1067.93 652)">-</text><text fill="#1F4E79" font-family="Calibri Light,Calibri Light_MSFontService,sans-serif" font-weight="700" font-size="21" transform="translate(1074.43 652)">hour period</text><path d="M235.5 72.688C235.5 70.3751 237.375 68.5001 239.688 68.5001L1181.31 68.5001C1183.62 68.5001 1185.5 70.3751 1185.5 72.688L1185.5 615.292C1185.5 617.605 1183.62 619.48 1181.31 619.48L239.688 619.48C237.375 619.48 235.5 617.605 235.5 615.292Z" stroke="#8FAADC" stroke-width="1.33333" stroke-linecap="square" stroke-miterlimit="8" stroke-dasharray="4 1.33333" fill="none" fill-rule="evenodd"/><text fill="#1F4E79" font-family="Calibri Light,Calibri Light_MSFontService,sans-serif" font-weight="700" font-size="21" transform="translate(597.963 608)">Service hours:</text><text fill="#1F4E79" font-family="Calibri Light,Calibri Light_MSFontService,sans-serif" font-weight="300" font-size="21" transform="translate(720.75 608)">total time spent in service during the operational day</text><path d="M446.5 72.3454C446.5 70.2217 448.222 68.5001 450.345 68.5001L1181.65 68.5001C1183.78 68.5001 1185.5 70.2217 1185.5 72.3454L1185.5 570.655C1185.5 572.778 1183.78 574.5 1181.65 574.5L450.345 574.5C448.222 574.5 446.5 572.778 446.5 570.655Z" stroke="#8FAADC" stroke-width="1.33333" stroke-linecap="square" stroke-miterlimit="8" stroke-dasharray="4 1.33333" fill="none" fill-rule="evenodd"/><text fill="#1F4E79" font-family="Calibri Light,Calibri Light_MSFontService,sans-serif" font-weight="700" font-size="21" transform="translate(727.224 563)">Block hours:</text><text fill="#1F4E79" font-family="Calibri Light,Calibri Light_MSFontService,sans-serif" font-weight="300" font-size="21" transform="translate(834.47 563)">time spent off</text><text fill="#1F4E79" font-family="Calibri Light,Calibri Light_MSFontService,sans-serif" font-weight="300" font-size="21" transform="translate(954.617 563)">-</text><text fill="#1F4E79" font-family="Calibri Light,Calibri Light_MSFontService,sans-serif" font-weight="300" font-size="21" transform="translate(961.117 563)">block (aircraft</text><text fill="#1F4E79" font-family="Calibri Light,Calibri Light_MSFontService,sans-serif" font-weight="300" font-size="21" transform="translate(1083.28 563)">utilisation</text><text fill="#1F4E79" font-family="Calibri Light,Calibri Light_MSFontService,sans-serif" font-weight="300" font-size="21" transform="translate(1167.57 563)">)</text><path d="M159.5 181.787C183.055 341.718 232.216 440.113 289.81 454.778 347.403 469.443 449.47 269.673 505.062 269.777 560.654 269.881 574.01 472.28 623.362 455.401 672.714 438.521 745.463 168.458 801.174 168.5 856.885 168.542 906.787 442.157 957.629 455.652 1008.47 469.146 1017.8 318.269 1071.5 245.676" stroke="#D9D9D9" stroke-width="3" stroke-miterlimit="8" stroke-dasharray="24 9" fill="none" fill-rule="evenodd"/><path d="M101 183C101 147.654 131.445 119 169 119 206.555 119 237 147.654 237 183 237 218.346 206.555 247 169 247 131.445 247 101 218.346 101 183Z" fill="#333F50" fill-rule="evenodd"/><text fill="#FFFFFF" font-family="Calibri Light,Calibri Light_MSFontService,sans-serif" font-weight="700" font-size="21" transform="translate(136.743 167)">At gate,</text><text fill="#FFFFFF" font-family="Calibri Light,Calibri Light_MSFontService,sans-serif" font-weight="700" font-size="21" transform="translate(138.296 193)">stabled</text><text fill="#FFFFFF" font-family="Calibri Light,Calibri Light_MSFontService,sans-serif" font-weight="300" font-size="19" transform="translate(131.689 216)">(no delay)</text><rect x="238" y="118" width="196" height="151" fill="#FFFFFF"/><text fill="#595959" font-family="Calibri Light,Calibri Light_MSFontService,sans-serif" font-weight="300" font-size="19" transform="translate(247.199 139)">T</text><text fill="#595959" font-family="Calibri Light,Calibri Light_MSFontService,sans-serif" font-weight="300" font-size="19" transform="translate(256.199 139)">ime spent at the gate,</text><text fill="#595959" font-family="Calibri Light,Calibri Light_MSFontService,sans-serif" font-weight="300" font-size="19" transform="translate(247.199 162)">when the aircraft is</text><text fill="#595959" font-family="Calibri Light,Calibri Light_MSFontService,sans-serif" font-weight="300" font-size="19" transform="translate(247.199 184)">inactive (e.g.,</text><text fill="#595959" font-family="Calibri Light,Calibri Light_MSFontService,sans-serif" font-weight="300" font-size="19" transform="translate(247.199 207)">overnight) and not</text><text fill="#595959" font-family="Calibri Light,Calibri Light_MSFontService,sans-serif" font-weight="300" font-size="19" transform="translate(247.199 229)">being prepared for a</text><text fill="#595959" font-family="Calibri Light,Calibri Light_MSFontService,sans-serif" font-weight="300" font-size="19" transform="translate(247.199 251)">rotation</text><path d="M235 451C235 415.654 265.221 387 302.5 387 339.779 387 370 415.654 370 451 370 486.346 339.779 515 302.5 515 265.221 515 235 486.346 235 451Z" fill="#C55A11" fill-rule="evenodd"/><text fill="#FFFFFF" font-family="Calibri Light,Calibri Light_MSFontService,sans-serif" font-weight="700" font-size="21" transform="translate(270.327 422)">At gate,</text><text fill="#FFFFFF" font-family="Calibri Light,Calibri Light_MSFontService,sans-serif" font-weight="700" font-size="21" transform="translate(265.307 448)">turnarou</text><text fill="#FFFFFF" font-family="Calibri Light,Calibri Light_MSFontService,sans-serif" font-weight="700" font-size="21" transform="translate(291.513 473)">nd</text><text fill="#FFFFFF" font-family="Calibri Light,Calibri Light_MSFontService,sans-serif" font-weight="300" font-size="19" transform="translate(265.28 496)">(no delay)</text><rect x="371" y="397" width="203" height="127" fill="#FFFFFF"/><text fill="#7F7F7F" font-family="Calibri Light,Calibri Light_MSFontService,sans-serif" font-weight="300" font-size="19" transform="translate(380.238 419)">Time spent at the gate</text><text fill="#7F7F7F" font-family="Calibri Light,Calibri Light_MSFontService,sans-serif" font-weight="300" font-size="19" transform="translate(380.238 442)">during the operational</text><text fill="#7F7F7F" font-family="Calibri Light,Calibri Light_MSFontService,sans-serif" font-weight="300" font-size="19" transform="translate(380.238 464)">day (passive/slack time</text><text fill="#7F7F7F" font-family="Calibri Light,Calibri Light_MSFontService,sans-serif" font-weight="300" font-size="19" transform="translate(380.238 487)">and active handling</text><text fill="#7F7F7F" font-family="Calibri Light,Calibri Light_MSFontService,sans-serif" font-weight="300" font-size="19" transform="translate(380.238 509)">between rotations)</text><path d="M446 274C446 238.654 476.221 210 513.5 210 550.779 210 581 238.654 581 274 581 309.346 550.779 338 513.5 338 476.221 338 446 309.346 446 274Z" fill="#548235" fill-rule="evenodd"/><text fill="#FFFFFF" font-family="Calibri Light,Calibri Light_MSFontService,sans-serif" font-weight="700" font-size="21" transform="translate(497.775 268)">Taxi</text><text fill="#FFFFFF" font-family="Calibri Light,Calibri Light_MSFontService,sans-serif" font-weight="700" font-size="21" transform="translate(487.675 294)">out/in</text><text fill="#7F7F7F" font-family="Calibri Light,Calibri Light_MSFontService,sans-serif" font-weight="300" font-size="19" transform="translate(582.053 248)">The phase of</text><text fill="#7F7F7F" font-family="Calibri Light,Calibri Light_MSFontService,sans-serif" font-weight="300" font-size="19" transform="translate(582.053 271)">flight just before</text><text fill="#7F7F7F" font-family="Calibri Light,Calibri Light_MSFontService,sans-serif" font-weight="300" font-size="19" transform="translate(582.053 293)">take off and after</text><text fill="#7F7F7F" font-family="Calibri Light,Calibri Light_MSFontService,sans-serif" font-weight="300" font-size="19" transform="translate(582.053 316)">landing of the</text><text fill="#7F7F7F" font-family="Calibri Light,Calibri Light_MSFontService,sans-serif" font-weight="300" font-size="19" transform="translate(582.053 338)">aircraft</text><path d="M564 452C564 416.654 594.221 388 631.5 388 668.779 388 699 416.654 699 452 699 487.346 668.779 516 631.5 516 594.221 516 564 487.346 564 452Z" fill="#2F5597" fill-rule="evenodd"/><text fill="#FFFFFF" font-family="Calibri Light,Calibri Light_MSFontService,sans-serif" font-weight="700" font-size="21" transform="translate(594.461 422)">Landing/</text><text fill="#FFFFFF" font-family="Calibri Light,Calibri Light_MSFontService,sans-serif" font-weight="700" font-size="21" transform="translate(599.054 448)">take</text><text fill="#FFFFFF" font-family="Calibri Light,Calibri Light_MSFontService,sans-serif" font-weight="700" font-size="21" transform="translate(634.181 448)">-</text><text fill="#FFFFFF" font-family="Calibri Light,Calibri Light_MSFontService,sans-serif" font-weight="700" font-size="21" transform="translate(640.681 448)">off</text><text fill="#FFFFFF" font-family="Calibri Light,Calibri Light_MSFontService,sans-serif" font-weight="700" font-size="21" transform="translate(610.754 473)">cycle</text><text fill="#FFFFFF" font-family="Calibri Light,Calibri Light_MSFontService,sans-serif" font-weight="300" font-size="19" transform="translate(594.474 496)">(no delay)</text><text fill="#7F7F7F" font-family="Calibri Light,Calibri Light_MSFontService,sans-serif" font-weight="300" font-size="19" transform="translate(699.266 415)">Includes the initial climb to</text><text fill="#7F7F7F" font-family="Calibri Light,Calibri Light_MSFontService,sans-serif" font-weight="300" font-size="19" transform="translate(699.266 438)">3,000ft and (final)</text><text fill="#7F7F7F" font-family="Calibri Light,Calibri Light_MSFontService,sans-serif" font-weight="300" font-size="19" transform="translate(699.266 460)">approach (3,000ft to</text><text fill="#7F7F7F" font-family="Calibri Light,Calibri Light_MSFontService,sans-serif" font-weight="300" font-size="19" transform="translate(699.266 483)">touchdown), which are not</text><text fill="#7F7F7F" font-family="Calibri Light,Calibri Light_MSFontService,sans-serif" font-weight="300" font-size="19" transform="translate(699.266 505)">considered as generating</text><text fill="#7F7F7F" font-family="Calibri Light,Calibri Light_MSFontService,sans-serif" font-weight="300" font-size="19" transform="translate(699.266 527)">delays</text><path d="M739 177C739 141.654 770.564 113 809.5 113 848.436 113 880 141.654 880 177 880 212.346 848.436 241 809.5 241 770.564 241 739 212.346 739 177Z" fill="#BF9000" fill-rule="evenodd"/><text fill="#FFFFFF" font-family="Calibri Light,Calibri Light_MSFontService,sans-serif" font-weight="700" font-size="21" transform="translate(772.753 162)">En</text><text fill="#FFFFFF" font-family="Calibri Light,Calibri Light_MSFontService,sans-serif" font-weight="700" font-size="21" transform="translate(793.753 162)">-</text><text fill="#FFFFFF" font-family="Calibri Light,Calibri Light_MSFontService,sans-serif" font-weight="700" font-size="21" transform="translate(800.253 162)">route</text><text fill="#FFFFFF" font-family="Calibri Light,Calibri Light_MSFontService,sans-serif" font-weight="300" font-size="19" transform="translate(784.186 185)">(cruise</text><text fill="#FFFFFF" font-family="Calibri Light,Calibri Light_MSFontService,sans-serif" font-weight="300" font-size="19" transform="translate(770.366 207)">extension)</text><text fill="#7F7F7F" font-family="Calibri Light,Calibri Light_MSFontService,sans-serif" font-weight="300" font-size="19" transform="translate(884.568 161)">Airborne flight phase</text><text fill="#7F7F7F" font-family="Calibri Light,Calibri Light_MSFontService,sans-serif" font-weight="300" font-size="19" transform="translate(884.568 184)">other than “Arrival</text><text fill="#7F7F7F" font-family="Calibri Light,Calibri Light_MSFontService,sans-serif" font-weight="300" font-size="19" transform="translate(884.568 206)">management”</text><path d="M901 451C901 415.654 931.221 387 968.5 387 1005.78 387 1036 415.654 1036 451 1036 486.346 1005.78 515 968.5 515 931.221 515 901 486.346 901 451Z" fill="#2F5597" fill-rule="evenodd"/><text fill="#FFFFFF" font-family="Calibri Light,Calibri Light_MSFontService,sans-serif" font-weight="700" font-size="19" transform="translate(945.027 435)">Arrival</text><text fill="#FFFFFF" font-family="Calibri Light,Calibri Light_MSFontService,sans-serif" font-weight="700" font-size="19" transform="translate(932.041 458)">managem</text><text fill="#FFFFFF" font-family="Calibri Light,Calibri Light_MSFontService,sans-serif" font-weight="700" font-size="19" transform="translate(956.561 480)">ent</text><text fill="#7F7F7F" font-family="Calibri Light,Calibri Light_MSFontService,sans-serif" font-weight="300" font-size="19" transform="translate(1038.51 413)">Encompasses all</text><text fill="#7F7F7F" font-family="Calibri Light,Calibri Light_MSFontService,sans-serif" font-weight="300" font-size="19" transform="translate(1038.51 436)">delays induced in</text><text fill="#7F7F7F" font-family="Calibri Light,Calibri Light_MSFontService,sans-serif" font-weight="300" font-size="19" transform="translate(1038.51 458)">TMAs, including</text><text fill="#7F7F7F" font-family="Calibri Light,Calibri Light_MSFontService,sans-serif" font-weight="300" font-size="19" transform="translate(1038.51 481)">holding in stacks</text><text fill="#7F7F7F" font-family="Calibri Light,Calibri Light_MSFontService,sans-serif" font-weight="300" font-size="19" transform="translate(1038.51 503)">and linear holding</text><g clip-path="url(#clip1)"><g clip-path="url(#clip2)"><g clip-path="url(#clip3)"><path d="M160.933 129.523 160.933 111.861 104.021 71.6303 104.021 33.3621C104.021 25.7084 100.096 15.6998 94.2086 15.6998 88.5174 15.6998 84.3962 25.7084 84.3962 33.3621L84.3962 71.6303 27.4844 111.861 27.4844 129.523 84.3962 101.067 84.3962 143.849 64.7714 160.923 64.7714 172.698 94.2086 160.923 123.646 172.698 123.646 160.923 104.021 143.849 104.021 101.067ZM101.444 146.811 119.721 162.707 119.721 166.897 95.6667 157.28 94.2086 156.692 92.7504 157.28 68.6964 166.897 68.6964 162.711 86.9729 146.815 88.3211 145.637 88.3211 94.7168 82.63 97.5565 31.4094 123.173 31.4094 113.892 86.6609 74.8389 88.3211 73.6615 88.3211 33.3621C88.3211 26.4129 92.0498 19.6247 94.2086 19.6247 96.6695 19.6247 100.096 26.5464 100.096 33.3621L100.096 73.6615 101.754 74.8389 157.008 113.892 157.008 123.173 105.777 97.5565 100.098 94.7168 100.098 145.637Z" fill="#D9D9D9" transform="matrix(0.818078 0.575107 -0.597092 0.849352 1089.71 53.1005)"/></g></g></g></g></svg>