<svg width="618" height="326" xmlns="http://www.w3.org/2000/svg" xmlns:xlink="http://www.w3.org/1999/xlink" xml:space="preserve" overflow="hidden"><defs><clipPath id="clip0"><rect x="0" y="0" width="618" height="326"/></clipPath></defs><g clip-path="url(#clip0)"><path d="M250.769 148.312 868.378 148.312 868.378 474.312 250.769 474.312Z" fill="#FFFFFF" transform="matrix(1.00063 0 0 1 -250.928 -148.312)"/><path d="M304.864 377.945 758.398 377.945M304.864 324.209 758.398 324.209M304.864 269.756 758.398 269.756M304.864 215.303 758.398 215.303M304.864 161.567 758.398 161.567" stroke="#D9D9D9" stroke-width="0.716484" stroke-linejoin="round" stroke-miterlimit="10" fill="none" transform="matrix(1.00063 0 0 1 -250.928 -148.312)"/><path d="M304.864 432.398 758.398 432.398" stroke="#D9D9D9" stroke-width="0.955309" stroke-linejoin="round" stroke-miterlimit="10" fill="none" fill-rule="evenodd" transform="matrix(1.00063 0 0 1 -250.928 -148.312)"/><path d="M304.864 239.846C318.607 294.977 332.351 383.097 346.095 405.239 359.837 427.382 373.581 391.683 387.325 372.703 401.068 353.724 414.812 308.986 428.555 291.362 442.298 273.738 456.042 274.19 469.785 266.96 483.529 259.729 497.273 253.403 511.015 247.98 524.759 242.557 538.503 238.942 552.246 234.423 565.989 229.904 579.733 224.933 593.476 220.866 607.22 216.799 620.963 213.568 634.707 210.021 648.45 206.473 662.193 203.197 675.937 199.582 689.681 195.967 703.424 191.56 717.164 188.33 730.914 185.098 744.656 182.907 758.398 180.196" stroke="#B3D235" stroke-width="2.14945" stroke-linecap="round" stroke-linejoin="round" stroke-miterlimit="10" fill="none" transform="matrix(1.00063 0 0 1 -250.928 -148.312)"/><path d="M307.437 239.729C307.437 241.509 305.993 242.953 304.212 242.953 302.431 242.953 300.988 241.509 300.988 239.729 300.988 237.948 302.431 236.505 304.212 236.505 305.993 236.505 307.437 237.948 307.437 239.729Z" fill="#B3D235" transform="matrix(1.00063 0 0 1 -250.928 -148.312)"/><path d="M348.993 405.237C348.993 407.017 347.549 408.461 345.768 408.461 343.987 408.461 342.544 407.017 342.544 405.237 342.544 403.455 343.987 402.012 345.768 402.012 347.549 402.012 348.993 403.455 348.993 405.237Z" fill="#B3D235" transform="matrix(1.00063 0 0 1 -250.928 -148.312)"/><path d="M389.832 372.278C389.832 374.059 388.389 375.503 386.608 375.503 384.827 375.503 383.384 374.059 383.384 372.278 383.384 370.497 384.827 369.054 386.608 369.054 388.389 369.054 389.832 370.497 389.832 372.278Z" fill="#B3D235" transform="matrix(1.00063 0 0 1 -250.928 -148.312)"/><path d="M431.388 291.316C431.388 293.096 429.945 294.54 428.164 294.54 426.383 294.54 424.94 293.096 424.94 291.316 424.94 289.535 426.383 288.092 428.164 288.092 429.945 288.092 431.388 289.535 431.388 291.316Z" fill="#B3D235" transform="matrix(1.00063 0 0 1 -250.928 -148.312)"/><path d="M472.228 266.955C472.228 268.736 470.784 270.18 469.004 270.18 467.222 270.18 465.78 268.736 465.78 266.955 465.78 265.174 467.222 263.731 469.004 263.731 470.784 263.731 472.228 265.174 472.228 266.955Z" fill="#B3D235" transform="matrix(1.00063 0 0 1 -250.928 -148.312)"/><path d="M513.784 247.61C513.784 249.391 512.34 250.834 510.56 250.834 508.779 250.834 507.336 249.391 507.336 247.61 507.336 245.829 508.779 244.386 510.56 244.386 512.34 244.386 513.784 245.829 513.784 247.61Z" fill="#B3D235" transform="matrix(1.00063 0 0 1 -250.928 -148.312)"/><path d="M555.34 233.997C555.34 235.778 553.896 237.221 552.116 237.221 550.335 237.221 548.892 235.778 548.892 233.997 548.892 232.216 550.335 230.773 552.116 230.773 553.896 230.773 555.34 232.216 555.34 233.997Z" fill="#B3D235" transform="matrix(1.00063 0 0 1 -250.928 -148.312)"/><path d="M596.18 221.1C596.18 222.881 594.736 224.325 592.955 224.325 591.174 224.325 589.731 222.881 589.731 221.1 589.731 219.319 591.174 217.876 592.955 217.876 594.736 217.876 596.18 219.319 596.18 221.1Z" fill="#B3D235" transform="matrix(1.00063 0 0 1 -250.928 -148.312)"/><path d="M637.736 209.637C637.736 211.417 636.292 212.861 634.511 212.861 632.73 212.861 631.287 211.417 631.287 209.637 631.287 207.855 632.73 206.412 634.511 206.412 636.292 206.412 637.736 207.855 637.736 209.637Z" fill="#B3D235" transform="matrix(1.00063 0 0 1 -250.928 -148.312)"/><path d="M678.575 199.606C678.575 201.386 677.131 202.83 675.351 202.83 673.57 202.83 672.127 201.386 672.127 199.606 672.127 197.825 673.57 196.382 675.351 196.382 677.131 196.382 678.575 197.825 678.575 199.606Z" fill="#B3D235" transform="matrix(1.00063 0 0 1 -250.928 -148.312)"/><path d="M720.13 188.142C720.13 189.923 718.69 191.366 716.906 191.366 715.126 191.366 713.683 189.923 713.683 188.142 713.683 186.361 715.126 184.918 716.906 184.918 718.69 184.918 720.13 186.361 720.13 188.142Z" fill="#B3D235" transform="matrix(1.00063 0 0 1 -250.928 -148.312)"/><path d="M760.97 180.261C760.97 182.041 759.53 183.485 757.746 183.485 755.969 183.485 754.522 182.041 754.522 180.261 754.522 178.48 755.969 177.037 757.746 177.037 759.53 177.037 760.97 178.48 760.97 180.261Z" fill="#B3D235" transform="matrix(1.00063 0 0 1 -250.928 -148.312)"/><path d="M304.864 240.214C318.607 295.237 332.351 383.184 346.095 405.283 359.837 427.382 373.581 391.753 387.325 372.811 401.068 353.868 414.812 309.219 428.555 291.63 442.298 274.04 456.042 273.589 469.785 267.275 483.529 260.961 497.273 257.352 511.015 253.745 524.759 250.137 538.503 248.332 552.246 245.626 565.989 242.92 579.733 239.763 593.476 237.509 607.22 235.253 620.963 234.351 634.707 232.096 648.45 229.841 662.193 226.233 675.937 223.978 689.681 221.723 703.424 220.37 717.164 218.566 730.914 216.762 744.656 214.958 758.398 213.154" stroke="#4F81BD" stroke-width="2.14945" stroke-linecap="round" stroke-linejoin="round" stroke-miterlimit="10" fill="none" transform="matrix(1.00063 0 0 1 -250.928 -148.312)"/><path d="M307.437 239.729C307.437 241.509 305.993 242.953 304.212 242.953 302.431 242.953 300.988 241.509 300.988 239.729 300.988 237.948 302.431 236.505 304.212 236.505 305.993 236.505 307.437 237.948 307.437 239.729Z" fill="#4F81BD" transform="matrix(1.00063 0 0 1 -250.928 -148.312)"/><path d="M348.993 405.237C348.993 407.017 347.549 408.461 345.768 408.461 343.987 408.461 342.544 407.017 342.544 405.237 342.544 403.455 343.987 402.012 345.768 402.012 347.549 402.012 348.993 403.455 348.993 405.237Z" fill="#4F81BD" transform="matrix(1.00063 0 0 1 -250.928 -148.312)"/><path d="M389.832 372.278C389.832 374.059 388.389 375.503 386.608 375.503 384.827 375.503 383.384 374.059 383.384 372.278 383.384 370.497 384.827 369.054 386.608 369.054 388.389 369.054 389.832 370.497 389.832 372.278Z" fill="#4F81BD" transform="matrix(1.00063 0 0 1 -250.928 -148.312)"/><path d="M431.388 291.316C431.388 293.096 429.945 294.54 428.164 294.54 426.383 294.54 424.94 293.096 424.94 291.316 424.94 289.535 426.383 288.092 428.164 288.092 429.945 288.092 431.388 289.535 431.388 291.316Z" fill="#4F81BD" transform="matrix(1.00063 0 0 1 -250.928 -148.312)"/><path d="M472.228 266.955C472.228 268.736 470.784 270.18 469.004 270.18 467.222 270.18 465.78 268.736 465.78 266.955 465.78 265.174 467.222 263.731 469.004 263.731 470.784 263.731 472.228 265.174 472.228 266.955Z" fill="#4F81BD" transform="matrix(1.00063 0 0 1 -250.928 -148.312)"/><path d="M513.784 253.342C513.784 255.123 512.34 256.566 510.56 256.566 508.779 256.566 507.336 255.123 507.336 253.342 507.336 251.561 508.779 250.118 510.56 250.118 512.34 250.118 513.784 251.561 513.784 253.342Z" fill="#4F81BD" transform="matrix(1.00063 0 0 1 -250.928 -148.312)"/><path d="M555.34 245.461C555.34 247.241 553.896 248.685 552.116 248.685 550.335 248.685 548.892 247.241 548.892 245.461 548.892 243.68 550.335 242.237 552.116 242.237 553.896 242.237 555.34 243.68 555.34 245.461Z" fill="#4F81BD" transform="matrix(1.00063 0 0 1 -250.928 -148.312)"/><path d="M596.18 236.863C596.18 238.643 594.736 240.087 592.955 240.087 591.174 240.087 589.731 238.643 589.731 236.863 589.731 235.082 591.174 233.639 592.955 233.639 594.736 233.639 596.18 235.082 596.18 236.863Z" fill="#4F81BD" transform="matrix(1.00063 0 0 1 -250.928 -148.312)"/><path d="M637.736 231.848C637.736 233.628 636.292 235.072 634.511 235.072 632.73 235.072 631.287 233.628 631.287 231.848 631.287 230.066 632.73 228.623 634.511 228.623 636.292 228.623 637.736 230.066 637.736 231.848Z" fill="#4F81BD" transform="matrix(1.00063 0 0 1 -250.928 -148.312)"/><path d="M678.575 223.25C678.575 225.03 677.131 226.474 675.351 226.474 673.57 226.474 672.127 225.03 672.127 223.25 672.127 221.469 673.57 220.026 675.351 220.026 677.131 220.026 678.575 221.469 678.575 223.25Z" fill="#4F81BD" transform="matrix(1.00063 0 0 1 -250.928 -148.312)"/><path d="M720.13 218.234C720.13 220.015 718.69 221.459 716.906 221.459 715.126 221.459 713.683 220.015 713.683 218.234 713.683 216.453 715.126 215.01 716.906 215.01 718.69 215.01 720.13 216.453 720.13 218.234Z" fill="#4F81BD" transform="matrix(1.00063 0 0 1 -250.928 -148.312)"/><path d="M760.97 212.503C760.97 214.283 759.53 215.727 757.746 215.727 755.969 215.727 754.522 214.283 754.522 212.503 754.522 210.721 755.969 209.278 757.746 209.278 759.53 209.278 760.97 210.721 760.97 212.503Z" fill="#4F81BD" transform="matrix(1.00063 0 0 1 -250.928 -148.312)"/><path d="M304.864 239.664C318.607 294.849 332.351 383.054 346.095 405.218 359.837 427.382 373.581 391.648 387.325 372.65 401.068 353.652 414.812 308.871 428.555 291.23 442.298 273.589 456.042 272.232 469.785 266.804 483.529 261.376 497.273 260.471 511.015 258.662 524.759 256.852 538.503 256.852 552.246 255.948 565.989 255.043 579.733 254.22 593.476 253.234 607.22 252.247 620.963 250.483 634.707 250.031 648.45 249.579 662.193 250.561 675.937 250.52 689.681 250.479 703.424 250.239 717.164 249.787 730.914 249.335 744.656 248.466 758.398 247.806" stroke="#FFC20A" stroke-width="2.14945" stroke-linecap="round" stroke-linejoin="round" stroke-miterlimit="10" fill="none" transform="matrix(1.00063 0 0 1 -250.928 -148.312)"/><path d="M307.437 239.729C307.437 241.509 305.993 242.953 304.212 242.953 302.431 242.953 300.988 241.509 300.988 239.729 300.988 237.948 302.431 236.505 304.212 236.505 305.993 236.505 307.437 237.948 307.437 239.729Z" fill="#FFC20A" transform="matrix(1.00063 0 0 1 -250.928 -148.312)"/><path d="M348.993 405.237C348.993 407.017 347.549 408.461 345.768 408.461 343.987 408.461 342.544 407.017 342.544 405.237 342.544 403.455 343.987 402.012 345.768 402.012 347.549 402.012 348.993 403.455 348.993 405.237Z" fill="#FFC20A" transform="matrix(1.00063 0 0 1 -250.928 -148.312)"/><path d="M389.832 372.278C389.832 374.059 388.389 375.503 386.608 375.503 384.827 375.503 383.384 374.059 383.384 372.278 383.384 370.497 384.827 369.054 386.608 369.054 388.389 369.054 389.832 370.497 389.832 372.278Z" fill="#FFC20A" transform="matrix(1.00063 0 0 1 -250.928 -148.312)"/><path d="M431.388 291.316C431.388 293.096 429.945 294.54 428.164 294.54 426.383 294.54 424.94 293.096 424.94 291.316 424.94 289.535 426.383 288.092 428.164 288.092 429.945 288.092 431.388 289.535 431.388 291.316Z" fill="#FFC20A" transform="matrix(1.00063 0 0 1 -250.928 -148.312)"/><path d="M472.228 266.955C472.228 268.736 470.784 270.18 469.004 270.18 467.222 270.18 465.78 268.736 465.78 266.955 465.78 265.174 467.222 263.731 469.004 263.731 470.784 263.731 472.228 265.174 472.228 266.955Z" fill="#FFC20A" transform="matrix(1.00063 0 0 1 -250.928 -148.312)"/><path d="M513.784 258.358C513.784 260.138 512.34 261.582 510.56 261.582 508.779 261.582 507.336 260.138 507.336 258.358 507.336 256.576 508.779 255.133 510.56 255.133 512.34 255.133 513.784 256.576 513.784 258.358Z" fill="#FFC20A" transform="matrix(1.00063 0 0 1 -250.928 -148.312)"/><path d="M555.34 256.208C555.34 257.989 553.896 259.432 552.116 259.432 550.335 259.432 548.892 257.989 548.892 256.208 548.892 254.427 550.335 252.984 552.116 252.984 553.896 252.984 555.34 254.427 555.34 256.208Z" fill="#FFC20A" transform="matrix(1.00063 0 0 1 -250.928 -148.312)"/><path d="M596.18 253.342C596.18 255.123 594.736 256.566 592.955 256.566 591.174 256.566 589.731 255.123 589.731 253.342 589.731 251.561 591.174 250.118 592.955 250.118 594.736 250.118 596.18 251.561 596.18 253.342Z" fill="#FFC20A" transform="matrix(1.00063 0 0 1 -250.928 -148.312)"/><path d="M637.736 249.76C637.736 251.54 636.292 252.984 634.511 252.984 632.73 252.984 631.287 251.54 631.287 249.76 631.287 247.979 632.73 246.536 634.511 246.536 636.292 246.536 637.736 247.979 637.736 249.76Z" fill="#FFC20A" transform="matrix(1.00063 0 0 1 -250.928 -148.312)"/><path d="M678.575 250.476C678.575 252.257 677.131 253.7 675.351 253.7 673.57 253.7 672.127 252.257 672.127 250.476 672.127 248.695 673.57 247.252 675.351 247.252 677.131 247.252 678.575 248.695 678.575 250.476Z" fill="#FFC20A" transform="matrix(1.00063 0 0 1 -250.928 -148.312)"/><path d="M720.13 249.76C720.13 251.54 718.69 252.984 716.906 252.984 715.126 252.984 713.683 251.54 713.683 249.76 713.683 247.979 715.126 246.536 716.906 246.536 718.69 246.536 720.13 247.979 720.13 249.76Z" fill="#FFC20A" transform="matrix(1.00063 0 0 1 -250.928 -148.312)"/><path d="M760.97 247.61C760.97 249.391 759.53 250.834 757.746 250.834 755.969 250.834 754.522 249.391 754.522 247.61 754.522 245.829 755.969 244.386 757.746 244.386 759.53 244.386 760.97 245.829 760.97 247.61Z" fill="#FFC20A" transform="matrix(1.00063 0 0 1 -250.928 -148.312)"/><path d="M304.864 239.664C318.597 294.849 332.329 383.054 346.062 405.218 359.794 427.382 373.527 391.648 387.259 372.65 400.992 353.652 414.724 308.871 428.457 291.23 442.19 273.589 462.789 270.874 469.655 266.804" stroke="#404040" stroke-width="2.14945" stroke-linecap="round" stroke-linejoin="round" stroke-miterlimit="10" fill="none" transform="matrix(1.00063 0 0 1 -250.928 -148.312)"/><path d="M307.437 239.729C307.437 241.509 305.993 242.953 304.212 242.953 302.431 242.953 300.988 241.509 300.988 239.729 300.988 237.948 302.431 236.505 304.212 236.505 305.993 236.505 307.437 237.948 307.437 239.729Z" fill="#404040" transform="matrix(1.00063 0 0 1 -250.928 -148.312)"/><path d="M348.993 405.237C348.993 407.017 347.549 408.461 345.768 408.461 343.987 408.461 342.544 407.017 342.544 405.237 342.544 403.455 343.987 402.012 345.768 402.012 347.549 402.012 348.993 403.455 348.993 405.237Z" fill="#404040" transform="matrix(1.00063 0 0 1 -250.928 -148.312)"/><path d="M389.832 372.278C389.832 374.059 388.389 375.503 386.608 375.503 384.827 375.503 383.384 374.059 383.384 372.278 383.384 370.497 384.827 369.054 386.608 369.054 388.389 369.054 389.832 370.497 389.832 372.278Z" fill="#404040" transform="matrix(1.00063 0 0 1 -250.928 -148.312)"/><path d="M431.388 291.316C431.388 293.096 429.945 294.54 428.164 294.54 426.383 294.54 424.94 293.096 424.94 291.316 424.94 289.535 426.383 288.092 428.164 288.092 429.945 288.092 431.388 289.535 431.388 291.316Z" fill="#404040" transform="matrix(1.00063 0 0 1 -250.928 -148.312)"/><path d="M472.228 266.955C472.228 268.736 470.784 270.18 469.004 270.18 467.222 270.18 465.78 268.736 465.78 266.955 465.78 265.174 467.222 263.731 469.004 263.731 470.784 263.731 472.228 265.174 472.228 266.955Z" fill="#404040" transform="matrix(1.00063 0 0 1 -250.928 -148.312)"/><path d="M304.864 239.664C318.607 239.664 332.351 239.664 346.095 239.664 359.837 239.664 373.581 239.664 387.325 239.664 401.068 239.664 414.812 239.664 428.555 239.664 442.298 239.664 456.042 239.664 469.785 239.664 483.529 239.664 497.273 239.664 511.015 239.664 524.759 239.664 538.503 239.664 552.246 239.664 565.989 239.664 579.733 239.664 593.476 239.664 607.22 239.664 620.963 239.664 634.707 239.664 648.45 239.664 662.193 239.664 675.937 239.664 689.681 239.664 703.424 239.664 717.164 239.664 730.914 239.664 744.656 239.664 758.398 239.664" stroke="#404040" stroke-width="2.14945" stroke-linecap="round" stroke-linejoin="round" stroke-miterlimit="10" stroke-dasharray="6.44835 8.5978" fill="none" transform="matrix(1.00063 0 0 1 -250.928 -148.312)"/><text fill="#1F4E79" font-family="Calibri,Calibri_MSFontService,sans-serif" font-weight="400" font-size="16" transform="matrix(0.716937 0 0 0.716484 250.047 89)">10</text><text fill="#1F4E79" font-family="Calibri,Calibri_MSFontService,sans-serif" font-weight="400" font-size="16" transform="matrix(0.716937 0 0 0.716484 261.518 89)">.</text><text fill="#1F4E79" font-family="Calibri,Calibri_MSFontService,sans-serif" font-weight="400" font-size="16" transform="matrix(0.716937 0 0 0.716484 264.386 89)">8</text><text fill="#1F4E79" font-family="Calibri,Calibri_MSFontService,sans-serif" font-weight="400" font-size="16" transform="matrix(0.716937 0 0 0.716484 291.312 75)">11</text><text fill="#1F4E79" font-family="Calibri,Calibri_MSFontService,sans-serif" font-weight="400" font-size="16" transform="matrix(0.716937 0 0 0.716484 302.783 75)">.</text><text fill="#1F4E79" font-family="Calibri,Calibri_MSFontService,sans-serif" font-weight="400" font-size="16" transform="matrix(0.716937 0 0 0.716484 305.65 75)">3</text><text fill="#1F4E79" font-family="Calibri,Calibri_MSFontService,sans-serif" font-weight="400" font-size="16" transform="matrix(0.716937 0 0 0.716484 332.577 62)">11</text><text fill="#1F4E79" font-family="Calibri,Calibri_MSFontService,sans-serif" font-weight="400" font-size="16" transform="matrix(0.716937 0 0 0.716484 344.048 62)">.</text><text fill="#1F4E79" font-family="Calibri,Calibri_MSFontService,sans-serif" font-weight="400" font-size="16" transform="matrix(0.716937 0 0 0.716484 346.916 62)">8</text><text fill="#1F4E79" font-family="Calibri,Calibri_MSFontService,sans-serif" font-weight="400" font-size="16" transform="matrix(0.716937 0 0 0.716484 373.842 51)">12</text><text fill="#1F4E79" font-family="Calibri,Calibri_MSFontService,sans-serif" font-weight="400" font-size="16" transform="matrix(0.716937 0 0 0.716484 385.313 51)">.</text><text fill="#1F4E79" font-family="Calibri,Calibri_MSFontService,sans-serif" font-weight="400" font-size="16" transform="matrix(0.716937 0 0 0.716484 388.181 51)">2</text><text fill="#1F4E79" font-family="Calibri,Calibri_MSFontService,sans-serif" font-weight="400" font-size="16" transform="matrix(0.716937 0 0 0.716484 415.107 41)">12</text><text fill="#1F4E79" font-family="Calibri,Calibri_MSFontService,sans-serif" font-weight="400" font-size="16" transform="matrix(0.716937 0 0 0.716484 426.578 41)">.</text><text fill="#1F4E79" font-family="Calibri,Calibri_MSFontService,sans-serif" font-weight="400" font-size="16" transform="matrix(0.716937 0 0 0.716484 429.445 41)">6</text><text fill="#1F4E79" font-family="Calibri,Calibri_MSFontService,sans-serif" font-weight="400" font-size="16" transform="matrix(0.716937 0 0 0.716484 456.371 29)">13</text><text fill="#1F4E79" font-family="Calibri,Calibri_MSFontService,sans-serif" font-weight="400" font-size="16" transform="matrix(0.716937 0 0 0.716484 467.842 29)">.</text><text fill="#1F4E79" font-family="Calibri,Calibri_MSFontService,sans-serif" font-weight="400" font-size="16" transform="matrix(0.716937 0 0 0.716484 470.71 29)">0</text><text fill="#1F4E79" font-family="Calibri,Calibri_MSFontService,sans-serif" font-weight="400" font-size="16" transform="matrix(0.716937 0 0 0.716484 497.633 21)">13</text><text fill="#1F4E79" font-family="Calibri,Calibri_MSFontService,sans-serif" font-weight="400" font-size="16" transform="matrix(0.716937 0 0 0.716484 509.104 21)">.</text><text fill="#1F4E79" font-family="Calibri,Calibri_MSFontService,sans-serif" font-weight="400" font-size="16" transform="matrix(0.716937 0 0 0.716484 511.972 21)">3</text><text fill="#1F4E79" font-family="Calibri,Calibri_MSFontService,sans-serif" font-weight="400" font-size="16" transform="matrix(0.716937 0 0 0.716484 208.782 108)">10</text><text fill="#1F4E79" font-family="Calibri,Calibri_MSFontService,sans-serif" font-weight="400" font-size="16" transform="matrix(0.716937 0 0 0.716484 220.253 108)">.</text><text fill="#1F4E79" font-family="Calibri,Calibri_MSFontService,sans-serif" font-weight="400" font-size="16" transform="matrix(0.716937 0 0 0.716484 223.121 108)">1</text><text fill="#1F4E79" font-family="Calibri,Calibri_MSFontService,sans-serif" font-weight="400" font-size="16" transform="matrix(0.716937 0 0 0.716484 332.471 81)">11</text><text fill="#1F4E79" font-family="Calibri,Calibri_MSFontService,sans-serif" font-weight="400" font-size="16" transform="matrix(0.716937 0 0 0.716484 343.942 81)">.</text><text fill="#1F4E79" font-family="Calibri,Calibri_MSFontService,sans-serif" font-weight="400" font-size="16" transform="matrix(0.716937 0 0 0.716484 346.81 81)">2</text><text fill="#1F4E79" font-family="Calibri,Calibri_MSFontService,sans-serif" font-weight="400" font-size="16" transform="matrix(0.716937 0 0 0.716484 373.736 75)">11</text><text fill="#1F4E79" font-family="Calibri,Calibri_MSFontService,sans-serif" font-weight="400" font-size="16" transform="matrix(0.716937 0 0 0.716484 385.207 75)">.</text><text fill="#1F4E79" font-family="Calibri,Calibri_MSFontService,sans-serif" font-weight="400" font-size="16" transform="matrix(0.716937 0 0 0.716484 388.075 75)">4</text><text fill="#1F4E79" font-family="Calibri,Calibri_MSFontService,sans-serif" font-weight="400" font-size="16" transform="matrix(0.716937 0 0 0.716484 415.001 69)">11</text><text fill="#1F4E79" font-family="Calibri,Calibri_MSFontService,sans-serif" font-weight="400" font-size="16" transform="matrix(0.716937 0 0 0.716484 426.472 69)">.</text><text fill="#1F4E79" font-family="Calibri,Calibri_MSFontService,sans-serif" font-weight="400" font-size="16" transform="matrix(0.716937 0 0 0.716484 429.339 69)">7</text><text fill="#1F4E79" font-family="Calibri,Calibri_MSFontService,sans-serif" font-weight="400" font-size="16" transform="matrix(0.716937 0 0 0.716484 456.265 64)">11</text><text fill="#1F4E79" font-family="Calibri,Calibri_MSFontService,sans-serif" font-weight="400" font-size="16" transform="matrix(0.716937 0 0 0.716484 467.736 64)">.</text><text fill="#1F4E79" font-family="Calibri,Calibri_MSFontService,sans-serif" font-weight="400" font-size="16" transform="matrix(0.716937 0 0 0.716484 470.604 64)">9</text><text fill="#1F4E79" font-family="Calibri,Calibri_MSFontService,sans-serif" font-weight="400" font-size="16" transform="matrix(0.716937 0 0 0.716484 497.633 54)">12</text><text fill="#1F4E79" font-family="Calibri,Calibri_MSFontService,sans-serif" font-weight="400" font-size="16" transform="matrix(0.716937 0 0 0.716484 509.104 54)">.</text><text fill="#1F4E79" font-family="Calibri,Calibri_MSFontService,sans-serif" font-weight="400" font-size="16" transform="matrix(0.716937 0 0 0.716484 511.972 54)">1</text><text fill="#1F4E79" font-family="Calibri,Calibri_MSFontService,sans-serif" font-weight="400" font-size="16" transform="matrix(0.716937 0 0 0.716484 208.782 137)">10</text><text fill="#1F4E79" font-family="Calibri,Calibri_MSFontService,sans-serif" font-weight="400" font-size="16" transform="matrix(0.716937 0 0 0.716484 220.253 137)">.</text><text fill="#1F4E79" font-family="Calibri,Calibri_MSFontService,sans-serif" font-weight="400" font-size="16" transform="matrix(0.716937 0 0 0.716484 223.121 137)">1</text><text fill="#1F4E79" font-family="Calibri,Calibri_MSFontService,sans-serif" font-weight="400" font-size="16" transform="matrix(0.716937 0 0 0.716484 250.047 129)">10</text><text fill="#1F4E79" font-family="Calibri,Calibri_MSFontService,sans-serif" font-weight="400" font-size="16" transform="matrix(0.716937 0 0 0.716484 261.518 129)">.</text><text fill="#1F4E79" font-family="Calibri,Calibri_MSFontService,sans-serif" font-weight="400" font-size="16" transform="matrix(0.716937 0 0 0.716484 264.386 129)">4</text><text fill="#1F4E79" font-family="Calibri,Calibri_MSFontService,sans-serif" font-weight="400" font-size="16" transform="matrix(0.716937 0 0 0.716484 291.312 126)">10</text><text fill="#1F4E79" font-family="Calibri,Calibri_MSFontService,sans-serif" font-weight="400" font-size="16" transform="matrix(0.716937 0 0 0.716484 302.783 126)">.</text><text fill="#1F4E79" font-family="Calibri,Calibri_MSFontService,sans-serif" font-weight="400" font-size="16" transform="matrix(0.716937 0 0 0.716484 305.65 126)">5</text><text fill="#1F4E79" font-family="Calibri,Calibri_MSFontService,sans-serif" font-weight="400" font-size="16" transform="matrix(0.716937 0 0 0.716484 332.577 124)">10</text><text fill="#1F4E79" font-family="Calibri,Calibri_MSFontService,sans-serif" font-weight="400" font-size="16" transform="matrix(0.716937 0 0 0.716484 344.048 124)">.</text><text fill="#1F4E79" font-family="Calibri,Calibri_MSFontService,sans-serif" font-weight="400" font-size="16" transform="matrix(0.716937 0 0 0.716484 346.916 124)">6</text><text fill="#1F4E79" font-family="Calibri,Calibri_MSFontService,sans-serif" font-weight="400" font-size="16" transform="matrix(0.716937 0 0 0.716484 373.842 120)">10</text><text fill="#1F4E79" font-family="Calibri,Calibri_MSFontService,sans-serif" font-weight="400" font-size="16" transform="matrix(0.716937 0 0 0.716484 385.313 120)">.</text><text fill="#1F4E79" font-family="Calibri,Calibri_MSFontService,sans-serif" font-weight="400" font-size="16" transform="matrix(0.716937 0 0 0.716484 388.181 120)">7</text><text fill="#1F4E79" font-family="Calibri,Calibri_MSFontService,sans-serif" font-weight="400" font-size="16" transform="matrix(0.716937 0 0 0.716484 415.107 121)">10</text><text fill="#1F4E79" font-family="Calibri,Calibri_MSFontService,sans-serif" font-weight="400" font-size="16" transform="matrix(0.716937 0 0 0.716484 426.578 121)">.</text><text fill="#1F4E79" font-family="Calibri,Calibri_MSFontService,sans-serif" font-weight="400" font-size="16" transform="matrix(0.716937 0 0 0.716484 429.445 121)">7</text><text fill="#1F4E79" font-family="Calibri,Calibri_MSFontService,sans-serif" font-weight="400" font-size="16" transform="matrix(0.716937 0 0 0.716484 456.371 120)">10</text><text fill="#1F4E79" font-family="Calibri,Calibri_MSFontService,sans-serif" font-weight="400" font-size="16" transform="matrix(0.716937 0 0 0.716484 467.842 120)">.</text><text fill="#1F4E79" font-family="Calibri,Calibri_MSFontService,sans-serif" font-weight="400" font-size="16" transform="matrix(0.716937 0 0 0.716484 470.71 120)">7</text><text fill="#1F4E79" font-family="Calibri,Calibri_MSFontService,sans-serif" font-weight="400" font-size="16" transform="matrix(0.716937 0 0 0.716484 497.633 89)">10</text><text fill="#1F4E79" font-family="Calibri,Calibri_MSFontService,sans-serif" font-weight="400" font-size="16" transform="matrix(0.716937 0 0 0.716484 509.104 89)">.</text><text fill="#1F4E79" font-family="Calibri,Calibri_MSFontService,sans-serif" font-weight="400" font-size="16" transform="matrix(0.716937 0 0 0.716484 511.972 89)">8</text><text fill="#1F4E79" font-family="Calibri,Calibri_MSFontService,sans-serif" font-weight="400" font-size="16" transform="matrix(0.716937 0 0 0.716484 48.4227 82)">11</text><text fill="#1F4E79" font-family="Calibri,Calibri_MSFontService,sans-serif" font-weight="400" font-size="16" transform="matrix(0.716937 0 0 0.716484 59.8937 82)">.</text><text fill="#1F4E79" font-family="Calibri,Calibri_MSFontService,sans-serif" font-weight="400" font-size="16" transform="matrix(0.716937 0 0 0.716484 62.7614 82)">1</text><text fill="#1F4E79" font-family="Calibri,Calibri_MSFontService,sans-serif" font-weight="400" font-size="16" transform="matrix(0.716937 0 0 0.716484 91.7178 246)">5</text><text fill="#1F4E79" font-family="Calibri,Calibri_MSFontService,sans-serif" font-weight="400" font-size="16" transform="matrix(0.716937 0 0 0.716484 97.4533 246)">.</text><text fill="#1F4E79" font-family="Calibri,Calibri_MSFontService,sans-serif" font-weight="400" font-size="16" transform="matrix(0.716937 0 0 0.716484 100.321 246)">0</text><text fill="#1F4E79" font-family="Calibri,Calibri_MSFontService,sans-serif" font-weight="400" font-size="16" transform="matrix(0.716937 0 0 0.716484 125.335 216)">6</text><text fill="#1F4E79" font-family="Calibri,Calibri_MSFontService,sans-serif" font-weight="400" font-size="16" transform="matrix(0.716937 0 0 0.716484 131.07 216)">.</text><text fill="#1F4E79" font-family="Calibri,Calibri_MSFontService,sans-serif" font-weight="400" font-size="16" transform="matrix(0.716937 0 0 0.716484 133.938 216)">2</text><text fill="#1F4E79" font-family="Calibri,Calibri_MSFontService,sans-serif" font-weight="400" font-size="16" transform="matrix(0.716937 0 0 0.716484 170.424 133)">9</text><text fill="#1F4E79" font-family="Calibri,Calibri_MSFontService,sans-serif" font-weight="400" font-size="16" transform="matrix(0.716937 0 0 0.716484 176.159 133)">.</text><text fill="#1F4E79" font-family="Calibri,Calibri_MSFontService,sans-serif" font-weight="400" font-size="16" transform="matrix(0.716937 0 0 0.716484 179.027 133)">2</text><text fill="#1F4E79" font-family="Calibri,Calibri_MSFontService,sans-serif" font-weight="400" font-size="16" transform="matrix(0.716937 0 0 0.716484 208.782 108)">10</text><text fill="#1F4E79" font-family="Calibri,Calibri_MSFontService,sans-serif" font-weight="400" font-size="16" transform="matrix(0.716937 0 0 0.716484 220.253 108)">.</text><text fill="#1F4E79" font-family="Calibri,Calibri_MSFontService,sans-serif" font-weight="400" font-size="16" transform="matrix(0.716937 0 0 0.716484 223.121 108)">1</text><text fill="#1F4E79" font-family="Calibri,Calibri_MSFontService,sans-serif" font-weight="400" font-size="19" transform="matrix(0.716937 0 0 0.716484 289.505 88)">11</text><text fill="#1F4E79" font-family="Calibri,Calibri_MSFontService,sans-serif" font-weight="400" font-size="19" transform="matrix(0.716937 0 0 0.716484 303.844 88)">.</text><text fill="#1F4E79" font-family="Calibri,Calibri_MSFontService,sans-serif" font-weight="400" font-size="19" transform="matrix(0.716937 0 0 0.716484 307.428 88)">1</text><text fill="#7F7F7F" font-family="Calibri,Calibri_MSFontService,sans-serif" font-weight="400" font-size="19" transform="matrix(0.716937 0 0 0.716484 34.6912 288)">4</text><text fill="#7F7F7F" font-family="Calibri,Calibri_MSFontService,sans-serif" font-weight="400" font-size="19" transform="matrix(0.716937 0 0 0.716484 34.6912 234)">6</text><text fill="#7F7F7F" font-family="Calibri,Calibri_MSFontService,sans-serif" font-weight="400" font-size="19" transform="matrix(0.716937 0 0 0.716484 34.6912 180)">8</text><text fill="#7F7F7F" font-family="Calibri,Calibri_MSFontService,sans-serif" font-weight="400" font-size="19" transform="matrix(0.716937 0 0 0.716484 27.9089 125)">10</text><text fill="#7F7F7F" font-family="Calibri,Calibri_MSFontService,sans-serif" font-weight="400" font-size="19" transform="matrix(0.716937 0 0 0.716484 27.9089 72)">12</text><text fill="#7F7F7F" font-family="Calibri,Calibri_MSFontService,sans-serif" font-weight="400" font-size="19" transform="matrix(0.716937 0 0 0.716484 27.9089 17)">14</text><text fill="#7F7F7F" font-family="Calibri,Calibri_MSFontService,sans-serif" font-weight="400" font-size="19" transform="matrix(0.716937 0 0 0.716484 40.3249 305)">2019</text><text fill="#7F7F7F" font-family="Calibri,Calibri_MSFontService,sans-serif" font-weight="400" font-size="19" transform="matrix(0.716937 0 0 0.716484 81.5896 305)">2020</text><text fill="#7F7F7F" font-family="Calibri,Calibri_MSFontService,sans-serif" font-weight="400" font-size="19" transform="matrix(0.716937 0 0 0.716484 122.854 305)">2021</text><text fill="#7F7F7F" font-family="Calibri,Calibri_MSFontService,sans-serif" font-weight="400" font-size="19" transform="matrix(0.716937 0 0 0.716484 164.119 305)">2022</text><text fill="#7F7F7F" font-family="Calibri,Calibri_MSFontService,sans-serif" font-weight="400" font-size="19" transform="matrix(0.716937 0 0 0.716484 205.384 305)">2023</text><text fill="#7F7F7F" font-family="Calibri,Calibri_MSFontService,sans-serif" font-weight="400" font-size="19" transform="matrix(0.716937 0 0 0.716484 246.649 305)">2024</text><text fill="#7F7F7F" font-family="Calibri,Calibri_MSFontService,sans-serif" font-weight="400" font-size="19" transform="matrix(0.716937 0 0 0.716484 287.913 305)">2025</text><text fill="#7F7F7F" font-family="Calibri,Calibri_MSFontService,sans-serif" font-weight="400" font-size="19" transform="matrix(0.716937 0 0 0.716484 329.179 305)">2026</text><text fill="#7F7F7F" font-family="Calibri,Calibri_MSFontService,sans-serif" font-weight="400" font-size="19" transform="matrix(0.716937 0 0 0.716484 370.444 305)">2027</text><text fill="#7F7F7F" font-family="Calibri,Calibri_MSFontService,sans-serif" font-weight="400" font-size="19" transform="matrix(0.716937 0 0 0.716484 411.708 305)">2028</text><text fill="#7F7F7F" font-family="Calibri,Calibri_MSFontService,sans-serif" font-weight="400" font-size="19" transform="matrix(0.716937 0 0 0.716484 452.973 305)">2029</text><text fill="#7F7F7F" font-family="Calibri,Calibri_MSFontService,sans-serif" font-weight="400" font-size="19" transform="matrix(0.716937 0 0 0.716484 494.235 305)">2030</text><text fill="#7F7F7F" font-family="Calibri,Calibri_MSFontService,sans-serif" font-weight="400" font-size="19" transform="matrix(4.38997e-17 -0.716484 0.716937 4.38719e-17 18.9157 99)">Million of flights</text><path d="M769.862 160.851 865.154 160.851 865.154 433.114 769.862 433.114Z" stroke="#F2F2F2" stroke-width="0.716484" stroke-linejoin="round" stroke-miterlimit="10" fill="#F2F2F2" transform="matrix(1.00063 0 0 1 -250.928 -148.312)"/><path d="M775.593 179.479 799.954 179.479" stroke="#B3D235" stroke-width="2.14945" stroke-linecap="round" stroke-linejoin="round" stroke-miterlimit="10" fill="none" fill-rule="evenodd" transform="matrix(1.00063 0 0 1 -250.928 -148.312)"/><path d="M790.281 178.763C790.281 180.543 788.841 181.987 787.057 181.987 785.273 181.987 783.833 180.543 783.833 178.763 783.833 176.982 785.273 175.538 787.057 175.538 788.841 175.538 790.281 176.982 790.281 178.763Z" fill="#B3D235" transform="matrix(1.00063 0 0 1 -250.928 -148.312)"/><text fill="#1F4E79" font-family="Calibri,Calibri_MSFontService,sans-serif" font-weight="400" font-size="19" transform="matrix(0.716937 0 0 0.716484 551.934 35)">High</text><text fill="#1F4E79" font-family="Calibri,Calibri_MSFontService,sans-serif" font-weight="400" font-size="19" transform="matrix(0.716937 0 0 0.716484 551.934 52)">scenario</text><path d="M775.593 233.932 799.954 233.932" stroke="#4F81BD" stroke-width="2.14945" stroke-linecap="round" stroke-linejoin="round" stroke-miterlimit="10" fill="none" fill-rule="evenodd" transform="matrix(1.00063 0 0 1 -250.928 -148.312)"/><path d="M790.281 233.215C790.281 234.996 788.841 236.44 787.057 236.44 785.273 236.44 783.833 234.996 783.833 233.215 783.833 231.435 785.273 229.991 787.057 229.991 788.841 229.991 790.281 231.435 790.281 233.215Z" fill="#4F81BD" transform="matrix(1.00063 0 0 1 -250.928 -148.312)"/><text fill="#1F4E79" font-family="Calibri,Calibri_MSFontService,sans-serif" font-weight="400" font-size="19" transform="matrix(0.716937 0 0 0.716484 551.934 90)">Base</text><text fill="#1F4E79" font-family="Calibri,Calibri_MSFontService,sans-serif" font-weight="400" font-size="19" transform="matrix(0.716937 0 0 0.716484 551.934 106)">scenario</text><path d="M775.593 289.101 799.954 289.101" stroke="#FFC20A" stroke-width="2.14945" stroke-linecap="round" stroke-linejoin="round" stroke-miterlimit="10" fill="none" fill-rule="evenodd" transform="matrix(1.00063 0 0 1 -250.928 -148.312)"/><path d="M790.281 288.385C790.281 290.165 788.841 291.609 787.057 291.609 785.273 291.609 783.833 290.165 783.833 288.385 783.833 286.604 785.273 285.16 787.057 285.16 788.841 285.16 790.281 286.604 790.281 288.385Z" fill="#FFC20A" transform="matrix(1.00063 0 0 1 -250.928 -148.312)"/><text fill="#1F4E79" font-family="Calibri,Calibri_MSFontService,sans-serif" font-weight="400" font-size="19" transform="matrix(0.716937 0 0 0.716484 551.934 145)">Low</text><text fill="#1F4E79" font-family="Calibri,Calibri_MSFontService,sans-serif" font-weight="400" font-size="19" transform="matrix(0.716937 0 0 0.716484 551.934 160)">scenario</text><path d="M775.593 343.554 799.954 343.554" stroke="#404040" stroke-width="2.14945" stroke-linecap="round" stroke-linejoin="round" stroke-miterlimit="10" fill="none" fill-rule="evenodd" transform="matrix(1.00063 0 0 1 -250.928 -148.312)"/><path d="M790.281 342.837C790.281 344.618 788.841 346.062 787.057 346.062 785.273 346.062 783.833 344.618 783.833 342.837 783.833 341.057 785.273 339.613 787.057 339.613 788.841 339.613 790.281 341.057 790.281 342.837Z" fill="#404040" transform="matrix(1.00063 0 0 1 -250.928 -148.312)"/><text fill="#1F4E79" font-family="Calibri,Calibri_MSFontService,sans-serif" font-weight="400" font-size="19" transform="matrix(0.716937 0 0 0.716484 551.934 199)">Actual</text><path d="M775.593 398.007 799.954 398.007" stroke="#404040" stroke-width="2.14945" stroke-linecap="round" stroke-linejoin="round" stroke-miterlimit="10" stroke-dasharray="6.44835 8.5978" fill="none" fill-rule="evenodd" transform="matrix(1.00063 0 0 1 -250.928 -148.312)"/><text fill="#1F4E79" font-family="Calibri,Calibri_MSFontService,sans-serif" font-weight="400" font-size="19" transform="matrix(0.716937 0 0 0.716484 551.934 254)">2019 </text><text fill="#1F4E79" font-family="Calibri,Calibri_MSFontService,sans-serif" font-weight="400" font-size="19" transform="matrix(0.716937 0 0 0.716484 583.479 254)">levels</text></g></svg>