<svg width="618" height="329" xmlns="http://www.w3.org/2000/svg" xmlns:xlink="http://www.w3.org/1999/xlink" xml:space="preserve" overflow="hidden"><defs><clipPath id="clip0"><rect x="0" y="0" width="618" height="329"/></clipPath></defs><g clip-path="url(#clip0)"><path d="M253.077 122.2 870.585 122.2 870.585 451.2 253.077 451.2Z" fill="#FFFFFF" transform="matrix(1.0008 0 0 1 -253.279 -122.2)"/><path d="M318.515 381.423 758.146 381.423M318.515 353.946 758.146 353.946M318.515 327.192 758.146 327.192M318.515 299.715 758.146 299.715M318.515 272.238 758.146 272.238M318.515 244.762 758.146 244.762M318.515 217.285 758.146 217.285M318.515 190.531 758.146 190.531M318.515 163.054 758.146 163.054M318.515 135.577 758.146 135.577" stroke="#D9D9D9" stroke-width="0.723077" stroke-linejoin="round" stroke-miterlimit="10" fill="none" transform="matrix(1.0008 0 0 1 -253.279 -122.2)"/><path d="M318.515 408.9 758.146 408.9" stroke="#D9D9D9" stroke-width="0.9641" stroke-linejoin="round" stroke-miterlimit="10" fill="none" fill-rule="evenodd" transform="matrix(1.0008 0 0 1 -253.279 -122.2)"/><path d="M318.515 262.582C331.837 306.242 345.159 376.051 358.482 393.56 371.804 411.069 385.126 384.692 398.449 367.638 411.771 350.583 425.093 308.743 438.415 291.234 451.737 273.725 465.059 270.768 478.381 262.582 491.703 254.397 505.025 247.575 518.348 242.117 531.67 236.66 544.992 234.159 558.314 229.839 571.636 225.518 584.958 220.288 598.28 216.195 611.602 212.102 624.925 208.919 638.247 205.28 651.569 201.642 664.891 197.776 678.214 194.365 691.536 190.954 704.858 188.226 718.18 184.815 731.501 181.404 744.827 177.539 758.146 173.9" stroke="#B3D235" stroke-width="2.16923" stroke-linecap="round" stroke-linejoin="round" stroke-miterlimit="10" fill="none" transform="matrix(1.0008 0 0 1 -253.279 -122.2)"/><path d="M321.112 262.312C321.112 264.11 319.655 265.566 317.858 265.566 316.061 265.566 314.604 264.11 314.604 262.312 314.604 260.515 316.061 259.059 317.858 259.059 319.655 259.059 321.112 260.515 321.112 262.312Z" fill="#B3D235" transform="matrix(1.0008 0 0 1 -253.279 -122.2)"/><path d="M361.604 393.912C361.604 395.71 360.147 397.166 358.35 397.166 356.553 397.166 355.097 395.71 355.097 393.912 355.097 392.115 356.553 390.659 358.35 390.659 360.147 390.659 361.604 392.115 361.604 393.912Z" fill="#B3D235" transform="matrix(1.0008 0 0 1 -253.279 -122.2)"/><path d="M401.374 367.881C401.374 369.679 399.917 371.135 398.12 371.135 396.322 371.135 394.866 369.679 394.866 367.881 394.866 366.084 396.322 364.628 398.12 364.628 399.917 364.628 401.374 366.084 401.374 367.881Z" fill="#B3D235" transform="matrix(1.0008 0 0 1 -253.279 -122.2)"/><path d="M441.143 291.235C441.143 293.033 439.686 294.489 437.889 294.489 436.091 294.489 434.635 293.033 434.635 291.235 434.635 289.438 436.091 287.982 437.889 287.982 439.686 287.982 441.143 289.438 441.143 291.235Z" fill="#B3D235" transform="matrix(1.0008 0 0 1 -253.279 -122.2)"/><path d="M481.635 262.312C481.635 264.11 480.178 265.566 478.381 265.566 476.584 265.566 475.127 264.11 475.127 262.312 475.127 260.515 476.584 259.059 478.381 259.059 480.178 259.059 481.635 260.515 481.635 262.312Z" fill="#B3D235" transform="matrix(1.0008 0 0 1 -253.279 -122.2)"/><path d="M521.404 242.066C521.404 243.863 519.947 245.32 518.15 245.32 516.353 245.32 514.897 243.863 514.897 242.066 514.897 240.269 516.353 238.813 518.15 238.813 519.947 238.813 521.404 240.269 521.404 242.066Z" fill="#B3D235" transform="matrix(1.0008 0 0 1 -253.279 -122.2)"/><path d="M561.174 229.774C561.174 231.571 559.716 233.027 557.92 233.027 556.122 233.027 554.666 231.571 554.666 229.774 554.666 227.977 556.122 226.52 557.92 226.52 559.716 226.52 561.174 227.977 561.174 229.774Z" fill="#B3D235" transform="matrix(1.0008 0 0 1 -253.279 -122.2)"/><path d="M601.666 216.035C601.666 217.833 600.209 219.289 598.412 219.289 596.614 219.289 595.158 217.833 595.158 216.035 595.158 214.238 596.614 212.782 598.412 212.782 600.209 212.782 601.666 214.238 601.666 216.035Z" fill="#B3D235" transform="matrix(1.0008 0 0 1 -253.279 -122.2)"/><path d="M641.435 205.189C641.435 206.987 639.978 208.443 638.181 208.443 636.384 208.443 634.927 206.987 634.927 205.189 634.927 203.392 636.384 201.936 638.181 201.936 639.978 201.936 641.435 203.392 641.435 205.189Z" fill="#B3D235" transform="matrix(1.0008 0 0 1 -253.279 -122.2)"/><path d="M681.204 194.343C681.204 196.14 679.747 197.597 677.95 197.597 676.153 197.597 674.697 196.14 674.697 194.343 674.697 192.546 676.153 191.09 677.95 191.09 679.747 191.09 681.204 192.546 681.204 194.343Z" fill="#B3D235" transform="matrix(1.0008 0 0 1 -253.279 -122.2)"/><path d="M721.697 184.944C721.697 186.74 720.24 188.197 718.443 188.197 716.645 188.197 715.189 186.74 715.189 184.944 715.189 183.146 716.645 181.69 718.443 181.69 720.24 181.69 721.697 183.146 721.697 184.944Z" fill="#B3D235" transform="matrix(1.0008 0 0 1 -253.279 -122.2)"/><path d="M761.465 173.374C761.465 175.171 760.012 176.627 758.211 176.627 756.418 176.627 754.957 175.171 754.957 173.374 754.957 171.577 756.418 170.12 758.211 170.12 760.012 170.12 761.465 171.577 761.465 173.374Z" fill="#B3D235" transform="matrix(1.0008 0 0 1 -253.279 -122.2)"/><path d="M318.515 262.492C331.837 306.178 345.159 376.03 358.482 393.55 371.804 411.069 385.126 384.675 398.449 367.611 411.771 350.546 425.093 308.681 438.415 291.161 451.737 273.641 465.059 269.318 478.381 262.492 491.703 255.666 505.025 253.619 518.348 250.206 531.67 246.792 544.992 244.744 558.314 242.014 571.636 239.284 584.958 236.326 598.28 233.823 611.602 231.32 624.925 229.273 638.247 226.997 651.569 224.722 664.891 222.219 678.214 220.171 691.536 218.123 704.858 216.758 718.18 214.71 731.501 212.663 744.827 210.16 758.146 207.885" stroke="#4F81BD" stroke-width="2.16923" stroke-linecap="round" stroke-linejoin="round" stroke-miterlimit="10" fill="none" transform="matrix(1.0008 0 0 1 -253.279 -122.2)"/><path d="M321.112 262.312C321.112 264.11 319.655 265.566 317.858 265.566 316.061 265.566 314.604 264.11 314.604 262.312 314.604 260.515 316.061 259.059 317.858 259.059 319.655 259.059 321.112 260.515 321.112 262.312Z" fill="#4F81BD" transform="matrix(1.0008 0 0 1 -253.279 -122.2)"/><path d="M361.604 393.912C361.604 395.71 360.147 397.166 358.35 397.166 356.553 397.166 355.097 395.71 355.097 393.912 355.097 392.115 356.553 390.659 358.35 390.659 360.147 390.659 361.604 392.115 361.604 393.912Z" fill="#4F81BD" transform="matrix(1.0008 0 0 1 -253.279 -122.2)"/><path d="M401.374 367.881C401.374 369.679 399.917 371.135 398.12 371.135 396.322 371.135 394.866 369.679 394.866 367.881 394.866 366.084 396.322 364.628 398.12 364.628 399.917 364.628 401.374 366.084 401.374 367.881Z" fill="#4F81BD" transform="matrix(1.0008 0 0 1 -253.279 -122.2)"/><path d="M441.143 291.235C441.143 293.033 439.686 294.489 437.889 294.489 436.091 294.489 434.635 293.033 434.635 291.235 434.635 289.438 436.091 287.982 437.889 287.982 439.686 287.982 441.143 289.438 441.143 291.235Z" fill="#4F81BD" transform="matrix(1.0008 0 0 1 -253.279 -122.2)"/><path d="M481.635 262.312C481.635 264.11 480.178 265.566 478.381 265.566 476.584 265.566 475.127 264.11 475.127 262.312 475.127 260.515 476.584 259.059 478.381 259.059 480.178 259.059 481.635 260.515 481.635 262.312Z" fill="#4F81BD" transform="matrix(1.0008 0 0 1 -253.279 -122.2)"/><path d="M521.404 250.02C521.404 251.817 519.947 253.274 518.15 253.274 516.353 253.274 514.897 251.817 514.897 250.02 514.897 248.223 516.353 246.767 518.15 246.767 519.947 246.767 521.404 248.223 521.404 250.02Z" fill="#4F81BD" transform="matrix(1.0008 0 0 1 -253.279 -122.2)"/><path d="M561.174 242.066C561.174 243.863 559.716 245.32 557.92 245.32 556.122 245.32 554.666 243.863 554.666 242.066 554.666 240.269 556.122 238.813 557.92 238.813 559.716 238.813 561.174 240.269 561.174 242.066Z" fill="#4F81BD" transform="matrix(1.0008 0 0 1 -253.279 -122.2)"/><path d="M601.666 234.112C601.666 235.91 600.209 237.366 598.412 237.366 596.614 237.366 595.158 235.91 595.158 234.112 595.158 232.315 596.614 230.859 598.412 230.859 600.209 230.859 601.666 232.315 601.666 234.112Z" fill="#4F81BD" transform="matrix(1.0008 0 0 1 -253.279 -122.2)"/><path d="M641.435 226.881C641.435 228.679 639.978 230.135 638.181 230.135 636.384 230.135 634.927 228.679 634.927 226.881 634.927 225.084 636.384 223.628 638.181 223.628 639.978 223.628 641.435 225.084 641.435 226.881Z" fill="#4F81BD" transform="matrix(1.0008 0 0 1 -253.279 -122.2)"/><path d="M681.204 220.374C681.204 222.171 679.747 223.627 677.95 223.627 676.153 223.627 674.697 222.171 674.697 220.374 674.697 218.577 676.153 217.12 677.95 217.12 679.747 217.12 681.204 218.577 681.204 220.374Z" fill="#4F81BD" transform="matrix(1.0008 0 0 1 -253.279 -122.2)"/><path d="M721.697 214.589C721.697 216.387 720.24 217.843 718.443 217.843 716.645 217.843 715.189 216.387 715.189 214.589 715.189 212.792 716.645 211.336 718.443 211.336 720.24 211.336 721.697 212.792 721.697 214.589Z" fill="#4F81BD" transform="matrix(1.0008 0 0 1 -253.279 -122.2)"/><path d="M761.465 208.081C761.465 209.879 760.012 211.335 758.211 211.335 756.418 211.335 754.957 209.879 754.957 208.081 754.957 206.284 756.418 204.828 758.211 204.828 760.012 204.828 761.465 206.284 761.465 208.081Z" fill="#4F81BD" transform="matrix(1.0008 0 0 1 -253.279 -122.2)"/><path d="M318.515 262.925C331.837 306.483 345.159 376.132 358.482 393.6 371.804 411.069 385.126 384.753 398.449 367.737 411.771 350.723 425.093 308.979 438.415 291.511 451.737 274.042 465.059 268.597 478.381 262.925 491.703 257.253 505.025 258.842 518.348 257.48 531.67 256.12 544.992 255.893 558.314 254.758 571.636 253.624 584.958 251.809 598.28 250.675 611.602 249.54 624.925 248.86 638.247 247.952 651.569 247.045 664.891 245.911 678.214 245.23 691.536 244.549 704.858 244.549 718.18 243.869 731.501 243.188 744.827 242.054 758.146 241.146" stroke="#FFC20A" stroke-width="2.16923" stroke-linecap="round" stroke-linejoin="round" stroke-miterlimit="10" fill="none" transform="matrix(1.0008 0 0 1 -253.279 -122.2)"/><path d="M321.112 262.312C321.112 264.11 319.655 265.566 317.858 265.566 316.061 265.566 314.604 264.11 314.604 262.312 314.604 260.515 316.061 259.059 317.858 259.059 319.655 259.059 321.112 260.515 321.112 262.312Z" fill="#FFC20A" transform="matrix(1.0008 0 0 1 -253.279 -122.2)"/><path d="M361.604 393.912C361.604 395.71 360.147 397.166 358.35 397.166 356.553 397.166 355.097 395.71 355.097 393.912 355.097 392.115 356.553 390.659 358.35 390.659 360.147 390.659 361.604 392.115 361.604 393.912Z" fill="#FFC20A" transform="matrix(1.0008 0 0 1 -253.279 -122.2)"/><path d="M401.374 367.881C401.374 369.679 399.917 371.135 398.12 371.135 396.322 371.135 394.866 369.679 394.866 367.881 394.866 366.084 396.322 364.628 398.12 364.628 399.917 364.628 401.374 366.084 401.374 367.881Z" fill="#FFC20A" transform="matrix(1.0008 0 0 1 -253.279 -122.2)"/><path d="M441.143 291.235C441.143 293.033 439.686 294.489 437.889 294.489 436.091 294.489 434.635 293.033 434.635 291.235 434.635 289.438 436.091 287.982 437.889 287.982 439.686 287.982 441.143 289.438 441.143 291.235Z" fill="#FFC20A" transform="matrix(1.0008 0 0 1 -253.279 -122.2)"/><path d="M481.635 262.312C481.635 264.11 480.178 265.566 478.381 265.566 476.584 265.566 475.127 264.11 475.127 262.312 475.127 260.515 476.584 259.059 478.381 259.059 480.178 259.059 481.635 260.515 481.635 262.312Z" fill="#FFC20A" transform="matrix(1.0008 0 0 1 -253.279 -122.2)"/><path d="M521.404 257.251C521.404 259.048 519.947 260.504 518.15 260.504 516.353 260.504 514.897 259.048 514.897 257.251 514.897 255.454 516.353 253.997 518.15 253.997 519.947 253.997 521.404 255.454 521.404 257.251Z" fill="#FFC20A" transform="matrix(1.0008 0 0 1 -253.279 -122.2)"/><path d="M561.174 254.358C561.174 256.156 559.716 257.612 557.92 257.612 556.122 257.612 554.666 256.156 554.666 254.358 554.666 252.561 556.122 251.105 557.92 251.105 559.716 251.105 561.174 252.561 561.174 254.358Z" fill="#FFC20A" transform="matrix(1.0008 0 0 1 -253.279 -122.2)"/><path d="M601.666 250.02C601.666 251.817 600.209 253.274 598.412 253.274 596.614 253.274 595.158 251.817 595.158 250.02 595.158 248.223 596.614 246.767 598.412 246.767 600.209 246.767 601.666 248.223 601.666 250.02Z" fill="#FFC20A" transform="matrix(1.0008 0 0 1 -253.279 -122.2)"/><path d="M641.435 247.851C641.435 249.648 639.978 251.104 638.181 251.104 636.384 251.104 634.927 249.648 634.927 247.851 634.927 246.054 636.384 244.597 638.181 244.597 639.978 244.597 641.435 246.054 641.435 247.851Z" fill="#FFC20A" transform="matrix(1.0008 0 0 1 -253.279 -122.2)"/><path d="M681.204 244.958C681.204 246.756 679.747 248.212 677.95 248.212 676.153 248.212 674.697 246.756 674.697 244.958 674.697 243.161 676.153 241.705 677.95 241.705 679.747 241.705 681.204 243.161 681.204 244.958Z" fill="#FFC20A" transform="matrix(1.0008 0 0 1 -253.279 -122.2)"/><path d="M721.697 243.512C721.697 245.31 720.24 246.766 718.443 246.766 716.645 246.766 715.189 245.31 715.189 243.512 715.189 241.715 716.645 240.259 718.443 240.259 720.24 240.259 721.697 241.715 721.697 243.512Z" fill="#FFC20A" transform="matrix(1.0008 0 0 1 -253.279 -122.2)"/><path d="M761.465 240.62C761.465 242.417 760.012 243.874 758.211 243.874 756.418 243.874 754.957 242.417 754.957 240.62 754.957 238.823 756.418 237.367 758.211 237.367 760.012 237.367 761.465 238.823 761.465 240.62Z" fill="#FFC20A" transform="matrix(1.0008 0 0 1 -253.279 -122.2)"/><text fill="#1F4E79" font-family="Calibri,Calibri_MSFontService,sans-serif" font-weight="400" font-size="16" transform="matrix(0.723653 0 0 0.723077 176.619 158)">146</text><text fill="#1F4E79" font-family="Calibri,Calibri_MSFontService,sans-serif" font-weight="400" font-size="16" transform="matrix(0.723653 0 0 0.723077 216.667 129)">167</text><text fill="#1F4E79" font-family="Calibri,Calibri_MSFontService,sans-serif" font-weight="400" font-size="16" transform="matrix(0.723653 0 0 0.723077 256.715 109)">182</text><text fill="#1F4E79" font-family="Calibri,Calibri_MSFontService,sans-serif" font-weight="400" font-size="16" transform="matrix(0.723653 0 0 0.723077 296.762 97)">191</text><text fill="#1F4E79" font-family="Calibri,Calibri_MSFontService,sans-serif" font-weight="400" font-size="16" transform="matrix(0.723653 0 0 0.723077 336.81 83)">201</text><text fill="#1F4E79" font-family="Calibri,Calibri_MSFontService,sans-serif" font-weight="400" font-size="16" transform="matrix(0.723653 0 0 0.723077 376.858 72)">209</text><text fill="#1F4E79" font-family="Calibri,Calibri_MSFontService,sans-serif" font-weight="400" font-size="16" transform="matrix(0.723653 0 0 0.723077 416.905 61)">217</text><text fill="#1F4E79" font-family="Calibri,Calibri_MSFontService,sans-serif" font-weight="400" font-size="16" transform="matrix(0.723653 0 0 0.723077 456.953 51)">224</text><text fill="#1F4E79" font-family="Calibri,Calibri_MSFontService,sans-serif" font-weight="400" font-size="16" transform="matrix(0.723653 0 0 0.723077 496.998 40)">232</text><text fill="#1F4E79" font-family="Calibri,Calibri_MSFontService,sans-serif" font-weight="400" font-size="16" transform="matrix(0.723653 0 0 0.723077 216.667 145)">167</text><text fill="#1F4E79" font-family="Calibri,Calibri_MSFontService,sans-serif" font-weight="400" font-size="16" transform="matrix(0.723653 0 0 0.723077 256.715 127)">176</text><text fill="#1F4E79" font-family="Calibri,Calibri_MSFontService,sans-serif" font-weight="400" font-size="16" transform="matrix(0.723653 0 0 0.723077 295.797 119)">182</text><text fill="#1F4E79" font-family="Calibri,Calibri_MSFontService,sans-serif" font-weight="400" font-size="16" transform="matrix(0.723653 0 0 0.723077 335.845 108)">188</text><text fill="#1F4E79" font-family="Calibri,Calibri_MSFontService,sans-serif" font-weight="400" font-size="16" transform="matrix(0.723653 0 0 0.723077 375.892 101)">193</text><text fill="#1F4E79" font-family="Calibri,Calibri_MSFontService,sans-serif" font-weight="400" font-size="16" transform="matrix(0.723653 0 0 0.723077 416.905 94)">198</text><text fill="#1F4E79" font-family="Calibri,Calibri_MSFontService,sans-serif" font-weight="400" font-size="16" transform="matrix(0.723653 0 0 0.723077 456.953 87)">202</text><text fill="#1F4E79" font-family="Calibri,Calibri_MSFontService,sans-serif" font-weight="400" font-size="16" transform="matrix(0.723653 0 0 0.723077 496.998 83)">207</text><text fill="#1F4E79" font-family="Calibri,Calibri_MSFontService,sans-serif" font-weight="400" font-size="16" transform="matrix(0.723653 0 0 0.723077 72.3321 146)">167</text><text fill="#1F4E79" font-family="Calibri,Calibri_MSFontService,sans-serif" font-weight="400" font-size="16" transform="matrix(0.723653 0 0 0.723077 99.4567 290)">71</text><text fill="#1F4E79" font-family="Calibri,Calibri_MSFontService,sans-serif" font-weight="400" font-size="16" transform="matrix(0.723653 0 0 0.723077 138.883 262)">90</text><text fill="#1F4E79" font-family="Calibri,Calibri_MSFontService,sans-serif" font-weight="400" font-size="16" transform="matrix(0.723653 0 0 0.723077 176.619 188)">146</text><text fill="#1F4E79" font-family="Calibri,Calibri_MSFontService,sans-serif" font-weight="400" font-size="16" transform="matrix(0.723653 0 0 0.723077 216.667 159)">167</text><text fill="#1F4E79" font-family="Calibri,Calibri_MSFontService,sans-serif" font-weight="400" font-size="16" transform="matrix(0.723653 0 0 0.723077 256.715 153)">171</text><text fill="#1F4E79" font-family="Calibri,Calibri_MSFontService,sans-serif" font-weight="400" font-size="16" transform="matrix(0.723653 0 0 0.723077 296.762 151)">173</text><text fill="#1F4E79" font-family="Calibri,Calibri_MSFontService,sans-serif" font-weight="400" font-size="16" transform="matrix(0.723653 0 0 0.723077 336.81 147)">176</text><text fill="#1F4E79" font-family="Calibri,Calibri_MSFontService,sans-serif" font-weight="400" font-size="16" transform="matrix(0.723653 0 0 0.723077 376.858 144)">178</text><text fill="#1F4E79" font-family="Calibri,Calibri_MSFontService,sans-serif" font-weight="400" font-size="16" transform="matrix(0.723653 0 0 0.723077 416.905 141)">180</text><text fill="#1F4E79" font-family="Calibri,Calibri_MSFontService,sans-serif" font-weight="400" font-size="16" transform="matrix(0.723653 0 0 0.723077 456.953 140)">181</text><text fill="#1F4E79" font-family="Calibri,Calibri_MSFontService,sans-serif" font-weight="400" font-size="16" transform="matrix(0.723653 0 0 0.723077 496.998 137)">183</text><text fill="#7F7F7F" font-family="Calibri,Calibri_MSFontService,sans-serif" font-weight="400" font-size="19" transform="matrix(0.723653 0 0 0.723077 39.052 291)">60</text><text fill="#7F7F7F" font-family="Calibri,Calibri_MSFontService,sans-serif" font-weight="400" font-size="19" transform="matrix(0.723653 0 0 0.723077 39.052 263)">80</text><text fill="#7F7F7F" font-family="Calibri,Calibri_MSFontService,sans-serif" font-weight="400" font-size="19" transform="matrix(0.723653 0 0 0.723077 32.2062 236)">100</text><text fill="#7F7F7F" font-family="Calibri,Calibri_MSFontService,sans-serif" font-weight="400" font-size="19" transform="matrix(0.723653 0 0 0.723077 32.2062 209)">120</text><text fill="#7F7F7F" font-family="Calibri,Calibri_MSFontService,sans-serif" font-weight="400" font-size="19" transform="matrix(0.723653 0 0 0.723077 32.2062 181)">140</text><text fill="#7F7F7F" font-family="Calibri,Calibri_MSFontService,sans-serif" font-weight="400" font-size="19" transform="matrix(0.723653 0 0 0.723077 32.2062 154)">160</text><text fill="#7F7F7F" font-family="Calibri,Calibri_MSFontService,sans-serif" font-weight="400" font-size="19" transform="matrix(0.723653 0 0 0.723077 32.2062 127)">180</text><text fill="#7F7F7F" font-family="Calibri,Calibri_MSFontService,sans-serif" font-weight="400" font-size="19" transform="matrix(0.723653 0 0 0.723077 32.2062 100)">200</text><text fill="#7F7F7F" font-family="Calibri,Calibri_MSFontService,sans-serif" font-weight="400" font-size="19" transform="matrix(0.723653 0 0 0.723077 32.2062 72)">220</text><text fill="#7F7F7F" font-family="Calibri,Calibri_MSFontService,sans-serif" font-weight="400" font-size="19" transform="matrix(0.723653 0 0 0.723077 32.2062 45)">240</text><text fill="#7F7F7F" font-family="Calibri,Calibri_MSFontService,sans-serif" font-weight="400" font-size="19" transform="matrix(0.723653 0 0 0.723077 32.2062 17)">260</text><text fill="#7F7F7F" font-family="Calibri,Calibri_MSFontService,sans-serif" font-weight="400" font-size="19" transform="matrix(0.723653 0 0 0.723077 51.5842 308)">2019</text><text fill="#7F7F7F" font-family="Calibri,Calibri_MSFontService,sans-serif" font-weight="400" font-size="19" transform="matrix(0.723653 0 0 0.723077 91.6319 308)">2020</text><text fill="#7F7F7F" font-family="Calibri,Calibri_MSFontService,sans-serif" font-weight="400" font-size="19" transform="matrix(0.723653 0 0 0.723077 131.68 308)">2021</text><text fill="#7F7F7F" font-family="Calibri,Calibri_MSFontService,sans-serif" font-weight="400" font-size="19" transform="matrix(0.723653 0 0 0.723077 171.727 308)">2022</text><text fill="#7F7F7F" font-family="Calibri,Calibri_MSFontService,sans-serif" font-weight="400" font-size="19" transform="matrix(0.723653 0 0 0.723077 211.775 308)">2023</text><text fill="#7F7F7F" font-family="Calibri,Calibri_MSFontService,sans-serif" font-weight="400" font-size="19" transform="matrix(0.723653 0 0 0.723077 251.823 308)">2024</text><text fill="#7F7F7F" font-family="Calibri,Calibri_MSFontService,sans-serif" font-weight="400" font-size="19" transform="matrix(0.723653 0 0 0.723077 291.87 308)">2025</text><text fill="#7F7F7F" font-family="Calibri,Calibri_MSFontService,sans-serif" font-weight="400" font-size="19" transform="matrix(0.723653 0 0 0.723077 331.918 308)">2026</text><text fill="#7F7F7F" font-family="Calibri,Calibri_MSFontService,sans-serif" font-weight="400" font-size="19" transform="matrix(0.723653 0 0 0.723077 371.966 308)">2027</text><text fill="#7F7F7F" font-family="Calibri,Calibri_MSFontService,sans-serif" font-weight="400" font-size="19" transform="matrix(0.723653 0 0 0.723077 412.014 308)">2028</text><text fill="#7F7F7F" font-family="Calibri,Calibri_MSFontService,sans-serif" font-weight="400" font-size="19" transform="matrix(0.723653 0 0 0.723077 452.061 308)">2029</text><text fill="#7F7F7F" font-family="Calibri,Calibri_MSFontService,sans-serif" font-weight="400" font-size="19" transform="matrix(0.723653 0 0 0.723077 492.106 308)">2030</text><text fill="#7F7F7F" font-family="Calibri,Calibri_MSFontService,sans-serif" font-weight="400" font-size="19" transform="matrix(4.4311e-17 -0.723077 0.723653 4.42757e-17 19.048 86)">TSU in million</text><path d="M765.377 272.238 867.331 272.238 867.331 408.9 765.377 408.9Z" stroke="#F2F2F2" stroke-width="0.723077" stroke-linejoin="round" stroke-miterlimit="10" fill="#F2F2F2" transform="matrix(1.0008 0 0 1 -253.279 -122.2)"/><path d="M770.438 294.654 788.515 294.654" stroke="#B3D235" stroke-width="2.16923" stroke-linecap="round" stroke-linejoin="round" stroke-miterlimit="10" fill="none" fill-rule="evenodd" transform="matrix(1.0008 0 0 1 -253.279 -122.2)"/><path d="M782.369 293.931C782.369 295.728 780.916 297.185 779.115 297.185 777.315 297.185 775.862 295.728 775.862 293.931 775.862 292.134 777.315 290.677 779.115 290.677 780.916 290.677 782.369 292.134 782.369 293.931Z" fill="#B3D235" transform="matrix(1.0008 0 0 1 -253.279 -122.2)"/><text fill="#1F4E79" font-family="Calibri,Calibri_MSFontService,sans-serif" font-weight="400" font-size="19" transform="matrix(0.723653 0 0 0.723077 538.159 176)">High scenario</text><path d="M770.438 340.208 788.515 340.208" stroke="#4F81BD" stroke-width="2.16923" stroke-linecap="round" stroke-linejoin="round" stroke-miterlimit="10" fill="none" fill-rule="evenodd" transform="matrix(1.0008 0 0 1 -253.279 -122.2)"/><path d="M782.369 339.485C782.369 341.281 780.916 342.738 779.115 342.738 777.315 342.738 775.862 341.281 775.862 339.485 775.862 337.688 777.315 336.231 779.115 336.231 780.916 336.231 782.369 337.688 782.369 339.485Z" fill="#4F81BD" transform="matrix(1.0008 0 0 1 -253.279 -122.2)"/><text fill="#1F4E79" font-family="Calibri,Calibri_MSFontService,sans-serif" font-weight="400" font-size="19" transform="matrix(0.723653 0 0 0.723077 538.159 222)">Base scenario</text><path d="M770.438 385.762 788.515 385.762" stroke="#FFC20A" stroke-width="2.16923" stroke-linecap="round" stroke-linejoin="round" stroke-miterlimit="10" fill="none" fill-rule="evenodd" transform="matrix(1.0008 0 0 1 -253.279 -122.2)"/><path d="M782.369 385.038C782.369 386.835 780.916 388.292 779.115 388.292 777.315 388.292 775.862 386.835 775.862 385.038 775.862 383.242 777.315 381.785 779.115 381.785 780.916 381.785 782.369 383.242 782.369 385.038Z" fill="#FFC20A" transform="matrix(1.0008 0 0 1 -253.279 -122.2)"/><text fill="#1F4E79" font-family="Calibri,Calibri_MSFontService,sans-serif" font-weight="400" font-size="19" transform="matrix(0.723653 0 0 0.723077 538.159 268)">Low scenario</text></g></svg>