<svg width="2195" height="1137" xmlns="http://www.w3.org/2000/svg" xmlns:xlink="http://www.w3.org/1999/xlink" xml:space="preserve" overflow="hidden"><defs><clipPath id="clip0"><rect x="699" y="56" width="2195" height="1137"/></clipPath><clipPath id="clip1"><rect x="890" y="102" width="1658" height="992"/></clipPath></defs><g clip-path="url(#clip0)" transform="translate(-699 -56)"><rect x="699" y="56" width="2195" height="1137" fill="#FFFFFF"/><g><path d="M890.5 893.529 2545.5 893.529M890.5 695.523 2545.5 695.523M890.5 497.517 2545.5 497.517M890.5 299.51 2545.5 299.51M890.5 102.5 2545.5 102.5" stroke="#D9D9D9" stroke-width="3.4375" stroke-linejoin="round" stroke-miterlimit="10" fill="none"/></g><g><path d="M890.5 1091.5 2545.5 1091.5" stroke="#D9D9D9" stroke-width="4.58333" stroke-linejoin="round" stroke-miterlimit="10" fill="none" fill-rule="evenodd"/></g><g clip-path="url(#clip1)"><path d="M890 261.338C968.809 259.362 1047.62 257.551 1126.43 255.411 1205.24 253.27 1284.05 221 1362.86 248.496 1441.67 275.991 1520.48 402.766 1599.29 420.383 1678.1 438 1756.9 380.21 1835.71 354.197 1914.52 328.183 1993.33 280.601 2072.14 264.301 2150.95 248.002 2229.76 261.173 2308.57 256.399 2387.38 251.624 2466.19 242.569 2545 235.654" stroke="#4F81BD" stroke-width="10.3125" stroke-linecap="round" stroke-linejoin="round" stroke-miterlimit="10" fill="none"/></g><g><path d="M906.187 261.375C906.187 270.211 899.024 277.375 890.188 277.375 881.351 277.375 874.188 270.211 874.188 261.375 874.188 252.538 881.351 245.375 890.188 245.375 899.024 245.375 906.187 252.538 906.187 261.375Z" fill="#B3D235"/><path d="M1143.19 255.375C1143.19 264.211 1136.02 271.374 1127.19 271.374 1118.35 271.374 1111.19 264.211 1111.19 255.375 1111.19 246.538 1118.35 239.375 1127.19 239.375 1136.02 239.375 1143.19 246.538 1143.19 255.375Z" fill="#B3D235"/><path d="M1379.19 249.375C1379.19 258.211 1372.02 265.375 1363.19 265.375 1354.35 265.375 1347.19 258.211 1347.19 249.375 1347.19 240.538 1354.35 233.375 1363.19 233.375 1372.02 233.375 1379.19 240.538 1379.19 249.375Z" fill="#B3D235"/><path d="M1616.19 421.375C1616.19 430.211 1609.02 437.375 1600.19 437.375 1591.35 437.375 1584.19 430.211 1584.19 421.375 1584.19 412.538 1591.35 405.375 1600.19 405.375 1609.02 405.375 1616.19 412.538 1616.19 421.375Z" fill="#B3D235"/><path d="M1852.19 354.375C1852.19 363.211 1845.02 370.374 1836.19 370.374 1827.35 370.374 1820.19 363.211 1820.19 354.375 1820.19 345.538 1827.35 338.375 1836.19 338.375 1845.02 338.375 1852.19 345.538 1852.19 354.375Z" fill="#B3D235"/><path d="M2088.19 264.375C2088.19 273.211 2081.02 280.375 2072.19 280.375 2063.35 280.375 2056.19 273.211 2056.19 264.375 2056.19 255.539 2063.35 248.375 2072.19 248.375 2081.02 248.375 2088.19 255.539 2088.19 264.375Z" fill="#B3D235"/><path d="M2325.19 256.375C2325.19 265.211 2318.02 272.375 2309.19 272.375 2300.35 272.375 2293.19 265.211 2293.19 256.375 2293.19 247.538 2300.35 240.375 2309.19 240.375 2318.02 240.375 2325.19 247.538 2325.19 256.375Z" fill="#B3D235"/><path d="M2561.19 236.375C2561.19 245.211 2554.02 252.375 2545.19 252.375 2536.35 252.375 2529.19 245.211 2529.19 236.375 2529.19 227.538 2536.35 220.375 2545.19 220.375 2554.02 220.375 2561.19 227.538 2561.19 236.375Z" fill="#B3D235"/></g><g><text fill="#003366" font-family="Calibri,Calibri_MSFontService,sans-serif" font-weight="400" font-size="46" transform="matrix(1 0 0 1 833.347 213)">83.9%</text></g><g><text fill="#003366" font-family="Calibri,Calibri_MSFontService,sans-serif" font-weight="400" font-size="46" transform="matrix(1 0 0 1 1069.74 207)">84.5%</text></g><g><text fill="#003366" font-family="Calibri,Calibri_MSFontService,sans-serif" font-weight="400" font-size="46" transform="matrix(1 0 0 1 1306.13 200)">85.2%</text></g><g><text fill="#003366" font-family="Calibri,Calibri_MSFontService,sans-serif" font-weight="400" font-size="46" transform="matrix(1 0 0 1 1542.52 372)">67.8%</text></g><g><text fill="#003366" font-family="Calibri,Calibri_MSFontService,sans-serif" font-weight="400" font-size="46" transform="matrix(1 0 0 1 1778.91 306)">74.5%</text></g><g><text fill="#003366" font-family="Calibri,Calibri_MSFontService,sans-serif" font-weight="400" font-size="46" transform="matrix(1 0 0 1 2015.3 216)">83.6%</text></g><g><text fill="#003366" font-family="Calibri,Calibri_MSFontService,sans-serif" font-weight="400" font-size="46" transform="matrix(1 0 0 1 2251.69 208)">84.4%</text></g><g><text fill="#003366" font-family="Calibri,Calibri_MSFontService,sans-serif" font-weight="400" font-size="46" transform="matrix(1 0 0 1 2488.08 187)">86.5%</text></g><g><text fill="#404040" font-family="Calibri,Calibri_MSFontService,sans-serif" font-weight="400" font-size="46" transform="matrix(1 0 0 1 791.852 1105)">0%</text></g><g><text fill="#404040" font-family="Calibri,Calibri_MSFontService,sans-serif" font-weight="400" font-size="46" transform="matrix(1 0 0 1 768.615 907)">20%</text></g><g><text fill="#404040" font-family="Calibri,Calibri_MSFontService,sans-serif" font-weight="400" font-size="46" transform="matrix(1 0 0 1 768.615 709)">40%</text></g><g><text fill="#404040" font-family="Calibri,Calibri_MSFontService,sans-serif" font-weight="400" font-size="46" transform="matrix(1 0 0 1 768.615 511)">60%</text></g><g><text fill="#404040" font-family="Calibri,Calibri_MSFontService,sans-serif" font-weight="400" font-size="46" transform="matrix(1 0 0 1 768.615 313)">80%</text></g><g><text fill="#404040" font-family="Calibri,Calibri_MSFontService,sans-serif" font-weight="400" font-size="46" transform="matrix(1 0 0 1 745.377 116)">100%</text></g><g><text fill="#404040" font-family="Calibri,Calibri_MSFontService,sans-serif" font-weight="400" font-size="46" transform="matrix(1 0 0 1 843.9 1165)">2017</text></g><g><text fill="#404040" font-family="Calibri,Calibri_MSFontService,sans-serif" font-weight="400" font-size="46" transform="matrix(1 0 0 1 1080.29 1165)">2018</text></g><g><text fill="#404040" font-family="Calibri,Calibri_MSFontService,sans-serif" font-weight="400" font-size="46" transform="matrix(1 0 0 1 1316.68 1165)">2019</text></g><g><text fill="#404040" font-family="Calibri,Calibri_MSFontService,sans-serif" font-weight="400" font-size="46" transform="matrix(1 0 0 1 1553.07 1165)">2020</text></g><g><text fill="#404040" font-family="Calibri,Calibri_MSFontService,sans-serif" font-weight="400" font-size="46" transform="matrix(1 0 0 1 1789.46 1165)">2021</text></g><g><text fill="#404040" font-family="Calibri,Calibri_MSFontService,sans-serif" font-weight="400" font-size="46" transform="matrix(1 0 0 1 2025.85 1165)">2022</text></g><g><text fill="#404040" font-family="Calibri,Calibri_MSFontService,sans-serif" font-weight="400" font-size="46" transform="matrix(1 0 0 1 2262.24 1165)">2023</text></g><g><text fill="#404040" font-family="Calibri,Calibri_MSFontService,sans-serif" font-weight="400" font-size="46" transform="matrix(1 0 0 1 2498.63 1165)">2024</text></g><g><rect x="2616.5" y="98.5002" width="267" height="1001" stroke="#F2F2F2" stroke-width="3.4375" stroke-linejoin="round" stroke-miterlimit="10" fill="#F2F2F2"/></g><g><path d="M2654 571 2742 571" stroke="#4F81BD" stroke-width="10.3125" stroke-linecap="round" stroke-linejoin="round" stroke-miterlimit="10" fill="none" fill-rule="evenodd"/></g><g><path d="M2711 570.5C2711 577.956 2704.96 584 2697.5 584 2690.04 584 2684 577.956 2684 570.5 2684 563.044 2690.04 557 2697.5 557 2704.96 557 2711 563.044 2711 570.5Z" fill="#B3D235"/></g><g><text fill="#404040" font-family="Calibri,Calibri_MSFontService,sans-serif" font-weight="400" font-size="46" transform="matrix(1 0 0 1 2751.72 585)">Load</text></g><g><text fill="#404040" font-family="Calibri,Calibri_MSFontService,sans-serif" font-weight="400" font-size="46" transform="matrix(1 0 0 1 2751.72 641)">factor</text></g></g></svg>