<svg width="2103" height="1123" xmlns="http://www.w3.org/2000/svg" xmlns:xlink="http://www.w3.org/1999/xlink" xml:space="preserve" overflow="hidden"><defs><clipPath id="clip0"><rect x="699" y="56" width="2103" height="1123"/></clipPath></defs><g clip-path="url(#clip0)" transform="translate(-699 -56)"><rect x="699" y="56" width="2103" height="1123" fill="#FFFFFF"/><g><path d="M882.5 883.529 2467.5 883.529M882.5 687.523 2467.5 687.523M882.5 492.516 2467.5 492.516M882.5 296.51 2467.5 296.51M882.5 101.5 2467.5 101.5" stroke="#D9D9D9" stroke-width="3.4375" stroke-linejoin="round" stroke-miterlimit="10" fill="none"/></g><g><path d="M882.5 1078.5 2467.5 1078.5" stroke="#D9D9D9" stroke-width="4.58333" stroke-linejoin="round" stroke-miterlimit="10" fill="none" fill-rule="evenodd"/></g><g><path d="M882 271.577C970.056 271.577 1058.11 272.716 1146.17 271.577 1234.22 270.438 1322.28 227 1410.33 264.744 1498.39 302.488 1586.44 469.083 1674.5 498.041 1762.56 527 1850.61 472.499 1938.67 438.497 2026.72 404.495 2114.78 324.125 2202.83 294.028 2290.89 263.93 2378.94 269.95 2467 257.911" stroke="#4F81BD" stroke-width="10.3125" stroke-linecap="round" stroke-linejoin="round" stroke-miterlimit="10" fill="none"/></g><g><path d="M898.188 272.375C898.188 281.211 891.024 288.374 882.188 288.374 873.351 288.374 866.188 281.211 866.188 272.375 866.188 263.538 873.351 256.375 882.188 256.375 891.024 256.375 898.188 263.538 898.188 272.375Z" fill="#B3D235"/><path d="M1162.19 272.375C1162.19 281.211 1155.02 288.374 1146.19 288.374 1137.35 288.374 1130.19 281.211 1130.19 272.375 1130.19 263.538 1137.35 256.375 1146.19 256.375 1155.02 256.375 1162.19 263.538 1162.19 272.375Z" fill="#B3D235"/><path d="M1427.19 265.374C1427.19 274.211 1420.02 281.374 1411.19 281.374 1402.35 281.374 1395.19 274.211 1395.19 265.374 1395.19 256.538 1402.35 249.374 1411.19 249.374 1420.02 249.374 1427.19 256.538 1427.19 265.374Z" fill="#B3D235"/><path d="M1691.19 498.374C1691.19 507.211 1684.02 514.374 1675.19 514.374 1666.35 514.374 1659.19 507.211 1659.19 498.374 1659.19 489.538 1666.35 482.375 1675.19 482.375 1684.02 482.375 1691.19 489.538 1691.19 498.374Z" fill="#B3D235"/><path d="M1955.19 439.375C1955.19 448.211 1948.02 455.374 1939.19 455.374 1930.35 455.374 1923.19 448.211 1923.19 439.375 1923.19 430.538 1930.35 423.375 1939.19 423.375 1948.02 423.375 1955.19 430.538 1955.19 439.375Z" fill="#B3D235"/><path d="M2219.19 294.375C2219.19 303.211 2212.02 310.374 2203.19 310.374 2194.35 310.374 2187.19 303.211 2187.19 294.375 2187.19 285.538 2194.35 278.375 2203.19 278.375 2212.02 278.375 2219.19 285.538 2219.19 294.375Z" fill="#B3D235"/><path d="M2483.19 258.374C2483.19 267.211 2476.02 274.374 2467.19 274.374 2458.35 274.374 2451.19 267.211 2451.19 258.374 2451.19 249.538 2458.35 242.375 2467.19 242.375 2476.02 242.375 2483.19 249.538 2483.19 258.374Z" fill="#B3D235"/></g><g><text fill="#003366" font-family="Calibri,Calibri_MSFontService,sans-serif" font-weight="400" font-size="46" transform="matrix(1 0 0 1 825.264 223)">82.6%</text></g><g><text fill="#003366" font-family="Calibri,Calibri_MSFontService,sans-serif" font-weight="400" font-size="46" transform="matrix(1 0 0 1 1089.39 223)">82.6%</text></g><g><text fill="#003366" font-family="Calibri,Calibri_MSFontService,sans-serif" font-weight="400" font-size="46" transform="matrix(1 0 0 1 1353.52 216)">83.3%</text></g><g><text fill="#003366" font-family="Calibri,Calibri_MSFontService,sans-serif" font-weight="400" font-size="46" transform="matrix(1 0 0 1 1617.65 450)">59.4%</text></g><g><text fill="#003366" font-family="Calibri,Calibri_MSFontService,sans-serif" font-weight="400" font-size="46" transform="matrix(1 0 0 1 1881.78 390)">65.5%</text></g><g><text fill="#003366" font-family="Calibri,Calibri_MSFontService,sans-serif" font-weight="400" font-size="46" transform="matrix(1 0 0 1 2145.9 245)">80.3%</text></g><g><text fill="#003366" font-family="Calibri,Calibri_MSFontService,sans-serif" font-weight="400" font-size="46" transform="matrix(1 0 0 1 2410.03 209)">84.0%</text></g><g><text fill="#404040" font-family="Calibri,Calibri_MSFontService,sans-serif" font-weight="400" font-size="46" transform="matrix(1 0 0 1 783.769 1092)">0%</text></g><g><text fill="#404040" font-family="Calibri,Calibri_MSFontService,sans-serif" font-weight="400" font-size="46" transform="matrix(1 0 0 1 760.532 897)">20%</text></g><g><text fill="#404040" font-family="Calibri,Calibri_MSFontService,sans-serif" font-weight="400" font-size="46" transform="matrix(1 0 0 1 760.532 701)">40%</text></g><g><text fill="#404040" font-family="Calibri,Calibri_MSFontService,sans-serif" font-weight="400" font-size="46" transform="matrix(1 0 0 1 760.532 506)">60%</text></g><g><text fill="#404040" font-family="Calibri,Calibri_MSFontService,sans-serif" font-weight="400" font-size="46" transform="matrix(1 0 0 1 760.532 311)">80%</text></g><g><text fill="#404040" font-family="Calibri,Calibri_MSFontService,sans-serif" font-weight="400" font-size="46" transform="matrix(1 0 0 1 737.294 115)">100%</text></g><g><text fill="#404040" font-family="Calibri,Calibri_MSFontService,sans-serif" font-weight="400" font-size="46" transform="matrix(1 0 0 1 835.817 1152)">2017</text></g><g><text fill="#404040" font-family="Calibri,Calibri_MSFontService,sans-serif" font-weight="400" font-size="46" transform="matrix(1 0 0 1 1099.95 1152)">2018</text></g><g><text fill="#404040" font-family="Calibri,Calibri_MSFontService,sans-serif" font-weight="400" font-size="46" transform="matrix(1 0 0 1 1364.07 1152)">2019</text></g><g><text fill="#404040" font-family="Calibri,Calibri_MSFontService,sans-serif" font-weight="400" font-size="46" transform="matrix(1 0 0 1 1628.2 1152)">2020</text></g><g><text fill="#404040" font-family="Calibri,Calibri_MSFontService,sans-serif" font-weight="400" font-size="46" transform="matrix(1 0 0 1 1892.33 1152)">2021</text></g><g><text fill="#404040" font-family="Calibri,Calibri_MSFontService,sans-serif" font-weight="400" font-size="46" transform="matrix(1 0 0 1 2156.46 1152)">2022</text></g><g><text fill="#404040" font-family="Calibri,Calibri_MSFontService,sans-serif" font-weight="400" font-size="46" transform="matrix(1 0 0 1 2420.58 1152)">2023</text></g><g><rect x="2536.5" y="98.5002" width="255" height="988" stroke="#F2F2F2" stroke-width="3.4375" stroke-linejoin="round" stroke-miterlimit="10" fill="#F2F2F2"/></g><g><path d="M2568 565 2656 565" stroke="#4F81BD" stroke-width="10.3125" stroke-linecap="round" stroke-linejoin="round" stroke-miterlimit="10" fill="none" fill-rule="evenodd"/></g><g><path d="M2624 563.5C2624 570.956 2617.96 577 2610.5 577 2603.04 577 2597 570.956 2597 563.5 2597 556.044 2603.04 550 2610.5 550 2617.96 550 2624 556.044 2624 563.5Z" fill="#B3D235"/></g><g><text fill="#404040" font-family="Calibri,Calibri_MSFontService,sans-serif" font-weight="400" font-size="46" transform="matrix(1 0 0 1 2665.14 578)">Load</text></g><g><text fill="#404040" font-family="Calibri,Calibri_MSFontService,sans-serif" font-weight="400" font-size="46" transform="matrix(1 0 0 1 2665.14 634)">factor</text></g></g></svg>