<svg width="2103" height="1123" xmlns="http://www.w3.org/2000/svg" xmlns:xlink="http://www.w3.org/1999/xlink" xml:space="preserve" overflow="hidden"><defs><clipPath id="clip0"><rect x="699" y="56" width="2103" height="1123"/></clipPath></defs><g clip-path="url(#clip0)" transform="translate(-699 -56)"><rect x="699" y="56" width="2103" height="1123" fill="#FFFFFF"/><g><path d="M882.5 883.529 2467.5 883.529M882.5 687.523 2467.5 687.523M882.5 492.516 2467.5 492.516M882.5 296.51 2467.5 296.51M882.5 101.5 2467.5 101.5" stroke="#D9D9D9" stroke-width="3.4375" stroke-linejoin="round" stroke-miterlimit="10" fill="none"/></g><g><path d="M882.5 1078.5 2467.5 1078.5" stroke="#D9D9D9" stroke-width="4.58333" stroke-linejoin="round" stroke-miterlimit="10" fill="none" fill-rule="evenodd"/></g><g><path d="M882 271.577C987.667 271.577 1093.33 272.716 1199 271.577 1304.67 270.438 1410.33 227 1516 264.744 1621.67 302.488 1727.33 469.083 1833 498.041 1938.67 527 2044.33 472.499 2150 438.497 2255.67 404.495 2361.33 342.184 2467 294.028" stroke="#4F81BD" stroke-width="10.3125" stroke-linecap="round" stroke-linejoin="round" stroke-miterlimit="10" fill="none"/></g><g><path d="M898.188 272.375C898.188 281.211 891.024 288.374 882.188 288.374 873.351 288.374 866.188 281.211 866.188 272.375 866.188 263.538 873.351 256.375 882.188 256.375 891.024 256.375 898.188 263.538 898.188 272.375Z" fill="#B3D235"/><path d="M1215.19 272.375C1215.19 281.211 1208.02 288.374 1199.19 288.374 1190.35 288.374 1183.19 281.211 1183.19 272.375 1183.19 263.538 1190.35 256.375 1199.19 256.375 1208.02 256.375 1215.19 263.538 1215.19 272.375Z" fill="#B3D235"/><path d="M1532.19 265.374C1532.19 274.211 1525.02 281.374 1516.19 281.374 1507.35 281.374 1500.19 274.211 1500.19 265.374 1500.19 256.538 1507.35 249.374 1516.19 249.374 1525.02 249.374 1532.19 256.538 1532.19 265.374Z" fill="#B3D235"/><path d="M1849.19 498.374C1849.19 507.211 1842.02 514.374 1833.19 514.374 1824.35 514.374 1817.19 507.211 1817.19 498.374 1817.19 489.538 1824.35 482.375 1833.19 482.375 1842.02 482.375 1849.19 489.538 1849.19 498.374Z" fill="#B3D235"/><path d="M2166.19 439.375C2166.19 448.211 2159.02 455.374 2150.19 455.374 2141.35 455.374 2134.19 448.211 2134.19 439.375 2134.19 430.538 2141.35 423.375 2150.19 423.375 2159.02 423.375 2166.19 430.538 2166.19 439.375Z" fill="#B3D235"/><path d="M2483.19 294.375C2483.19 303.211 2476.02 310.374 2467.19 310.374 2458.35 310.374 2451.19 303.211 2451.19 294.375 2451.19 285.538 2458.35 278.375 2467.19 278.375 2476.02 278.375 2483.19 285.538 2483.19 294.375Z" fill="#B3D235"/></g><g><text fill="#003366" font-family="Calibri,Calibri_MSFontService,sans-serif" font-weight="400" font-size="46" transform="matrix(1 0 0 1 825.264 223)">82.6%</text></g><g><text fill="#003366" font-family="Calibri,Calibri_MSFontService,sans-serif" font-weight="400" font-size="46" transform="matrix(1 0 0 1 1142.22 223)">82.6%</text></g><g><text fill="#003366" font-family="Calibri,Calibri_MSFontService,sans-serif" font-weight="400" font-size="46" transform="matrix(1 0 0 1 1459.17 216)">83.3%</text></g><g><text fill="#003366" font-family="Calibri,Calibri_MSFontService,sans-serif" font-weight="400" font-size="46" transform="matrix(1 0 0 1 1776.12 450)">59.4%</text></g><g><text fill="#003366" font-family="Calibri,Calibri_MSFontService,sans-serif" font-weight="400" font-size="46" transform="matrix(1 0 0 1 2093.08 390)">65.5%</text></g><g><text fill="#003366" font-family="Calibri,Calibri_MSFontService,sans-serif" font-weight="400" font-size="46" transform="matrix(1 0 0 1 2410.03 245)">80.3%</text></g><g><text fill="#404040" font-family="Calibri,Calibri_MSFontService,sans-serif" font-weight="400" font-size="46" transform="matrix(1 0 0 1 783.769 1092)">0%</text></g><g><text fill="#404040" font-family="Calibri,Calibri_MSFontService,sans-serif" font-weight="400" font-size="46" transform="matrix(1 0 0 1 760.532 897)">20%</text></g><g><text fill="#404040" font-family="Calibri,Calibri_MSFontService,sans-serif" font-weight="400" font-size="46" transform="matrix(1 0 0 1 760.532 701)">40%</text></g><g><text fill="#404040" font-family="Calibri,Calibri_MSFontService,sans-serif" font-weight="400" font-size="46" transform="matrix(1 0 0 1 760.532 506)">60%</text></g><g><text fill="#404040" font-family="Calibri,Calibri_MSFontService,sans-serif" font-weight="400" font-size="46" transform="matrix(1 0 0 1 760.532 311)">80%</text></g><g><text fill="#404040" font-family="Calibri,Calibri_MSFontService,sans-serif" font-weight="400" font-size="46" transform="matrix(1 0 0 1 737.294 115)">100%</text></g><g><text fill="#404040" font-family="Calibri,Calibri_MSFontService,sans-serif" font-weight="400" font-size="46" transform="matrix(1 0 0 1 835.817 1152)">2017</text></g><g><text fill="#404040" font-family="Calibri,Calibri_MSFontService,sans-serif" font-weight="400" font-size="46" transform="matrix(1 0 0 1 1152.77 1152)">2018</text></g><g><text fill="#404040" font-family="Calibri,Calibri_MSFontService,sans-serif" font-weight="400" font-size="46" transform="matrix(1 0 0 1 1469.72 1152)">2019</text></g><g><text fill="#404040" font-family="Calibri,Calibri_MSFontService,sans-serif" font-weight="400" font-size="46" transform="matrix(1 0 0 1 1786.68 1152)">2020</text></g><g><text fill="#404040" font-family="Calibri,Calibri_MSFontService,sans-serif" font-weight="400" font-size="46" transform="matrix(1 0 0 1 2103.63 1152)">2021</text></g><g><text fill="#404040" font-family="Calibri,Calibri_MSFontService,sans-serif" font-weight="400" font-size="46" transform="matrix(1 0 0 1 2420.58 1152)">2022</text></g><g><rect x="2536.5" y="98.5002" width="255" height="988" stroke="#F2F2F2" stroke-width="3.4375" stroke-linejoin="round" stroke-miterlimit="10" fill="#F2F2F2"/></g><g><path d="M2568 565 2656 565" stroke="#4F81BD" stroke-width="10.3125" stroke-linecap="round" stroke-linejoin="round" stroke-miterlimit="10" fill="none" fill-rule="evenodd"/></g><g><path d="M2624 563.5C2624 570.956 2617.96 577 2610.5 577 2603.04 577 2597 570.956 2597 563.5 2597 556.044 2603.04 550 2610.5 550 2617.96 550 2624 556.044 2624 563.5Z" fill="#B3D235"/></g><g><text fill="#404040" font-family="Calibri,Calibri_MSFontService,sans-serif" font-weight="400" font-size="46" transform="matrix(1 0 0 1 2665.14 578)">Load</text></g><g><text fill="#404040" font-family="Calibri,Calibri_MSFontService,sans-serif" font-weight="400" font-size="46" transform="matrix(1 0 0 1 2665.14 634)">factor</text></g></g></svg>