<svg width="2195" height="1137" xmlns="http://www.w3.org/2000/svg" xmlns:xlink="http://www.w3.org/1999/xlink" xml:space="preserve" overflow="hidden"><defs><clipPath id="clip0"><rect x="699" y="56" width="2195" height="1137"/></clipPath><clipPath id="clip1"><rect x="890" y="102" width="1658" height="992"/></clipPath></defs><g clip-path="url(#clip0)" transform="translate(-699 -56)"><rect x="699" y="56" width="2195" height="1137" fill="#FFFFFF"/><g><path d="M890.5 893.529 2545.5 893.529M890.5 695.523 2545.5 695.523M890.5 497.517 2545.5 497.517M890.5 299.51 2545.5 299.51M890.5 102.5 2545.5 102.5" stroke="#D9D9D9" stroke-width="3.4375" stroke-linejoin="round" stroke-miterlimit="10" fill="none"/></g><g><path d="M890.5 1091.5 2545.5 1091.5" stroke="#D9D9D9" stroke-width="4.58333" stroke-linejoin="round" stroke-miterlimit="10" fill="none" fill-rule="evenodd"/></g><g clip-path="url(#clip1)"><path d="M890 261.338C1000.33 259.362 1110.67 257.551 1221 255.411 1331.33 253.27 1441.67 221 1552 248.496 1662.33 275.991 1772.67 402.766 1883 420.383 1993.33 438 2103.67 380.21 2214 354.197 2324.33 328.183 2434.67 294.266 2545 264.301" stroke="#4F81BD" stroke-width="10.3125" stroke-linecap="round" stroke-linejoin="round" stroke-miterlimit="10" fill="none"/></g><g><path d="M906.187 261.375C906.187 270.211 899.024 277.375 890.188 277.375 881.351 277.375 874.188 270.211 874.188 261.375 874.188 252.538 881.351 245.375 890.188 245.375 899.024 245.375 906.187 252.538 906.187 261.375Z" fill="#B3D235"/><path d="M1237.19 255.375C1237.19 264.211 1230.02 271.374 1221.19 271.374 1212.35 271.374 1205.19 264.211 1205.19 255.375 1205.19 246.538 1212.35 239.375 1221.19 239.375 1230.02 239.375 1237.19 246.538 1237.19 255.375Z" fill="#B3D235"/><path d="M1568.19 249.375C1568.19 258.211 1561.02 265.375 1552.19 265.375 1543.35 265.375 1536.19 258.211 1536.19 249.375 1536.19 240.538 1543.35 233.375 1552.19 233.375 1561.02 233.375 1568.19 240.538 1568.19 249.375Z" fill="#B3D235"/><path d="M1899.19 421.375C1899.19 430.211 1892.02 437.375 1883.19 437.375 1874.35 437.375 1867.19 430.211 1867.19 421.375 1867.19 412.538 1874.35 405.375 1883.19 405.375 1892.02 405.375 1899.19 412.538 1899.19 421.375Z" fill="#B3D235"/><path d="M2230.19 354.375C2230.19 363.211 2223.02 370.374 2214.19 370.374 2205.35 370.374 2198.19 363.211 2198.19 354.375 2198.19 345.538 2205.35 338.375 2214.19 338.375 2223.02 338.375 2230.19 345.538 2230.19 354.375Z" fill="#B3D235"/><path d="M2561.19 264.375C2561.19 273.211 2554.02 280.375 2545.19 280.375 2536.35 280.375 2529.19 273.211 2529.19 264.375 2529.19 255.539 2536.35 248.375 2545.19 248.375 2554.02 248.375 2561.19 255.539 2561.19 264.375Z" fill="#B3D235"/></g><g><text fill="#003366" font-family="Calibri,Calibri_MSFontService,sans-serif" font-weight="400" font-size="46" transform="matrix(1 0 0 1 833.347 213)">83.9%</text></g><g><text fill="#003366" font-family="Calibri,Calibri_MSFontService,sans-serif" font-weight="400" font-size="46" transform="matrix(1 0 0 1 1164.29 207)">84.5%</text></g><g><text fill="#003366" font-family="Calibri,Calibri_MSFontService,sans-serif" font-weight="400" font-size="46" transform="matrix(1 0 0 1 1495.24 200)">85.2%</text></g><g><text fill="#003366" font-family="Calibri,Calibri_MSFontService,sans-serif" font-weight="400" font-size="46" transform="matrix(1 0 0 1 1826.18 372)">67.8%</text></g><g><text fill="#003366" font-family="Calibri,Calibri_MSFontService,sans-serif" font-weight="400" font-size="46" transform="matrix(1 0 0 1 2157.13 306)">74.5%</text></g><g><text fill="#003366" font-family="Calibri,Calibri_MSFontService,sans-serif" font-weight="400" font-size="46" transform="matrix(1 0 0 1 2488.08 216)">83.6%</text></g><g><text fill="#404040" font-family="Calibri,Calibri_MSFontService,sans-serif" font-weight="400" font-size="46" transform="matrix(1 0 0 1 791.852 1105)">0%</text></g><g><text fill="#404040" font-family="Calibri,Calibri_MSFontService,sans-serif" font-weight="400" font-size="46" transform="matrix(1 0 0 1 768.615 907)">20%</text></g><g><text fill="#404040" font-family="Calibri,Calibri_MSFontService,sans-serif" font-weight="400" font-size="46" transform="matrix(1 0 0 1 768.615 709)">40%</text></g><g><text fill="#404040" font-family="Calibri,Calibri_MSFontService,sans-serif" font-weight="400" font-size="46" transform="matrix(1 0 0 1 768.615 511)">60%</text></g><g><text fill="#404040" font-family="Calibri,Calibri_MSFontService,sans-serif" font-weight="400" font-size="46" transform="matrix(1 0 0 1 768.615 313)">80%</text></g><g><text fill="#404040" font-family="Calibri,Calibri_MSFontService,sans-serif" font-weight="400" font-size="46" transform="matrix(1 0 0 1 745.377 116)">100%</text></g><g><text fill="#404040" font-family="Calibri,Calibri_MSFontService,sans-serif" font-weight="400" font-size="46" transform="matrix(1 0 0 1 843.9 1165)">2017</text></g><g><text fill="#404040" font-family="Calibri,Calibri_MSFontService,sans-serif" font-weight="400" font-size="46" transform="matrix(1 0 0 1 1174.85 1165)">2018</text></g><g><text fill="#404040" font-family="Calibri,Calibri_MSFontService,sans-serif" font-weight="400" font-size="46" transform="matrix(1 0 0 1 1505.79 1165)">2019</text></g><g><text fill="#404040" font-family="Calibri,Calibri_MSFontService,sans-serif" font-weight="400" font-size="46" transform="matrix(1 0 0 1 1836.74 1165)">2020</text></g><g><text fill="#404040" font-family="Calibri,Calibri_MSFontService,sans-serif" font-weight="400" font-size="46" transform="matrix(1 0 0 1 2167.68 1165)">2021</text></g><g><text fill="#404040" font-family="Calibri,Calibri_MSFontService,sans-serif" font-weight="400" font-size="46" transform="matrix(1 0 0 1 2498.63 1165)">2022</text></g><g><rect x="2616.5" y="98.5002" width="267" height="1001" stroke="#F2F2F2" stroke-width="3.4375" stroke-linejoin="round" stroke-miterlimit="10" fill="#F2F2F2"/></g><g><path d="M2654 571 2742 571" stroke="#4F81BD" stroke-width="10.3125" stroke-linecap="round" stroke-linejoin="round" stroke-miterlimit="10" fill="none" fill-rule="evenodd"/></g><g><path d="M2711 570.5C2711 577.956 2704.96 584 2697.5 584 2690.04 584 2684 577.956 2684 570.5 2684 563.044 2690.04 557 2697.5 557 2704.96 557 2711 563.044 2711 570.5Z" fill="#B3D235"/></g><g><text fill="#404040" font-family="Calibri,Calibri_MSFontService,sans-serif" font-weight="400" font-size="46" transform="matrix(1 0 0 1 2751.72 585)">Load</text></g><g><text fill="#404040" font-family="Calibri,Calibri_MSFontService,sans-serif" font-weight="400" font-size="46" transform="matrix(1 0 0 1 2751.72 641)">factor</text></g></g></svg>