<svg width="2272" height="1163" xmlns="http://www.w3.org/2000/svg" xmlns:xlink="http://www.w3.org/1999/xlink" xml:space="preserve" overflow="hidden"><defs><clipPath id="clip0"><rect x="673" y="50" width="2272" height="1163"/></clipPath></defs><g clip-path="url(#clip0)" transform="translate(-673 -50)"><rect x="673" y="50.9999" width="2272" height="1162" fill="#FFFFFF"/><g><path d="M870.5 906.53 2552.5 906.53M870.5 704.523 2552.5 704.523M870.5 502.517 2552.5 502.517M870.5 299.51 2552.5 299.51M870.5 97.5001 2552.5 97.5001" stroke="#D9D9D9" stroke-width="3.4375" stroke-linejoin="round" stroke-miterlimit="10" fill="none"/></g><g><path d="M870.5 1109.5 2552.5 1109.5" stroke="#D9D9D9" stroke-width="4.58333" stroke-linejoin="round" stroke-miterlimit="10" fill="none" fill-rule="evenodd"/></g><g><path d="M871 640C964.389 613.296 1057.78 568.845 1151.17 559.887 1244.56 550.93 1337.94 595.38 1431.33 586.253 1524.72 577.127 1618.11 531.324 1711.5 505.127 1804.89 478.929 1898.28 424 1991.67 429.07 2085.06 434.14 2178.44 509.859 2271.83 535.549 2365.22 561.239 2458.61 567.324 2552 583.211" stroke="#4F81BD" stroke-width="10.3125" stroke-linecap="round" stroke-linejoin="round" stroke-miterlimit="10" fill="none"/></g><g><path d="M887.062 639.875C887.062 648.711 879.899 655.875 871.062 655.875 862.226 655.875 855.063 648.711 855.063 639.875 855.063 631.038 862.226 623.875 871.062 623.875 879.899 623.875 887.062 631.038 887.062 639.875Z" fill="#FFC20A"/><path d="M1167.06 559.875C1167.06 568.712 1159.9 575.875 1151.06 575.875 1142.23 575.875 1135.06 568.712 1135.06 559.875 1135.06 551.039 1142.23 543.875 1151.06 543.875 1159.9 543.875 1167.06 551.039 1167.06 559.875Z" fill="#FFC20A"/><path d="M1447.06 585.875C1447.06 594.711 1439.9 601.875 1431.06 601.875 1422.23 601.875 1415.06 594.711 1415.06 585.875 1415.06 577.038 1422.23 569.875 1431.06 569.875 1439.9 569.875 1447.06 577.038 1447.06 585.875Z" fill="#FFC20A"/><path d="M1728.06 504.875C1728.06 513.712 1720.9 520.875 1712.06 520.875 1703.23 520.875 1696.06 513.712 1696.06 504.875 1696.06 496.039 1703.23 488.875 1712.06 488.875 1720.9 488.875 1728.06 496.039 1728.06 504.875Z" fill="#FFC20A"/><path d="M2008.06 428.875C2008.06 437.712 2000.9 444.875 1992.06 444.875 1983.23 444.875 1976.06 437.712 1976.06 428.875 1976.06 420.039 1983.23 412.875 1992.06 412.875 2000.9 412.875 2008.06 420.039 2008.06 428.875Z" fill="#FFC20A"/><path d="M2288.06 535.875C2288.06 544.711 2280.9 551.875 2272.06 551.875 2263.23 551.875 2256.06 544.711 2256.06 535.875 2256.06 527.039 2263.23 519.875 2272.06 519.875 2280.9 519.875 2288.06 527.039 2288.06 535.875Z" fill="#FFC20A"/><path d="M2568.06 582.875C2568.06 591.712 2560.9 598.875 2552.06 598.875 2543.23 598.875 2536.06 591.712 2536.06 582.875 2536.06 574.039 2543.23 566.875 2552.06 566.875 2560.9 566.875 2568.06 574.039 2568.06 582.875Z" fill="#FFC20A"/></g><g><text fill="#003366" font-family="Calibri,Calibri_MSFontService,sans-serif" font-weight="400" font-size="50" transform="matrix(1 0 0 1 808.185 590)">46.4%</text></g><g><text fill="#003366" font-family="Calibri,Calibri_MSFontService,sans-serif" font-weight="400" font-size="50" transform="matrix(1 0 0 1 1088.4 510)">54.3%</text></g><g><text fill="#003366" font-family="Calibri,Calibri_MSFontService,sans-serif" font-weight="400" font-size="50" transform="matrix(1 0 0 1 1368.62 536)">51.7%</text></g><g><text fill="#003366" font-family="Calibri,Calibri_MSFontService,sans-serif" font-weight="400" font-size="50" transform="matrix(1 0 0 1 1648.84 455)">59.7%</text></g><g><text fill="#003366" font-family="Calibri,Calibri_MSFontService,sans-serif" font-weight="400" font-size="50" transform="matrix(1 0 0 1 1929.06 379)">67.2%</text></g><g><text fill="#003366" font-family="Calibri,Calibri_MSFontService,sans-serif" font-weight="400" font-size="50" transform="matrix(1 0 0 1 2209.27 485)">56.7%</text></g><g><text fill="#003366" font-family="Calibri,Calibri_MSFontService,sans-serif" font-weight="400" font-size="50" transform="matrix(1 0 0 1 2489.49 533)">52.0%</text></g><g><text fill="#404040" font-family="Calibri,Calibri_MSFontService,sans-serif" font-weight="400" font-size="50" transform="matrix(1 0 0 1 762.516 1124)">0%</text></g><g><text fill="#404040" font-family="Calibri,Calibri_MSFontService,sans-serif" font-weight="400" font-size="50" transform="matrix(1 0 0 1 736.964 921)">20%</text></g><g><text fill="#404040" font-family="Calibri,Calibri_MSFontService,sans-serif" font-weight="400" font-size="50" transform="matrix(1 0 0 1 736.964 719)">40%</text></g><g><text fill="#404040" font-family="Calibri,Calibri_MSFontService,sans-serif" font-weight="400" font-size="50" transform="matrix(1 0 0 1 736.964 517)">60%</text></g><g><text fill="#404040" font-family="Calibri,Calibri_MSFontService,sans-serif" font-weight="400" font-size="50" transform="matrix(1 0 0 1 736.964 314)">80%</text></g><g><text fill="#404040" font-family="Calibri,Calibri_MSFontService,sans-serif" font-weight="400" font-size="50" transform="matrix(1 0 0 1 711.411 112)">100%</text></g><g><text fill="#404040" font-family="Calibri,Calibri_MSFontService,sans-serif" font-weight="400" font-size="50" transform="matrix(1 0 0 1 819.792 1189)">2017</text></g><g><text fill="#404040" font-family="Calibri,Calibri_MSFontService,sans-serif" font-weight="400" font-size="50" transform="matrix(1 0 0 1 1100.01 1189)">2018</text></g><g><text fill="#404040" font-family="Calibri,Calibri_MSFontService,sans-serif" font-weight="400" font-size="50" transform="matrix(1 0 0 1 1380.23 1189)">2019</text></g><g><text fill="#404040" font-family="Calibri,Calibri_MSFontService,sans-serif" font-weight="400" font-size="50" transform="matrix(1 0 0 1 1660.45 1189)">2020</text></g><g><text fill="#404040" font-family="Calibri,Calibri_MSFontService,sans-serif" font-weight="400" font-size="50" transform="matrix(1 0 0 1 1940.66 1189)">2021</text></g><g><text fill="#404040" font-family="Calibri,Calibri_MSFontService,sans-serif" font-weight="400" font-size="50" transform="matrix(1 0 0 1 2220.88 1189)">2022</text></g><g><text fill="#404040" font-family="Calibri,Calibri_MSFontService,sans-serif" font-weight="400" font-size="50" transform="matrix(1 0 0 1 2501.1 1189)">2023</text></g><g><rect x="2631.5" y="94.5" width="302" height="1023" stroke="#F2F2F2" stroke-width="3.4375" stroke-linejoin="round" stroke-miterlimit="10" fill="#F2F2F2"/></g><g><path d="M2681 575 2769 575" stroke="#4F81BD" stroke-width="10.3125" stroke-linecap="round" stroke-linejoin="round" stroke-miterlimit="10" fill="none" fill-rule="evenodd"/></g><g><path d="M2738 574.5C2738 581.956 2731.96 588 2724.5 588 2717.04 588 2711 581.956 2711 574.5 2711 567.044 2717.04 561 2724.5 561 2731.96 561 2738 567.044 2738 574.5Z" fill="#FFC20A"/></g><g><text fill="#404040" font-family="Calibri,Calibri_MSFontService,sans-serif" font-weight="400" font-size="50" transform="matrix(1 0 0 1 2778.36 590)">Load</text></g><g><text fill="#404040" font-family="Calibri,Calibri_MSFontService,sans-serif" font-weight="400" font-size="50" transform="matrix(1 0 0 1 2778.36 651)">factor</text></g></g></svg>