<svg width="2846" height="1665" xmlns="http://www.w3.org/2000/svg" xmlns:xlink="http://www.w3.org/1999/xlink" xml:space="preserve" overflow="hidden"><defs><clipPath id="clip0"><rect x="1585" y="104" width="2846" height="1665"/></clipPath></defs><g clip-path="url(#clip0)" transform="translate(-1585 -104)"><rect x="1585" y="105" width="2846" height="1664" fill="#FFFFFF"/><g><path d="M1884.5 1389.55 3908.5 1389.55M1884.5 1140.54 3908.5 1140.54M1884.5 891.529 3908.5 891.529M1884.5 642.521 3908.5 642.521M1884.5 393.513 3908.5 393.513M1884.5 145.5 3908.5 145.5" stroke="#D9D9D9" stroke-width="3.4375" stroke-linejoin="round" stroke-miterlimit="10" fill="none"/></g><g><path d="M1900.06 618.02 2053.07 618.02 2053.07 1638 1900.06 1638ZM2084.07 557.018 2237.07 557.018 2237.07 1638 2084.07 1638ZM2268.07 495.016 2421.08 495.016 2421.08 1638 2268.07 1638ZM2452.08 405.013 2605.09 405.013 2605.09 1638 2452.08 1638ZM2636.09 334.011 2789.09 334.011 2789.09 1638 2636.09 1638ZM2820.09 299.01 2973.1 299.01 2973.1 1638 2820.09 1638ZM3004.1 1300.04 3157.1 1300.04 3157.1 1638 3004.1 1638ZM3188.1 1162.04 3341.11 1162.04 3341.11 1638 3188.1 1638ZM3371.11 699.023 3525.12 699.023 3525.12 1638 3371.11 1638ZM3555.12 532.017 3709.12 532.017 3709.12 1638 3555.12 1638ZM3739.12 444.015 3893.13 444.015 3893.13 1638 3739.12 1638Z" fill="#4F81BD"/></g><g><path d="M1884.5 1638.5 3908.5 1638.5" stroke="#D9D9D9" stroke-width="4.58333" stroke-linejoin="round" stroke-miterlimit="10" fill="none" fill-rule="evenodd"/></g><g><path d="M1977 555.594C2038.3 545.935 2099.6 534.433 2160.9 526.62 2222.2 518.806 2283.5 520.212 2344.8 508.713 2406.1 497.214 2467.4 469.659 2528.7 457.625 2590 445.591 2651.3 444.217 2712.6 436.508 2773.9 428.8 2835.2 363.066 2896.5 411.375 2957.8 459.683 3019.1 686.722 3080.4 726.361 3141.7 766 3203 701.048 3264.3 649.21 3325.6 597.37 3386.9 465.195 3448.2 415.326 3509.5 365.458 3570.8 365.552 3632.1 349.998 3693.4 334.443 3754.7 331.333 3816 322" stroke="#B3D235" stroke-width="10.3125" stroke-linecap="round" stroke-linejoin="round" stroke-miterlimit="10" fill="none"/></g><g><path d="M1993.47 556.5C1993.47 565.336 1986.31 572.5 1977.47 572.5 1968.64 572.5 1961.47 565.336 1961.47 556.5 1961.47 547.663 1968.64 540.5 1977.47 540.5 1986.31 540.5 1993.47 547.663 1993.47 556.5Z" fill="#D48519"/><path d="M2177.47 527.5C2177.47 536.336 2170.31 543.5 2161.47 543.5 2152.64 543.5 2145.47 536.336 2145.47 527.5 2145.47 518.663 2152.64 511.5 2161.47 511.5 2170.31 511.5 2177.47 518.663 2177.47 527.5Z" fill="#D48519"/><path d="M2361.47 509.5C2361.47 518.336 2354.31 525.499 2345.47 525.499 2336.64 525.499 2329.47 518.336 2329.47 509.5 2329.47 500.663 2336.64 493.5 2345.47 493.5 2354.31 493.5 2361.47 500.663 2361.47 509.5Z" fill="#D48519"/><path d="M2545.47 458.5C2545.47 467.336 2538.31 474.5 2529.47 474.5 2520.64 474.5 2513.47 467.336 2513.47 458.5 2513.47 449.663 2520.64 442.5 2529.47 442.5 2538.31 442.5 2545.47 449.663 2545.47 458.5Z" fill="#D48519"/><path d="M2729.47 437.5C2729.47 446.336 2722.31 453.5 2713.47 453.5 2704.64 453.5 2697.47 446.336 2697.47 437.5 2697.47 428.663 2704.64 421.5 2713.47 421.5 2722.31 421.5 2729.47 428.663 2729.47 437.5Z" fill="#D48519"/><path d="M2912.47 412.5C2912.47 421.336 2905.31 428.499 2896.47 428.499 2887.64 428.499 2880.47 421.336 2880.47 412.5 2880.47 403.663 2887.64 396.5 2896.47 396.5 2905.31 396.5 2912.47 403.663 2912.47 412.5Z" fill="#D48519"/><path d="M3096.47 727.5C3096.47 736.336 3089.31 743.499 3080.47 743.499 3071.64 743.499 3064.47 736.336 3064.47 727.5 3064.47 718.663 3071.64 711.5 3080.47 711.5 3089.31 711.5 3096.47 718.663 3096.47 727.5Z" fill="#D48519"/><path d="M3280.47 650.5C3280.47 659.336 3273.31 666.499 3264.47 666.499 3255.64 666.499 3248.47 659.336 3248.47 650.5 3248.47 641.663 3255.64 634.5 3264.47 634.5 3273.31 634.5 3280.47 641.663 3280.47 650.5Z" fill="#D48519"/><path d="M3464.47 416.5C3464.47 425.336 3457.31 432.5 3448.47 432.5 3439.64 432.5 3432.47 425.336 3432.47 416.5 3432.47 407.663 3439.64 400.5 3448.47 400.5 3457.31 400.5 3464.47 407.663 3464.47 416.5Z" fill="#D48519"/><path d="M3648.47 350.5C3648.47 359.336 3641.31 366.5 3632.47 366.5 3623.64 366.5 3616.47 359.336 3616.47 350.5 3616.47 341.663 3623.64 334.5 3632.47 334.5 3641.31 334.5 3648.47 341.663 3648.47 350.5Z" fill="#D48519"/><path d="M3832.47 322.5C3832.47 331.336 3825.31 338.499 3816.47 338.499 3807.64 338.499 3800.47 331.336 3800.47 322.5 3800.47 313.663 3807.64 306.5 3816.47 306.5 3825.31 306.5 3832.47 313.663 3832.47 322.5Z" fill="#D48519"/></g><g><text fill="#FFFFFF" font-family="Calibri,Calibri_MSFontService,sans-serif" font-weight="400" font-size="60" transform="matrix(6.12323e-17 -1 1 6.12323e-17 1997.43 1611)">820 million</text></g><g><text fill="#FFFFFF" font-family="Calibri,Calibri_MSFontService,sans-serif" font-weight="400" font-size="60" transform="matrix(6.12323e-17 -1 1 6.12323e-17 2181.36 1611)">869 million</text></g><g><text fill="#FFFFFF" font-family="Calibri,Calibri_MSFontService,sans-serif" font-weight="400" font-size="60" transform="matrix(6.12323e-17 -1 1 6.12323e-17 2365.29 1611)">919 million</text></g><g><text fill="#FFFFFF" font-family="Calibri,Calibri_MSFontService,sans-serif" font-weight="400" font-size="60" transform="matrix(6.12323e-17 -1 1 6.12323e-17 2549.21 1611)">991 million</text></g><g><text fill="#FFFFFF" font-family="Calibri,Calibri_MSFontService,sans-serif" font-weight="400" font-size="60" transform="matrix(6.12323e-17 -1 1 6.12323e-17 2733.14 1611)">1,049 million</text></g><g><text fill="#FFFFFF" font-family="Calibri,Calibri_MSFontService,sans-serif" font-weight="400" font-size="60" transform="matrix(6.12323e-17 -1 1 6.12323e-17 2917.07 1611)">1,076 million</text></g><g><text fill="#FFFFFF" font-family="Calibri,Calibri_MSFontService,sans-serif" font-weight="400" font-size="60" transform="matrix(6.12323e-17 -1 1 6.12323e-17 3101 1611)">272 million</text></g><g><text fill="#FFFFFF" font-family="Calibri,Calibri_MSFontService,sans-serif" font-weight="400" font-size="60" transform="matrix(6.12323e-17 -1 1 6.12323e-17 3284.92 1611)">383 million</text></g><g><text fill="#FFFFFF" font-family="Calibri,Calibri_MSFontService,sans-serif" font-weight="400" font-size="60" transform="matrix(6.12323e-17 -1 1 6.12323e-17 3468.85 1611)">755 million</text></g><g><text fill="#FFFFFF" font-family="Calibri,Calibri_MSFontService,sans-serif" font-weight="400" font-size="60" transform="matrix(6.12323e-17 -1 1 6.12323e-17 3652.78 1611)">889 million</text></g><g><text fill="#FFFFFF" font-family="Calibri,Calibri_MSFontService,sans-serif" font-weight="400" font-size="60" transform="matrix(6.12323e-17 -1 1 6.12323e-17 3836.71 1611)">960 million</text></g><g><text fill="#003366" font-family="Calibri,Calibri_MSFontService,sans-serif" font-weight="400" font-size="55" transform="matrix(1 0 0 1 1935.01 504)">116</text></g><g><text fill="#003366" font-family="Calibri,Calibri_MSFontService,sans-serif" font-weight="400" font-size="55" transform="matrix(1 0 0 1 2118.93 475)">119</text></g><g><text fill="#003366" font-family="Calibri,Calibri_MSFontService,sans-serif" font-weight="400" font-size="55" transform="matrix(1 0 0 1 2302.86 457)">121</text></g><g><text fill="#003366" font-family="Calibri,Calibri_MSFontService,sans-serif" font-weight="400" font-size="55" transform="matrix(1 0 0 1 2486.79 393)">126</text></g><g><text fill="#FFFFFF" font-family="Calibri,Calibri_MSFontService,sans-serif" font-weight="400" font-size="55" transform="matrix(1 0 0 1 2670.72 385)">129</text></g><g><text fill="#FFFFFF" font-family="Calibri,Calibri_MSFontService,sans-serif" font-weight="400" font-size="55" transform="matrix(1 0 0 1 2855.62 362)">131</text></g><g><text fill="#003366" font-family="Calibri,Calibri_MSFontService,sans-serif" font-weight="400" font-size="55" transform="matrix(1 0 0 1 3052.51 675)">98</text></g><g><text fill="#003366" font-family="Calibri,Calibri_MSFontService,sans-serif" font-weight="400" font-size="55" transform="matrix(1 0 0 1 3222.5 598)">106</text></g><g><text fill="#003366" font-family="Calibri,Calibri_MSFontService,sans-serif" font-weight="400" font-size="55" transform="matrix(1 0 0 1 3406.43 364)">131</text></g><g><text fill="#003366" font-family="Calibri,Calibri_MSFontService,sans-serif" font-weight="400" font-size="55" transform="matrix(1 0 0 1 3590.35 299)">138</text></g><g><text fill="#003366" font-family="Calibri,Calibri_MSFontService,sans-serif" font-weight="400" font-size="55" transform="matrix(1 0 0 1 3774.28 271)">141</text></g><g><text fill="#404040" font-family="Calibri,Calibri_MSFontService,sans-serif" font-weight="400" font-size="55" transform="matrix(1 0 0 1 3959.07 1654)">0</text></g><g><text fill="#404040" font-family="Calibri,Calibri_MSFontService,sans-serif" font-weight="400" font-size="55" transform="matrix(1 0 0 1 3959.07 1280)">40</text></g><g><text fill="#404040" font-family="Calibri,Calibri_MSFontService,sans-serif" font-weight="400" font-size="55" transform="matrix(1 0 0 1 3959.07 907)">80</text></g><g><text fill="#404040" font-family="Calibri,Calibri_MSFontService,sans-serif" font-weight="400" font-size="55" transform="matrix(1 0 0 1 3959.07 534)">120</text></g><g><text fill="#404040" font-family="Calibri,Calibri_MSFontService,sans-serif" font-weight="400" font-size="55" transform="matrix(1 0 0 1 3959.07 160)">160</text></g><g><text fill="#404040" font-family="Calibri,Calibri_MSFontService,sans-serif" font-weight="400" font-size="55" transform="matrix(1 0 0 1 1805.95 1654)">0</text></g><g><text fill="#404040" font-family="Calibri,Calibri_MSFontService,sans-serif" font-weight="400" font-size="55" transform="matrix(1 0 0 1 1750.21 1405)">200</text></g><g><text fill="#404040" font-family="Calibri,Calibri_MSFontService,sans-serif" font-weight="400" font-size="55" transform="matrix(1 0 0 1 1750.21 1156)">400</text></g><g><text fill="#404040" font-family="Calibri,Calibri_MSFontService,sans-serif" font-weight="400" font-size="55" transform="matrix(1 0 0 1 1750.21 907)">600</text></g><g><text fill="#404040" font-family="Calibri,Calibri_MSFontService,sans-serif" font-weight="400" font-size="55" transform="matrix(1 0 0 1 1750.21 658)">800</text></g><g><text fill="#404040" font-family="Calibri,Calibri_MSFontService,sans-serif" font-weight="400" font-size="55" transform="matrix(1 0 0 1 1708.62 409)">1,000</text></g><g><text fill="#404040" font-family="Calibri,Calibri_MSFontService,sans-serif" font-weight="400" font-size="55" transform="matrix(1 0 0 1 1708.62 160)">1,200</text></g><g><text fill="#404040" font-family="Calibri,Calibri_MSFontService,sans-serif" font-weight="400" font-size="60" transform="matrix(1 0 0 1 1916.4 1733)">2014</text></g><g><text fill="#404040" font-family="Calibri,Calibri_MSFontService,sans-serif" font-weight="400" font-size="60" transform="matrix(1 0 0 1 2100.33 1733)">2015</text></g><g><text fill="#404040" font-family="Calibri,Calibri_MSFontService,sans-serif" font-weight="400" font-size="60" transform="matrix(1 0 0 1 2284.25 1733)">2016</text></g><g><text fill="#404040" font-family="Calibri,Calibri_MSFontService,sans-serif" font-weight="400" font-size="60" transform="matrix(1 0 0 1 2468.18 1733)">2017</text></g><g><text fill="#404040" font-family="Calibri,Calibri_MSFontService,sans-serif" font-weight="400" font-size="60" transform="matrix(1 0 0 1 2652.11 1733)">2018</text></g><g><text fill="#404040" font-family="Calibri,Calibri_MSFontService,sans-serif" font-weight="400" font-size="60" transform="matrix(1 0 0 1 2836.04 1733)">2019</text></g><g><text fill="#404040" font-family="Calibri,Calibri_MSFontService,sans-serif" font-weight="400" font-size="60" transform="matrix(1 0 0 1 3019.96 1733)">2020</text></g><g><text fill="#404040" font-family="Calibri,Calibri_MSFontService,sans-serif" font-weight="400" font-size="60" transform="matrix(1 0 0 1 3203.89 1733)">2021</text></g><g><text fill="#404040" font-family="Calibri,Calibri_MSFontService,sans-serif" font-weight="400" font-size="60" transform="matrix(1 0 0 1 3387.82 1733)">2022</text></g><g><text fill="#404040" font-family="Calibri,Calibri_MSFontService,sans-serif" font-weight="400" font-size="60" transform="matrix(1 0 0 1 3571.75 1733)">2023</text></g><g><text fill="#404040" font-family="Calibri,Calibri_MSFontService,sans-serif" font-weight="400" font-size="60" transform="matrix(1 0 0 1 3755.67 1733)">2024</text></g><g><text fill="#404040" font-family="Calibri,Calibri_MSFontService,sans-serif" font-weight="400" font-size="60" transform="matrix(6.12323e-17 -1 1 6.12323e-17 4115.87 638)">Passnegers per flight</text></g><g><text fill="#404040" font-family="Calibri,Calibri_MSFontService,sans-serif" font-weight="400" font-size="60" transform="matrix(6.12323e-17 -1 1 6.12323e-17 1656.36 775)">Total passengers (millions)</text></g><g><rect x="4029.5" y="1136.5" width="391" height="509" stroke="#F2F2F2" stroke-width="3.4375" stroke-linejoin="round" stroke-miterlimit="10" fill="#F2F2F2"/></g><g><rect x="4050" y="1212" width="88" height="32" fill="#4F81BD"/></g><g><text fill="#404040" font-family="Calibri,Calibri_MSFontService,sans-serif" font-weight="400" font-size="60" transform="matrix(1 0 0 1 4147.2 1245)">Total</text></g><g><text fill="#404040" font-family="Calibri,Calibri_MSFontService,sans-serif" font-weight="400" font-size="60" transform="matrix(1 0 0 1 4147.2 1318)">passengers</text></g><g><path d="M4050 1482 4138 1482" stroke="#B3D235" stroke-width="10.3125" stroke-linecap="round" stroke-linejoin="round" stroke-miterlimit="10" fill="none" fill-rule="evenodd"/></g><g><path d="M4109 1482C4109 1490.84 4101.84 1498 4093 1498 4084.16 1498 4077 1490.84 4077 1482 4077 1473.16 4084.16 1466 4093 1466 4101.84 1466 4109 1473.16 4109 1482Z" fill="#D48519"/></g><g><text fill="#404040" font-family="Calibri,Calibri_MSFontService,sans-serif" font-weight="400" font-size="60" transform="matrix(1 0 0 1 4147.2 1500)">Passengers</text></g><g><text fill="#404040" font-family="Calibri,Calibri_MSFontService,sans-serif" font-weight="400" font-size="60" transform="matrix(1 0 0 1 4147.2 1572)">per flight</text></g></g></svg>