<svg width="2846" height="1678" xmlns="http://www.w3.org/2000/svg" xmlns:xlink="http://www.w3.org/1999/xlink" xml:space="preserve" overflow="hidden"><defs><clipPath id="clip0"><rect x="1585" y="104" width="2846" height="1678"/></clipPath></defs><g clip-path="url(#clip0)" transform="translate(-1585 -104)"><rect x="1585" y="105" width="2846" height="1677" fill="#FFFFFF"/><g><path d="M1884.5 1399.55 3908.5 1399.55M1884.5 1149.54 3908.5 1149.54M1884.5 898.53 3908.5 898.53M1884.5 647.521 3908.5 647.521M1884.5 396.513 3908.5 396.513M1884.5 145.5 3908.5 145.5" stroke="#D9D9D9" stroke-width="3.4375" stroke-linejoin="round" stroke-miterlimit="10" fill="none"/></g><g><path d="M1900.06 691.023 2053.07 691.023 2053.07 1651 1900.06 1651ZM2084.07 669.022 2237.07 669.022 2237.07 1651 2084.07 1651ZM2268.07 622.02 2421.08 622.02 2421.08 1651 2268.07 1651ZM2452.08 560.018 2605.09 560.018 2605.09 1651 2452.08 1651ZM2636.09 498.016 2789.09 498.016 2789.09 1651 2636.09 1651ZM2820.09 407.013 2973.1 407.013 2973.1 1651 2820.09 1651ZM3004.1 335.011 3157.1 335.011 3157.1 1651 3004.1 1651ZM3188.1 301.01 3341.11 301.01 3341.11 1651 3188.1 1651ZM3371.11 1310.04 3525.12 1310.04 3525.12 1651 3371.11 1651ZM3555.12 1171.04 3709.12 1171.04 3709.12 1651 3555.12 1651ZM3739.12 888.029 3893.13 888.029 3893.13 1651 3739.12 1651Z" fill="#4F81BD"/></g><g><path d="M1884.5 1650.5 3908.5 1650.5" stroke="#D9D9D9" stroke-width="4.58333" stroke-linejoin="round" stroke-miterlimit="10" fill="none" fill-rule="evenodd"/></g><g><path d="M1977 637.11C2038.3 624.001 2099.6 610.637 2160.9 597.784 2222.2 584.931 2283.5 571.157 2344.8 559.993 2406.1 548.829 2467.4 538.671 2528.7 530.798 2590 522.925 2651.3 524.342 2712.6 512.756 2773.9 501.169 2835.2 473.405 2896.5 461.279 2957.8 449.153 3019.1 447.769 3080.4 440.002 3141.7 432.234 3203 366 3264.3 414.677 3325.6 463.353 3386.9 692.118 3448.2 732.059 3509.5 772 3570.8 701.853 3632.1 654.321 3693.4 606.789 3754.7 516.02 3816 446.869" stroke="#B3D235" stroke-width="10.3125" stroke-linecap="round" stroke-linejoin="round" stroke-miterlimit="10" fill="none"/></g><g><path d="M1993.47 637.5C1993.47 646.336 1986.31 653.5 1977.47 653.5 1968.64 653.5 1961.47 646.336 1961.47 637.5 1961.47 628.663 1968.64 621.5 1977.47 621.5 1986.31 621.5 1993.47 628.663 1993.47 637.5Z" fill="#D48519"/><path d="M2177.47 597.5C2177.47 606.336 2170.31 613.499 2161.47 613.499 2152.64 613.499 2145.47 606.336 2145.47 597.5 2145.47 588.663 2152.64 581.5 2161.47 581.5 2170.31 581.5 2177.47 588.663 2177.47 597.5Z" fill="#D48519"/><path d="M2361.47 560.5C2361.47 569.336 2354.31 576.5 2345.47 576.5 2336.64 576.5 2329.47 569.336 2329.47 560.5 2329.47 551.663 2336.64 544.5 2345.47 544.5 2354.31 544.5 2361.47 551.663 2361.47 560.5Z" fill="#D48519"/><path d="M2545.47 530.5C2545.47 539.336 2538.31 546.499 2529.47 546.499 2520.64 546.499 2513.47 539.336 2513.47 530.5 2513.47 521.663 2520.64 514.5 2529.47 514.5 2538.31 514.5 2545.47 521.663 2545.47 530.5Z" fill="#D48519"/><path d="M2729.47 512.5C2729.47 521.336 2722.31 528.5 2713.47 528.5 2704.64 528.5 2697.47 521.336 2697.47 512.5 2697.47 503.663 2704.64 496.5 2713.47 496.5 2722.31 496.5 2729.47 503.663 2729.47 512.5Z" fill="#D48519"/><path d="M2912.47 461.5C2912.47 470.336 2905.31 477.5 2896.47 477.5 2887.64 477.5 2880.47 470.336 2880.47 461.5 2880.47 452.663 2887.64 445.5 2896.47 445.5 2905.31 445.5 2912.47 452.663 2912.47 461.5Z" fill="#D48519"/><path d="M3096.47 440.5C3096.47 449.336 3089.31 456.5 3080.47 456.5 3071.64 456.5 3064.47 449.336 3064.47 440.5 3064.47 431.663 3071.64 424.5 3080.47 424.5 3089.31 424.5 3096.47 431.663 3096.47 440.5Z" fill="#D48519"/><path d="M3280.47 414.5C3280.47 423.336 3273.31 430.5 3264.47 430.5 3255.64 430.5 3248.47 423.336 3248.47 414.5 3248.47 405.663 3255.64 398.5 3264.47 398.5 3273.31 398.5 3280.47 405.663 3280.47 414.5Z" fill="#D48519"/><path d="M3464.47 732.5C3464.47 741.336 3457.31 748.5 3448.47 748.5 3439.64 748.5 3432.47 741.336 3432.47 732.5 3432.47 723.663 3439.64 716.5 3448.47 716.5 3457.31 716.5 3464.47 723.663 3464.47 732.5Z" fill="#D48519"/><path d="M3648.47 654.5C3648.47 663.336 3641.31 670.499 3632.47 670.499 3623.64 670.499 3616.47 663.336 3616.47 654.5 3616.47 645.663 3623.64 638.5 3632.47 638.5 3641.31 638.5 3648.47 645.663 3648.47 654.5Z" fill="#D48519"/><path d="M3832.47 446.5C3832.47 455.336 3825.31 462.499 3816.47 462.499 3807.64 462.499 3800.47 455.336 3800.47 446.5 3800.47 437.663 3807.64 430.5 3816.47 430.5 3825.31 430.5 3832.47 437.663 3832.47 446.5Z" fill="#D48519"/></g><g><text fill="#FFFFFF" font-family="Calibri,Calibri_MSFontService,sans-serif" font-weight="400" font-size="60" transform="matrix(6.12323e-17 -1 1 6.12323e-17 1997.43 1623)">765 million</text></g><g><text fill="#FFFFFF" font-family="Calibri,Calibri_MSFontService,sans-serif" font-weight="400" font-size="60" transform="matrix(6.12323e-17 -1 1 6.12323e-17 2181.36 1623)">783 million</text></g><g><text fill="#FFFFFF" font-family="Calibri,Calibri_MSFontService,sans-serif" font-weight="400" font-size="60" transform="matrix(6.12323e-17 -1 1 6.12323e-17 2365.29 1623)">820 million</text></g><g><text fill="#FFFFFF" font-family="Calibri,Calibri_MSFontService,sans-serif" font-weight="400" font-size="60" transform="matrix(6.12323e-17 -1 1 6.12323e-17 2549.21 1623)">869 million</text></g><g><text fill="#FFFFFF" font-family="Calibri,Calibri_MSFontService,sans-serif" font-weight="400" font-size="60" transform="matrix(6.12323e-17 -1 1 6.12323e-17 2733.14 1623)">919 million</text></g><g><text fill="#FFFFFF" font-family="Calibri,Calibri_MSFontService,sans-serif" font-weight="400" font-size="60" transform="matrix(6.12323e-17 -1 1 6.12323e-17 2917.07 1623)">991 million</text></g><g><text fill="#FFFFFF" font-family="Calibri,Calibri_MSFontService,sans-serif" font-weight="400" font-size="60" transform="matrix(6.12323e-17 -1 1 6.12323e-17 3101 1623)">1,049 million</text></g><g><text fill="#FFFFFF" font-family="Calibri,Calibri_MSFontService,sans-serif" font-weight="400" font-size="60" transform="matrix(6.12323e-17 -1 1 6.12323e-17 3284.92 1623)">1,076 million</text></g><g><text fill="#FFFFFF" font-family="Calibri,Calibri_MSFontService,sans-serif" font-weight="400" font-size="60" transform="matrix(6.12323e-17 -1 1 6.12323e-17 3468.85 1623)">272 million</text></g><g><text fill="#FFFFFF" font-family="Calibri,Calibri_MSFontService,sans-serif" font-weight="400" font-size="60" transform="matrix(6.12323e-17 -1 1 6.12323e-17 3652.78 1623)">382 million</text></g><g><text fill="#FFFFFF" font-family="Calibri,Calibri_MSFontService,sans-serif" font-weight="400" font-size="60" transform="matrix(6.12323e-17 -1 1 6.12323e-17 3836.71 1623)">608 million</text></g><g><text fill="#003366" font-family="Calibri,Calibri_MSFontService,sans-serif" font-weight="400" font-size="55" transform="matrix(1 0 0 1 1935.01 585)">108</text></g><g><text fill="#003366" font-family="Calibri,Calibri_MSFontService,sans-serif" font-weight="400" font-size="55" transform="matrix(1 0 0 1 2118.93 546)">112</text></g><g><text fill="#003366" font-family="Calibri,Calibri_MSFontService,sans-serif" font-weight="400" font-size="55" transform="matrix(1 0 0 1 2302.86 508)">116</text></g><g><text fill="#003366" font-family="Calibri,Calibri_MSFontService,sans-serif" font-weight="400" font-size="55" transform="matrix(1 0 0 1 2486.79 479)">119</text></g><g><text fill="#003366" font-family="Calibri,Calibri_MSFontService,sans-serif" font-weight="400" font-size="55" transform="matrix(1 0 0 1 2670.72 461)">121</text></g><g><text fill="#003366" font-family="Calibri,Calibri_MSFontService,sans-serif" font-weight="400" font-size="55" transform="matrix(1 0 0 1 2854.64 395)">126</text></g><g><text fill="#FFFFFF" font-family="Calibri,Calibri_MSFontService,sans-serif" font-weight="400" font-size="55" transform="matrix(1 0 0 1 3038.57 388)">129</text></g><g><text fill="#FFFFFF" font-family="Calibri,Calibri_MSFontService,sans-serif" font-weight="400" font-size="55" transform="matrix(1 0 0 1 3223.48 364)">131</text></g><g><text fill="#003366" font-family="Calibri,Calibri_MSFontService,sans-serif" font-weight="400" font-size="55" transform="matrix(1 0 0 1 3420.36 680)">98</text></g><g><text fill="#003366" font-family="Calibri,Calibri_MSFontService,sans-serif" font-weight="400" font-size="55" transform="matrix(1 0 0 1 3590.35 602)">106</text></g><g><text fill="#003366" font-family="Calibri,Calibri_MSFontService,sans-serif" font-weight="400" font-size="55" transform="matrix(1 0 0 1 3774.28 395)">128</text></g><g><text fill="#404040" font-family="Calibri,Calibri_MSFontService,sans-serif" font-weight="400" font-size="55" transform="matrix(1 0 0 1 3959.07 1666)">0</text></g><g><text fill="#404040" font-family="Calibri,Calibri_MSFontService,sans-serif" font-weight="400" font-size="55" transform="matrix(1 0 0 1 3959.07 1290)">40</text></g><g><text fill="#404040" font-family="Calibri,Calibri_MSFontService,sans-serif" font-weight="400" font-size="55" transform="matrix(1 0 0 1 3959.07 914)">80</text></g><g><text fill="#404040" font-family="Calibri,Calibri_MSFontService,sans-serif" font-weight="400" font-size="55" transform="matrix(1 0 0 1 3959.07 537)">120</text></g><g><text fill="#404040" font-family="Calibri,Calibri_MSFontService,sans-serif" font-weight="400" font-size="55" transform="matrix(1 0 0 1 3959.07 161)">160</text></g><g><text fill="#404040" font-family="Calibri,Calibri_MSFontService,sans-serif" font-weight="400" font-size="55" transform="matrix(1 0 0 1 1805.95 1666)">0</text></g><g><text fill="#404040" font-family="Calibri,Calibri_MSFontService,sans-serif" font-weight="400" font-size="55" transform="matrix(1 0 0 1 1750.21 1415)">200</text></g><g><text fill="#404040" font-family="Calibri,Calibri_MSFontService,sans-serif" font-weight="400" font-size="55" transform="matrix(1 0 0 1 1750.21 1164)">400</text></g><g><text fill="#404040" font-family="Calibri,Calibri_MSFontService,sans-serif" font-weight="400" font-size="55" transform="matrix(1 0 0 1 1750.21 914)">600</text></g><g><text fill="#404040" font-family="Calibri,Calibri_MSFontService,sans-serif" font-weight="400" font-size="55" transform="matrix(1 0 0 1 1750.21 663)">800</text></g><g><text fill="#404040" font-family="Calibri,Calibri_MSFontService,sans-serif" font-weight="400" font-size="55" transform="matrix(1 0 0 1 1708.62 412)">1,000</text></g><g><text fill="#404040" font-family="Calibri,Calibri_MSFontService,sans-serif" font-weight="400" font-size="55" transform="matrix(1 0 0 1 1708.62 161)">1,200</text></g><g><text fill="#404040" font-family="Calibri,Calibri_MSFontService,sans-serif" font-weight="400" font-size="60" transform="matrix(1 0 0 1 1916.4 1746)">2012</text></g><g><text fill="#404040" font-family="Calibri,Calibri_MSFontService,sans-serif" font-weight="400" font-size="60" transform="matrix(1 0 0 1 2100.33 1746)">2013</text></g><g><text fill="#404040" font-family="Calibri,Calibri_MSFontService,sans-serif" font-weight="400" font-size="60" transform="matrix(1 0 0 1 2284.25 1746)">2014</text></g><g><text fill="#404040" font-family="Calibri,Calibri_MSFontService,sans-serif" font-weight="400" font-size="60" transform="matrix(1 0 0 1 2468.18 1746)">2015</text></g><g><text fill="#404040" font-family="Calibri,Calibri_MSFontService,sans-serif" font-weight="400" font-size="60" transform="matrix(1 0 0 1 2652.11 1746)">2016</text></g><g><text fill="#404040" font-family="Calibri,Calibri_MSFontService,sans-serif" font-weight="400" font-size="60" transform="matrix(1 0 0 1 2836.04 1746)">2017</text></g><g><text fill="#404040" font-family="Calibri,Calibri_MSFontService,sans-serif" font-weight="400" font-size="60" transform="matrix(1 0 0 1 3019.96 1746)">2018</text></g><g><text fill="#404040" font-family="Calibri,Calibri_MSFontService,sans-serif" font-weight="400" font-size="60" transform="matrix(1 0 0 1 3203.89 1746)">2019</text></g><g><text fill="#404040" font-family="Calibri,Calibri_MSFontService,sans-serif" font-weight="400" font-size="60" transform="matrix(1 0 0 1 3387.82 1746)">2020</text></g><g><text fill="#404040" font-family="Calibri,Calibri_MSFontService,sans-serif" font-weight="400" font-size="60" transform="matrix(1 0 0 1 3571.75 1746)">2021</text></g><g><text fill="#404040" font-family="Calibri,Calibri_MSFontService,sans-serif" font-weight="400" font-size="60" transform="matrix(1 0 0 1 3755.67 1746)">2022</text></g><g><text fill="#404040" font-family="Calibri,Calibri_MSFontService,sans-serif" font-weight="400" font-size="60" transform="matrix(6.12323e-17 -1 1 6.12323e-17 4115.87 638)">Passnegers per flight</text></g><g><text fill="#404040" font-family="Calibri,Calibri_MSFontService,sans-serif" font-weight="400" font-size="60" transform="matrix(6.12323e-17 -1 1 6.12323e-17 1656.36 776)">Total passengers (millions)</text></g><g><rect x="4029.5" y="1145.5" width="391" height="513" stroke="#F2F2F2" stroke-width="3.4375" stroke-linejoin="round" stroke-miterlimit="10" fill="#F2F2F2"/></g><g><rect x="4050" y="1221" width="88" height="33" fill="#4F81BD"/></g><g><text fill="#404040" font-family="Calibri,Calibri_MSFontService,sans-serif" font-weight="400" font-size="60" transform="matrix(1 0 0 1 4147.2 1255)">Total</text></g><g><text fill="#404040" font-family="Calibri,Calibri_MSFontService,sans-serif" font-weight="400" font-size="60" transform="matrix(1 0 0 1 4147.2 1328)">passengers</text></g><g><path d="M4050 1494 4138 1494" stroke="#B3D235" stroke-width="10.3125" stroke-linecap="round" stroke-linejoin="round" stroke-miterlimit="10" fill="none" fill-rule="evenodd"/></g><g><path d="M4109 1493C4109 1501.84 4101.84 1509 4093 1509 4084.16 1509 4077 1501.84 4077 1493 4077 1484.16 4084.16 1477 4093 1477 4101.84 1477 4109 1484.16 4109 1493Z" fill="#D48519"/></g><g><text fill="#404040" font-family="Calibri,Calibri_MSFontService,sans-serif" font-weight="400" font-size="60" transform="matrix(1 0 0 1 4147.2 1511)">Passengers</text></g><g><text fill="#404040" font-family="Calibri,Calibri_MSFontService,sans-serif" font-weight="400" font-size="60" transform="matrix(1 0 0 1 4147.2 1584)">per flight</text></g></g></svg>