<svg width="2334" height="1513" xmlns="http://www.w3.org/2000/svg" xmlns:xlink="http://www.w3.org/1999/xlink" xml:space="preserve" overflow="hidden"><defs><clipPath id="clip0"><rect x="2582" y="1065" width="2334" height="1513"/></clipPath></defs><g clip-path="url(#clip0)" transform="translate(-2582 -1065)"><rect x="2583" y="1066" width="2333" height="1512" fill="#FFFFFF"/><g><path d="M2748.5 2046.57 4302.5 2046.57M2748.5 1860.56 4302.5 1860.56M2748.5 1674.56 4302.5 1674.56M2748.5 1488.55 4302.5 1488.55M2748.5 1302.54 4302.5 1302.54M2748.5 1116.5 4302.5 1116.5" stroke="#D9D9D9" stroke-width="3.4375" stroke-linejoin="round" stroke-miterlimit="10" fill="none"/></g><g><path d="M2761.09 2189.07 2891.09 2189.07 2891.09 2232 2761.09 2232ZM2917.1 2076.07 3046.1 2076.07 3046.1 2232 2917.1 2232ZM3072.1 1826.06 3202.1 1826.06 3202.1 2232 3072.1 2232ZM3228.11 1284.04 3357.11 1284.04 3357.11 2232 3228.11 2232ZM3383.11 1539.05 3513.12 1539.05 3513.12 2232 3383.11 2232ZM3538.12 1759.06 3668.12 1759.06 3668.12 2232 3538.12 2232ZM3694.12 1851.06 3823.13 1851.06 3823.13 2232 3694.12 2232ZM3849.13 1984.07 3979.13 1984.07 3979.13 2232 3849.13 2232ZM4005.13 1994.07 4134.14 1994.07 4134.14 2232 4005.13 2232ZM4160.14 2101.07 4290.14 2101.07 4290.14 2232 4160.14 2232Z" fill="#4F81BD"/></g><g><path d="M2748.5 2232.5 4302.5 2232.5" stroke="#D9D9D9" stroke-width="3.4375" stroke-linejoin="round" stroke-miterlimit="10" fill="none" fill-rule="evenodd"/></g><g><path d="M2826 2219C2877.81 2203.39 2929.63 2200.29 2981.44 2172.17 3033.26 2144.05 3085.07 2118.02 3136.89 2050.28 3188.7 1982.53 3240.52 1847.82 3292.33 1765.71 3344.15 1683.6 3395.96 1615.98 3447.78 1557.63 3499.59 1499.29 3551.41 1458.34 3603.22 1415.63 3655.04 1372.92 3706.85 1332.84 3758.67 1301.37 3810.48 1269.89 3862.3 1251.14 3914.11 1226.79 3965.93 1202.43 4017.74 1173.68 4069.56 1155.22 4121.37 1136.75 4173.19 1129.07 4225 1116" stroke="#FFC20A" stroke-width="10.3125" stroke-linecap="round" stroke-linejoin="round" stroke-miterlimit="10" fill="none"/></g><g><text fill="#003366" font-family="Calibri,Calibri_MSFontService,sans-serif" font-weight="400" font-size="55" transform="matrix(6.12323e-17 -1 1 6.12323e-17 2844.65 2205)">1.1%</text></g><g><text fill="#FFFFFF" font-family="Calibri,Calibri_MSFontService,sans-serif" font-weight="400" font-size="55" transform="matrix(6.12323e-17 -1 1 6.12323e-17 3000.07 2205)">4.2%</text></g><g><text fill="#FFFFFF" font-family="Calibri,Calibri_MSFontService,sans-serif" font-weight="400" font-size="55" transform="matrix(6.12323e-17 -1 1 6.12323e-17 3155.5 2205)">10.9%</text></g><g><text fill="#FFFFFF" font-family="Calibri,Calibri_MSFontService,sans-serif" font-weight="400" font-size="55" transform="matrix(6.12323e-17 -1 1 6.12323e-17 3310.93 2205)">25.5%</text></g><g><text fill="#FFFFFF" font-family="Calibri,Calibri_MSFontService,sans-serif" font-weight="400" font-size="55" transform="matrix(6.12323e-17 -1 1 6.12323e-17 3466.35 2205)">18.6%</text></g><g><text fill="#FFFFFF" font-family="Calibri,Calibri_MSFontService,sans-serif" font-weight="400" font-size="55" transform="matrix(6.12323e-17 -1 1 6.12323e-17 3621.78 2205)">12.7%</text></g><g><text fill="#FFFFFF" font-family="Calibri,Calibri_MSFontService,sans-serif" font-weight="400" font-size="55" transform="matrix(6.12323e-17 -1 1 6.12323e-17 3777.2 2205)">10.2%</text></g><g><text fill="#FFFFFF" font-family="Calibri,Calibri_MSFontService,sans-serif" font-weight="400" font-size="55" transform="matrix(6.12323e-17 -1 1 6.12323e-17 3932.63 2205)">6.7%</text></g><g><text fill="#FFFFFF" font-family="Calibri,Calibri_MSFontService,sans-serif" font-weight="400" font-size="55" transform="matrix(6.12323e-17 -1 1 6.12323e-17 4088.06 2205)">6.4%</text></g><g><text fill="#FFFFFF" font-family="Calibri,Calibri_MSFontService,sans-serif" font-weight="400" font-size="55" transform="matrix(6.12323e-17 -1 1 6.12323e-17 4243.48 2205)">3.5%</text></g><g><text fill="#595959" font-family="Calibri,Calibri_MSFontService,sans-serif" font-weight="400" font-size="55" transform="matrix(1 0 0 1 4353.8 2248)">0%</text></g><g><text fill="#595959" font-family="Calibri,Calibri_MSFontService,sans-serif" font-weight="400" font-size="55" transform="matrix(1 0 0 1 4353.8 2024)">20%</text></g><g><text fill="#595959" font-family="Calibri,Calibri_MSFontService,sans-serif" font-weight="400" font-size="55" transform="matrix(1 0 0 1 4353.8 1801)">40%</text></g><g><text fill="#595959" font-family="Calibri,Calibri_MSFontService,sans-serif" font-weight="400" font-size="55" transform="matrix(1 0 0 1 4353.8 1578)">60%</text></g><g><text fill="#595959" font-family="Calibri,Calibri_MSFontService,sans-serif" font-weight="400" font-size="55" transform="matrix(1 0 0 1 4353.8 1355)">80%</text></g><g><text fill="#595959" font-family="Calibri,Calibri_MSFontService,sans-serif" font-weight="400" font-size="55" transform="matrix(1 0 0 1 4353.8 1132)">100%</text></g><g><text fill="#595959" font-family="Calibri,Calibri_MSFontService,sans-serif" font-weight="400" font-size="55" transform="matrix(1 0 0 1 2630.29 2248)">0%</text></g><g><text fill="#595959" font-family="Calibri,Calibri_MSFontService,sans-serif" font-weight="400" font-size="55" transform="matrix(1 0 0 1 2630.29 2062)">5%</text></g><g><text fill="#595959" font-family="Calibri,Calibri_MSFontService,sans-serif" font-weight="400" font-size="55" transform="matrix(1 0 0 1 2602.42 1876)">10%</text></g><g><text fill="#595959" font-family="Calibri,Calibri_MSFontService,sans-serif" font-weight="400" font-size="55" transform="matrix(1 0 0 1 2602.42 1690)">15%</text></g><g><text fill="#595959" font-family="Calibri,Calibri_MSFontService,sans-serif" font-weight="400" font-size="55" transform="matrix(1 0 0 1 2602.42 1504)">20%</text></g><g><text fill="#595959" font-family="Calibri,Calibri_MSFontService,sans-serif" font-weight="400" font-size="55" transform="matrix(1 0 0 1 2602.42 1318)">25%</text></g><g><text fill="#595959" font-family="Calibri,Calibri_MSFontService,sans-serif" font-weight="400" font-size="55" transform="matrix(1 0 0 1 2602.42 1132)">30%</text></g><g><text fill="#595959" font-family="Calibri,Calibri_MSFontService,sans-serif" font-weight="400" font-size="50" transform="matrix(0.707107 -0.707107 0.707107 0.707107 2683.82 2453)">[0, 50[ NM</text></g><g><text fill="#595959" font-family="Calibri,Calibri_MSFontService,sans-serif" font-weight="400" font-size="50" transform="matrix(0.707107 -0.707107 0.707107 0.707107 2803.11 2489)">[50, 100[ NM</text></g><g><text fill="#595959" font-family="Calibri,Calibri_MSFontService,sans-serif" font-weight="400" font-size="50" transform="matrix(0.707107 -0.707107 0.707107 0.707107 2940.47 2507)">[100, 200[ NM</text></g><g><text fill="#595959" font-family="Calibri,Calibri_MSFontService,sans-serif" font-weight="400" font-size="50" transform="matrix(0.707107 -0.707107 0.707107 0.707107 3095.9 2507)">[200, 400[ NM</text></g><g><text fill="#595959" font-family="Calibri,Calibri_MSFontService,sans-serif" font-weight="400" font-size="50" transform="matrix(0.707107 -0.707107 0.707107 0.707107 3251.32 2507)">[400, 600[ NM</text></g><g><text fill="#595959" font-family="Calibri,Calibri_MSFontService,sans-serif" font-weight="400" font-size="50" transform="matrix(0.707107 -0.707107 0.707107 0.707107 3406.75 2507)">[600, 800[ NM</text></g><g><text fill="#595959" font-family="Calibri,Calibri_MSFontService,sans-serif" font-weight="400" font-size="50" transform="matrix(0.707107 -0.707107 0.707107 0.707107 3544.11 2525)">[800, 1000[ NM</text></g><g><text fill="#595959" font-family="Calibri,Calibri_MSFontService,sans-serif" font-weight="400" font-size="50" transform="matrix(0.707107 -0.707107 0.707107 0.707107 3681.47 2543)">[1000, 1200[ NM</text></g><g><text fill="#595959" font-family="Calibri,Calibri_MSFontService,sans-serif" font-weight="400" font-size="50" transform="matrix(0.707107 -0.707107 0.707107 0.707107 3836.89 2543)">[1200, 1600[ NM</text></g><g><text fill="#595959" font-family="Calibri,Calibri_MSFontService,sans-serif" font-weight="400" font-size="50" transform="matrix(0.707107 -0.707107 0.707107 0.707107 4059.84 2476)">&gt;= 1600 NM</text></g><g><rect x="4457" y="1856" width="459" height="376" fill="#F2F2F2"/></g><g><rect x="4483" y="1902" width="88" height="29.9999" fill="#4F81BD"/></g><g><text fill="#595959" font-family="Calibri,Calibri_MSFontService,sans-serif" font-weight="400" font-size="55" transform="matrix(1 0 0 1 4580.58 1932)"> Share of</text></g><g><text fill="#595959" font-family="Calibri,Calibri_MSFontService,sans-serif" font-weight="400" font-size="55" transform="matrix(1 0 0 1 4580.58 2000)">distance band</text></g><g><path d="M4483 2105 4571 2105" stroke="#FFC20A" stroke-width="10.3125" stroke-linecap="round" stroke-linejoin="round" stroke-miterlimit="10" fill="none" fill-rule="evenodd"/></g><g><text fill="#595959" font-family="Calibri,Calibri_MSFontService,sans-serif" font-weight="400" font-size="55" transform="matrix(1 0 0 1 4580.58 2121)"> Cumulated</text></g><g><text fill="#595959" font-family="Calibri,Calibri_MSFontService,sans-serif" font-weight="400" font-size="55" transform="matrix(1 0 0 1 4580.58 2188)">share</text></g></g></svg>