<svg width="2147" height="1451" xmlns="http://www.w3.org/2000/svg" xmlns:xlink="http://www.w3.org/1999/xlink" xml:space="preserve" overflow="hidden"><defs><clipPath id="clip0"><rect x="2485" y="1062" width="2147" height="1451"/></clipPath><clipPath id="clip1"><rect x="2485" y="1062" width="2146" height="1451"/></clipPath><clipPath id="clip2"><rect x="2639" y="1101" width="1814" height="1004"/></clipPath><clipPath id="clip3"><rect x="2485" y="1062" width="2146" height="1451"/></clipPath><clipPath id="clip4"><rect x="2639" y="1101" width="1814" height="1004"/></clipPath><clipPath id="clip5"><rect x="2485" y="1062" width="2146" height="1451"/></clipPath><clipPath id="clip6"><rect x="2485" y="1062" width="2146" height="1451"/></clipPath><clipPath id="clip7"><rect x="2485" y="1062" width="2146" height="1451"/></clipPath><clipPath id="clip8"><rect x="2485" y="1062" width="2146" height="1451"/></clipPath><clipPath id="clip9"><rect x="2485" y="1062" width="2146" height="1451"/></clipPath><clipPath id="clip10"><rect x="2485" y="1062" width="2146" height="1451"/></clipPath><clipPath id="clip11"><rect x="2485" y="1062" width="2146" height="1451"/></clipPath><clipPath id="clip12"><rect x="2485" y="1062" width="2146" height="1451"/></clipPath><clipPath id="clip13"><rect x="2485" y="1062" width="2146" height="1451"/></clipPath><clipPath id="clip14"><rect x="2485" y="1062" width="2146" height="1451"/></clipPath><clipPath id="clip15"><rect x="2485" y="1062" width="2146" height="1451"/></clipPath><clipPath id="clip16"><rect x="2485" y="1062" width="2146" height="1451"/></clipPath><clipPath id="clip17"><rect x="2485" y="1062" width="2146" height="1451"/></clipPath><clipPath id="clip18"><rect x="2485" y="1062" width="2146" height="1451"/></clipPath><clipPath id="clip19"><rect x="2485" y="1062" width="2146" height="1451"/></clipPath><clipPath id="clip20"><rect x="2485" y="1062" width="2146" height="1451"/></clipPath><clipPath id="clip21"><rect x="2485" y="1062" width="2146" height="1451"/></clipPath><clipPath id="clip22"><rect x="2485" y="1062" width="2146" height="1451"/></clipPath><clipPath id="clip23"><rect x="2485" y="1062" width="2146" height="1451"/></clipPath><clipPath id="clip24"><rect x="2485" y="1062" width="2146" height="1451"/></clipPath><clipPath id="clip25"><rect x="2485" y="1062" width="2146" height="1451"/></clipPath><clipPath id="clip26"><rect x="2485" y="1062" width="2146" height="1451"/></clipPath><clipPath id="clip27"><rect x="2485" y="1062" width="2146" height="1451"/></clipPath><clipPath id="clip28"><rect x="2485" y="1062" width="2146" height="1451"/></clipPath><clipPath id="clip29"><rect x="2485" y="1062" width="2146" height="1451"/></clipPath><clipPath id="clip30"><rect x="2485" y="1062" width="2146" height="1451"/></clipPath><clipPath id="clip31"><rect x="2485" y="1062" width="2146" height="1451"/></clipPath><clipPath id="clip32"><rect x="2485" y="1062" width="2146" height="1451"/></clipPath><clipPath id="clip33"><rect x="2485" y="1062" width="2146" height="1451"/></clipPath><clipPath id="clip34"><rect x="2485" y="1062" width="2146" height="1451"/></clipPath><clipPath id="clip35"><rect x="2485" y="1062" width="2146" height="1451"/></clipPath><clipPath id="clip36"><rect x="2485" y="1062" width="2146" height="1451"/></clipPath><clipPath id="clip37"><rect x="2485" y="1062" width="2146" height="1451"/></clipPath><clipPath id="clip38"><rect x="2485" y="1062" width="2146" height="1451"/></clipPath><clipPath id="clip39"><rect x="2485" y="1062" width="2146" height="1451"/></clipPath><clipPath id="clip40"><rect x="2485" y="1062" width="2146" height="1451"/></clipPath><clipPath id="clip41"><rect x="2485" y="1062" width="2146" height="1451"/></clipPath><clipPath id="clip42"><rect x="2485" y="1062" width="2146" height="1451"/></clipPath></defs><g clip-path="url(#clip0)" transform="translate(-2485 -1062)"><path d="M2486 1108.8C2486 1083.51 2506.51 1063 2531.8 1063L4586.2 1063C4611.49 1063 4632 1083.51 4632 1108.8L4632 2467.2C4632 2492.49 4611.49 2513 4586.2 2513L2531.8 2513C2506.51 2513 2486 2492.49 2486 2467.2Z" fill="#FFFFFF" fill-rule="evenodd"/><g clip-path="url(#clip1)"><path d="M2639.5 2002.57 4450.5 2002.57M2639.5 1901.56 4450.5 1901.56M2639.5 1801.56 4450.5 1801.56M2639.5 1701.56 4450.5 1701.56M2639.5 1601.55 4450.5 1601.55M2639.5 1501.55 4450.5 1501.55M2639.5 1401.55 4450.5 1401.55M2639.5 1301.54 4450.5 1301.54M2639.5 1201.54 4450.5 1201.54M2639.5 1101.5 4450.5 1101.5" stroke="#D9D9D9" stroke-width="3.4375" stroke-linejoin="round" stroke-miterlimit="10" fill="none"/></g><g clip-path="url(#clip2)"><path d="M2694.09 2079.07 2766.09 2079.07 2766.09 2102 2694.09 2102ZM2875.09 2018.07 2947.1 2018.07 2947.1 2102 2875.09 2102ZM3056.1 1883.06 3128.1 1883.06 3128.1 2102 3056.1 2102ZM3237.11 1592.05 3309.11 1592.05 3309.11 2102 3237.11 2102ZM3418.11 1729.06 3490.11 1729.06 3490.11 2102 3418.11 2102ZM3599.12 1847.06 3671.12 1847.06 3671.12 2102 3599.12 2102ZM3780.12 1897.06 3853.13 1897.06 3853.13 2102 3780.12 2102ZM3961.13 1968.06 4034.13 1968.06 4034.13 2102 3961.13 2102ZM4142.14 1974.06 4215.14 1974.06 4215.14 2102 4142.14 2102ZM4323.14 2032.07 4396.14 2032.07 4396.14 2102 4323.14 2102Z" fill="#002060"/></g><g clip-path="url(#clip3)"><path d="M2639.5 2102.5 4450.5 2102.5" stroke="#D9D9D9" stroke-width="3.4375" stroke-linejoin="round" stroke-miterlimit="10" fill="none" fill-rule="evenodd"/></g><g clip-path="url(#clip4)"><path d="M2730 2091 2911.1 2049.07 3092.1 1939.06 3273.11 1684.06 3454.11 1497.05 3635.12 1370.04 3816.12 1267.04 3997.13 1200.04 4178.14 1136.04 4360 1101" stroke="#C55A11" stroke-width="10.3125" stroke-linecap="round" stroke-linejoin="round" stroke-miterlimit="10" fill="none"/></g><g clip-path="url(#clip5)"><path d="M2729.12 2079.31 2740.12 2101.31 2718.12 2101.31Z" stroke="#C55A11" stroke-width="3.4375" stroke-linejoin="round" stroke-miterlimit="10" fill="#C55A11"/><path d="M2911.12 2037.31 2922.12 2059.31 2900.13 2059.31Z" stroke="#C55A11" stroke-width="3.4375" stroke-linejoin="round" stroke-miterlimit="10" fill="#C55A11"/><path d="M3092.12 1928.31 3103.12 1950.31 3081.12 1950.31Z" stroke="#C55A11" stroke-width="3.4375" stroke-linejoin="round" stroke-miterlimit="10" fill="#C55A11"/><path d="M3273.12 1673.31 3284.12 1695.31 3262.12 1695.31Z" stroke="#C55A11" stroke-width="3.4375" stroke-linejoin="round" stroke-miterlimit="10" fill="#C55A11"/><path d="M3454.12 1486.31 3465.12 1508.31 3443.13 1508.31Z" stroke="#C55A11" stroke-width="3.4375" stroke-linejoin="round" stroke-miterlimit="10" fill="#C55A11"/><path d="M3635.12 1358.31 3646.12 1380.31 3624.12 1380.31Z" stroke="#C55A11" stroke-width="3.4375" stroke-linejoin="round" stroke-miterlimit="10" fill="#C55A11"/><path d="M3816.12 1256.31 3827.12 1278.31 3805.13 1278.31Z" stroke="#C55A11" stroke-width="3.4375" stroke-linejoin="round" stroke-miterlimit="10" fill="#C55A11"/><path d="M3997.12 1189.31 4008.12 1211.31 3986.12 1211.31Z" stroke="#C55A11" stroke-width="3.4375" stroke-linejoin="round" stroke-miterlimit="10" fill="#C55A11"/><path d="M4178.12 1125.31 4189.12 1147.31 4167.12 1147.31Z" stroke="#C55A11" stroke-width="3.4375" stroke-linejoin="round" stroke-miterlimit="10" fill="#C55A11"/><path d="M4359.12 1090.31 4370.12 1112.31 4348.12 1112.31Z" stroke="#C55A11" stroke-width="3.4375" stroke-linejoin="round" stroke-miterlimit="10" fill="#C55A11"/></g><g clip-path="url(#clip6)"><text fill="#C55A11" font-family="Calibri,Calibri_MSFontService,sans-serif" font-weight="700" font-size="55" transform="matrix(1 0 0 1 4501.3 2118)">0%</text></g><g clip-path="url(#clip7)"><text fill="#C55A11" font-family="Calibri,Calibri_MSFontService,sans-serif" font-weight="700" font-size="55" transform="matrix(1 0 0 1 4501.3 2017)">10%</text></g><g clip-path="url(#clip8)"><text fill="#C55A11" font-family="Calibri,Calibri_MSFontService,sans-serif" font-weight="700" font-size="55" transform="matrix(1 0 0 1 4501.3 1917)">20%</text></g><g clip-path="url(#clip9)"><text fill="#C55A11" font-family="Calibri,Calibri_MSFontService,sans-serif" font-weight="700" font-size="55" transform="matrix(1 0 0 1 4501.3 1817)">30%</text></g><g clip-path="url(#clip10)"><text fill="#C55A11" font-family="Calibri,Calibri_MSFontService,sans-serif" font-weight="700" font-size="55" transform="matrix(1 0 0 1 4501.3 1717)">40%</text></g><g clip-path="url(#clip11)"><text fill="#C55A11" font-family="Calibri,Calibri_MSFontService,sans-serif" font-weight="700" font-size="55" transform="matrix(1 0 0 1 4501.3 1617)">50%</text></g><g clip-path="url(#clip12)"><text fill="#C55A11" font-family="Calibri,Calibri_MSFontService,sans-serif" font-weight="700" font-size="55" transform="matrix(1 0 0 1 4501.3 1517)">60%</text></g><g clip-path="url(#clip13)"><text fill="#C55A11" font-family="Calibri,Calibri_MSFontService,sans-serif" font-weight="700" font-size="55" transform="matrix(1 0 0 1 4501.3 1417)">70%</text></g><g clip-path="url(#clip14)"><text fill="#C55A11" font-family="Calibri,Calibri_MSFontService,sans-serif" font-weight="700" font-size="55" transform="matrix(1 0 0 1 4501.3 1317)">80%</text></g><g clip-path="url(#clip15)"><text fill="#C55A11" font-family="Calibri,Calibri_MSFontService,sans-serif" font-weight="700" font-size="55" transform="matrix(1 0 0 1 4501.3 1217)">90%</text></g><g clip-path="url(#clip16)"><text fill="#C55A11" font-family="Calibri,Calibri_MSFontService,sans-serif" font-weight="700" font-size="55" transform="matrix(1 0 0 1 4501.3 1117)">100%</text></g><g clip-path="url(#clip17)"><text fill="#002060" font-family="Calibri,Calibri_MSFontService,sans-serif" font-weight="700" font-size="55" transform="matrix(1 0 0 1 2520.37 2118)">0%</text></g><g clip-path="url(#clip18)"><text fill="#002060" font-family="Calibri,Calibri_MSFontService,sans-serif" font-weight="700" font-size="55" transform="matrix(1 0 0 1 2520.37 2017)">5%</text></g><g clip-path="url(#clip19)"><text fill="#002060" font-family="Calibri,Calibri_MSFontService,sans-serif" font-weight="700" font-size="55" transform="matrix(1 0 0 1 2492.5 1917)">10%</text></g><g clip-path="url(#clip20)"><text fill="#002060" font-family="Calibri,Calibri_MSFontService,sans-serif" font-weight="700" font-size="55" transform="matrix(1 0 0 1 2492.5 1817)">15%</text></g><g clip-path="url(#clip21)"><text fill="#002060" font-family="Calibri,Calibri_MSFontService,sans-serif" font-weight="700" font-size="55" transform="matrix(1 0 0 1 2492.5 1717)">20%</text></g><g clip-path="url(#clip22)"><text fill="#002060" font-family="Calibri,Calibri_MSFontService,sans-serif" font-weight="700" font-size="55" transform="matrix(1 0 0 1 2492.5 1617)">25%</text></g><g clip-path="url(#clip23)"><text fill="#002060" font-family="Calibri,Calibri_MSFontService,sans-serif" font-weight="700" font-size="55" transform="matrix(1 0 0 1 2492.5 1517)">30%</text></g><g clip-path="url(#clip24)"><text fill="#002060" font-family="Calibri,Calibri_MSFontService,sans-serif" font-weight="700" font-size="55" transform="matrix(1 0 0 1 2492.5 1417)">35%</text></g><g clip-path="url(#clip25)"><text fill="#002060" font-family="Calibri,Calibri_MSFontService,sans-serif" font-weight="700" font-size="55" transform="matrix(1 0 0 1 2492.5 1317)">40%</text></g><g clip-path="url(#clip26)"><text fill="#002060" font-family="Calibri,Calibri_MSFontService,sans-serif" font-weight="700" font-size="55" transform="matrix(1 0 0 1 2492.5 1217)">45%</text></g><g clip-path="url(#clip27)"><text fill="#002060" font-family="Calibri,Calibri_MSFontService,sans-serif" font-weight="700" font-size="55" transform="matrix(1 0 0 1 2492.5 1117)">50%</text></g><g clip-path="url(#clip28)"><text fill="#595959" font-family="Calibri,Calibri_MSFontService,sans-serif" font-weight="400" font-size="48" transform="matrix(0.707107 -0.707107 0.707107 0.707107 2594.12 2313)">[0, 50[ NM</text></g><g clip-path="url(#clip29)"><text fill="#595959" font-family="Calibri,Calibri_MSFontService,sans-serif" font-weight="400" font-size="48" transform="matrix(0.707107 -0.707107 0.707107 0.707107 2740.73 2347)">[50, 100[ NM</text></g><g clip-path="url(#clip30)"><text fill="#595959" font-family="Calibri,Calibri_MSFontService,sans-serif" font-weight="400" font-size="48" transform="matrix(0.707107 -0.707107 0.707107 0.707107 2904.58 2365)">[100, 200[ NM</text></g><g clip-path="url(#clip31)"><text fill="#595959" font-family="Calibri,Calibri_MSFontService,sans-serif" font-weight="400" font-size="48" transform="matrix(0.707107 -0.707107 0.707107 0.707107 3085.67 2365)">[200, 400[ NM</text></g><g clip-path="url(#clip32)"><text fill="#595959" font-family="Calibri,Calibri_MSFontService,sans-serif" font-weight="400" font-size="48" transform="matrix(0.707107 -0.707107 0.707107 0.707107 3266.76 2365)">[400, 600[ NM</text></g><g clip-path="url(#clip33)"><text fill="#595959" font-family="Calibri,Calibri_MSFontService,sans-serif" font-weight="400" font-size="48" transform="matrix(0.707107 -0.707107 0.707107 0.707107 3447.85 2365)">[600, 800[ NM</text></g><g clip-path="url(#clip34)"><text fill="#595959" font-family="Calibri,Calibri_MSFontService,sans-serif" font-weight="400" font-size="48" transform="matrix(0.707107 -0.707107 0.707107 0.707107 3611.7 2382)">[800, 1000[ NM</text></g><g clip-path="url(#clip35)"><text fill="#595959" font-family="Calibri,Calibri_MSFontService,sans-serif" font-weight="400" font-size="48" transform="matrix(0.707107 -0.707107 0.707107 0.707107 3775.54 2399)">[1000, 1200[ NM</text></g><g clip-path="url(#clip36)"><text fill="#595959" font-family="Calibri,Calibri_MSFontService,sans-serif" font-weight="400" font-size="48" transform="matrix(0.707107 -0.707107 0.707107 0.707107 3956.63 2399)">[1200, 1600[ NM</text></g><g clip-path="url(#clip37)"><text fill="#595959" font-family="Calibri,Calibri_MSFontService,sans-serif" font-weight="400" font-size="48" transform="matrix(0.707107 -0.707107 0.707107 0.707107 4202.15 2335)">&gt;= 1600 NM</text></g><g clip-path="url(#clip38)"><rect x="2954" y="2424" width="88" height="30" fill="#002060"/></g><g clip-path="url(#clip39)"><text fill="#595959" font-family="Calibri,Calibri_MSFontService,sans-serif" font-weight="400" font-size="55" transform="matrix(1 0 0 1 3051.35 2454)"> Share of distance band</text></g><g clip-path="url(#clip40)"><path d="M3677 2439 3765 2439" stroke="#C55A11" stroke-width="10.3125" stroke-linecap="round" stroke-linejoin="round" stroke-miterlimit="10" fill="none" fill-rule="evenodd"/></g><g clip-path="url(#clip41)"><path d="M3720.5 2427.5 3731.5 2449.5 3709.5 2449.5Z" stroke="#C55A11" stroke-width="3.4375" stroke-linejoin="round" stroke-miterlimit="10" fill="#C55A11"/></g><g clip-path="url(#clip42)"><text fill="#595959" font-family="Calibri,Calibri_MSFontService,sans-serif" font-weight="400" font-size="55" transform="matrix(1 0 0 1 3774.21 2454)"> Cumulated share</text></g></g></svg>