<svg width="4918" height="2807" xmlns="http://www.w3.org/2000/svg" xmlns:xlink="http://www.w3.org/1999/xlink" xml:space="preserve" overflow="hidden"><defs><clipPath id="clip0"><rect x="-64" y="388" width="4918" height="2807"/></clipPath><clipPath id="clip1"><rect x="-64" y="388" width="4917" height="2806"/></clipPath><clipPath id="clip2"><rect x="115" y="455" width="4691" height="1783"/></clipPath><clipPath id="clip3"><rect x="-64" y="388" width="4917" height="2806"/></clipPath><clipPath id="clip4"><rect x="-64" y="388" width="4917" height="2806"/></clipPath><clipPath id="clip5"><rect x="-64" y="388" width="4917" height="2806"/></clipPath><clipPath id="clip6"><rect x="-64" y="388" width="4917" height="2806"/></clipPath><clipPath id="clip7"><rect x="-64" y="388" width="4917" height="2806"/></clipPath><clipPath id="clip8"><rect x="-64" y="388" width="4917" height="2806"/></clipPath><clipPath id="clip9"><rect x="-64" y="388" width="4917" height="2806"/></clipPath><clipPath id="clip10"><rect x="-64" y="388" width="4917" height="2806"/></clipPath><clipPath id="clip11"><rect x="-64" y="388" width="4917" height="2806"/></clipPath><clipPath id="clip12"><rect x="-64" y="388" width="4917" height="2806"/></clipPath><clipPath id="clip13"><rect x="-64" y="388" width="4917" height="2806"/></clipPath><clipPath id="clip14"><rect x="-64" y="388" width="4917" height="2806"/></clipPath><clipPath id="clip15"><rect x="-64" y="388" width="4917" height="2806"/></clipPath><clipPath id="clip16"><rect x="-64" y="388" width="4917" height="2806"/></clipPath><clipPath id="clip17"><rect x="-64" y="388" width="4917" height="2806"/></clipPath><clipPath id="clip18"><rect x="-64" y="388" width="4917" height="2806"/></clipPath><clipPath id="clip19"><rect x="-64" y="388" width="4917" height="2806"/></clipPath><clipPath id="clip20"><rect x="-64" y="388" width="4917" height="2806"/></clipPath><clipPath id="clip21"><rect x="-64" y="388" width="4917" height="2806"/></clipPath><clipPath id="clip22"><rect x="-64" y="388" width="4917" height="2806"/></clipPath><clipPath id="clip23"><rect x="-64" y="388" width="4917" height="2806"/></clipPath><clipPath id="clip24"><rect x="-64" y="388" width="4917" height="2806"/></clipPath><clipPath id="clip25"><rect x="-64" y="388" width="4917" height="2806"/></clipPath><clipPath id="clip26"><rect x="-64" y="388" width="4917" height="2806"/></clipPath><clipPath id="clip27"><rect x="-64" y="388" width="4917" height="2806"/></clipPath><clipPath id="clip28"><rect x="-64" y="388" width="4917" height="2806"/></clipPath><clipPath id="clip29"><rect x="-64" y="388" width="4917" height="2806"/></clipPath><clipPath id="clip30"><rect x="-64" y="388" width="4917" height="2806"/></clipPath><clipPath id="clip31"><rect x="-64" y="388" width="4917" height="2806"/></clipPath><clipPath id="clip32"><rect x="-64" y="388" width="4917" height="2806"/></clipPath><clipPath id="clip33"><rect x="-64" y="388" width="4917" height="2806"/></clipPath><clipPath id="clip34"><rect x="-64" y="388" width="4917" height="2806"/></clipPath><clipPath id="clip35"><rect x="-64" y="388" width="4917" height="2806"/></clipPath><clipPath id="clip36"><rect x="-64" y="388" width="4917" height="2806"/></clipPath><clipPath id="clip37"><rect x="-64" y="388" width="4917" height="2806"/></clipPath><clipPath id="clip38"><rect x="-64" y="388" width="4917" height="2806"/></clipPath><clipPath id="clip39"><rect x="-64" y="388" width="4917" height="2806"/></clipPath><clipPath id="clip40"><rect x="-64" y="388" width="4917" height="2806"/></clipPath><clipPath id="clip41"><rect x="-64" y="388" width="4917" height="2806"/></clipPath><clipPath id="clip42"><rect x="-64" y="388" width="4917" height="2806"/></clipPath><clipPath id="clip43"><rect x="-64" y="388" width="4917" height="2806"/></clipPath><clipPath id="clip44"><rect x="-64" y="388" width="4917" height="2806"/></clipPath><clipPath id="clip45"><rect x="-64" y="388" width="4917" height="2806"/></clipPath><clipPath id="clip46"><rect x="-64" y="388" width="4917" height="2806"/></clipPath><clipPath id="clip47"><rect x="-64" y="388" width="4917" height="2806"/></clipPath><clipPath id="clip48"><rect x="-64" y="388" width="4917" height="2806"/></clipPath><clipPath id="clip49"><rect x="-64" y="388" width="4917" height="2806"/></clipPath><clipPath id="clip50"><rect x="-64" y="388" width="4917" height="2806"/></clipPath><clipPath id="clip51"><rect x="-64" y="388" width="4917" height="2806"/></clipPath><clipPath id="clip52"><rect x="-64" y="388" width="4917" height="2806"/></clipPath><clipPath id="clip53"><rect x="-64" y="388" width="4917" height="2806"/></clipPath><clipPath id="clip54"><rect x="-64" y="388" width="4917" height="2806"/></clipPath><clipPath id="clip55"><rect x="-64" y="388" width="4917" height="2806"/></clipPath><clipPath id="clip56"><rect x="-64" y="388" width="4917" height="2806"/></clipPath><clipPath id="clip57"><rect x="-64" y="388" width="4917" height="2806"/></clipPath><clipPath id="clip58"><rect x="-64" y="388" width="4917" height="2806"/></clipPath><clipPath id="clip59"><rect x="-64" y="388" width="4917" height="2806"/></clipPath><clipPath id="clip60"><rect x="-64" y="388" width="4917" height="2806"/></clipPath><clipPath id="clip61"><rect x="-64" y="388" width="4917" height="2806"/></clipPath><clipPath id="clip62"><rect x="-64" y="388" width="4917" height="2806"/></clipPath><clipPath id="clip63"><rect x="-64" y="388" width="4917" height="2806"/></clipPath><clipPath id="clip64"><rect x="-64" y="388" width="4917" height="2806"/></clipPath><clipPath id="clip65"><rect x="-64" y="388" width="4917" height="2806"/></clipPath><clipPath id="clip66"><rect x="-64" y="388" width="4917" height="2806"/></clipPath><clipPath id="clip67"><rect x="-64" y="388" width="4917" height="2806"/></clipPath><clipPath id="clip68"><rect x="-64" y="388" width="4917" height="2806"/></clipPath><clipPath id="clip69"><rect x="-64" y="388" width="4917" height="2806"/></clipPath><clipPath id="clip70"><rect x="-64" y="388" width="4917" height="2806"/></clipPath><clipPath id="clip71"><rect x="-64" y="388" width="4917" height="2806"/></clipPath><clipPath id="clip72"><rect x="-64" y="388" width="4917" height="2806"/></clipPath><clipPath id="clip73"><rect x="-64" y="388" width="4917" height="2806"/></clipPath><clipPath id="clip74"><rect x="-64" y="388" width="4917" height="2806"/></clipPath><clipPath id="clip75"><rect x="-64" y="388" width="4917" height="2806"/></clipPath><clipPath id="clip76"><rect x="-64" y="388" width="4917" height="2806"/></clipPath><clipPath id="clip77"><rect x="-64" y="388" width="4917" height="2806"/></clipPath><clipPath id="clip78"><rect x="-64" y="388" width="4917" height="2806"/></clipPath><clipPath id="clip79"><rect x="-64" y="388" width="4917" height="2806"/></clipPath><clipPath id="clip80"><rect x="-64" y="388" width="4917" height="2806"/></clipPath><clipPath id="clip81"><rect x="-64" y="388" width="4917" height="2806"/></clipPath><clipPath id="clip82"><rect x="-64" y="388" width="4917" height="2806"/></clipPath><clipPath id="clip83"><rect x="-64" y="388" width="4917" height="2806"/></clipPath><clipPath id="clip84"><rect x="-64" y="388" width="4917" height="2806"/></clipPath><clipPath id="clip85"><rect x="-64" y="388" width="4917" height="2806"/></clipPath><clipPath id="clip86"><rect x="-64" y="388" width="4917" height="2806"/></clipPath></defs><g clip-path="url(#clip0)" transform="translate(64 -388)"><g clip-path="url(#clip1)"><path d="M115.5 1938.56 4803.5 1938.56M115.5 1642.55 4803.5 1642.55M115.5 1345.54 4803.5 1345.54M115.5 1048.53 4803.5 1048.53M115.5 752.525 4803.5 752.525M115.5 455.5 4803.5 455.5" stroke="#D9D9D9" stroke-width="3.4375" stroke-linejoin="round" stroke-miterlimit="10" fill="none"/></g><g clip-path="url(#clip2)"><path d="M131.004 482.016 223.007 482.016 223.007 2235 131.004 2235ZM254.008 881.029 347.011 881.029 347.011 2235 254.008 2235ZM377.012 897.029 470.015 897.029 470.015 2235 377.012 2235ZM501.016 989.032 593.019 989.032 593.019 2235 501.016 2235ZM624.02 1030.03 717.024 1030.03 717.024 2235 624.02 2235ZM747.025 1041.03 840.028 1041.03 840.028 2235 747.025 2235ZM871.029 1065.03 963.032 1065.03 963.032 2235 871.029 2235ZM994.033 1085.04 1087.04 1085.04 1087.04 2235 994.033 2235ZM1117.04 1142.04 1210.04 1142.04 1210.04 2235 1117.04 2235ZM1241.04 1147.04 1334.04 1147.04 1334.04 2235 1241.04 2235ZM1364.04 1188.04 1457.05 1188.04 1457.05 2235 1364.04 2235ZM1488.05 1213.04 1580.05 1213.04 1580.05 2235 1488.05 2235ZM1611.05 1291.04 1704.06 1291.04 1704.06 2235 1611.05 2235ZM1734.06 1353.04 1827.06 1353.04 1827.06 2235 1734.06 2235ZM1858.06 1356.04 1950.06 1356.04 1950.06 2235 1858.06 2235ZM1981.06 1386.05 2074.07 1386.05 2074.07 2235 1981.06 2235ZM2104.07 1398.05 2197.07 1398.05 2197.07 2235 2104.07 2235ZM2228.07 1561.05 2321.08 1561.05 2321.08 2235 2228.07 2235ZM2351.08 1572.05 2444.08 1572.05 2444.08 2235 2351.08 2235ZM2475.08 1592.05 2567.08 1592.05 2567.08 2235 2475.08 2235ZM2598.09 1598.05 2691.09 1598.05 2691.09 2235 2598.09 2235ZM2721.09 1636.05 2814.09 1636.05 2814.09 2235 2721.09 2235ZM2845.09 1637.05 2937.1 1637.05 2937.1 2235 2845.09 2235ZM2968.1 1639.05 3061.1 1639.05 3061.1 2235 2968.1 2235ZM3091.1 1652.05 3184.1 1652.05 3184.1 2235 3091.1 2235ZM3215.11 1686.06 3307.11 1686.06 3307.11 2235 3215.11 2235ZM3338.11 1687.06 3431.11 1687.06 3431.11 2235 3338.11 2235ZM3461.11 1742.06 3554.12 1742.06 3554.12 2235 3461.11 2235ZM3585.12 1743.06 3678.12 1743.06 3678.12 2235 3585.12 2235ZM3708.12 1743.06 3801.12 1743.06 3801.12 2235 3708.12 2235ZM3832.13 1765.06 3924.13 1765.06 3924.13 2235 3832.13 2235ZM3955.13 1767.06 4048.13 1767.06 4048.13 2235 3955.13 2235ZM4078.13 1826.06 4171.14 1826.06 4171.14 2235 4078.13 2235ZM4202.14 1853.06 4294.14 1853.06 4294.14 2235 4202.14 2235ZM4325.14 1883.06 4418.14 1883.06 4418.14 2235 4325.14 2235ZM4448.15 1913.06 4541.15 1913.06 4541.15 2235 4448.15 2235ZM4572.15 1920.06 4665.15 1920.06 4665.15 2235 4572.15 2235ZM4695.15 1934.06 4788.16 1934.06 4788.16 2235 4695.15 2235Z" fill="#4F81BD"/></g><g clip-path="url(#clip3)"><path d="M115.5 2235.5 4803.5 2235.5" stroke="#D9D9D9" stroke-width="3.4375" stroke-linejoin="round" stroke-miterlimit="10" fill="none" fill-rule="evenodd"/></g><g clip-path="url(#clip4)"><text fill="#003366" font-family="Roboto,Roboto_MSFontService,sans-serif" font-weight="400" font-size="73" transform="matrix(1 0 0 1 135.733 466)">59</text></g><g clip-path="url(#clip5)"><text fill="#003366" font-family="Roboto,Roboto_MSFontService,sans-serif" font-weight="400" font-size="73" transform="matrix(1 0 0 1 259.105 842)">46</text></g><g clip-path="url(#clip6)"><text fill="#003366" font-family="Roboto,Roboto_MSFontService,sans-serif" font-weight="400" font-size="73" transform="matrix(1 0 0 1 382.476 858)">45</text></g><g clip-path="url(#clip7)"><text fill="#003366" font-family="Roboto,Roboto_MSFontService,sans-serif" font-weight="400" font-size="73" transform="matrix(1 0 0 1 505.847 951)">42</text></g><g clip-path="url(#clip8)"><text fill="#003366" font-family="Roboto,Roboto_MSFontService,sans-serif" font-weight="400" font-size="73" transform="matrix(1 0 0 1 629.218 992)">41</text></g><g clip-path="url(#clip9)"><text fill="#003366" font-family="Roboto,Roboto_MSFontService,sans-serif" font-weight="400" font-size="73" transform="matrix(1 0 0 1 752.589 1002)">40</text></g><g clip-path="url(#clip10)"><text fill="#003366" font-family="Roboto,Roboto_MSFontService,sans-serif" font-weight="400" font-size="73" transform="matrix(1 0 0 1 875.961 1026)">39</text></g><g clip-path="url(#clip11)"><text fill="#003366" font-family="Roboto,Roboto_MSFontService,sans-serif" font-weight="400" font-size="73" transform="matrix(1 0 0 1 999.332 1046)">39</text></g><g clip-path="url(#clip12)"><text fill="#003366" font-family="Roboto,Roboto_MSFontService,sans-serif" font-weight="400" font-size="73" transform="matrix(1 0 0 1 1122.7 1104)">37</text></g><g clip-path="url(#clip13)"><text fill="#003366" font-family="Roboto,Roboto_MSFontService,sans-serif" font-weight="400" font-size="73" transform="matrix(1 0 0 1 1246.07 1109)">37</text></g><g clip-path="url(#clip14)"><text fill="#003366" font-family="Roboto,Roboto_MSFontService,sans-serif" font-weight="400" font-size="73" transform="matrix(1 0 0 1 1369.45 1149)">35</text></g><g clip-path="url(#clip15)"><text fill="#003366" font-family="Roboto,Roboto_MSFontService,sans-serif" font-weight="400" font-size="73" transform="matrix(1 0 0 1 1492.82 1175)">34</text></g><g clip-path="url(#clip16)"><text fill="#003366" font-family="Roboto,Roboto_MSFontService,sans-serif" font-weight="400" font-size="73" transform="matrix(1 0 0 1 1616.19 1252)">32</text></g><g clip-path="url(#clip17)"><text fill="#003366" font-family="Roboto,Roboto_MSFontService,sans-serif" font-weight="400" font-size="73" transform="matrix(1 0 0 1 1739.56 1314)">30</text></g><g clip-path="url(#clip18)"><text fill="#003366" font-family="Roboto,Roboto_MSFontService,sans-serif" font-weight="400" font-size="73" transform="matrix(1 0 0 1 1862.93 1317)">30</text></g><g clip-path="url(#clip19)"><text fill="#003366" font-family="Roboto,Roboto_MSFontService,sans-serif" font-weight="400" font-size="73" transform="matrix(1 0 0 1 1986.3 1347)">29</text></g><g clip-path="url(#clip20)"><text fill="#003366" font-family="Roboto,Roboto_MSFontService,sans-serif" font-weight="400" font-size="73" transform="matrix(1 0 0 1 2109.67 1360)">28</text></g><g clip-path="url(#clip21)"><text fill="#003366" font-family="Roboto,Roboto_MSFontService,sans-serif" font-weight="400" font-size="73" transform="matrix(1 0 0 1 2233.04 1523)">23</text></g><g clip-path="url(#clip22)"><text fill="#003366" font-family="Roboto,Roboto_MSFontService,sans-serif" font-weight="400" font-size="73" transform="matrix(1 0 0 1 2356.41 1533)">22</text></g><g clip-path="url(#clip23)"><text fill="#003366" font-family="Roboto,Roboto_MSFontService,sans-serif" font-weight="400" font-size="73" transform="matrix(1 0 0 1 2479.79 1553)">22</text></g><g clip-path="url(#clip24)"><text fill="#003366" font-family="Roboto,Roboto_MSFontService,sans-serif" font-weight="400" font-size="73" transform="matrix(1 0 0 1 2603.16 1559)">22</text></g><g clip-path="url(#clip25)"><text fill="#003366" font-family="Roboto,Roboto_MSFontService,sans-serif" font-weight="400" font-size="73" transform="matrix(1 0 0 1 2726.53 1598)">20</text></g><g clip-path="url(#clip26)"><text fill="#003366" font-family="Roboto,Roboto_MSFontService,sans-serif" font-weight="400" font-size="73" transform="matrix(1 0 0 1 2849.9 1599)">20</text></g><g clip-path="url(#clip27)"><text fill="#003366" font-family="Roboto,Roboto_MSFontService,sans-serif" font-weight="400" font-size="73" transform="matrix(1 0 0 1 2973.27 1600)">20</text></g><g clip-path="url(#clip28)"><text fill="#003366" font-family="Roboto,Roboto_MSFontService,sans-serif" font-weight="400" font-size="73" transform="matrix(1 0 0 1 3096.64 1613)">20</text></g><g clip-path="url(#clip29)"><text fill="#003366" font-family="Roboto,Roboto_MSFontService,sans-serif" font-weight="400" font-size="73" transform="matrix(1 0 0 1 3220.01 1647)">19</text></g><g clip-path="url(#clip30)"><text fill="#003366" font-family="Roboto,Roboto_MSFontService,sans-serif" font-weight="400" font-size="73" transform="matrix(1 0 0 1 3343.38 1648)">18</text></g><g clip-path="url(#clip31)"><text fill="#003366" font-family="Roboto,Roboto_MSFontService,sans-serif" font-weight="400" font-size="73" transform="matrix(1 0 0 1 3466.75 1703)">17</text></g><g clip-path="url(#clip32)"><text fill="#003366" font-family="Roboto,Roboto_MSFontService,sans-serif" font-weight="400" font-size="73" transform="matrix(1 0 0 1 3590.13 1705)">17</text></g><g clip-path="url(#clip33)"><text fill="#003366" font-family="Roboto,Roboto_MSFontService,sans-serif" font-weight="400" font-size="73" transform="matrix(1 0 0 1 3713.5 1705)">17</text></g><g clip-path="url(#clip34)"><text fill="#003366" font-family="Roboto,Roboto_MSFontService,sans-serif" font-weight="400" font-size="73" transform="matrix(1 0 0 1 3836.87 1727)">16</text></g><g clip-path="url(#clip35)"><text fill="#003366" font-family="Roboto,Roboto_MSFontService,sans-serif" font-weight="400" font-size="73" transform="matrix(1 0 0 1 3960.24 1729)">16</text></g><g clip-path="url(#clip36)"><text fill="#003366" font-family="Roboto,Roboto_MSFontService,sans-serif" font-weight="400" font-size="73" transform="matrix(1 0 0 1 4083.61 1787)">14</text></g><g clip-path="url(#clip37)"><text fill="#003366" font-family="Roboto,Roboto_MSFontService,sans-serif" font-weight="400" font-size="73" transform="matrix(1 0 0 1 4206.98 1815)">13</text></g><g clip-path="url(#clip38)"><text fill="#003366" font-family="Roboto,Roboto_MSFontService,sans-serif" font-weight="400" font-size="73" transform="matrix(1 0 0 1 4330.35 1844)">12</text></g><g clip-path="url(#clip39)"><text fill="#003366" font-family="Roboto,Roboto_MSFontService,sans-serif" font-weight="400" font-size="73" transform="matrix(1 0 0 1 4453.72 1874)">11</text></g><g clip-path="url(#clip40)"><text fill="#003366" font-family="Roboto,Roboto_MSFontService,sans-serif" font-weight="400" font-size="73" transform="matrix(1 0 0 1 4577.1 1882)">11</text></g><g clip-path="url(#clip41)"><text fill="#003366" font-family="Roboto,Roboto_MSFontService,sans-serif" font-weight="400" font-size="73" transform="matrix(1 0 0 1 4700.47 1895)">10</text></g><g clip-path="url(#clip42)"><text fill="#003366" font-family="Roboto,Roboto_MSFontService,sans-serif" font-weight="400" font-size="73" transform="matrix(1 0 0 1 6.80643 2258)">0</text></g><g clip-path="url(#clip43)"><text fill="#003366" font-family="Roboto,Roboto_MSFontService,sans-serif" font-weight="400" font-size="73" transform="matrix(1 0 0 1 -34.375 1961)">10</text></g><g clip-path="url(#clip44)"><text fill="#003366" font-family="Roboto,Roboto_MSFontService,sans-serif" font-weight="400" font-size="73" transform="matrix(1 0 0 1 -34.375 1664)">20</text></g><g clip-path="url(#clip45)"><text fill="#003366" font-family="Roboto,Roboto_MSFontService,sans-serif" font-weight="400" font-size="73" transform="matrix(1 0 0 1 -34.375 1368)">30</text></g><g clip-path="url(#clip46)"><text fill="#003366" font-family="Roboto,Roboto_MSFontService,sans-serif" font-weight="400" font-size="73" transform="matrix(1 0 0 1 -34.375 1071)">40</text></g><g clip-path="url(#clip47)"><text fill="#003366" font-family="Roboto,Roboto_MSFontService,sans-serif" font-weight="400" font-size="73" transform="matrix(1 0 0 1 -34.375 775)">50</text></g><g clip-path="url(#clip48)"><text fill="#003366" font-family="Roboto,Roboto_MSFontService,sans-serif" font-weight="400" font-size="73" transform="matrix(1 0 0 1 -34.375 478)">60</text></g><g clip-path="url(#clip49)"><text fill="#003366" font-family="Roboto,Roboto_MSFontService,sans-serif" font-weight="400" font-size="73" transform="matrix(6.12323e-17 -1 1 6.12323e-17 202.903 2466)">DHMI</text></g><g clip-path="url(#clip50)"><text fill="#003366" font-family="Roboto,Roboto_MSFontService,sans-serif" font-weight="400" font-size="73" transform="matrix(6.12323e-17 -1 1 6.12323e-17 326.274 2530)">ENAIRE</text></g><g clip-path="url(#clip51)"><text fill="#003366" font-family="Roboto,Roboto_MSFontService,sans-serif" font-weight="400" font-size="73" transform="matrix(6.12323e-17 -1 1 6.12323e-17 449.646 2473)">DSNA</text></g><g clip-path="url(#clip52)"><text fill="#003366" font-family="Roboto,Roboto_MSFontService,sans-serif" font-weight="400" font-size="73" transform="matrix(6.12323e-17 -1 1 6.12323e-17 573.017 2477)">HCAA</text></g><g clip-path="url(#clip53)"><text fill="#003366" font-family="Roboto,Roboto_MSFontService,sans-serif" font-weight="400" font-size="73" transform="matrix(6.12323e-17 -1 1 6.12323e-17 696.388 2481)">MATS</text></g><g clip-path="url(#clip54)"><text fill="#003366" font-family="Roboto,Roboto_MSFontService,sans-serif" font-weight="400" font-size="73" transform="matrix(6.12323e-17 -1 1 6.12323e-17 819.759 3165)">NAV Portugal (Continental)</text></g><g clip-path="url(#clip55)"><text fill="#003366" font-family="Roboto,Roboto_MSFontService,sans-serif" font-weight="400" font-size="73" transform="matrix(6.12323e-17 -1 1 6.12323e-17 943.13 2470)">ENAV</text></g><g clip-path="url(#clip56)"><text fill="#003366" font-family="Roboto,Roboto_MSFontService,sans-serif" font-weight="400" font-size="73" transform="matrix(6.12323e-17 -1 1 6.12323e-17 1066.5 2587)">UkSATSE</text></g><g clip-path="url(#clip57)"><text fill="#003366" font-family="Roboto,Roboto_MSFontService,sans-serif" font-weight="400" font-size="73" transform="matrix(6.12323e-17 -1 1 6.12323e-17 1189.87 2986)">AVINOR (Continental)</text></g><g clip-path="url(#clip58)"><text fill="#003366" font-family="Roboto,Roboto_MSFontService,sans-serif" font-weight="400" font-size="73" transform="matrix(6.12323e-17 -1 1 6.12323e-17 1313.24 2911)">NATS (Continental)</text></g><g clip-path="url(#clip59)"><text fill="#003366" font-family="Roboto,Roboto_MSFontService,sans-serif" font-weight="400" font-size="73" transform="matrix(6.12323e-17 -1 1 6.12323e-17 1436.61 2408)">LFV</text></g><g clip-path="url(#clip60)"><text fill="#003366" font-family="Roboto,Roboto_MSFontService,sans-serif" font-weight="400" font-size="73" transform="matrix(6.12323e-17 -1 1 6.12323e-17 1559.99 2520)">PANSA</text></g><g clip-path="url(#clip61)"><text fill="#003366" font-family="Roboto,Roboto_MSFontService,sans-serif" font-weight="400" font-size="73" transform="matrix(6.12323e-17 -1 1 6.12323e-17 1683.36 2624)">ROMATSA</text></g><g clip-path="url(#clip62)"><text fill="#003366" font-family="Roboto,Roboto_MSFontService,sans-serif" font-weight="400" font-size="73" transform="matrix(6.12323e-17 -1 1 6.12323e-17 1806.73 2414)">DFS</text></g><g clip-path="url(#clip63)"><text fill="#003366" font-family="Roboto,Roboto_MSFontService,sans-serif" font-weight="400" font-size="73" transform="matrix(6.12323e-17 -1 1 6.12323e-17 1930.1 2397)">IAA</text></g><g clip-path="url(#clip64)"><text fill="#003366" font-family="Roboto,Roboto_MSFontService,sans-serif" font-weight="400" font-size="73" transform="matrix(6.12323e-17 -1 1 6.12323e-17 2053.47 2718)">DCAC Cyprus</text></g><g clip-path="url(#clip65)"><text fill="#003366" font-family="Roboto,Roboto_MSFontService,sans-serif" font-weight="400" font-size="73" transform="matrix(6.12323e-17 -1 1 6.12323e-17 2176.84 2682)">ANS Finland</text></g><g clip-path="url(#clip66)"><text fill="#003366" font-family="Roboto,Roboto_MSFontService,sans-serif" font-weight="400" font-size="73" transform="matrix(6.12323e-17 -1 1 6.12323e-17 2300.21 2572)">SMATSA</text></g><g clip-path="url(#clip67)"><text fill="#003366" font-family="Roboto,Roboto_MSFontService,sans-serif" font-weight="400" font-size="73" transform="matrix(6.12323e-17 -1 1 6.12323e-17 2423.58 2774)">Croatia Control</text></g><g clip-path="url(#clip68)"><text fill="#003366" font-family="Roboto,Roboto_MSFontService,sans-serif" font-weight="400" font-size="73" transform="matrix(6.12323e-17 -1 1 6.12323e-17 2546.96 3024)">SAKAERONAVIGATSIA</text></g><g clip-path="url(#clip69)"><text fill="#003366" font-family="Roboto,Roboto_MSFontService,sans-serif" font-weight="400" font-size="73" transform="matrix(6.12323e-17 -1 1 6.12323e-17 2670.33 2489)">MUAC</text></g><g clip-path="url(#clip70)"><text fill="#003366" font-family="Roboto,Roboto_MSFontService,sans-serif" font-weight="400" font-size="73" transform="matrix(6.12323e-17 -1 1 6.12323e-17 2793.7 2561)">NAVIAIR</text></g><g clip-path="url(#clip71)"><text fill="#003366" font-family="Roboto,Roboto_MSFontService,sans-serif" font-weight="400" font-size="73" transform="matrix(6.12323e-17 -1 1 6.12323e-17 2917.07 2467)">EANS</text></g><g clip-path="url(#clip72)"><text fill="#003366" font-family="Roboto,Roboto_MSFontService,sans-serif" font-weight="400" font-size="73" transform="matrix(6.12323e-17 -1 1 6.12323e-17 3040.44 2597)">BULATSA</text></g><g clip-path="url(#clip73)"><text fill="#003366" font-family="Roboto,Roboto_MSFontService,sans-serif" font-weight="400" font-size="73" transform="matrix(6.12323e-17 -1 1 6.12323e-17 3163.81 2536)">ANS CR</text></g><g clip-path="url(#clip74)"><text fill="#003366" font-family="Roboto,Roboto_MSFontService,sans-serif" font-weight="400" font-size="73" transform="matrix(6.12323e-17 -1 1 6.12323e-17 3287.18 2755)">Austro Control</text></g><g clip-path="url(#clip75)"><text fill="#003366" font-family="Roboto,Roboto_MSFontService,sans-serif" font-weight="400" font-size="73" transform="matrix(6.12323e-17 -1 1 6.12323e-17 3410.55 2415)">LGS</text></g><g clip-path="url(#clip76)"><text fill="#003366" font-family="Roboto,Roboto_MSFontService,sans-serif" font-weight="400" font-size="73" transform="matrix(6.12323e-17 -1 1 6.12323e-17 3533.92 2801)">HungaroControl</text></g><g clip-path="url(#clip77)"><text fill="#003366" font-family="Roboto,Roboto_MSFontService,sans-serif" font-weight="400" font-size="73" transform="matrix(6.12323e-17 -1 1 6.12323e-17 3657.3 2577)">Skyguide</text></g><g clip-path="url(#clip78)"><text fill="#003366" font-family="Roboto,Roboto_MSFontService,sans-serif" font-weight="400" font-size="73" transform="matrix(6.12323e-17 -1 1 6.12323e-17 3780.67 2460)">LVNL</text></g><g clip-path="url(#clip79)"><text fill="#003366" font-family="Roboto,Roboto_MSFontService,sans-serif" font-weight="400" font-size="73" transform="matrix(6.12323e-17 -1 1 6.12323e-17 3904.04 2757)">Oro Navigacija</text></g><g clip-path="url(#clip80)"><text fill="#003366" font-family="Roboto,Roboto_MSFontService,sans-serif" font-weight="400" font-size="73" transform="matrix(6.12323e-17 -1 1 6.12323e-17 4027.41 2574)">ARMATS</text></g><g clip-path="url(#clip81)"><text fill="#003366" font-family="Roboto,Roboto_MSFontService,sans-serif" font-weight="400" font-size="73" transform="matrix(6.12323e-17 -1 1 6.12323e-17 4150.78 2667)">MOLDATSA</text></g><g clip-path="url(#clip82)"><text fill="#003366" font-family="Roboto,Roboto_MSFontService,sans-serif" font-weight="400" font-size="73" transform="matrix(6.12323e-17 -1 1 6.12323e-17 4274.15 2618)">Albcontrol</text></g><g clip-path="url(#clip83)"><text fill="#003366" font-family="Roboto,Roboto_MSFontService,sans-serif" font-weight="400" font-size="73" transform="matrix(6.12323e-17 -1 1 6.12323e-17 4397.52 2411)">LPS</text></g><g clip-path="url(#clip84)"><text fill="#003366" font-family="Roboto,Roboto_MSFontService,sans-serif" font-weight="400" font-size="73" transform="matrix(6.12323e-17 -1 1 6.12323e-17 4520.89 2507)">skeyes</text></g><g clip-path="url(#clip85)"><text fill="#003366" font-family="Roboto,Roboto_MSFontService,sans-serif" font-weight="400" font-size="73" transform="matrix(6.12323e-17 -1 1 6.12323e-17 4644.27 2814)">Slovenia Control</text></g><g clip-path="url(#clip86)"><text fill="#003366" font-family="Roboto,Roboto_MSFontService,sans-serif" font-weight="400" font-size="73" transform="matrix(6.12323e-17 -1 1 6.12323e-17 4767.64 2513)">M-NAV</text></g><path d="M1737.5 502.5 1737.5 1230.6" stroke="#003366" stroke-width="9.16667" stroke-linejoin="round" stroke-miterlimit="10" stroke-dasharray="9.16667 9.16667" fill="none" fill-rule="evenodd"/><text fill="#003366" font-family="Roboto,Roboto_MSFontService,sans-serif" font-weight="700" font-size="73" transform="matrix(1 0 0 1 1770.24 546)">31 minutes:</text><text fill="#003366" font-family="Roboto,Roboto_MSFontService,sans-serif" font-weight="700" font-size="73" transform="matrix(1 0 0 1 1770.24 634)">European average</text></g></svg>