<svg width="2578" height="1477" xmlns="http://www.w3.org/2000/svg" xmlns:xlink="http://www.w3.org/1999/xlink" xml:space="preserve" overflow="hidden"><defs><clipPath id="clip0"><rect x="4204" y="1971" width="2578" height="1477"/></clipPath><clipPath id="clip1"><rect x="4204" y="1971" width="2578" height="1476"/></clipPath><clipPath id="clip2"><rect x="4254" y="2021" width="2481" height="1202"/></clipPath><clipPath id="clip3"><rect x="4254" y="2021" width="2481" height="1202"/></clipPath><clipPath id="clip4"><rect x="4254" y="2021" width="2481" height="1202"/></clipPath><clipPath id="clip5"><rect x="4254" y="2021" width="2481" height="1202"/></clipPath><clipPath id="clip6"><rect x="4204" y="1971" width="2578" height="1476"/></clipPath><clipPath id="clip7"><rect x="4204" y="1971" width="2578" height="1476"/></clipPath><clipPath id="clip8"><rect x="4204" y="1971" width="2578" height="1476"/></clipPath><clipPath id="clip9"><rect x="4204" y="1971" width="2578" height="1476"/></clipPath><clipPath id="clip10"><rect x="4204" y="1971" width="2578" height="1476"/></clipPath><clipPath id="clip11"><rect x="4204" y="1971" width="2578" height="1476"/></clipPath><clipPath id="clip12"><rect x="4204" y="1971" width="2578" height="1476"/></clipPath><clipPath id="clip13"><rect x="4204" y="1971" width="2578" height="1476"/></clipPath><clipPath id="clip14"><rect x="4204" y="1971" width="2578" height="1476"/></clipPath><clipPath id="clip15"><rect x="4204" y="1971" width="2578" height="1476"/></clipPath><clipPath id="clip16"><rect x="4204" y="1971" width="2578" height="1476"/></clipPath><clipPath id="clip17"><rect x="4204" y="1971" width="2578" height="1476"/></clipPath><clipPath id="clip18"><rect x="4204" y="1971" width="2578" height="1476"/></clipPath><clipPath id="clip19"><rect x="4204" y="1971" width="2578" height="1476"/></clipPath><clipPath id="clip20"><rect x="4204" y="1971" width="2578" height="1476"/></clipPath><clipPath id="clip21"><rect x="4204" y="1971" width="2578" height="1476"/></clipPath><clipPath id="clip22"><rect x="4204" y="1971" width="2578" height="1476"/></clipPath><clipPath id="clip23"><rect x="4204" y="1971" width="2578" height="1476"/></clipPath><clipPath id="clip24"><rect x="4204" y="1971" width="2578" height="1476"/></clipPath><clipPath id="clip25"><rect x="4204" y="1971" width="2578" height="1476"/></clipPath><clipPath id="clip26"><rect x="4204" y="1971" width="2578" height="1476"/></clipPath><clipPath id="clip27"><rect x="4204" y="1971" width="2578" height="1476"/></clipPath><clipPath id="clip28"><rect x="4204" y="1971" width="2578" height="1476"/></clipPath><clipPath id="clip29"><rect x="4204" y="1971" width="2578" height="1476"/></clipPath><clipPath id="clip30"><rect x="4204" y="1971" width="2578" height="1476"/></clipPath><clipPath id="clip31"><rect x="4204" y="1971" width="2578" height="1476"/></clipPath><clipPath id="clip32"><rect x="4204" y="1971" width="2578" height="1476"/></clipPath><clipPath id="clip33"><rect x="4204" y="1971" width="2578" height="1476"/></clipPath><clipPath id="clip34"><rect x="4204" y="1971" width="2578" height="1476"/></clipPath><clipPath id="clip35"><rect x="4204" y="1971" width="2578" height="1476"/></clipPath><clipPath id="clip36"><rect x="4204" y="1971" width="2578" height="1476"/></clipPath><clipPath id="clip37"><rect x="4204" y="1971" width="2578" height="1476"/></clipPath><clipPath id="clip38"><rect x="4204" y="1971" width="2578" height="1476"/></clipPath><clipPath id="clip39"><rect x="4204" y="1971" width="2578" height="1476"/></clipPath></defs><g clip-path="url(#clip0)" transform="translate(-4204 -1971)"><rect x="4204" y="1971" width="2578" height="1477" fill="#FFFFFF"/><g clip-path="url(#clip1)"><path d="M4254.5 3100.6 6731.5 3100.6M4254.5 2980.6 6731.5 2980.6M4254.5 2860.59 6731.5 2860.59M4254.5 2740.59 6731.5 2740.59M4254.5 2621.59 6731.5 2621.59M4254.5 2501.58 6731.5 2501.58M4254.5 2381.58 6731.5 2381.58M4254.5 2261.57 6731.5 2261.57M4254.5 2141.57 6731.5 2141.57M4254.5 2021.5 6731.5 2021.5" stroke="#D9D9D9" stroke-width="3.4375" stroke-linejoin="round" stroke-miterlimit="10" fill="none"/></g><g clip-path="url(#clip2)"><path d="M4332.14 2271.07 4403.14 2271.07 4403.14 3220 4332.14 3220ZM4827.16 2211.07 4898.16 2211.07 4898.16 3220 4827.16 3220ZM5323.17 2168.07 5394.18 2168.07 5394.18 3220 5323.17 3220ZM5818.19 2168.07 5889.19 2168.07 5889.19 3220 5818.19 3220ZM6314.21 2168.07 6384.21 2168.07 6384.21 3220 6314.21 3220Z" fill="#5985B1"/></g><g clip-path="url(#clip3)"><path d="M4422.15 2416.08 4493.15 2416.08 4493.15 3220 4422.15 3220ZM4917.16 2355.08 4988.16 2355.08 4988.16 3220 4917.16 3220ZM5413.18 2389.08 5483.18 2389.08 5483.18 3220 5413.18 3220ZM5908.19 2372.08 5979.2 2372.08 5979.2 3220 5908.19 3220ZM6403.21 2372.08 6474.21 2372.08 6474.21 3220 6403.21 3220Z" fill="#6399CE"/></g><g clip-path="url(#clip4)"><path d="M4512.15 2741.09 4582.15 2741.09 4582.15 3220 4512.15 3220ZM5007.16 2760.09 5078.17 2760.09 5078.17 3220 5007.16 3220ZM5502.18 2765.09 5573.18 2765.09 5573.18 3220 5502.18 3220ZM5998.2 2779.09 6069.2 2779.09 6069.2 3220 5998.2 3220ZM6493.21 2779.09 6564.22 2779.09 6564.22 3220 6493.21 3220Z" fill="#8BAFE0"/></g><g clip-path="url(#clip5)"><path d="M4602.15 3056.1 4672.15 3056.1 4672.15 3220 4602.15 3220ZM5097.17 3158.1 5168.17 3158.1 5168.17 3220 5097.17 3220ZM5592.18 3163.1 5663.19 3163.1 5663.19 3220 5592.18 3220ZM6088.2 3165.1 6159.2 3165.1 6159.2 3220 6088.2 3220ZM6583.22 3165.1 6654.22 3165.1 6654.22 3220 6583.22 3220Z" fill="#BFD1EB"/></g><g clip-path="url(#clip6)"><path d="M4254.5 3220.5 6731.5 3220.5" stroke="#D9D9D9" stroke-width="3.4375" stroke-linejoin="round" stroke-miterlimit="10" fill="none" fill-rule="evenodd"/></g><g clip-path="url(#clip7)"><text fill="#404040" font-family="Arial,Arial_MSFontService,sans-serif" font-weight="400" font-size="50" transform="matrix(1 0 0 1 4316.91 2239)">40%</text></g><g clip-path="url(#clip8)"><text fill="#404040" font-family="Arial,Arial_MSFontService,sans-serif" font-weight="400" font-size="50" transform="matrix(1 0 0 1 4812.37 2180)">42%</text></g><g clip-path="url(#clip9)"><text fill="#404040" font-family="Arial,Arial_MSFontService,sans-serif" font-weight="400" font-size="50" transform="matrix(1 0 0 1 5307.83 2136)">44%</text></g><g clip-path="url(#clip10)"><text fill="#404040" font-family="Arial,Arial_MSFontService,sans-serif" font-weight="400" font-size="50" transform="matrix(1 0 0 1 5803.29 2136)">44%</text></g><g clip-path="url(#clip11)"><text fill="#404040" font-family="Arial,Arial_MSFontService,sans-serif" font-weight="400" font-size="50" transform="matrix(1 0 0 1 6298.74 2136)">44%</text></g><g clip-path="url(#clip12)"><text fill="#404040" font-family="Arial,Arial_MSFontService,sans-serif" font-weight="400" font-size="50" transform="matrix(1 0 0 1 4406.8 2385)">34%</text></g><g clip-path="url(#clip13)"><text fill="#404040" font-family="Arial,Arial_MSFontService,sans-serif" font-weight="400" font-size="50" transform="matrix(1 0 0 1 4902.26 2323)">36%</text></g><g clip-path="url(#clip14)"><text fill="#404040" font-family="Arial,Arial_MSFontService,sans-serif" font-weight="400" font-size="50" transform="matrix(1 0 0 1 5397.72 2357)">35%</text></g><g clip-path="url(#clip15)"><text fill="#404040" font-family="Arial,Arial_MSFontService,sans-serif" font-weight="400" font-size="50" transform="matrix(1 0 0 1 5893.18 2340)">35%</text></g><g clip-path="url(#clip16)"><text fill="#404040" font-family="Arial,Arial_MSFontService,sans-serif" font-weight="400" font-size="50" transform="matrix(1 0 0 1 6388.63 2340)">35%</text></g><g clip-path="url(#clip17)"><text fill="#404040" font-family="Arial,Arial_MSFontService,sans-serif" font-weight="400" font-size="50" transform="matrix(1 0 0 1 4496.69 2710)">20%</text></g><g clip-path="url(#clip18)"><text fill="#404040" font-family="Arial,Arial_MSFontService,sans-serif" font-weight="400" font-size="50" transform="matrix(1 0 0 1 4992.15 2729)">19%</text></g><g clip-path="url(#clip19)"><text fill="#404040" font-family="Arial,Arial_MSFontService,sans-serif" font-weight="400" font-size="50" transform="matrix(1 0 0 1 5487.61 2733)">19%</text></g><g clip-path="url(#clip20)"><text fill="#404040" font-family="Arial,Arial_MSFontService,sans-serif" font-weight="400" font-size="50" transform="matrix(1 0 0 1 5983.07 2748)">18%</text></g><g clip-path="url(#clip21)"><text fill="#404040" font-family="Arial,Arial_MSFontService,sans-serif" font-weight="400" font-size="50" transform="matrix(1 0 0 1 6478.52 2748)">18%</text></g><g clip-path="url(#clip22)"><text fill="#404040" font-family="Arial,Arial_MSFontService,sans-serif" font-weight="400" font-size="50" transform="matrix(1 0 0 1 4600.61 3025)">7%</text></g><g clip-path="url(#clip23)"><text fill="#404040" font-family="Arial,Arial_MSFontService,sans-serif" font-weight="400" font-size="50" transform="matrix(1 0 0 1 5096.06 3127)">3%</text></g><g clip-path="url(#clip24)"><text fill="#404040" font-family="Arial,Arial_MSFontService,sans-serif" font-weight="400" font-size="50" transform="matrix(1 0 0 1 5591.52 3131)">2%</text></g><g clip-path="url(#clip25)"><text fill="#404040" font-family="Arial,Arial_MSFontService,sans-serif" font-weight="400" font-size="50" transform="matrix(1 0 0 1 6086.98 3134)">2%</text></g><g clip-path="url(#clip26)"><text fill="#404040" font-family="Arial,Arial_MSFontService,sans-serif" font-weight="400" font-size="50" transform="matrix(1 0 0 1 6582.44 3134)">2%</text></g><g clip-path="url(#clip27)"><text fill="#595959" font-family="Arial,Arial_MSFontService,sans-serif" font-weight="400" font-size="50" transform="matrix(1 0 0 1 4446.11 3297)">2015</text></g><g clip-path="url(#clip28)"><text fill="#595959" font-family="Arial,Arial_MSFontService,sans-serif" font-weight="400" font-size="50" transform="matrix(1 0 0 1 4941.57 3297)">2016</text></g><g clip-path="url(#clip29)"><text fill="#595959" font-family="Arial,Arial_MSFontService,sans-serif" font-weight="400" font-size="50" transform="matrix(1 0 0 1 5437.02 3297)">2017</text></g><g clip-path="url(#clip30)"><text fill="#595959" font-family="Arial,Arial_MSFontService,sans-serif" font-weight="400" font-size="50" transform="matrix(1 0 0 1 5932.48 3297)">2018</text></g><g clip-path="url(#clip31)"><text fill="#595959" font-family="Arial,Arial_MSFontService,sans-serif" font-weight="400" font-size="50" transform="matrix(1 0 0 1 6427.94 3297)">2019</text></g><g clip-path="url(#clip32)"><rect x="4818" y="3366" width="25" height="25" fill="#5985B1"/></g><g clip-path="url(#clip33)"><text fill="#595959" font-family="Arial,Arial_MSFontService,sans-serif" font-weight="400" font-size="50" transform="matrix(1 0 0 1 4854.44 3395)">Holidays</text></g><g clip-path="url(#clip34)"><rect x="5112" y="3366" width="25" height="25" fill="#6399CE"/></g><g clip-path="url(#clip35)"><text fill="#595959" font-family="Arial,Arial_MSFontService,sans-serif" font-weight="400" font-size="50" transform="matrix(1 0 0 1 5147.89 3395)">Visiting friends/relatives</text></g><g clip-path="url(#clip36)"><rect x="5741" y="3366" width="26" height="25" fill="#8BAFE0"/></g><g clip-path="url(#clip37)"><text fill="#595959" font-family="Arial,Arial_MSFontService,sans-serif" font-weight="400" font-size="50" transform="matrix(1 0 0 1 5777.65 3395)">Business</text></g><g clip-path="url(#clip38)"><rect x="6046" y="3366" width="25" height="25" fill="#BFD1EB"/></g><g clip-path="url(#clip39)"><text fill="#595959" font-family="Arial,Arial_MSFontService,sans-serif" font-weight="400" font-size="50" transform="matrix(1 0 0 1 6082.31 3395)">Misc</text></g></g></svg>