<svg width="2578" height="1477" xmlns="http://www.w3.org/2000/svg" xmlns:xlink="http://www.w3.org/1999/xlink" xml:space="preserve" overflow="hidden"><defs><clipPath id="clip0"><rect x="4204" y="1971" width="2578" height="1477"/></clipPath></defs><g clip-path="url(#clip0)" transform="translate(-4204 -1971)"><rect x="4204" y="1971" width="2578" height="1477" fill="#FFFFFF"/><g><path d="M4401.5 3052.6 6245.5 3052.6M4401.5 2794.59 6245.5 2794.59M4401.5 2536.58 6245.5 2536.58M4401.5 2278.57 6245.5 2278.57M4401.5 2020.5 6245.5 2020.5" stroke="#D9D9D9" stroke-width="3.4375" stroke-linejoin="round" stroke-miterlimit="10" fill="none"/></g><g><path d="M4422.15 2288.07 4504.15 2288.07 4504.15 3311 4422.15 3311ZM4791.16 2224.07 4872.16 2224.07 4872.16 3311 4791.16 3311ZM5159.17 2178.07 5241.17 2178.07 5241.17 3311 5159.17 3311ZM5528.18 2178.07 5610.18 2178.07 5610.18 3311 5528.18 3311ZM5897.19 2178.07 5979.2 2178.07 5979.2 3311 5897.19 3311Z" fill="#4F81BD"/></g><g><path d="M4504.15 2445.08 4586.15 2445.08 4586.15 3311 4504.15 3311ZM4872.16 2379.08 4954.16 2379.08 4954.16 3311 4872.16 3311ZM5241.17 2415.08 5323.17 2415.08 5323.17 3311 5241.17 3311ZM5610.18 2397.08 5692.19 2397.08 5692.19 3311 5610.18 3311ZM5979.2 2397.08 6061.2 2397.08 6061.2 3311 5979.2 3311Z" fill="#BFD1EB"/></g><g><path d="M4586.15 2795.09 4668.15 2795.09 4668.15 3311 4586.15 3311ZM4954.16 2815.09 5036.17 2815.09 5036.17 3311 4954.16 3311ZM5323.17 2821.09 5405.18 2821.09 5405.18 3311 5323.17 3311ZM5692.19 2836.09 5774.19 2836.09 5774.19 3311 5692.19 3311ZM6061.2 2836.09 6143.2 2836.09 6143.2 3311 6061.2 3311Z" fill="#B3D235"/></g><g><path d="M4668.15 3134.1 4750.16 3134.1 4750.16 3311 4668.15 3311ZM5036.17 3244.11 5118.17 3244.11 5118.17 3311 5036.17 3311ZM5405.18 3249.11 5487.18 3249.11 5487.18 3311 5405.18 3311ZM5774.19 3251.11 5856.19 3251.11 5856.19 3311 5774.19 3311ZM6143.2 3251.11 6225.2 3251.11 6225.2 3311 6143.2 3311Z" fill="#00A29E"/></g><g><path d="M4401.5 3310.5 6245.5 3310.5" stroke="#D9D9D9" stroke-width="3.4375" stroke-linejoin="round" stroke-miterlimit="10" fill="none" fill-rule="evenodd"/></g><g><text fill="#FFFFFF" font-family="Calibri,Calibri_MSFontService,sans-serif" font-weight="400" font-size="64" transform="matrix(6.12323e-17 -1 1 6.12323e-17 4484.63 3283)">40%</text></g><g><text fill="#FFFFFF" font-family="Calibri,Calibri_MSFontService,sans-serif" font-weight="400" font-size="64" transform="matrix(6.12323e-17 -1 1 6.12323e-17 4853.51 3283)">42%</text></g><g><text fill="#FFFFFF" font-family="Calibri,Calibri_MSFontService,sans-serif" font-weight="400" font-size="64" transform="matrix(6.12323e-17 -1 1 6.12323e-17 5222.39 3283)">44%</text></g><g><text fill="#FFFFFF" font-family="Calibri,Calibri_MSFontService,sans-serif" font-weight="400" font-size="64" transform="matrix(6.12323e-17 -1 1 6.12323e-17 5591.27 3283)">44%</text></g><g><text fill="#FFFFFF" font-family="Calibri,Calibri_MSFontService,sans-serif" font-weight="400" font-size="64" transform="matrix(6.12323e-17 -1 1 6.12323e-17 5960.15 3283)">44%</text></g><g><text fill="#404040" font-family="Calibri,Calibri_MSFontService,sans-serif" font-weight="400" font-size="64" transform="matrix(6.12323e-17 -1 1 6.12323e-17 4566.6 3283)">34%</text></g><g><text fill="#404040" font-family="Calibri,Calibri_MSFontService,sans-serif" font-weight="400" font-size="64" transform="matrix(6.12323e-17 -1 1 6.12323e-17 4935.49 3283)">36%</text></g><g><text fill="#404040" font-family="Calibri,Calibri_MSFontService,sans-serif" font-weight="400" font-size="64" transform="matrix(6.12323e-17 -1 1 6.12323e-17 5304.37 3283)">35%</text></g><g><text fill="#404040" font-family="Calibri,Calibri_MSFontService,sans-serif" font-weight="400" font-size="64" transform="matrix(6.12323e-17 -1 1 6.12323e-17 5673.25 3283)">35%</text></g><g><text fill="#404040" font-family="Calibri,Calibri_MSFontService,sans-serif" font-weight="400" font-size="64" transform="matrix(6.12323e-17 -1 1 6.12323e-17 6042.13 3283)">35%</text></g><g><text fill="#FFFFFF" font-family="Calibri,Calibri_MSFontService,sans-serif" font-weight="400" font-size="64" transform="matrix(6.12323e-17 -1 1 6.12323e-17 4648.58 3283)">20%</text></g><g><text fill="#FFFFFF" font-family="Calibri,Calibri_MSFontService,sans-serif" font-weight="400" font-size="64" transform="matrix(6.12323e-17 -1 1 6.12323e-17 5017.46 3283)">19%</text></g><g><text fill="#FFFFFF" font-family="Calibri,Calibri_MSFontService,sans-serif" font-weight="400" font-size="64" transform="matrix(6.12323e-17 -1 1 6.12323e-17 5386.34 3283)">19%</text></g><g><text fill="#FFFFFF" font-family="Calibri,Calibri_MSFontService,sans-serif" font-weight="400" font-size="64" transform="matrix(6.12323e-17 -1 1 6.12323e-17 5755.22 3283)">18%</text></g><g><text fill="#FFFFFF" font-family="Calibri,Calibri_MSFontService,sans-serif" font-weight="400" font-size="64" transform="matrix(6.12323e-17 -1 1 6.12323e-17 6124.1 3283)">18%</text></g><g><text fill="#FFFFFF" font-family="Calibri,Calibri_MSFontService,sans-serif" font-weight="400" font-size="64" transform="matrix(6.12323e-17 -1 1 6.12323e-17 4730.55 3283)">7%</text></g><g><text fill="#404040" font-family="Calibri,Calibri_MSFontService,sans-serif" font-weight="400" font-size="64" transform="matrix(6.12323e-17 -1 1 6.12323e-17 5099.43 3283)">3%</text></g><g><text fill="#404040" font-family="Calibri,Calibri_MSFontService,sans-serif" font-weight="400" font-size="64" transform="matrix(6.12323e-17 -1 1 6.12323e-17 5468.31 3283)">2%</text></g><g><text fill="#404040" font-family="Calibri,Calibri_MSFontService,sans-serif" font-weight="400" font-size="64" transform="matrix(6.12323e-17 -1 1 6.12323e-17 5837.19 3283)">2%</text></g><g><text fill="#404040" font-family="Calibri,Calibri_MSFontService,sans-serif" font-weight="400" font-size="64" transform="matrix(6.12323e-17 -1 1 6.12323e-17 6206.08 3283)">2%</text></g><g><text fill="#404040" font-family="Calibri,Calibri_MSFontService,sans-serif" font-weight="400" font-size="64" transform="matrix(1 0 0 1 4263.38 3329)">0%</text></g><g><text fill="#404040" font-family="Calibri,Calibri_MSFontService,sans-serif" font-weight="400" font-size="64" transform="matrix(1 0 0 1 4230.86 3071)">10%</text></g><g><text fill="#404040" font-family="Calibri,Calibri_MSFontService,sans-serif" font-weight="400" font-size="64" transform="matrix(1 0 0 1 4230.86 2813)">20%</text></g><g><text fill="#404040" font-family="Calibri,Calibri_MSFontService,sans-serif" font-weight="400" font-size="64" transform="matrix(1 0 0 1 4230.86 2555)">30%</text></g><g><text fill="#404040" font-family="Calibri,Calibri_MSFontService,sans-serif" font-weight="400" font-size="64" transform="matrix(1 0 0 1 4230.86 2297)">40%</text></g><g><text fill="#404040" font-family="Calibri,Calibri_MSFontService,sans-serif" font-weight="400" font-size="64" transform="matrix(1 0 0 1 4230.86 2039)">50%</text></g><g><text fill="#404040" font-family="Calibri,Calibri_MSFontService,sans-serif" font-weight="400" font-size="64" transform="matrix(1 0 0 1 4520.71 3413)">2015</text></g><g><text fill="#404040" font-family="Calibri,Calibri_MSFontService,sans-serif" font-weight="400" font-size="64" transform="matrix(1 0 0 1 4889.59 3413)">2016</text></g><g><text fill="#404040" font-family="Calibri,Calibri_MSFontService,sans-serif" font-weight="400" font-size="64" transform="matrix(1 0 0 1 5258.48 3413)">2017</text></g><g><text fill="#404040" font-family="Calibri,Calibri_MSFontService,sans-serif" font-weight="400" font-size="64" transform="matrix(1 0 0 1 5627.36 3413)">2018</text></g><g><text fill="#404040" font-family="Calibri,Calibri_MSFontService,sans-serif" font-weight="400" font-size="64" transform="matrix(1 0 0 1 5996.24 3413)">2019</text></g><g><rect x="6253" y="2531" width="529" height="785" fill="#F2F2F2"/></g><g><rect x="6290" y="2573" width="35" height="35" fill="#4F81BD"/></g><g><text fill="#404040" font-family="Calibri,Calibri_MSFontService,sans-serif" font-weight="400" font-size="64" transform="matrix(1 0 0 1 6340.87 2609)">Holidays</text></g><g><rect x="6290" y="2769" width="35" height="35" fill="#BFD1EB"/></g><g><text fill="#404040" font-family="Calibri,Calibri_MSFontService,sans-serif" font-weight="400" font-size="64" transform="matrix(1 0 0 1 6340.87 2805)">Visiting</text></g><g><text fill="#404040" font-family="Calibri,Calibri_MSFontService,sans-serif" font-weight="400" font-size="64" transform="matrix(1 0 0 1 6340.87 2883)">friends/relatives</text></g><g><rect x="6290" y="2965" width="35" height="35" fill="#B3D235"/></g><g><text fill="#404040" font-family="Calibri,Calibri_MSFontService,sans-serif" font-weight="400" font-size="64" transform="matrix(1 0 0 1 6340.87 3001)">Business</text></g><g><rect x="6290" y="3161" width="35" height="34.9998" fill="#00A29E"/></g><g><text fill="#404040" font-family="Calibri,Calibri_MSFontService,sans-serif" font-weight="400" font-size="64" transform="matrix(1 0 0 1 6340.87 3197)">Miscellaneous</text></g></g></svg>