<svg width="2999" height="2007" xmlns="http://www.w3.org/2000/svg" xmlns:xlink="http://www.w3.org/1999/xlink" xml:space="preserve" overflow="hidden"><defs><clipPath id="clip0"><rect x="468" y="213" width="2999" height="2007"/></clipPath></defs><g clip-path="url(#clip0)" transform="translate(-468 -213)"><rect x="475" y="220" width="2985" height="1993" stroke="#203864" stroke-width="13.75" stroke-miterlimit="8" fill="none"/><text fill="#203864" font-family="Calibri Light,Calibri Light_MSFontService,sans-serif" font-weight="700" font-size="92" transform="matrix(1 0 0 1 539.601 328)">Ground time</text><text font-family="Calibri Light,Calibri Light_MSFontService,sans-serif" font-weight="300" font-size="73" transform="matrix(1 0 0 1 539.601 471)">T</text><text font-family="Calibri Light,Calibri Light_MSFontService,sans-serif" font-weight="300" font-size="73" transform="matrix(1 0 0 1 575.122 471)">ime between “in block” and “off block” </text><text font-family="Calibri Light,Calibri Light_MSFontService,sans-serif" font-weight="300" font-size="73" transform="matrix(1 0 0 1 539.601 586)">Includes overnight stops</text><text font-family="Calibri Light,Calibri Light_MSFontService,sans-serif" font-weight="300" font-size="73" transform="matrix(1 0 0 1 539.601 702)">Includes maintenance windows of aircraft</text><rect x="678" y="745" width="2701" height="1389" stroke="#2F5597" stroke-width="13.75" stroke-miterlimit="8" fill="none"/><text fill="#203864" font-family="Calibri Light,Calibri Light_MSFontService,sans-serif" font-weight="700" font-size="92" transform="matrix(1 0 0 1 769.11 869)">Turnaround time</text><text font-family="Calibri Light,Calibri Light_MSFontService,sans-serif" font-weight="300" font-size="73" transform="matrix(1 0 0 1 769.11 1017)">T</text><text font-family="Calibri Light,Calibri Light_MSFontService,sans-serif" font-weight="300" font-size="73" transform="matrix(1 0 0 1 804.631 1017)">ime between “in block” and “off block” </text><text font-family="Calibri Light,Calibri Light_MSFontService,sans-serif" font-weight="300" font-size="73" transform="matrix(1 0 0 1 769.11 1132)">Maximum </text><text font-family="Calibri Light,Calibri Light_MSFontService,sans-serif" font-weight="300" font-size="73" transform="matrix(1 0 0 1 1082.36 1132)">cut off time for wake turbulence category H (</text><text font-family="Calibri Light,Calibri Light_MSFontService,sans-serif" font-weight="300" font-size="73" transform="matrix(1 0 0 1 2399.7 1132)">Heavy</text><text font-family="Calibri Light,Calibri Light_MSFontService,sans-serif" font-weight="300" font-size="73" transform="matrix(1 0 0 1 2578.7 1132)">): 180 minutes and for M </text><text font-family="Calibri Light,Calibri Light_MSFontService,sans-serif" font-weight="300" font-size="73" transform="matrix(1 0 0 1 769.11 1220)">(Medium) 150 </text><text font-family="Calibri Light,Calibri Light_MSFontService,sans-serif" font-weight="300" font-size="73" transform="matrix(1 0 0 1 1206.25 1220)">minutes</text><text font-family="Calibri Light,Calibri Light_MSFontService,sans-serif" font-weight="300" font-size="73" transform="matrix(1 0 0 1 769.11 1336)">Includes </text><text font-family="Calibri Light,Calibri Light_MSFontService,sans-serif" font-weight="300" font-size="73" transform="matrix(1 0 0 1 1030.36 1336)">waiting at gate for push</text><text font-family="Calibri Light,Calibri Light_MSFontService,sans-serif" font-weight="300" font-size="73" transform="matrix(1 0 0 1 1721.34 1336)">-</text><text font-family="Calibri Light,Calibri Light_MSFontService,sans-serif" font-weight="300" font-size="73" transform="matrix(1 0 0 1 1743.69 1336)">back due to local or Network regulations (ATFM delay</text><text font-family="Calibri Light,Calibri Light_MSFontService,sans-serif" font-weight="300" font-size="73" transform="matrix(1 0 0 1 3310.61 1336)">)</text><rect x="884" y="1374" width="2404" height="673" stroke="#8FAADC" stroke-width="13.75" stroke-miterlimit="8" fill="none"/><text fill="#2F5597" font-family="Calibri Light,Calibri Light_MSFontService,sans-serif" font-weight="700" font-size="92" transform="matrix(1 0 0 1 948.657 1447)">Ground handling time </text><text font-family="Calibri Light,Calibri Light_MSFontService,sans-serif" font-weight="300" font-size="73" transform="matrix(1 0 0 1 948.657 1595)">Servicing of an aircraft while it is on the ground and (usually) parked at a </text><text font-family="Calibri Light,Calibri Light_MSFontService,sans-serif" font-weight="300" font-size="73" transform="matrix(1 0 0 1 948.657 1683)">terminal gate of an </text><text font-family="Calibri Light,Calibri Light_MSFontService,sans-serif" font-weight="300" font-size="73" transform="matrix(1 0 0 1 1521.44 1683)">airport</text><text font-family="Calibri Light,Calibri Light_MSFontService,sans-serif" font-weight="300" font-size="73" transform="matrix(1 0 0 1 948.657 1798)">Tasks </text><text font-family="Calibri Light,Calibri Light_MSFontService,sans-serif" font-weight="300" font-size="73" transform="matrix(1 0 0 1 1118.1 1798)">include:</text><text font-family="Calibri Light,Calibri Light_MSFontService,sans-serif" font-weight="300" font-size="73" transform="matrix(1 0 0 1 1368.47 1798)">disembarkation, cabin cleaning, loading and ramp handling, </text><text font-family="Calibri Light,Calibri Light_MSFontService,sans-serif" font-weight="300" font-size="73" transform="matrix(1 0 0 1 948.657 1886)">inspection of airline and aeroplane and SOPM (safety check), refuelling, </text><text font-family="Calibri Light,Calibri Light_MSFontService,sans-serif" font-weight="300" font-size="73" transform="matrix(1 0 0 1 948.657 1974)">catering, loading of luggage and goods, passenger </text><text font-family="Calibri Light,Calibri Light_MSFontService,sans-serif" font-weight="300" font-size="73" transform="matrix(1 0 0 1 2430.08 1974)">boarding</text></g></svg>